G04 #@! TF.GenerationSoftware,KiCad,Pcbnew,(5.0.2)-1*
G04 #@! TF.CreationDate,2019-07-21T18:19:00-05:00*
G04 #@! TF.ProjectId,arduino_uno,61726475-696e-46f5-9f75-6e6f2e6b6963,rev?*
G04 #@! TF.SameCoordinates,Original*
G04 #@! TF.FileFunction,Copper,L2,Bot*
G04 #@! TF.FilePolarity,Positive*
%FSLAX46Y46*%
G04 Gerber Fmt 4.6, Leading zero omitted, Abs format (unit mm)*
G04 Created by KiCad (PCBNEW (5.0.2)-1) date 7/21/2019 6:19:00 PM*
%MOMM*%
%LPD*%
G01*
G04 APERTURE LIST*
G04 #@! TA.AperFunction,Conductor*
%ADD10C,0.100000*%
G04 #@! TD*
G04 #@! TA.AperFunction,ComponentPad*
%ADD11C,3.500000*%
G04 #@! TD*
G04 #@! TA.AperFunction,ComponentPad*
%ADD12C,3.000000*%
G04 #@! TD*
G04 #@! TA.AperFunction,ComponentPad*
%ADD13R,3.500000X3.500000*%
G04 #@! TD*
G04 #@! TA.AperFunction,ComponentPad*
%ADD14R,1.700000X1.700000*%
G04 #@! TD*
G04 #@! TA.AperFunction,ComponentPad*
%ADD15O,1.700000X1.700000*%
G04 #@! TD*
G04 #@! TA.AperFunction,ComponentPad*
%ADD16C,1.700000*%
G04 #@! TD*
G04 #@! TA.AperFunction,ComponentPad*
%ADD17C,1.000000*%
G04 #@! TD*
G04 #@! TA.AperFunction,ViaPad*
%ADD18C,0.800000*%
G04 #@! TD*
G04 #@! TA.AperFunction,ViaPad*
%ADD19C,1.200000*%
G04 #@! TD*
G04 #@! TA.AperFunction,Conductor*
%ADD20C,1.000000*%
G04 #@! TD*
G04 #@! TA.AperFunction,Conductor*
%ADD21C,0.250000*%
G04 #@! TD*
G04 #@! TA.AperFunction,Conductor*
%ADD22C,0.254000*%
G04 #@! TD*
G04 APERTURE END LIST*
D10*
G04 #@! TO.N,Net-(J1-Pad3)*
G04 #@! TO.C,J1*
G36*
X125360765Y-118154213D02*
X125445704Y-118166813D01*
X125528999Y-118187677D01*
X125609848Y-118216605D01*
X125687472Y-118253319D01*
X125761124Y-118297464D01*
X125830094Y-118348616D01*
X125893718Y-118406282D01*
X125951384Y-118469906D01*
X126002536Y-118538876D01*
X126046681Y-118612528D01*
X126083395Y-118690152D01*
X126112323Y-118771001D01*
X126133187Y-118854296D01*
X126145787Y-118939235D01*
X126150000Y-119025000D01*
X126150000Y-120775000D01*
X126145787Y-120860765D01*
X126133187Y-120945704D01*
X126112323Y-121028999D01*
X126083395Y-121109848D01*
X126046681Y-121187472D01*
X126002536Y-121261124D01*
X125951384Y-121330094D01*
X125893718Y-121393718D01*
X125830094Y-121451384D01*
X125761124Y-121502536D01*
X125687472Y-121546681D01*
X125609848Y-121583395D01*
X125528999Y-121612323D01*
X125445704Y-121633187D01*
X125360765Y-121645787D01*
X125275000Y-121650000D01*
X123525000Y-121650000D01*
X123439235Y-121645787D01*
X123354296Y-121633187D01*
X123271001Y-121612323D01*
X123190152Y-121583395D01*
X123112528Y-121546681D01*
X123038876Y-121502536D01*
X122969906Y-121451384D01*
X122906282Y-121393718D01*
X122848616Y-121330094D01*
X122797464Y-121261124D01*
X122753319Y-121187472D01*
X122716605Y-121109848D01*
X122687677Y-121028999D01*
X122666813Y-120945704D01*
X122654213Y-120860765D01*
X122650000Y-120775000D01*
X122650000Y-119025000D01*
X122654213Y-118939235D01*
X122666813Y-118854296D01*
X122687677Y-118771001D01*
X122716605Y-118690152D01*
X122753319Y-118612528D01*
X122797464Y-118538876D01*
X122848616Y-118469906D01*
X122906282Y-118406282D01*
X122969906Y-118348616D01*
X123038876Y-118297464D01*
X123112528Y-118253319D01*
X123190152Y-118216605D01*
X123271001Y-118187677D01*
X123354296Y-118166813D01*
X123439235Y-118154213D01*
X123525000Y-118150000D01*
X125275000Y-118150000D01*
X125360765Y-118154213D01*
X125360765Y-118154213D01*
G37*
D11*
G04 #@! TD*
G04 #@! TO.P,J1,3*
G04 #@! TO.N,Net-(J1-Pad3)*
X124400000Y-119900000D03*
D10*
G04 #@! TO.N,GND*
G04 #@! TO.C,J1*
G36*
X122223513Y-113453611D02*
X122296318Y-113464411D01*
X122367714Y-113482295D01*
X122437013Y-113507090D01*
X122503548Y-113538559D01*
X122566678Y-113576398D01*
X122625795Y-113620242D01*
X122680330Y-113669670D01*
X122729758Y-113724205D01*
X122773602Y-113783322D01*
X122811441Y-113846452D01*
X122842910Y-113912987D01*
X122867705Y-113982286D01*
X122885589Y-114053682D01*
X122896389Y-114126487D01*
X122900000Y-114200000D01*
X122900000Y-116200000D01*
X122896389Y-116273513D01*
X122885589Y-116346318D01*
X122867705Y-116417714D01*
X122842910Y-116487013D01*
X122811441Y-116553548D01*
X122773602Y-116616678D01*
X122729758Y-116675795D01*
X122680330Y-116730330D01*
X122625795Y-116779758D01*
X122566678Y-116823602D01*
X122503548Y-116861441D01*
X122437013Y-116892910D01*
X122367714Y-116917705D01*
X122296318Y-116935589D01*
X122223513Y-116946389D01*
X122150000Y-116950000D01*
X120650000Y-116950000D01*
X120576487Y-116946389D01*
X120503682Y-116935589D01*
X120432286Y-116917705D01*
X120362987Y-116892910D01*
X120296452Y-116861441D01*
X120233322Y-116823602D01*
X120174205Y-116779758D01*
X120119670Y-116730330D01*
X120070242Y-116675795D01*
X120026398Y-116616678D01*
X119988559Y-116553548D01*
X119957090Y-116487013D01*
X119932295Y-116417714D01*
X119914411Y-116346318D01*
X119903611Y-116273513D01*
X119900000Y-116200000D01*
X119900000Y-114200000D01*
X119903611Y-114126487D01*
X119914411Y-114053682D01*
X119932295Y-113982286D01*
X119957090Y-113912987D01*
X119988559Y-113846452D01*
X120026398Y-113783322D01*
X120070242Y-113724205D01*
X120119670Y-113669670D01*
X120174205Y-113620242D01*
X120233322Y-113576398D01*
X120296452Y-113538559D01*
X120362987Y-113507090D01*
X120432286Y-113482295D01*
X120503682Y-113464411D01*
X120576487Y-113453611D01*
X120650000Y-113450000D01*
X122150000Y-113450000D01*
X122223513Y-113453611D01*
X122223513Y-113453611D01*
G37*
D12*
G04 #@! TD*
G04 #@! TO.P,J1,2*
G04 #@! TO.N,GND*
X121400000Y-115200000D03*
D13*
G04 #@! TO.P,J1,1*
G04 #@! TO.N,Net-(D2-Pad2)*
X127400000Y-115200000D03*
G04 #@! TD*
D14*
G04 #@! TO.P,J2,1*
G04 #@! TO.N,/D12*
X180438100Y-92893600D03*
D15*
G04 #@! TO.P,J2,2*
G04 #@! TO.N,5V*
X182978100Y-92893600D03*
G04 #@! TO.P,J2,3*
G04 #@! TO.N,/D13*
X180438100Y-95433600D03*
G04 #@! TO.P,J2,4*
G04 #@! TO.N,/D11*
X182978100Y-95433600D03*
G04 #@! TO.P,J2,5*
G04 #@! TO.N,RST*
X180438100Y-97973600D03*
G04 #@! TO.P,J2,6*
G04 #@! TO.N,GND*
X182978100Y-97973600D03*
G04 #@! TD*
G04 #@! TO.P,J3,6*
G04 #@! TO.N,RAW*
X162531100Y-120833600D03*
G04 #@! TO.P,J3,5*
G04 #@! TO.N,GND*
X159991100Y-120833600D03*
G04 #@! TO.P,J3,4*
X157451100Y-120833600D03*
G04 #@! TO.P,J3,3*
G04 #@! TO.N,5V*
X154911100Y-120833600D03*
G04 #@! TO.P,J3,2*
G04 #@! TO.N,3V3*
X152371100Y-120833600D03*
D14*
G04 #@! TO.P,J3,1*
G04 #@! TO.N,RST*
X149831100Y-120833600D03*
G04 #@! TD*
G04 #@! TO.P,J5,1*
G04 #@! TO.N,/D8*
X158467100Y-72573600D03*
D15*
G04 #@! TO.P,J5,2*
G04 #@! TO.N,/D9*
X155927100Y-72573600D03*
G04 #@! TO.P,J5,3*
G04 #@! TO.N,/D10*
X153387100Y-72573600D03*
G04 #@! TO.P,J5,4*
G04 #@! TO.N,/D11*
X150847100Y-72573600D03*
G04 #@! TO.P,J5,5*
G04 #@! TO.N,/D12*
X148307100Y-72573600D03*
G04 #@! TO.P,J5,6*
G04 #@! TO.N,/D13*
X145767100Y-72573600D03*
G04 #@! TO.P,J5,7*
G04 #@! TO.N,GND*
X143227100Y-72573600D03*
G04 #@! TO.P,J5,8*
G04 #@! TO.N,AREF*
X140687100Y-72573600D03*
G04 #@! TD*
D14*
G04 #@! TO.P,J6,1*
G04 #@! TO.N,GND*
X182943500Y-103441500D03*
D15*
G04 #@! TO.P,J6,2*
G04 #@! TO.N,5V*
X182943500Y-105981500D03*
G04 #@! TO.P,J6,3*
G04 #@! TO.N,/A4*
X182943500Y-108521500D03*
G04 #@! TO.P,J6,4*
G04 #@! TO.N,/A5*
X182943500Y-111061500D03*
G04 #@! TD*
D14*
G04 #@! TO.P,J7,1*
G04 #@! TO.N,/A0*
X167611100Y-120833600D03*
D15*
G04 #@! TO.P,J7,2*
G04 #@! TO.N,/A1*
X170151100Y-120833600D03*
G04 #@! TO.P,J7,3*
G04 #@! TO.N,/A2*
X172691100Y-120833600D03*
G04 #@! TO.P,J7,4*
G04 #@! TO.N,/A3*
X175231100Y-120833600D03*
G04 #@! TO.P,J7,5*
G04 #@! TO.N,/A4*
X177771100Y-120833600D03*
G04 #@! TO.P,J7,6*
G04 #@! TO.N,/A5*
X180311100Y-120833600D03*
G04 #@! TD*
D14*
G04 #@! TO.P,J8,1*
G04 #@! TO.N,Net-(F1-Pad2)*
X125331100Y-86523600D03*
D16*
G04 #@! TO.P,J8,2*
G04 #@! TO.N,Net-(J8-Pad2)*
X125331100Y-84023600D03*
G04 #@! TO.P,J8,3*
G04 #@! TO.N,Net-(J8-Pad3)*
X123331100Y-84023600D03*
G04 #@! TO.P,J8,4*
G04 #@! TO.N,GND*
X123331100Y-86523600D03*
D11*
G04 #@! TO.P,J8,5*
X120621100Y-91293600D03*
X120621100Y-79253600D03*
G04 #@! TD*
D15*
G04 #@! TO.P,J9,8*
G04 #@! TO.N,/D7*
X162531100Y-72573600D03*
G04 #@! TO.P,J9,7*
G04 #@! TO.N,/D6*
X165071100Y-72573600D03*
G04 #@! TO.P,J9,6*
G04 #@! TO.N,/D5*
X167611100Y-72573600D03*
G04 #@! TO.P,J9,5*
G04 #@! TO.N,/D4*
X170151100Y-72573600D03*
G04 #@! TO.P,J9,4*
G04 #@! TO.N,/D3*
X172691100Y-72573600D03*
G04 #@! TO.P,J9,3*
G04 #@! TO.N,/D2*
X175231100Y-72573600D03*
G04 #@! TO.P,J9,2*
G04 #@! TO.N,/TX*
X177771100Y-72573600D03*
D14*
G04 #@! TO.P,J9,1*
G04 #@! TO.N,/RX*
X180311100Y-72573600D03*
G04 #@! TD*
D17*
G04 #@! TO.P,Y1,1*
G04 #@! TO.N,Net-(C11-Pad1)*
X139192000Y-83629500D03*
G04 #@! TO.P,Y1,2*
G04 #@! TO.N,Net-(C12-Pad1)*
X140535503Y-84973003D03*
G04 #@! TD*
D18*
G04 #@! TO.N,GND*
X172275500Y-95377000D03*
X171450000Y-91249500D03*
X168105398Y-102515510D03*
X166655382Y-101409500D03*
X163490041Y-105130629D03*
X142303500Y-81788000D03*
X134874000Y-89281000D03*
X132651500Y-86804500D03*
X131318000Y-76263500D03*
X155452660Y-104017660D03*
X141858998Y-93535500D03*
X144716500Y-89979500D03*
X137541000Y-101790500D03*
X135064500Y-106172000D03*
X142875000Y-99187000D03*
X179006500Y-82804000D03*
D19*
X137731500Y-117221000D03*
D18*
X141097000Y-109347000D03*
X139001500Y-108077000D03*
D19*
X151628598Y-115316000D03*
D18*
X144335500Y-105854500D03*
X149352000Y-107696000D03*
X175704500Y-93091000D03*
D19*
G04 #@! TO.N,RAW*
X133540500Y-107315000D03*
D18*
G04 #@! TO.N,5V*
X162428567Y-104012994D03*
X157226008Y-109950840D03*
D19*
X127610500Y-100139500D03*
X141115025Y-115092010D03*
D18*
X176149000Y-100393500D03*
G04 #@! TO.N,3V3*
X154114500Y-112014000D03*
X148336000Y-110680500D03*
G04 #@! TO.N,RST*
X161480500Y-108077000D03*
X166506183Y-104447012D03*
X155257504Y-109410504D03*
G04 #@! TO.N,Net-(C12-Pad1)*
X140525500Y-78930500D03*
G04 #@! TO.N,/X1*
X174180500Y-92011500D03*
X164936060Y-99083388D03*
G04 #@! TO.N,/X2*
X165290500Y-97345500D03*
X169862500Y-94080490D03*
G04 #@! TO.N,/D12*
X159004000Y-101004000D03*
G04 #@! TO.N,/D13*
X157924498Y-101092000D03*
X178181000Y-98679000D03*
X155039607Y-102440930D03*
G04 #@! TO.N,/D11*
X159131000Y-99931000D03*
G04 #@! TO.N,Net-(J8-Pad3)*
X135953500Y-81280000D03*
G04 #@! TO.N,/TX*
X167386000Y-92392502D03*
X153540038Y-101212642D03*
G04 #@! TO.N,/RX*
X168211500Y-93154512D03*
X153543000Y-102235000D03*
G04 #@! TO.N,Net-(R4-Pad2)*
X141605000Y-105537000D03*
X141605000Y-97853500D03*
G04 #@! TD*
D20*
G04 #@! TO.N,GND*
X157153098Y-120840500D02*
X152228597Y-115915999D01*
X152228597Y-115915999D02*
X151628598Y-115316000D01*
X157480000Y-120840500D02*
X157153098Y-120840500D01*
G04 #@! TO.N,RAW*
X162496500Y-116920929D02*
X162496500Y-120840500D01*
X158859571Y-113284000D02*
X162496500Y-116920929D01*
X133540500Y-107315000D02*
X139509500Y-113284000D01*
X139509500Y-113284000D02*
X158859571Y-113284000D01*
D21*
G04 #@! TO.N,5V*
X157226008Y-109283492D02*
X157226008Y-109385155D01*
X157226008Y-109385155D02*
X157226008Y-109950840D01*
X162496500Y-104013000D02*
X157226008Y-109283492D01*
D20*
X127610500Y-100139500D02*
X127610500Y-103734500D01*
X140266497Y-115092010D02*
X141115025Y-115092010D01*
X138968010Y-115092010D02*
X140266497Y-115092010D01*
X127610500Y-103734500D02*
X138968010Y-115092010D01*
X154876500Y-120904000D02*
X149064510Y-115092010D01*
X149064510Y-115092010D02*
X141963553Y-115092010D01*
X141963553Y-115092010D02*
X141115025Y-115092010D01*
D21*
X176149000Y-100393500D02*
X166560499Y-100393500D01*
X162828566Y-103612995D02*
X162428567Y-104012994D01*
X163341004Y-103612995D02*
X162828566Y-103612995D01*
X166560499Y-100393500D02*
X163341004Y-103612995D01*
G04 #@! TO.N,3V3*
X149669500Y-112014000D02*
X148336000Y-110680500D01*
X154114500Y-112014000D02*
X149669500Y-112014000D01*
G04 #@! TO.N,RST*
X161480500Y-108077000D02*
X162876195Y-108077000D01*
X166106184Y-104847011D02*
X166506183Y-104447012D01*
X162876195Y-108077000D02*
X166106184Y-104847011D01*
X157035500Y-111188500D02*
X155657503Y-109810503D01*
X161480500Y-108077000D02*
X158369000Y-111188500D01*
X155657503Y-109810503D02*
X155257504Y-109410504D01*
X158369000Y-111188500D02*
X157035500Y-111188500D01*
G04 #@! TO.N,Net-(C12-Pad1)*
X140525500Y-78930500D02*
X140525500Y-85026500D01*
G04 #@! TO.N,/X1*
X165336059Y-98683389D02*
X164936060Y-99083388D01*
X174180500Y-92011500D02*
X171386500Y-94805500D01*
X171386500Y-94805500D02*
X169213948Y-94805500D01*
X169213948Y-94805500D02*
X165336059Y-98683389D01*
G04 #@! TO.N,/X2*
X169296815Y-94080490D02*
X169862500Y-94080490D01*
X168555510Y-94080490D02*
X169296815Y-94080490D01*
X165290500Y-97345500D02*
X168555510Y-94080490D01*
G04 #@! TO.N,/D12*
X167254767Y-97790000D02*
X165222767Y-99822000D01*
X160337500Y-99822000D02*
X159512000Y-98996500D01*
X158878410Y-98996500D02*
X158178500Y-99696410D01*
X158178500Y-99696410D02*
X158178500Y-100178500D01*
X158604001Y-100604001D02*
X159004000Y-101004000D01*
X158178500Y-100178500D02*
X158604001Y-100604001D01*
X159512000Y-98996500D02*
X158878410Y-98996500D01*
X175450500Y-97790000D02*
X167254767Y-97790000D01*
X178498500Y-94742000D02*
X175450500Y-97790000D01*
X178498500Y-93733200D02*
X178498500Y-94742000D01*
X165222767Y-99822000D02*
X160337500Y-99822000D01*
X179338100Y-92893600D02*
X178498500Y-93733200D01*
X180438100Y-92893600D02*
X179338100Y-92893600D01*
G04 #@! TO.N,/D13*
X158559500Y-101727002D02*
X157924498Y-101092000D01*
X178181000Y-98679000D02*
X177781001Y-99078999D01*
X167238590Y-99078999D02*
X164273089Y-102044500D01*
X158876998Y-102044500D02*
X158559500Y-101727002D01*
X164273089Y-102044500D02*
X158876998Y-102044500D01*
X177781001Y-99078999D02*
X167238590Y-99078999D01*
X158559500Y-101727002D02*
X157845572Y-102440930D01*
X157845572Y-102440930D02*
X155605292Y-102440930D01*
X155605292Y-102440930D02*
X155039607Y-102440930D01*
G04 #@! TO.N,/D11*
X159530999Y-100330999D02*
X159131000Y-99931000D01*
X159726009Y-100526009D02*
X159530999Y-100330999D01*
X182978100Y-95433600D02*
X181731701Y-96679999D01*
X181731701Y-96679999D02*
X178275001Y-96679999D01*
X178275001Y-96679999D02*
X176593500Y-98361500D01*
X176593500Y-98361500D02*
X167319678Y-98361500D01*
X167319678Y-98361500D02*
X165155169Y-100526009D01*
X165155169Y-100526009D02*
X159726009Y-100526009D01*
G04 #@! TO.N,/A4*
X181292500Y-108585000D02*
X182943500Y-108585000D01*
X178816000Y-111061500D02*
X181292500Y-108585000D01*
X177771100Y-120833600D02*
X178816000Y-119788700D01*
X178816000Y-119788700D02*
X178816000Y-111061500D01*
G04 #@! TO.N,/A5*
X181356000Y-111125000D02*
X182943500Y-111125000D01*
X179514500Y-112966500D02*
X181356000Y-111125000D01*
X179514500Y-118618000D02*
X179514500Y-112966500D01*
X180311100Y-120833600D02*
X180311100Y-119414600D01*
X180311100Y-119414600D02*
X179514500Y-118618000D01*
G04 #@! TO.N,Net-(J8-Pad3)*
X123331100Y-82821519D02*
X124936119Y-81216500D01*
X123331100Y-84023600D02*
X123331100Y-82821519D01*
X124936119Y-81216500D02*
X135890000Y-81216500D01*
X135890000Y-81216500D02*
X135953500Y-81280000D01*
G04 #@! TO.N,/TX*
X153940037Y-100812643D02*
X153540038Y-101212642D01*
X167386000Y-93472000D02*
X162941000Y-97917000D01*
X167386000Y-92392502D02*
X167386000Y-93472000D01*
X162941000Y-97917000D02*
X158559500Y-97917000D01*
X158559500Y-97917000D02*
X155702000Y-100774500D01*
X155702000Y-100774500D02*
X153978180Y-100774500D01*
X153978180Y-100774500D02*
X153940037Y-100812643D01*
G04 #@! TO.N,/RX*
X153606500Y-102235000D02*
X153543000Y-102235000D01*
X168211500Y-93345000D02*
X163068000Y-98488500D01*
X168211500Y-93154512D02*
X168211500Y-93345000D01*
X163068000Y-98488500D02*
X158750000Y-98488500D01*
X158750000Y-98488500D02*
X155765500Y-101473000D01*
X155765500Y-101473000D02*
X154368500Y-101473000D01*
X154368500Y-101473000D02*
X153606500Y-102235000D01*
G04 #@! TO.N,Net-(R4-Pad2)*
X141605000Y-105537000D02*
X141605000Y-97853500D01*
G04 #@! TD*
D22*
G04 #@! TO.N,GND*
G36*
X129856100Y-72133031D02*
X129856100Y-73022169D01*
X130196359Y-73843626D01*
X130825074Y-74472341D01*
X131646531Y-74812600D01*
X132535669Y-74812600D01*
X133357126Y-74472341D01*
X133985841Y-73843626D01*
X134326100Y-73022169D01*
X134326100Y-72133031D01*
X134116495Y-71627000D01*
X139533604Y-71627000D01*
X139288261Y-71994182D01*
X139173008Y-72573600D01*
X139288261Y-73153018D01*
X139616475Y-73644225D01*
X140107682Y-73972439D01*
X140540844Y-74058600D01*
X140833356Y-74058600D01*
X141266518Y-73972439D01*
X141757725Y-73644225D01*
X141970943Y-73325122D01*
X142031917Y-73454958D01*
X142460176Y-73845245D01*
X142870210Y-74015076D01*
X143100100Y-73893755D01*
X143100100Y-72700600D01*
X143080100Y-72700600D01*
X143080100Y-72446600D01*
X143100100Y-72446600D01*
X143100100Y-72426600D01*
X143354100Y-72426600D01*
X143354100Y-72446600D01*
X143374100Y-72446600D01*
X143374100Y-72700600D01*
X143354100Y-72700600D01*
X143354100Y-73893755D01*
X143583990Y-74015076D01*
X143994024Y-73845245D01*
X144422283Y-73454958D01*
X144483257Y-73325122D01*
X144696475Y-73644225D01*
X145187682Y-73972439D01*
X145620844Y-74058600D01*
X145913356Y-74058600D01*
X146346518Y-73972439D01*
X146837725Y-73644225D01*
X147037100Y-73345839D01*
X147236475Y-73644225D01*
X147727682Y-73972439D01*
X148160844Y-74058600D01*
X148453356Y-74058600D01*
X148886518Y-73972439D01*
X149377725Y-73644225D01*
X149577100Y-73345839D01*
X149776475Y-73644225D01*
X150267682Y-73972439D01*
X150700844Y-74058600D01*
X150993356Y-74058600D01*
X151426518Y-73972439D01*
X151917725Y-73644225D01*
X152117100Y-73345839D01*
X152316475Y-73644225D01*
X152807682Y-73972439D01*
X153240844Y-74058600D01*
X153533356Y-74058600D01*
X153966518Y-73972439D01*
X154457725Y-73644225D01*
X154657100Y-73345839D01*
X154856475Y-73644225D01*
X155347682Y-73972439D01*
X155780844Y-74058600D01*
X156073356Y-74058600D01*
X156506518Y-73972439D01*
X156997725Y-73644225D01*
X157009916Y-73625981D01*
X157018943Y-73671365D01*
X157159291Y-73881409D01*
X157369335Y-74021757D01*
X157617100Y-74071040D01*
X159317100Y-74071040D01*
X159564865Y-74021757D01*
X159774909Y-73881409D01*
X159915257Y-73671365D01*
X159964540Y-73423600D01*
X159964540Y-71723600D01*
X159945325Y-71627000D01*
X161377604Y-71627000D01*
X161132261Y-71994182D01*
X161017008Y-72573600D01*
X161132261Y-73153018D01*
X161460475Y-73644225D01*
X161951682Y-73972439D01*
X162384844Y-74058600D01*
X162677356Y-74058600D01*
X163110518Y-73972439D01*
X163601725Y-73644225D01*
X163801100Y-73345839D01*
X164000475Y-73644225D01*
X164491682Y-73972439D01*
X164924844Y-74058600D01*
X165217356Y-74058600D01*
X165650518Y-73972439D01*
X166141725Y-73644225D01*
X166341100Y-73345839D01*
X166540475Y-73644225D01*
X167031682Y-73972439D01*
X167464844Y-74058600D01*
X167757356Y-74058600D01*
X168190518Y-73972439D01*
X168681725Y-73644225D01*
X168881100Y-73345839D01*
X169080475Y-73644225D01*
X169571682Y-73972439D01*
X170004844Y-74058600D01*
X170297356Y-74058600D01*
X170730518Y-73972439D01*
X171221725Y-73644225D01*
X171421100Y-73345839D01*
X171620475Y-73644225D01*
X172111682Y-73972439D01*
X172544844Y-74058600D01*
X172837356Y-74058600D01*
X173270518Y-73972439D01*
X173761725Y-73644225D01*
X173961100Y-73345839D01*
X174160475Y-73644225D01*
X174651682Y-73972439D01*
X175084844Y-74058600D01*
X175377356Y-74058600D01*
X175810518Y-73972439D01*
X176301725Y-73644225D01*
X176501100Y-73345839D01*
X176700475Y-73644225D01*
X177191682Y-73972439D01*
X177624844Y-74058600D01*
X177917356Y-74058600D01*
X178350518Y-73972439D01*
X178841725Y-73644225D01*
X178853916Y-73625981D01*
X178862943Y-73671365D01*
X179003291Y-73881409D01*
X179213335Y-74021757D01*
X179461100Y-74071040D01*
X181161100Y-74071040D01*
X181373000Y-74028891D01*
X181373000Y-84000000D01*
X181382667Y-84048601D01*
X181416100Y-84095341D01*
X183106167Y-85582600D01*
X182446531Y-85582600D01*
X181625074Y-85922859D01*
X180996359Y-86551574D01*
X180656100Y-87373031D01*
X180656100Y-88262169D01*
X180996359Y-89083626D01*
X181625074Y-89712341D01*
X182446531Y-90052600D01*
X183335669Y-90052600D01*
X183873000Y-89830030D01*
X183873000Y-91705559D01*
X183557518Y-91494761D01*
X183124356Y-91408600D01*
X182831844Y-91408600D01*
X182398682Y-91494761D01*
X181907475Y-91822975D01*
X181895284Y-91841219D01*
X181886257Y-91795835D01*
X181745909Y-91585791D01*
X181535865Y-91445443D01*
X181288100Y-91396160D01*
X179588100Y-91396160D01*
X179340335Y-91445443D01*
X179130291Y-91585791D01*
X178989943Y-91795835D01*
X178940660Y-92043600D01*
X178940660Y-92245117D01*
X178892823Y-92277081D01*
X178790171Y-92345671D01*
X178747771Y-92409127D01*
X178014030Y-93142869D01*
X177950571Y-93185271D01*
X177782596Y-93436664D01*
X177738500Y-93658349D01*
X177738500Y-93658353D01*
X177723612Y-93733200D01*
X177738500Y-93808048D01*
X177738501Y-94427197D01*
X175135699Y-97030000D01*
X168064250Y-97030000D01*
X169528750Y-95565500D01*
X171311653Y-95565500D01*
X171386500Y-95580388D01*
X171461347Y-95565500D01*
X171461352Y-95565500D01*
X171683037Y-95521404D01*
X171934429Y-95353429D01*
X171976831Y-95289970D01*
X174220302Y-93046500D01*
X174386374Y-93046500D01*
X174766780Y-92888931D01*
X175057931Y-92597780D01*
X175215500Y-92217374D01*
X175215500Y-91805626D01*
X175057931Y-91425220D01*
X174766780Y-91134069D01*
X174386374Y-90976500D01*
X173974626Y-90976500D01*
X173594220Y-91134069D01*
X173303069Y-91425220D01*
X173145500Y-91805626D01*
X173145500Y-91971698D01*
X171071699Y-94045500D01*
X170897500Y-94045500D01*
X170897500Y-93874616D01*
X170739931Y-93494210D01*
X170448780Y-93203059D01*
X170068374Y-93045490D01*
X169656626Y-93045490D01*
X169276220Y-93203059D01*
X169246500Y-93232779D01*
X169246500Y-92948638D01*
X169088931Y-92568232D01*
X168797780Y-92277081D01*
X168417374Y-92119512D01*
X168393200Y-92119512D01*
X168263431Y-91806222D01*
X167972280Y-91515071D01*
X167591874Y-91357502D01*
X167180126Y-91357502D01*
X166799720Y-91515071D01*
X166508569Y-91806222D01*
X166351000Y-92186628D01*
X166351000Y-92598376D01*
X166508569Y-92978782D01*
X166626001Y-93096214D01*
X166626001Y-93157197D01*
X162626199Y-97157000D01*
X158634346Y-97157000D01*
X158559499Y-97142112D01*
X158484652Y-97157000D01*
X158484648Y-97157000D01*
X158262963Y-97201096D01*
X158011571Y-97369071D01*
X157969171Y-97432527D01*
X155387199Y-100014500D01*
X154053026Y-100014500D01*
X153978179Y-99999612D01*
X153903332Y-100014500D01*
X153903328Y-100014500D01*
X153681643Y-100058596D01*
X153503478Y-100177642D01*
X153334164Y-100177642D01*
X152953758Y-100335211D01*
X152662607Y-100626362D01*
X152505038Y-101006768D01*
X152505038Y-101418516D01*
X152632980Y-101727396D01*
X152508000Y-102029126D01*
X152508000Y-102440874D01*
X152665569Y-102821280D01*
X152956720Y-103112431D01*
X153337126Y-103270000D01*
X153748874Y-103270000D01*
X154129280Y-103112431D01*
X154188339Y-103053373D01*
X154453327Y-103318361D01*
X154833733Y-103475930D01*
X155245481Y-103475930D01*
X155625887Y-103318361D01*
X155743318Y-103200930D01*
X157770725Y-103200930D01*
X157845572Y-103215818D01*
X157920419Y-103200930D01*
X157920424Y-103200930D01*
X158142109Y-103156834D01*
X158393501Y-102988859D01*
X158435903Y-102925400D01*
X158597508Y-102763795D01*
X158802146Y-102804500D01*
X158802151Y-102804500D01*
X158876998Y-102819388D01*
X158951845Y-102804500D01*
X163074698Y-102804500D01*
X163026203Y-102852995D01*
X162903412Y-102852995D01*
X162828565Y-102838107D01*
X162753718Y-102852995D01*
X162753714Y-102852995D01*
X162532029Y-102897091D01*
X162410949Y-102977994D01*
X162222693Y-102977994D01*
X161842287Y-103135563D01*
X161551136Y-103426714D01*
X161393567Y-103807120D01*
X161393567Y-104041131D01*
X156741538Y-108693161D01*
X156678079Y-108735563D01*
X156510104Y-108986956D01*
X156466008Y-109208641D01*
X156466008Y-109208645D01*
X156456452Y-109256685D01*
X156348577Y-109364560D01*
X156330354Y-109408553D01*
X156292504Y-109370703D01*
X156292504Y-109204630D01*
X156134935Y-108824224D01*
X155843784Y-108533073D01*
X155463378Y-108375504D01*
X155051630Y-108375504D01*
X154671224Y-108533073D01*
X154380073Y-108824224D01*
X154222504Y-109204630D01*
X154222504Y-109616378D01*
X154380073Y-109996784D01*
X154671224Y-110287935D01*
X155051630Y-110445504D01*
X155217703Y-110445504D01*
X156445171Y-111672973D01*
X156487571Y-111736429D01*
X156738963Y-111904404D01*
X156960648Y-111948500D01*
X156960652Y-111948500D01*
X157035499Y-111963388D01*
X157110346Y-111948500D01*
X158294153Y-111948500D01*
X158369000Y-111963388D01*
X158443847Y-111948500D01*
X158443852Y-111948500D01*
X158665537Y-111904404D01*
X158916929Y-111736429D01*
X158959331Y-111672970D01*
X161520303Y-109112000D01*
X161686374Y-109112000D01*
X162066780Y-108954431D01*
X162184211Y-108837000D01*
X162801348Y-108837000D01*
X162876195Y-108851888D01*
X162951042Y-108837000D01*
X162951047Y-108837000D01*
X163172732Y-108792904D01*
X163424124Y-108624929D01*
X163466526Y-108561470D01*
X166545985Y-105482012D01*
X166712057Y-105482012D01*
X167092463Y-105324443D01*
X167383614Y-105033292D01*
X167541183Y-104652886D01*
X167541183Y-104241138D01*
X167383614Y-103860732D01*
X167092463Y-103569581D01*
X166712057Y-103412012D01*
X166300309Y-103412012D01*
X165919903Y-103569581D01*
X165628752Y-103860732D01*
X165471183Y-104241138D01*
X165471183Y-104407210D01*
X162561394Y-107317000D01*
X162184211Y-107317000D01*
X162066780Y-107199569D01*
X161686374Y-107042000D01*
X161274626Y-107042000D01*
X160894220Y-107199569D01*
X160603069Y-107490720D01*
X160445500Y-107871126D01*
X160445500Y-108037197D01*
X158215063Y-110267636D01*
X158261008Y-110156714D01*
X158261008Y-109744966D01*
X158137503Y-109446798D01*
X162536308Y-105047994D01*
X162634441Y-105047994D01*
X163014847Y-104890425D01*
X163305998Y-104599274D01*
X163398278Y-104376491D01*
X163415851Y-104372995D01*
X163415856Y-104372995D01*
X163637541Y-104328899D01*
X163888933Y-104160924D01*
X163931335Y-104097465D01*
X165563611Y-102465190D01*
X181458500Y-102465190D01*
X181458500Y-103155750D01*
X181617250Y-103314500D01*
X182816500Y-103314500D01*
X182816500Y-102115250D01*
X182657750Y-101956500D01*
X181967191Y-101956500D01*
X181733802Y-102053173D01*
X181555173Y-102231801D01*
X181458500Y-102465190D01*
X165563611Y-102465190D01*
X166875302Y-101153500D01*
X175445289Y-101153500D01*
X175562720Y-101270931D01*
X175943126Y-101428500D01*
X176354874Y-101428500D01*
X176735280Y-101270931D01*
X177026431Y-100979780D01*
X177184000Y-100599374D01*
X177184000Y-100187626D01*
X177039594Y-99838999D01*
X177706154Y-99838999D01*
X177781001Y-99853887D01*
X177855848Y-99838999D01*
X177855853Y-99838999D01*
X178077538Y-99794903D01*
X178198618Y-99714000D01*
X178386874Y-99714000D01*
X178767280Y-99556431D01*
X179058431Y-99265280D01*
X179216000Y-98884874D01*
X179216000Y-98817527D01*
X179367475Y-99044225D01*
X179858682Y-99372439D01*
X180291844Y-99458600D01*
X180584356Y-99458600D01*
X181017518Y-99372439D01*
X181508725Y-99044225D01*
X181709453Y-98743814D01*
X182096742Y-99168783D01*
X182621208Y-99415086D01*
X182851100Y-99294419D01*
X182851100Y-98100600D01*
X182831100Y-98100600D01*
X182831100Y-97846600D01*
X182851100Y-97846600D01*
X182851100Y-97826600D01*
X183105100Y-97826600D01*
X183105100Y-97846600D01*
X183125100Y-97846600D01*
X183125100Y-98100600D01*
X183105100Y-98100600D01*
X183105100Y-99294419D01*
X183334992Y-99415086D01*
X183859458Y-99168783D01*
X183873000Y-99153923D01*
X183873000Y-101956500D01*
X183229250Y-101956500D01*
X183070500Y-102115250D01*
X183070500Y-103314500D01*
X183090500Y-103314500D01*
X183090500Y-103568500D01*
X183070500Y-103568500D01*
X183070500Y-103588500D01*
X182816500Y-103588500D01*
X182816500Y-103568500D01*
X181617250Y-103568500D01*
X181458500Y-103727250D01*
X181458500Y-104417810D01*
X181555173Y-104651199D01*
X181733802Y-104829827D01*
X181894533Y-104896404D01*
X181872875Y-104910875D01*
X181544661Y-105402082D01*
X181429408Y-105981500D01*
X181544661Y-106560918D01*
X181872875Y-107052125D01*
X182171261Y-107251500D01*
X181872875Y-107450875D01*
X181622893Y-107825000D01*
X181367347Y-107825000D01*
X181292500Y-107810112D01*
X181217653Y-107825000D01*
X181217648Y-107825000D01*
X180995963Y-107869096D01*
X180744571Y-108037071D01*
X180702171Y-108100527D01*
X178331528Y-110471171D01*
X178268072Y-110513571D01*
X178225672Y-110577027D01*
X178225671Y-110577028D01*
X178100097Y-110764963D01*
X178041112Y-111061500D01*
X178056001Y-111136352D01*
X178056000Y-119376178D01*
X177917356Y-119348600D01*
X177624844Y-119348600D01*
X177191682Y-119434761D01*
X176700475Y-119762975D01*
X176501100Y-120061361D01*
X176301725Y-119762975D01*
X175810518Y-119434761D01*
X175377356Y-119348600D01*
X175084844Y-119348600D01*
X174651682Y-119434761D01*
X174160475Y-119762975D01*
X173961100Y-120061361D01*
X173761725Y-119762975D01*
X173270518Y-119434761D01*
X172837356Y-119348600D01*
X172544844Y-119348600D01*
X172111682Y-119434761D01*
X171620475Y-119762975D01*
X171421100Y-120061361D01*
X171221725Y-119762975D01*
X170730518Y-119434761D01*
X170297356Y-119348600D01*
X170004844Y-119348600D01*
X169571682Y-119434761D01*
X169080475Y-119762975D01*
X169068284Y-119781219D01*
X169059257Y-119735835D01*
X168918909Y-119525791D01*
X168708865Y-119385443D01*
X168461100Y-119336160D01*
X166761100Y-119336160D01*
X166513335Y-119385443D01*
X166303291Y-119525791D01*
X166162943Y-119735835D01*
X166113660Y-119983600D01*
X166113660Y-121683600D01*
X166151334Y-121873000D01*
X163622589Y-121873000D01*
X163929939Y-121413018D01*
X164045192Y-120833600D01*
X163929939Y-120254182D01*
X163631500Y-119807536D01*
X163631500Y-117032710D01*
X163653735Y-116920928D01*
X163631500Y-116809146D01*
X163565646Y-116478074D01*
X163314789Y-116102640D01*
X163220022Y-116039319D01*
X159741184Y-112560482D01*
X159677860Y-112465711D01*
X159302426Y-112214854D01*
X158971354Y-112149000D01*
X158859571Y-112126765D01*
X158747788Y-112149000D01*
X155149500Y-112149000D01*
X155149500Y-111808126D01*
X154991931Y-111427720D01*
X154700780Y-111136569D01*
X154320374Y-110979000D01*
X153908626Y-110979000D01*
X153528220Y-111136569D01*
X153410789Y-111254000D01*
X149984302Y-111254000D01*
X149371000Y-110640699D01*
X149371000Y-110474626D01*
X149213431Y-110094220D01*
X148922280Y-109803069D01*
X148541874Y-109645500D01*
X148130126Y-109645500D01*
X147749720Y-109803069D01*
X147458569Y-110094220D01*
X147301000Y-110474626D01*
X147301000Y-110886374D01*
X147458569Y-111266780D01*
X147749720Y-111557931D01*
X148130126Y-111715500D01*
X148296199Y-111715500D01*
X148729698Y-112149000D01*
X139979632Y-112149000D01*
X134687483Y-106856852D01*
X134587482Y-106615429D01*
X134240071Y-106268018D01*
X133786157Y-106080000D01*
X133294843Y-106080000D01*
X132840929Y-106268018D01*
X132493518Y-106615429D01*
X132377252Y-106896120D01*
X128745500Y-103264369D01*
X128745500Y-100626578D01*
X128845500Y-100385157D01*
X128845500Y-99893843D01*
X128657482Y-99439929D01*
X128310071Y-99092518D01*
X127856157Y-98904500D01*
X127364843Y-98904500D01*
X126910929Y-99092518D01*
X126563518Y-99439929D01*
X126375500Y-99893843D01*
X126375500Y-100385157D01*
X126475500Y-100626578D01*
X126475501Y-103622712D01*
X126453265Y-103734500D01*
X126541354Y-104177354D01*
X126541355Y-104177355D01*
X126792212Y-104552789D01*
X126886980Y-104616111D01*
X138086399Y-115815531D01*
X138149721Y-115910299D01*
X138437580Y-116102640D01*
X138525155Y-116161156D01*
X138968010Y-116249245D01*
X139079793Y-116227010D01*
X140627947Y-116227010D01*
X140869368Y-116327010D01*
X141360682Y-116327010D01*
X141602103Y-116227010D01*
X148594379Y-116227010D01*
X151800396Y-119433028D01*
X151791682Y-119434761D01*
X151300475Y-119762975D01*
X151288284Y-119781219D01*
X151279257Y-119735835D01*
X151138909Y-119525791D01*
X150928865Y-119385443D01*
X150681100Y-119336160D01*
X148981100Y-119336160D01*
X148733335Y-119385443D01*
X148523291Y-119525791D01*
X148382943Y-119735835D01*
X148333660Y-119983600D01*
X148333660Y-121683600D01*
X148371334Y-121873000D01*
X132811370Y-121873000D01*
X133056100Y-121282169D01*
X133056100Y-120393031D01*
X132715841Y-119571574D01*
X132087126Y-118942859D01*
X131265669Y-118602600D01*
X130376531Y-118602600D01*
X129555074Y-118942859D01*
X128926359Y-119571574D01*
X128586100Y-120393031D01*
X128586100Y-121282169D01*
X128830830Y-121873000D01*
X126319393Y-121873000D01*
X126351528Y-121851528D01*
X126681551Y-121357613D01*
X126797440Y-120775000D01*
X126797440Y-119025000D01*
X126681551Y-118442387D01*
X126351528Y-117948472D01*
X125857613Y-117618449D01*
X125751994Y-117597440D01*
X129150000Y-117597440D01*
X129397765Y-117548157D01*
X129607809Y-117407809D01*
X129748157Y-117197765D01*
X129797440Y-116950000D01*
X129797440Y-113450000D01*
X129748157Y-113202235D01*
X129607809Y-112992191D01*
X129397765Y-112851843D01*
X129150000Y-112802560D01*
X125650000Y-112802560D01*
X125402235Y-112851843D01*
X125192191Y-112992191D01*
X125051843Y-113202235D01*
X125002560Y-113450000D01*
X125002560Y-116950000D01*
X125051843Y-117197765D01*
X125192191Y-117407809D01*
X125359001Y-117519269D01*
X125275000Y-117502560D01*
X123525000Y-117502560D01*
X122942387Y-117618449D01*
X122448472Y-117948472D01*
X122118449Y-118442387D01*
X122002560Y-119025000D01*
X122002560Y-120775000D01*
X122118449Y-121357613D01*
X122448472Y-121851528D01*
X122480607Y-121873000D01*
X118327505Y-121873000D01*
X118352851Y-115485750D01*
X119265000Y-115485750D01*
X119265000Y-117076310D01*
X119361673Y-117309699D01*
X119540302Y-117488327D01*
X119773691Y-117585000D01*
X121114250Y-117585000D01*
X121273000Y-117426250D01*
X121273000Y-115327000D01*
X121527000Y-115327000D01*
X121527000Y-117426250D01*
X121685750Y-117585000D01*
X123026309Y-117585000D01*
X123259698Y-117488327D01*
X123438327Y-117309699D01*
X123535000Y-117076310D01*
X123535000Y-115485750D01*
X123376250Y-115327000D01*
X121527000Y-115327000D01*
X121273000Y-115327000D01*
X119423750Y-115327000D01*
X119265000Y-115485750D01*
X118352851Y-115485750D01*
X118361430Y-113323690D01*
X119265000Y-113323690D01*
X119265000Y-114914250D01*
X119423750Y-115073000D01*
X121273000Y-115073000D01*
X121273000Y-112973750D01*
X121527000Y-112973750D01*
X121527000Y-115073000D01*
X123376250Y-115073000D01*
X123535000Y-114914250D01*
X123535000Y-113323690D01*
X123438327Y-113090301D01*
X123259698Y-112911673D01*
X123026309Y-112815000D01*
X121685750Y-112815000D01*
X121527000Y-112973750D01*
X121273000Y-112973750D01*
X121114250Y-112815000D01*
X119773691Y-112815000D01*
X119540302Y-112911673D01*
X119361673Y-113090301D01*
X119265000Y-113323690D01*
X118361430Y-113323690D01*
X118423636Y-97647626D01*
X140570000Y-97647626D01*
X140570000Y-98059374D01*
X140727569Y-98439780D01*
X140845001Y-98557212D01*
X140845000Y-104833289D01*
X140727569Y-104950720D01*
X140570000Y-105331126D01*
X140570000Y-105742874D01*
X140727569Y-106123280D01*
X141018720Y-106414431D01*
X141399126Y-106572000D01*
X141810874Y-106572000D01*
X142191280Y-106414431D01*
X142482431Y-106123280D01*
X142640000Y-105742874D01*
X142640000Y-105331126D01*
X142482431Y-104950720D01*
X142365000Y-104833289D01*
X142365000Y-98557211D01*
X142482431Y-98439780D01*
X142640000Y-98059374D01*
X142640000Y-97647626D01*
X142482431Y-97267220D01*
X142191280Y-96976069D01*
X141810874Y-96818500D01*
X141399126Y-96818500D01*
X141018720Y-96976069D01*
X140727569Y-97267220D01*
X140570000Y-97647626D01*
X118423636Y-97647626D01*
X118442127Y-92988128D01*
X119106177Y-92988128D01*
X119296464Y-93332871D01*
X120177691Y-93684556D01*
X121126423Y-93672241D01*
X121945736Y-93332871D01*
X122136023Y-92988128D01*
X120621100Y-91473205D01*
X119106177Y-92988128D01*
X118442127Y-92988128D01*
X118444907Y-92287676D01*
X118581829Y-92618236D01*
X118926572Y-92808523D01*
X120441495Y-91293600D01*
X120800705Y-91293600D01*
X122315628Y-92808523D01*
X122660371Y-92618236D01*
X123012056Y-91737009D01*
X122999741Y-90788277D01*
X122660371Y-89968964D01*
X122315628Y-89778677D01*
X120800705Y-91293600D01*
X120441495Y-91293600D01*
X118926572Y-89778677D01*
X118581829Y-89968964D01*
X118452825Y-90292212D01*
X118455575Y-89599072D01*
X119106177Y-89599072D01*
X120621100Y-91113995D01*
X122136023Y-89599072D01*
X121945736Y-89254329D01*
X121064509Y-88902644D01*
X120115777Y-88914959D01*
X119296464Y-89254329D01*
X119106177Y-89599072D01*
X118455575Y-89599072D01*
X118468686Y-86294879D01*
X121834382Y-86294879D01*
X121860785Y-86885058D01*
X122035841Y-87307680D01*
X122287142Y-87387953D01*
X123151495Y-86523600D01*
X122287142Y-85659247D01*
X122035841Y-85739520D01*
X121834382Y-86294879D01*
X118468686Y-86294879D01*
X118478871Y-83728215D01*
X121846100Y-83728215D01*
X121846100Y-84318985D01*
X122072178Y-84864785D01*
X122489915Y-85282522D01*
X122525063Y-85297081D01*
X122466747Y-85479642D01*
X123331100Y-86343995D01*
X123345243Y-86329853D01*
X123524848Y-86509458D01*
X123510705Y-86523600D01*
X123524848Y-86537743D01*
X123345243Y-86717348D01*
X123331100Y-86703205D01*
X122466747Y-87567558D01*
X122547020Y-87818859D01*
X123102379Y-88020318D01*
X123692558Y-87993915D01*
X124046861Y-87847158D01*
X124233335Y-87971757D01*
X124481100Y-88021040D01*
X126181100Y-88021040D01*
X126428865Y-87971757D01*
X126638909Y-87831409D01*
X126779257Y-87621365D01*
X126828540Y-87373600D01*
X126828540Y-85673600D01*
X126779257Y-85425835D01*
X126638909Y-85215791D01*
X126428865Y-85075443D01*
X126387577Y-85067230D01*
X126590022Y-84864785D01*
X126816100Y-84318985D01*
X126816100Y-83728215D01*
X126681696Y-83403734D01*
X138057000Y-83403734D01*
X138057000Y-83855266D01*
X138229793Y-84272426D01*
X138549074Y-84591707D01*
X138966234Y-84764500D01*
X139400503Y-84764500D01*
X139400503Y-85198769D01*
X139573296Y-85615929D01*
X139892577Y-85935210D01*
X140309737Y-86108003D01*
X140761269Y-86108003D01*
X141178429Y-85935210D01*
X141497710Y-85615929D01*
X141670503Y-85198769D01*
X141670503Y-84747237D01*
X141497710Y-84330077D01*
X141285500Y-84117867D01*
X141285500Y-79634211D01*
X141402931Y-79516780D01*
X141560500Y-79136374D01*
X141560500Y-78724626D01*
X141402931Y-78344220D01*
X141111780Y-78053069D01*
X140731374Y-77895500D01*
X140319626Y-77895500D01*
X139939220Y-78053069D01*
X139648069Y-78344220D01*
X139490500Y-78724626D01*
X139490500Y-79136374D01*
X139648069Y-79516780D01*
X139765500Y-79634211D01*
X139765501Y-82638536D01*
X139417766Y-82494500D01*
X138966234Y-82494500D01*
X138549074Y-82667293D01*
X138229793Y-82986574D01*
X138057000Y-83403734D01*
X126681696Y-83403734D01*
X126590022Y-83182415D01*
X126172285Y-82764678D01*
X125626485Y-82538600D01*
X125035715Y-82538600D01*
X124489915Y-82764678D01*
X124331100Y-82923493D01*
X124317514Y-82909907D01*
X125250921Y-81976500D01*
X135186289Y-81976500D01*
X135367220Y-82157431D01*
X135747626Y-82315000D01*
X136159374Y-82315000D01*
X136539780Y-82157431D01*
X136830931Y-81866280D01*
X136988500Y-81485874D01*
X136988500Y-81074126D01*
X136830931Y-80693720D01*
X136539780Y-80402569D01*
X136159374Y-80245000D01*
X135747626Y-80245000D01*
X135367220Y-80402569D01*
X135313289Y-80456500D01*
X125010967Y-80456500D01*
X124936119Y-80441612D01*
X124861271Y-80456500D01*
X124861267Y-80456500D01*
X124639582Y-80500596D01*
X124388190Y-80668571D01*
X124345790Y-80732027D01*
X122846628Y-82231190D01*
X122783172Y-82273590D01*
X122740772Y-82337046D01*
X122740771Y-82337047D01*
X122615197Y-82524982D01*
X122574486Y-82729647D01*
X122489915Y-82764678D01*
X122072178Y-83182415D01*
X121846100Y-83728215D01*
X118478871Y-83728215D01*
X118489904Y-80948128D01*
X119106177Y-80948128D01*
X119296464Y-81292871D01*
X120177691Y-81644556D01*
X121126423Y-81632241D01*
X121945736Y-81292871D01*
X122136023Y-80948128D01*
X120621100Y-79433205D01*
X119106177Y-80948128D01*
X118489904Y-80948128D01*
X118492231Y-80361927D01*
X118581829Y-80578236D01*
X118926572Y-80768523D01*
X120441495Y-79253600D01*
X120800705Y-79253600D01*
X122315628Y-80768523D01*
X122660371Y-80578236D01*
X123012056Y-79697009D01*
X122999741Y-78748277D01*
X122660371Y-77928964D01*
X122315628Y-77738677D01*
X120800705Y-79253600D01*
X120441495Y-79253600D01*
X118926572Y-77738677D01*
X118581829Y-77928964D01*
X118501083Y-78131292D01*
X118503353Y-77559072D01*
X119106177Y-77559072D01*
X120621100Y-79073995D01*
X122136023Y-77559072D01*
X121945736Y-77214329D01*
X121064509Y-76862644D01*
X120115777Y-76874959D01*
X119296464Y-77214329D01*
X119106177Y-77559072D01*
X118503353Y-77559072D01*
X118526791Y-71652815D01*
X118552606Y-71627000D01*
X130065705Y-71627000D01*
X129856100Y-72133031D01*
X129856100Y-72133031D01*
G37*
X129856100Y-72133031D02*
X129856100Y-73022169D01*
X130196359Y-73843626D01*
X130825074Y-74472341D01*
X131646531Y-74812600D01*
X132535669Y-74812600D01*
X133357126Y-74472341D01*
X133985841Y-73843626D01*
X134326100Y-73022169D01*
X134326100Y-72133031D01*
X134116495Y-71627000D01*
X139533604Y-71627000D01*
X139288261Y-71994182D01*
X139173008Y-72573600D01*
X139288261Y-73153018D01*
X139616475Y-73644225D01*
X140107682Y-73972439D01*
X140540844Y-74058600D01*
X140833356Y-74058600D01*
X141266518Y-73972439D01*
X141757725Y-73644225D01*
X141970943Y-73325122D01*
X142031917Y-73454958D01*
X142460176Y-73845245D01*
X142870210Y-74015076D01*
X143100100Y-73893755D01*
X143100100Y-72700600D01*
X143080100Y-72700600D01*
X143080100Y-72446600D01*
X143100100Y-72446600D01*
X143100100Y-72426600D01*
X143354100Y-72426600D01*
X143354100Y-72446600D01*
X143374100Y-72446600D01*
X143374100Y-72700600D01*
X143354100Y-72700600D01*
X143354100Y-73893755D01*
X143583990Y-74015076D01*
X143994024Y-73845245D01*
X144422283Y-73454958D01*
X144483257Y-73325122D01*
X144696475Y-73644225D01*
X145187682Y-73972439D01*
X145620844Y-74058600D01*
X145913356Y-74058600D01*
X146346518Y-73972439D01*
X146837725Y-73644225D01*
X147037100Y-73345839D01*
X147236475Y-73644225D01*
X147727682Y-73972439D01*
X148160844Y-74058600D01*
X148453356Y-74058600D01*
X148886518Y-73972439D01*
X149377725Y-73644225D01*
X149577100Y-73345839D01*
X149776475Y-73644225D01*
X150267682Y-73972439D01*
X150700844Y-74058600D01*
X150993356Y-74058600D01*
X151426518Y-73972439D01*
X151917725Y-73644225D01*
X152117100Y-73345839D01*
X152316475Y-73644225D01*
X152807682Y-73972439D01*
X153240844Y-74058600D01*
X153533356Y-74058600D01*
X153966518Y-73972439D01*
X154457725Y-73644225D01*
X154657100Y-73345839D01*
X154856475Y-73644225D01*
X155347682Y-73972439D01*
X155780844Y-74058600D01*
X156073356Y-74058600D01*
X156506518Y-73972439D01*
X156997725Y-73644225D01*
X157009916Y-73625981D01*
X157018943Y-73671365D01*
X157159291Y-73881409D01*
X157369335Y-74021757D01*
X157617100Y-74071040D01*
X159317100Y-74071040D01*
X159564865Y-74021757D01*
X159774909Y-73881409D01*
X159915257Y-73671365D01*
X159964540Y-73423600D01*
X159964540Y-71723600D01*
X159945325Y-71627000D01*
X161377604Y-71627000D01*
X161132261Y-71994182D01*
X161017008Y-72573600D01*
X161132261Y-73153018D01*
X161460475Y-73644225D01*
X161951682Y-73972439D01*
X162384844Y-74058600D01*
X162677356Y-74058600D01*
X163110518Y-73972439D01*
X163601725Y-73644225D01*
X163801100Y-73345839D01*
X164000475Y-73644225D01*
X164491682Y-73972439D01*
X164924844Y-74058600D01*
X165217356Y-74058600D01*
X165650518Y-73972439D01*
X166141725Y-73644225D01*
X166341100Y-73345839D01*
X166540475Y-73644225D01*
X167031682Y-73972439D01*
X167464844Y-74058600D01*
X167757356Y-74058600D01*
X168190518Y-73972439D01*
X168681725Y-73644225D01*
X168881100Y-73345839D01*
X169080475Y-73644225D01*
X169571682Y-73972439D01*
X170004844Y-74058600D01*
X170297356Y-74058600D01*
X170730518Y-73972439D01*
X171221725Y-73644225D01*
X171421100Y-73345839D01*
X171620475Y-73644225D01*
X172111682Y-73972439D01*
X172544844Y-74058600D01*
X172837356Y-74058600D01*
X173270518Y-73972439D01*
X173761725Y-73644225D01*
X173961100Y-73345839D01*
X174160475Y-73644225D01*
X174651682Y-73972439D01*
X175084844Y-74058600D01*
X175377356Y-74058600D01*
X175810518Y-73972439D01*
X176301725Y-73644225D01*
X176501100Y-73345839D01*
X176700475Y-73644225D01*
X177191682Y-73972439D01*
X177624844Y-74058600D01*
X177917356Y-74058600D01*
X178350518Y-73972439D01*
X178841725Y-73644225D01*
X178853916Y-73625981D01*
X178862943Y-73671365D01*
X179003291Y-73881409D01*
X179213335Y-74021757D01*
X179461100Y-74071040D01*
X181161100Y-74071040D01*
X181373000Y-74028891D01*
X181373000Y-84000000D01*
X181382667Y-84048601D01*
X181416100Y-84095341D01*
X183106167Y-85582600D01*
X182446531Y-85582600D01*
X181625074Y-85922859D01*
X180996359Y-86551574D01*
X180656100Y-87373031D01*
X180656100Y-88262169D01*
X180996359Y-89083626D01*
X181625074Y-89712341D01*
X182446531Y-90052600D01*
X183335669Y-90052600D01*
X183873000Y-89830030D01*
X183873000Y-91705559D01*
X183557518Y-91494761D01*
X183124356Y-91408600D01*
X182831844Y-91408600D01*
X182398682Y-91494761D01*
X181907475Y-91822975D01*
X181895284Y-91841219D01*
X181886257Y-91795835D01*
X181745909Y-91585791D01*
X181535865Y-91445443D01*
X181288100Y-91396160D01*
X179588100Y-91396160D01*
X179340335Y-91445443D01*
X179130291Y-91585791D01*
X178989943Y-91795835D01*
X178940660Y-92043600D01*
X178940660Y-92245117D01*
X178892823Y-92277081D01*
X178790171Y-92345671D01*
X178747771Y-92409127D01*
X178014030Y-93142869D01*
X177950571Y-93185271D01*
X177782596Y-93436664D01*
X177738500Y-93658349D01*
X177738500Y-93658353D01*
X177723612Y-93733200D01*
X177738500Y-93808048D01*
X177738501Y-94427197D01*
X175135699Y-97030000D01*
X168064250Y-97030000D01*
X169528750Y-95565500D01*
X171311653Y-95565500D01*
X171386500Y-95580388D01*
X171461347Y-95565500D01*
X171461352Y-95565500D01*
X171683037Y-95521404D01*
X171934429Y-95353429D01*
X171976831Y-95289970D01*
X174220302Y-93046500D01*
X174386374Y-93046500D01*
X174766780Y-92888931D01*
X175057931Y-92597780D01*
X175215500Y-92217374D01*
X175215500Y-91805626D01*
X175057931Y-91425220D01*
X174766780Y-91134069D01*
X174386374Y-90976500D01*
X173974626Y-90976500D01*
X173594220Y-91134069D01*
X173303069Y-91425220D01*
X173145500Y-91805626D01*
X173145500Y-91971698D01*
X171071699Y-94045500D01*
X170897500Y-94045500D01*
X170897500Y-93874616D01*
X170739931Y-93494210D01*
X170448780Y-93203059D01*
X170068374Y-93045490D01*
X169656626Y-93045490D01*
X169276220Y-93203059D01*
X169246500Y-93232779D01*
X169246500Y-92948638D01*
X169088931Y-92568232D01*
X168797780Y-92277081D01*
X168417374Y-92119512D01*
X168393200Y-92119512D01*
X168263431Y-91806222D01*
X167972280Y-91515071D01*
X167591874Y-91357502D01*
X167180126Y-91357502D01*
X166799720Y-91515071D01*
X166508569Y-91806222D01*
X166351000Y-92186628D01*
X166351000Y-92598376D01*
X166508569Y-92978782D01*
X166626001Y-93096214D01*
X166626001Y-93157197D01*
X162626199Y-97157000D01*
X158634346Y-97157000D01*
X158559499Y-97142112D01*
X158484652Y-97157000D01*
X158484648Y-97157000D01*
X158262963Y-97201096D01*
X158011571Y-97369071D01*
X157969171Y-97432527D01*
X155387199Y-100014500D01*
X154053026Y-100014500D01*
X153978179Y-99999612D01*
X153903332Y-100014500D01*
X153903328Y-100014500D01*
X153681643Y-100058596D01*
X153503478Y-100177642D01*
X153334164Y-100177642D01*
X152953758Y-100335211D01*
X152662607Y-100626362D01*
X152505038Y-101006768D01*
X152505038Y-101418516D01*
X152632980Y-101727396D01*
X152508000Y-102029126D01*
X152508000Y-102440874D01*
X152665569Y-102821280D01*
X152956720Y-103112431D01*
X153337126Y-103270000D01*
X153748874Y-103270000D01*
X154129280Y-103112431D01*
X154188339Y-103053373D01*
X154453327Y-103318361D01*
X154833733Y-103475930D01*
X155245481Y-103475930D01*
X155625887Y-103318361D01*
X155743318Y-103200930D01*
X157770725Y-103200930D01*
X157845572Y-103215818D01*
X157920419Y-103200930D01*
X157920424Y-103200930D01*
X158142109Y-103156834D01*
X158393501Y-102988859D01*
X158435903Y-102925400D01*
X158597508Y-102763795D01*
X158802146Y-102804500D01*
X158802151Y-102804500D01*
X158876998Y-102819388D01*
X158951845Y-102804500D01*
X163074698Y-102804500D01*
X163026203Y-102852995D01*
X162903412Y-102852995D01*
X162828565Y-102838107D01*
X162753718Y-102852995D01*
X162753714Y-102852995D01*
X162532029Y-102897091D01*
X162410949Y-102977994D01*
X162222693Y-102977994D01*
X161842287Y-103135563D01*
X161551136Y-103426714D01*
X161393567Y-103807120D01*
X161393567Y-104041131D01*
X156741538Y-108693161D01*
X156678079Y-108735563D01*
X156510104Y-108986956D01*
X156466008Y-109208641D01*
X156466008Y-109208645D01*
X156456452Y-109256685D01*
X156348577Y-109364560D01*
X156330354Y-109408553D01*
X156292504Y-109370703D01*
X156292504Y-109204630D01*
X156134935Y-108824224D01*
X155843784Y-108533073D01*
X155463378Y-108375504D01*
X155051630Y-108375504D01*
X154671224Y-108533073D01*
X154380073Y-108824224D01*
X154222504Y-109204630D01*
X154222504Y-109616378D01*
X154380073Y-109996784D01*
X154671224Y-110287935D01*
X155051630Y-110445504D01*
X155217703Y-110445504D01*
X156445171Y-111672973D01*
X156487571Y-111736429D01*
X156738963Y-111904404D01*
X156960648Y-111948500D01*
X156960652Y-111948500D01*
X157035499Y-111963388D01*
X157110346Y-111948500D01*
X158294153Y-111948500D01*
X158369000Y-111963388D01*
X158443847Y-111948500D01*
X158443852Y-111948500D01*
X158665537Y-111904404D01*
X158916929Y-111736429D01*
X158959331Y-111672970D01*
X161520303Y-109112000D01*
X161686374Y-109112000D01*
X162066780Y-108954431D01*
X162184211Y-108837000D01*
X162801348Y-108837000D01*
X162876195Y-108851888D01*
X162951042Y-108837000D01*
X162951047Y-108837000D01*
X163172732Y-108792904D01*
X163424124Y-108624929D01*
X163466526Y-108561470D01*
X166545985Y-105482012D01*
X166712057Y-105482012D01*
X167092463Y-105324443D01*
X167383614Y-105033292D01*
X167541183Y-104652886D01*
X167541183Y-104241138D01*
X167383614Y-103860732D01*
X167092463Y-103569581D01*
X166712057Y-103412012D01*
X166300309Y-103412012D01*
X165919903Y-103569581D01*
X165628752Y-103860732D01*
X165471183Y-104241138D01*
X165471183Y-104407210D01*
X162561394Y-107317000D01*
X162184211Y-107317000D01*
X162066780Y-107199569D01*
X161686374Y-107042000D01*
X161274626Y-107042000D01*
X160894220Y-107199569D01*
X160603069Y-107490720D01*
X160445500Y-107871126D01*
X160445500Y-108037197D01*
X158215063Y-110267636D01*
X158261008Y-110156714D01*
X158261008Y-109744966D01*
X158137503Y-109446798D01*
X162536308Y-105047994D01*
X162634441Y-105047994D01*
X163014847Y-104890425D01*
X163305998Y-104599274D01*
X163398278Y-104376491D01*
X163415851Y-104372995D01*
X163415856Y-104372995D01*
X163637541Y-104328899D01*
X163888933Y-104160924D01*
X163931335Y-104097465D01*
X165563611Y-102465190D01*
X181458500Y-102465190D01*
X181458500Y-103155750D01*
X181617250Y-103314500D01*
X182816500Y-103314500D01*
X182816500Y-102115250D01*
X182657750Y-101956500D01*
X181967191Y-101956500D01*
X181733802Y-102053173D01*
X181555173Y-102231801D01*
X181458500Y-102465190D01*
X165563611Y-102465190D01*
X166875302Y-101153500D01*
X175445289Y-101153500D01*
X175562720Y-101270931D01*
X175943126Y-101428500D01*
X176354874Y-101428500D01*
X176735280Y-101270931D01*
X177026431Y-100979780D01*
X177184000Y-100599374D01*
X177184000Y-100187626D01*
X177039594Y-99838999D01*
X177706154Y-99838999D01*
X177781001Y-99853887D01*
X177855848Y-99838999D01*
X177855853Y-99838999D01*
X178077538Y-99794903D01*
X178198618Y-99714000D01*
X178386874Y-99714000D01*
X178767280Y-99556431D01*
X179058431Y-99265280D01*
X179216000Y-98884874D01*
X179216000Y-98817527D01*
X179367475Y-99044225D01*
X179858682Y-99372439D01*
X180291844Y-99458600D01*
X180584356Y-99458600D01*
X181017518Y-99372439D01*
X181508725Y-99044225D01*
X181709453Y-98743814D01*
X182096742Y-99168783D01*
X182621208Y-99415086D01*
X182851100Y-99294419D01*
X182851100Y-98100600D01*
X182831100Y-98100600D01*
X182831100Y-97846600D01*
X182851100Y-97846600D01*
X182851100Y-97826600D01*
X183105100Y-97826600D01*
X183105100Y-97846600D01*
X183125100Y-97846600D01*
X183125100Y-98100600D01*
X183105100Y-98100600D01*
X183105100Y-99294419D01*
X183334992Y-99415086D01*
X183859458Y-99168783D01*
X183873000Y-99153923D01*
X183873000Y-101956500D01*
X183229250Y-101956500D01*
X183070500Y-102115250D01*
X183070500Y-103314500D01*
X183090500Y-103314500D01*
X183090500Y-103568500D01*
X183070500Y-103568500D01*
X183070500Y-103588500D01*
X182816500Y-103588500D01*
X182816500Y-103568500D01*
X181617250Y-103568500D01*
X181458500Y-103727250D01*
X181458500Y-104417810D01*
X181555173Y-104651199D01*
X181733802Y-104829827D01*
X181894533Y-104896404D01*
X181872875Y-104910875D01*
X181544661Y-105402082D01*
X181429408Y-105981500D01*
X181544661Y-106560918D01*
X181872875Y-107052125D01*
X182171261Y-107251500D01*
X181872875Y-107450875D01*
X181622893Y-107825000D01*
X181367347Y-107825000D01*
X181292500Y-107810112D01*
X181217653Y-107825000D01*
X181217648Y-107825000D01*
X180995963Y-107869096D01*
X180744571Y-108037071D01*
X180702171Y-108100527D01*
X178331528Y-110471171D01*
X178268072Y-110513571D01*
X178225672Y-110577027D01*
X178225671Y-110577028D01*
X178100097Y-110764963D01*
X178041112Y-111061500D01*
X178056001Y-111136352D01*
X178056000Y-119376178D01*
X177917356Y-119348600D01*
X177624844Y-119348600D01*
X177191682Y-119434761D01*
X176700475Y-119762975D01*
X176501100Y-120061361D01*
X176301725Y-119762975D01*
X175810518Y-119434761D01*
X175377356Y-119348600D01*
X175084844Y-119348600D01*
X174651682Y-119434761D01*
X174160475Y-119762975D01*
X173961100Y-120061361D01*
X173761725Y-119762975D01*
X173270518Y-119434761D01*
X172837356Y-119348600D01*
X172544844Y-119348600D01*
X172111682Y-119434761D01*
X171620475Y-119762975D01*
X171421100Y-120061361D01*
X171221725Y-119762975D01*
X170730518Y-119434761D01*
X170297356Y-119348600D01*
X170004844Y-119348600D01*
X169571682Y-119434761D01*
X169080475Y-119762975D01*
X169068284Y-119781219D01*
X169059257Y-119735835D01*
X168918909Y-119525791D01*
X168708865Y-119385443D01*
X168461100Y-119336160D01*
X166761100Y-119336160D01*
X166513335Y-119385443D01*
X166303291Y-119525791D01*
X166162943Y-119735835D01*
X166113660Y-119983600D01*
X166113660Y-121683600D01*
X166151334Y-121873000D01*
X163622589Y-121873000D01*
X163929939Y-121413018D01*
X164045192Y-120833600D01*
X163929939Y-120254182D01*
X163631500Y-119807536D01*
X163631500Y-117032710D01*
X163653735Y-116920928D01*
X163631500Y-116809146D01*
X163565646Y-116478074D01*
X163314789Y-116102640D01*
X163220022Y-116039319D01*
X159741184Y-112560482D01*
X159677860Y-112465711D01*
X159302426Y-112214854D01*
X158971354Y-112149000D01*
X158859571Y-112126765D01*
X158747788Y-112149000D01*
X155149500Y-112149000D01*
X155149500Y-111808126D01*
X154991931Y-111427720D01*
X154700780Y-111136569D01*
X154320374Y-110979000D01*
X153908626Y-110979000D01*
X153528220Y-111136569D01*
X153410789Y-111254000D01*
X149984302Y-111254000D01*
X149371000Y-110640699D01*
X149371000Y-110474626D01*
X149213431Y-110094220D01*
X148922280Y-109803069D01*
X148541874Y-109645500D01*
X148130126Y-109645500D01*
X147749720Y-109803069D01*
X147458569Y-110094220D01*
X147301000Y-110474626D01*
X147301000Y-110886374D01*
X147458569Y-111266780D01*
X147749720Y-111557931D01*
X148130126Y-111715500D01*
X148296199Y-111715500D01*
X148729698Y-112149000D01*
X139979632Y-112149000D01*
X134687483Y-106856852D01*
X134587482Y-106615429D01*
X134240071Y-106268018D01*
X133786157Y-106080000D01*
X133294843Y-106080000D01*
X132840929Y-106268018D01*
X132493518Y-106615429D01*
X132377252Y-106896120D01*
X128745500Y-103264369D01*
X128745500Y-100626578D01*
X128845500Y-100385157D01*
X128845500Y-99893843D01*
X128657482Y-99439929D01*
X128310071Y-99092518D01*
X127856157Y-98904500D01*
X127364843Y-98904500D01*
X126910929Y-99092518D01*
X126563518Y-99439929D01*
X126375500Y-99893843D01*
X126375500Y-100385157D01*
X126475500Y-100626578D01*
X126475501Y-103622712D01*
X126453265Y-103734500D01*
X126541354Y-104177354D01*
X126541355Y-104177355D01*
X126792212Y-104552789D01*
X126886980Y-104616111D01*
X138086399Y-115815531D01*
X138149721Y-115910299D01*
X138437580Y-116102640D01*
X138525155Y-116161156D01*
X138968010Y-116249245D01*
X139079793Y-116227010D01*
X140627947Y-116227010D01*
X140869368Y-116327010D01*
X141360682Y-116327010D01*
X141602103Y-116227010D01*
X148594379Y-116227010D01*
X151800396Y-119433028D01*
X151791682Y-119434761D01*
X151300475Y-119762975D01*
X151288284Y-119781219D01*
X151279257Y-119735835D01*
X151138909Y-119525791D01*
X150928865Y-119385443D01*
X150681100Y-119336160D01*
X148981100Y-119336160D01*
X148733335Y-119385443D01*
X148523291Y-119525791D01*
X148382943Y-119735835D01*
X148333660Y-119983600D01*
X148333660Y-121683600D01*
X148371334Y-121873000D01*
X132811370Y-121873000D01*
X133056100Y-121282169D01*
X133056100Y-120393031D01*
X132715841Y-119571574D01*
X132087126Y-118942859D01*
X131265669Y-118602600D01*
X130376531Y-118602600D01*
X129555074Y-118942859D01*
X128926359Y-119571574D01*
X128586100Y-120393031D01*
X128586100Y-121282169D01*
X128830830Y-121873000D01*
X126319393Y-121873000D01*
X126351528Y-121851528D01*
X126681551Y-121357613D01*
X126797440Y-120775000D01*
X126797440Y-119025000D01*
X126681551Y-118442387D01*
X126351528Y-117948472D01*
X125857613Y-117618449D01*
X125751994Y-117597440D01*
X129150000Y-117597440D01*
X129397765Y-117548157D01*
X129607809Y-117407809D01*
X129748157Y-117197765D01*
X129797440Y-116950000D01*
X129797440Y-113450000D01*
X129748157Y-113202235D01*
X129607809Y-112992191D01*
X129397765Y-112851843D01*
X129150000Y-112802560D01*
X125650000Y-112802560D01*
X125402235Y-112851843D01*
X125192191Y-112992191D01*
X125051843Y-113202235D01*
X125002560Y-113450000D01*
X125002560Y-116950000D01*
X125051843Y-117197765D01*
X125192191Y-117407809D01*
X125359001Y-117519269D01*
X125275000Y-117502560D01*
X123525000Y-117502560D01*
X122942387Y-117618449D01*
X122448472Y-117948472D01*
X122118449Y-118442387D01*
X122002560Y-119025000D01*
X122002560Y-120775000D01*
X122118449Y-121357613D01*
X122448472Y-121851528D01*
X122480607Y-121873000D01*
X118327505Y-121873000D01*
X118352851Y-115485750D01*
X119265000Y-115485750D01*
X119265000Y-117076310D01*
X119361673Y-117309699D01*
X119540302Y-117488327D01*
X119773691Y-117585000D01*
X121114250Y-117585000D01*
X121273000Y-117426250D01*
X121273000Y-115327000D01*
X121527000Y-115327000D01*
X121527000Y-117426250D01*
X121685750Y-117585000D01*
X123026309Y-117585000D01*
X123259698Y-117488327D01*
X123438327Y-117309699D01*
X123535000Y-117076310D01*
X123535000Y-115485750D01*
X123376250Y-115327000D01*
X121527000Y-115327000D01*
X121273000Y-115327000D01*
X119423750Y-115327000D01*
X119265000Y-115485750D01*
X118352851Y-115485750D01*
X118361430Y-113323690D01*
X119265000Y-113323690D01*
X119265000Y-114914250D01*
X119423750Y-115073000D01*
X121273000Y-115073000D01*
X121273000Y-112973750D01*
X121527000Y-112973750D01*
X121527000Y-115073000D01*
X123376250Y-115073000D01*
X123535000Y-114914250D01*
X123535000Y-113323690D01*
X123438327Y-113090301D01*
X123259698Y-112911673D01*
X123026309Y-112815000D01*
X121685750Y-112815000D01*
X121527000Y-112973750D01*
X121273000Y-112973750D01*
X121114250Y-112815000D01*
X119773691Y-112815000D01*
X119540302Y-112911673D01*
X119361673Y-113090301D01*
X119265000Y-113323690D01*
X118361430Y-113323690D01*
X118423636Y-97647626D01*
X140570000Y-97647626D01*
X140570000Y-98059374D01*
X140727569Y-98439780D01*
X140845001Y-98557212D01*
X140845000Y-104833289D01*
X140727569Y-104950720D01*
X140570000Y-105331126D01*
X140570000Y-105742874D01*
X140727569Y-106123280D01*
X141018720Y-106414431D01*
X141399126Y-106572000D01*
X141810874Y-106572000D01*
X142191280Y-106414431D01*
X142482431Y-106123280D01*
X142640000Y-105742874D01*
X142640000Y-105331126D01*
X142482431Y-104950720D01*
X142365000Y-104833289D01*
X142365000Y-98557211D01*
X142482431Y-98439780D01*
X142640000Y-98059374D01*
X142640000Y-97647626D01*
X142482431Y-97267220D01*
X142191280Y-96976069D01*
X141810874Y-96818500D01*
X141399126Y-96818500D01*
X141018720Y-96976069D01*
X140727569Y-97267220D01*
X140570000Y-97647626D01*
X118423636Y-97647626D01*
X118442127Y-92988128D01*
X119106177Y-92988128D01*
X119296464Y-93332871D01*
X120177691Y-93684556D01*
X121126423Y-93672241D01*
X121945736Y-93332871D01*
X122136023Y-92988128D01*
X120621100Y-91473205D01*
X119106177Y-92988128D01*
X118442127Y-92988128D01*
X118444907Y-92287676D01*
X118581829Y-92618236D01*
X118926572Y-92808523D01*
X120441495Y-91293600D01*
X120800705Y-91293600D01*
X122315628Y-92808523D01*
X122660371Y-92618236D01*
X123012056Y-91737009D01*
X122999741Y-90788277D01*
X122660371Y-89968964D01*
X122315628Y-89778677D01*
X120800705Y-91293600D01*
X120441495Y-91293600D01*
X118926572Y-89778677D01*
X118581829Y-89968964D01*
X118452825Y-90292212D01*
X118455575Y-89599072D01*
X119106177Y-89599072D01*
X120621100Y-91113995D01*
X122136023Y-89599072D01*
X121945736Y-89254329D01*
X121064509Y-88902644D01*
X120115777Y-88914959D01*
X119296464Y-89254329D01*
X119106177Y-89599072D01*
X118455575Y-89599072D01*
X118468686Y-86294879D01*
X121834382Y-86294879D01*
X121860785Y-86885058D01*
X122035841Y-87307680D01*
X122287142Y-87387953D01*
X123151495Y-86523600D01*
X122287142Y-85659247D01*
X122035841Y-85739520D01*
X121834382Y-86294879D01*
X118468686Y-86294879D01*
X118478871Y-83728215D01*
X121846100Y-83728215D01*
X121846100Y-84318985D01*
X122072178Y-84864785D01*
X122489915Y-85282522D01*
X122525063Y-85297081D01*
X122466747Y-85479642D01*
X123331100Y-86343995D01*
X123345243Y-86329853D01*
X123524848Y-86509458D01*
X123510705Y-86523600D01*
X123524848Y-86537743D01*
X123345243Y-86717348D01*
X123331100Y-86703205D01*
X122466747Y-87567558D01*
X122547020Y-87818859D01*
X123102379Y-88020318D01*
X123692558Y-87993915D01*
X124046861Y-87847158D01*
X124233335Y-87971757D01*
X124481100Y-88021040D01*
X126181100Y-88021040D01*
X126428865Y-87971757D01*
X126638909Y-87831409D01*
X126779257Y-87621365D01*
X126828540Y-87373600D01*
X126828540Y-85673600D01*
X126779257Y-85425835D01*
X126638909Y-85215791D01*
X126428865Y-85075443D01*
X126387577Y-85067230D01*
X126590022Y-84864785D01*
X126816100Y-84318985D01*
X126816100Y-83728215D01*
X126681696Y-83403734D01*
X138057000Y-83403734D01*
X138057000Y-83855266D01*
X138229793Y-84272426D01*
X138549074Y-84591707D01*
X138966234Y-84764500D01*
X139400503Y-84764500D01*
X139400503Y-85198769D01*
X139573296Y-85615929D01*
X139892577Y-85935210D01*
X140309737Y-86108003D01*
X140761269Y-86108003D01*
X141178429Y-85935210D01*
X141497710Y-85615929D01*
X141670503Y-85198769D01*
X141670503Y-84747237D01*
X141497710Y-84330077D01*
X141285500Y-84117867D01*
X141285500Y-79634211D01*
X141402931Y-79516780D01*
X141560500Y-79136374D01*
X141560500Y-78724626D01*
X141402931Y-78344220D01*
X141111780Y-78053069D01*
X140731374Y-77895500D01*
X140319626Y-77895500D01*
X139939220Y-78053069D01*
X139648069Y-78344220D01*
X139490500Y-78724626D01*
X139490500Y-79136374D01*
X139648069Y-79516780D01*
X139765500Y-79634211D01*
X139765501Y-82638536D01*
X139417766Y-82494500D01*
X138966234Y-82494500D01*
X138549074Y-82667293D01*
X138229793Y-82986574D01*
X138057000Y-83403734D01*
X126681696Y-83403734D01*
X126590022Y-83182415D01*
X126172285Y-82764678D01*
X125626485Y-82538600D01*
X125035715Y-82538600D01*
X124489915Y-82764678D01*
X124331100Y-82923493D01*
X124317514Y-82909907D01*
X125250921Y-81976500D01*
X135186289Y-81976500D01*
X135367220Y-82157431D01*
X135747626Y-82315000D01*
X136159374Y-82315000D01*
X136539780Y-82157431D01*
X136830931Y-81866280D01*
X136988500Y-81485874D01*
X136988500Y-81074126D01*
X136830931Y-80693720D01*
X136539780Y-80402569D01*
X136159374Y-80245000D01*
X135747626Y-80245000D01*
X135367220Y-80402569D01*
X135313289Y-80456500D01*
X125010967Y-80456500D01*
X124936119Y-80441612D01*
X124861271Y-80456500D01*
X124861267Y-80456500D01*
X124639582Y-80500596D01*
X124388190Y-80668571D01*
X124345790Y-80732027D01*
X122846628Y-82231190D01*
X122783172Y-82273590D01*
X122740772Y-82337046D01*
X122740771Y-82337047D01*
X122615197Y-82524982D01*
X122574486Y-82729647D01*
X122489915Y-82764678D01*
X122072178Y-83182415D01*
X121846100Y-83728215D01*
X118478871Y-83728215D01*
X118489904Y-80948128D01*
X119106177Y-80948128D01*
X119296464Y-81292871D01*
X120177691Y-81644556D01*
X121126423Y-81632241D01*
X121945736Y-81292871D01*
X122136023Y-80948128D01*
X120621100Y-79433205D01*
X119106177Y-80948128D01*
X118489904Y-80948128D01*
X118492231Y-80361927D01*
X118581829Y-80578236D01*
X118926572Y-80768523D01*
X120441495Y-79253600D01*
X120800705Y-79253600D01*
X122315628Y-80768523D01*
X122660371Y-80578236D01*
X123012056Y-79697009D01*
X122999741Y-78748277D01*
X122660371Y-77928964D01*
X122315628Y-77738677D01*
X120800705Y-79253600D01*
X120441495Y-79253600D01*
X118926572Y-77738677D01*
X118581829Y-77928964D01*
X118501083Y-78131292D01*
X118503353Y-77559072D01*
X119106177Y-77559072D01*
X120621100Y-79073995D01*
X122136023Y-77559072D01*
X121945736Y-77214329D01*
X121064509Y-76862644D01*
X120115777Y-76874959D01*
X119296464Y-77214329D01*
X119106177Y-77559072D01*
X118503353Y-77559072D01*
X118526791Y-71652815D01*
X118552606Y-71627000D01*
X130065705Y-71627000D01*
X129856100Y-72133031D01*
G36*
X161361500Y-117391061D02*
X161361501Y-119911100D01*
X161247257Y-120082078D01*
X161186283Y-119952242D01*
X160758024Y-119561955D01*
X160347990Y-119392124D01*
X160118100Y-119513445D01*
X160118100Y-120706600D01*
X160138100Y-120706600D01*
X160138100Y-120960600D01*
X160118100Y-120960600D01*
X160118100Y-120980600D01*
X159864100Y-120980600D01*
X159864100Y-120960600D01*
X157578100Y-120960600D01*
X157578100Y-120980600D01*
X157324100Y-120980600D01*
X157324100Y-120960600D01*
X157304100Y-120960600D01*
X157304100Y-120706600D01*
X157324100Y-120706600D01*
X157324100Y-119513445D01*
X157578100Y-119513445D01*
X157578100Y-120706600D01*
X159864100Y-120706600D01*
X159864100Y-119513445D01*
X159634210Y-119392124D01*
X159224176Y-119561955D01*
X158795917Y-119952242D01*
X158721100Y-120111554D01*
X158646283Y-119952242D01*
X158218024Y-119561955D01*
X157807990Y-119392124D01*
X157578100Y-119513445D01*
X157324100Y-119513445D01*
X157094210Y-119392124D01*
X156684176Y-119561955D01*
X156255917Y-119952242D01*
X156194943Y-120082078D01*
X155981725Y-119762975D01*
X155490518Y-119434761D01*
X155057356Y-119348600D01*
X154926232Y-119348600D01*
X149996631Y-114419000D01*
X158389440Y-114419000D01*
X161361500Y-117391061D01*
X161361500Y-117391061D01*
G37*
X161361500Y-117391061D02*
X161361501Y-119911100D01*
X161247257Y-120082078D01*
X161186283Y-119952242D01*
X160758024Y-119561955D01*
X160347990Y-119392124D01*
X160118100Y-119513445D01*
X160118100Y-120706600D01*
X160138100Y-120706600D01*
X160138100Y-120960600D01*
X160118100Y-120960600D01*
X160118100Y-120980600D01*
X159864100Y-120980600D01*
X159864100Y-120960600D01*
X157578100Y-120960600D01*
X157578100Y-120980600D01*
X157324100Y-120980600D01*
X157324100Y-120960600D01*
X157304100Y-120960600D01*
X157304100Y-120706600D01*
X157324100Y-120706600D01*
X157324100Y-119513445D01*
X157578100Y-119513445D01*
X157578100Y-120706600D01*
X159864100Y-120706600D01*
X159864100Y-119513445D01*
X159634210Y-119392124D01*
X159224176Y-119561955D01*
X158795917Y-119952242D01*
X158721100Y-120111554D01*
X158646283Y-119952242D01*
X158218024Y-119561955D01*
X157807990Y-119392124D01*
X157578100Y-119513445D01*
X157324100Y-119513445D01*
X157094210Y-119392124D01*
X156684176Y-119561955D01*
X156255917Y-119952242D01*
X156194943Y-120082078D01*
X155981725Y-119762975D01*
X155490518Y-119434761D01*
X155057356Y-119348600D01*
X154926232Y-119348600D01*
X149996631Y-114419000D01*
X158389440Y-114419000D01*
X161361500Y-117391061D01*
G04 #@! TD*
M02*
