G04 #@! TF.GenerationSoftware,KiCad,Pcbnew,(5.0.2)-1*
G04 #@! TF.CreationDate,2019-07-21T18:19:00-05:00*
G04 #@! TF.ProjectId,arduino_uno,61726475-696e-46f5-9f75-6e6f2e6b6963,rev?*
G04 #@! TF.SameCoordinates,Original*
G04 #@! TF.FileFunction,Legend,Top*
G04 #@! TF.FilePolarity,Positive*
%FSLAX46Y46*%
G04 Gerber Fmt 4.6, Leading zero omitted, Abs format (unit mm)*
G04 Created by KiCad (PCBNEW (5.0.2)-1) date 7/21/2019 6:19:00 PM*
%MOMM*%
%LPD*%
G01*
G04 APERTURE LIST*
%ADD10C,0.200000*%
%ADD11C,0.250000*%
%ADD12C,0.300000*%
%ADD13C,0.800000*%
%ADD14C,0.500000*%
%ADD15C,0.150000*%
%ADD16C,0.120000*%
G04 APERTURE END LIST*
D10*
X161598465Y-118368493D02*
X162729836Y-118934179D01*
X162164151Y-117802808D01*
X163295522Y-118368493D02*
X162729836Y-117802808D01*
X162446994Y-117519965D02*
X162446994Y-117600777D01*
X162527806Y-117600777D01*
X162527806Y-117519965D01*
X162446994Y-117519965D01*
X162527806Y-117600777D01*
X163133897Y-117398747D02*
X163699583Y-117964432D01*
X163214709Y-117479559D02*
X163214709Y-117398747D01*
X163255116Y-117277528D01*
X163376334Y-117156310D01*
X163497552Y-117115904D01*
X163618771Y-117156310D01*
X164063238Y-117600777D01*
D11*
X159433538Y-117947233D02*
X159312320Y-117987639D01*
X159191101Y-118108857D01*
X159110289Y-118270482D01*
X159110289Y-118432106D01*
X159150695Y-118553324D01*
X159271914Y-118755355D01*
X159393132Y-118876573D01*
X159595162Y-118997792D01*
X159716381Y-119038198D01*
X159878005Y-119038198D01*
X160039629Y-118957385D01*
X160120442Y-118876573D01*
X160201254Y-118714949D01*
X160201254Y-118634137D01*
X159918411Y-118351294D01*
X159756787Y-118512918D01*
X160645721Y-118351294D02*
X159797193Y-117502766D01*
X161130594Y-117866421D01*
X160282066Y-117017893D01*
X161534655Y-117462360D02*
X160686127Y-116613832D01*
X160888158Y-116411801D01*
X161049782Y-116330989D01*
X161211406Y-116330989D01*
X161332625Y-116371395D01*
X161534655Y-116492613D01*
X161655874Y-116613832D01*
X161777092Y-116815862D01*
X161817498Y-116937080D01*
X161817498Y-117098705D01*
X161736686Y-117260329D01*
X161534655Y-117462360D01*
X156893538Y-117947233D02*
X156772320Y-117987639D01*
X156651101Y-118108857D01*
X156570289Y-118270482D01*
X156570289Y-118432106D01*
X156610695Y-118553324D01*
X156731914Y-118755355D01*
X156853132Y-118876573D01*
X157055162Y-118997792D01*
X157176381Y-119038198D01*
X157338005Y-119038198D01*
X157499629Y-118957385D01*
X157580442Y-118876573D01*
X157661254Y-118714949D01*
X157661254Y-118634137D01*
X157378411Y-118351294D01*
X157216787Y-118512918D01*
X158105721Y-118351294D02*
X157257193Y-117502766D01*
X158590594Y-117866421D01*
X157742066Y-117017893D01*
X158994655Y-117462360D02*
X158146127Y-116613832D01*
X158348158Y-116411801D01*
X158509782Y-116330989D01*
X158671406Y-116330989D01*
X158792625Y-116371395D01*
X158994655Y-116492613D01*
X159115874Y-116613832D01*
X159237092Y-116815862D01*
X159277498Y-116937080D01*
X159277498Y-117098705D01*
X159196686Y-117260329D01*
X158994655Y-117462360D01*
D10*
X154503745Y-117906714D02*
X154099684Y-118310775D01*
X154463339Y-118755242D01*
X154463339Y-118674430D01*
X154503745Y-118553212D01*
X154705775Y-118351181D01*
X154826994Y-118310775D01*
X154907806Y-118310775D01*
X155029024Y-118351181D01*
X155231055Y-118553212D01*
X155271461Y-118674430D01*
X155271461Y-118755242D01*
X155231055Y-118876460D01*
X155029024Y-119078491D01*
X154907806Y-119118897D01*
X154826994Y-119118897D01*
X154786587Y-117623871D02*
X155917958Y-118189557D01*
X155352273Y-117058186D01*
X151415372Y-118328087D02*
X151940651Y-117802808D01*
X151981057Y-118408899D01*
X152102275Y-118287681D01*
X152223494Y-118247275D01*
X152304306Y-118247275D01*
X152425524Y-118287681D01*
X152627555Y-118489712D01*
X152667961Y-118610930D01*
X152667961Y-118691742D01*
X152627555Y-118812960D01*
X152385118Y-119055397D01*
X152263900Y-119095803D01*
X152183087Y-119095803D01*
X152183087Y-117560371D02*
X153314458Y-118126057D01*
X152748773Y-116994686D01*
X152950803Y-116792655D02*
X153476083Y-116267376D01*
X153516489Y-116873467D01*
X153637707Y-116752249D01*
X153758925Y-116711843D01*
X153839738Y-116711843D01*
X153960956Y-116752249D01*
X154162986Y-116954280D01*
X154203393Y-117075498D01*
X154203393Y-117156310D01*
X154162986Y-117277528D01*
X153920550Y-117519965D01*
X153799332Y-117560371D01*
X153718519Y-117560371D01*
X150353085Y-118674430D02*
X149666181Y-118553212D01*
X149868212Y-119159303D02*
X149019684Y-118310775D01*
X149342933Y-117987526D01*
X149464151Y-117947120D01*
X149544963Y-117947120D01*
X149666181Y-117987526D01*
X149787400Y-118108744D01*
X149827806Y-118229963D01*
X149827806Y-118310775D01*
X149787400Y-118431993D01*
X149464151Y-118755242D01*
X150635928Y-118310775D02*
X150797552Y-118229963D01*
X150999583Y-118027932D01*
X151039989Y-117906714D01*
X151039989Y-117825902D01*
X150999583Y-117704683D01*
X150918771Y-117623871D01*
X150797552Y-117583465D01*
X150716740Y-117583465D01*
X150595522Y-117623871D01*
X150393491Y-117745090D01*
X150272273Y-117785496D01*
X150191461Y-117785496D01*
X150070242Y-117745090D01*
X149989430Y-117664277D01*
X149949024Y-117543059D01*
X149949024Y-117462247D01*
X149989430Y-117341028D01*
X150191461Y-117138998D01*
X150353085Y-117058186D01*
X150555116Y-116775343D02*
X151039989Y-116290470D01*
X151646080Y-117381435D02*
X150797552Y-116532906D01*
X181440187Y-77010528D02*
X180753283Y-76889309D01*
X180955314Y-77495401D02*
X180106786Y-76646873D01*
X180430035Y-76323624D01*
X180551253Y-76283218D01*
X180632065Y-76283218D01*
X180753283Y-76323624D01*
X180874502Y-76444842D01*
X180914908Y-76566061D01*
X180914908Y-76646873D01*
X180874502Y-76768091D01*
X180551253Y-77091340D01*
X180874502Y-75879157D02*
X182288715Y-76162000D01*
X181440187Y-75313472D02*
X181723030Y-76727685D01*
X177711098Y-76566061D02*
X178195971Y-76081187D01*
X178802063Y-77172152D02*
X177953535Y-76323624D01*
X178398002Y-75879157D02*
X179812215Y-76162000D01*
X178963687Y-75313472D02*
X179246530Y-76727685D01*
X179965571Y-91157357D02*
X179965571Y-89957357D01*
X181222714Y-91043071D02*
X181165571Y-91100214D01*
X180994142Y-91157357D01*
X180879857Y-91157357D01*
X180708428Y-91100214D01*
X180594142Y-90985928D01*
X180537000Y-90871642D01*
X180479857Y-90643071D01*
X180479857Y-90471642D01*
X180537000Y-90243071D01*
X180594142Y-90128785D01*
X180708428Y-90014500D01*
X180879857Y-89957357D01*
X180994142Y-89957357D01*
X181165571Y-90014500D01*
X181222714Y-90071642D01*
X181679857Y-91100214D02*
X181851285Y-91157357D01*
X182137000Y-91157357D01*
X182251285Y-91100214D01*
X182308428Y-91043071D01*
X182365571Y-90928785D01*
X182365571Y-90814500D01*
X182308428Y-90700214D01*
X182251285Y-90643071D01*
X182137000Y-90585928D01*
X181908428Y-90528785D01*
X181794142Y-90471642D01*
X181737000Y-90414500D01*
X181679857Y-90300214D01*
X181679857Y-90185928D01*
X181737000Y-90071642D01*
X181794142Y-90014500D01*
X181908428Y-89957357D01*
X182194142Y-89957357D01*
X182365571Y-90014500D01*
X182879857Y-91157357D02*
X182879857Y-89957357D01*
X183337000Y-89957357D01*
X183451285Y-90014500D01*
X183508428Y-90071642D01*
X183565571Y-90185928D01*
X183565571Y-90357357D01*
X183508428Y-90471642D01*
X183451285Y-90528785D01*
X183337000Y-90585928D01*
X182879857Y-90585928D01*
X178737142Y-102841500D02*
X178622857Y-102784357D01*
X178451428Y-102784357D01*
X178280000Y-102841500D01*
X178165714Y-102955785D01*
X178108571Y-103070071D01*
X178051428Y-103298642D01*
X178051428Y-103470071D01*
X178108571Y-103698642D01*
X178165714Y-103812928D01*
X178280000Y-103927214D01*
X178451428Y-103984357D01*
X178565714Y-103984357D01*
X178737142Y-103927214D01*
X178794285Y-103870071D01*
X178794285Y-103470071D01*
X178565714Y-103470071D01*
X179308571Y-103984357D02*
X179308571Y-102784357D01*
X179994285Y-103984357D01*
X179994285Y-102784357D01*
X180565714Y-103984357D02*
X180565714Y-102784357D01*
X180851428Y-102784357D01*
X181022857Y-102841500D01*
X181137142Y-102955785D01*
X181194285Y-103070071D01*
X181251428Y-103298642D01*
X181251428Y-103470071D01*
X181194285Y-103698642D01*
X181137142Y-103812928D01*
X181022857Y-103927214D01*
X180851428Y-103984357D01*
X180565714Y-103984357D01*
X180165714Y-105387857D02*
X179594285Y-105387857D01*
X179537142Y-105959285D01*
X179594285Y-105902142D01*
X179708571Y-105845000D01*
X179994285Y-105845000D01*
X180108571Y-105902142D01*
X180165714Y-105959285D01*
X180222857Y-106073571D01*
X180222857Y-106359285D01*
X180165714Y-106473571D01*
X180108571Y-106530714D01*
X179994285Y-106587857D01*
X179708571Y-106587857D01*
X179594285Y-106530714D01*
X179537142Y-106473571D01*
X180565714Y-105387857D02*
X180965714Y-106587857D01*
X181365714Y-105387857D01*
D12*
X178329285Y-111610714D02*
X178500714Y-111667857D01*
X178786428Y-111667857D01*
X178900714Y-111610714D01*
X178957857Y-111553571D01*
X179015000Y-111439285D01*
X179015000Y-111325000D01*
X178957857Y-111210714D01*
X178900714Y-111153571D01*
X178786428Y-111096428D01*
X178557857Y-111039285D01*
X178443571Y-110982142D01*
X178386428Y-110925000D01*
X178329285Y-110810714D01*
X178329285Y-110696428D01*
X178386428Y-110582142D01*
X178443571Y-110525000D01*
X178557857Y-110467857D01*
X178843571Y-110467857D01*
X179015000Y-110525000D01*
X180215000Y-111553571D02*
X180157857Y-111610714D01*
X179986428Y-111667857D01*
X179872142Y-111667857D01*
X179700714Y-111610714D01*
X179586428Y-111496428D01*
X179529285Y-111382142D01*
X179472142Y-111153571D01*
X179472142Y-110982142D01*
X179529285Y-110753571D01*
X179586428Y-110639285D01*
X179700714Y-110525000D01*
X179872142Y-110467857D01*
X179986428Y-110467857D01*
X180157857Y-110525000D01*
X180215000Y-110582142D01*
X181300714Y-111667857D02*
X180729285Y-111667857D01*
X180729285Y-110467857D01*
X178272142Y-109007214D02*
X178443571Y-109064357D01*
X178729285Y-109064357D01*
X178843571Y-109007214D01*
X178900714Y-108950071D01*
X178957857Y-108835785D01*
X178957857Y-108721500D01*
X178900714Y-108607214D01*
X178843571Y-108550071D01*
X178729285Y-108492928D01*
X178500714Y-108435785D01*
X178386428Y-108378642D01*
X178329285Y-108321500D01*
X178272142Y-108207214D01*
X178272142Y-108092928D01*
X178329285Y-107978642D01*
X178386428Y-107921500D01*
X178500714Y-107864357D01*
X178786428Y-107864357D01*
X178957857Y-107921500D01*
X179472142Y-109064357D02*
X179472142Y-107864357D01*
X179757857Y-107864357D01*
X179929285Y-107921500D01*
X180043571Y-108035785D01*
X180100714Y-108150071D01*
X180157857Y-108378642D01*
X180157857Y-108550071D01*
X180100714Y-108778642D01*
X180043571Y-108892928D01*
X179929285Y-109007214D01*
X179757857Y-109064357D01*
X179472142Y-109064357D01*
X180615000Y-108721500D02*
X181186428Y-108721500D01*
X180500714Y-109064357D02*
X180900714Y-107864357D01*
X181300714Y-109064357D01*
X167445931Y-118904411D02*
X167849992Y-118500350D01*
X167607555Y-119227659D02*
X167041870Y-118096289D01*
X168173241Y-118661974D01*
X167769180Y-117368979D02*
X167849992Y-117288167D01*
X167971210Y-117247760D01*
X168052023Y-117247760D01*
X168173241Y-117288167D01*
X168375271Y-117409385D01*
X168577302Y-117611415D01*
X168698520Y-117813446D01*
X168738926Y-117934664D01*
X168738926Y-118015476D01*
X168698520Y-118136695D01*
X168617708Y-118217507D01*
X168496490Y-118257913D01*
X168415678Y-118257913D01*
X168294459Y-118217507D01*
X168092429Y-118096289D01*
X167890398Y-117894258D01*
X167769180Y-117692228D01*
X167728774Y-117571009D01*
X167728774Y-117490197D01*
X167769180Y-117368979D01*
X170049431Y-118840911D02*
X170453492Y-118436850D01*
X170211055Y-119164159D02*
X169645370Y-118032789D01*
X170776741Y-118598474D01*
X171504051Y-117871164D02*
X171019178Y-118356037D01*
X171261614Y-118113601D02*
X170413086Y-117265073D01*
X170453492Y-117467103D01*
X170453492Y-117628728D01*
X170413086Y-117749946D01*
X172525931Y-118777411D02*
X172929992Y-118373350D01*
X172687555Y-119100659D02*
X172121870Y-117969289D01*
X173253241Y-118534974D01*
X172727962Y-117524821D02*
X172727962Y-117444009D01*
X172768368Y-117322791D01*
X172970398Y-117120760D01*
X173091617Y-117080354D01*
X173172429Y-117080354D01*
X173293647Y-117120760D01*
X173374459Y-117201573D01*
X173455271Y-117363197D01*
X173455271Y-118332944D01*
X173980551Y-117807664D01*
X175129431Y-118840911D02*
X175533492Y-118436850D01*
X175291055Y-119164159D02*
X174725370Y-118032789D01*
X175856741Y-118598474D01*
X175210243Y-117547915D02*
X175735523Y-117022636D01*
X175775929Y-117628728D01*
X175897147Y-117507509D01*
X176018365Y-117467103D01*
X176099178Y-117467103D01*
X176220396Y-117507509D01*
X176422426Y-117709540D01*
X176462832Y-117830758D01*
X176462832Y-117911570D01*
X176422426Y-118032789D01*
X176179990Y-118275225D01*
X176058771Y-118315631D01*
X175977959Y-118315631D01*
X177605931Y-118840911D02*
X178009992Y-118436850D01*
X177767555Y-119164159D02*
X177201870Y-118032789D01*
X178333241Y-118598474D01*
X178414053Y-117386291D02*
X178979739Y-117951976D01*
X177888774Y-117265073D02*
X178292835Y-118073195D01*
X178818114Y-117547915D01*
X180145931Y-118777411D02*
X180549992Y-118373350D01*
X180307555Y-119100659D02*
X179741870Y-117969289D01*
X180873241Y-118534974D01*
X180711617Y-116999542D02*
X180307555Y-117403603D01*
X180671210Y-117848070D01*
X180671210Y-117767258D01*
X180711617Y-117646040D01*
X180913647Y-117444009D01*
X181034865Y-117403603D01*
X181115678Y-117403603D01*
X181236896Y-117444009D01*
X181438926Y-117646040D01*
X181479332Y-117767258D01*
X181479332Y-117848070D01*
X181438926Y-117969289D01*
X181236896Y-118171319D01*
X181115678Y-118211725D01*
X181034865Y-118211725D01*
X179991476Y-74603182D02*
X180072289Y-74522370D01*
X180193507Y-74481964D01*
X180274319Y-74481964D01*
X180395537Y-74522370D01*
X180597568Y-74643588D01*
X180799598Y-74845619D01*
X180920817Y-75047649D01*
X180961223Y-75168868D01*
X180961223Y-75249680D01*
X180920817Y-75370898D01*
X180840005Y-75451710D01*
X180718786Y-75492117D01*
X180637974Y-75492117D01*
X180516756Y-75451710D01*
X180314725Y-75330492D01*
X180112695Y-75128462D01*
X179991476Y-74926431D01*
X179951070Y-74805213D01*
X179951070Y-74724401D01*
X179991476Y-74603182D01*
X178582847Y-75105368D02*
X178097974Y-75590241D01*
X178340411Y-75347804D02*
X177491882Y-74499276D01*
X177532289Y-74701307D01*
X177532289Y-74862931D01*
X177491882Y-74984149D01*
X174790258Y-74886025D02*
X174790258Y-74805213D01*
X174830664Y-74683994D01*
X175032695Y-74481964D01*
X175153913Y-74441558D01*
X175234725Y-74441558D01*
X175355944Y-74481964D01*
X175436756Y-74562776D01*
X175517568Y-74724401D01*
X175517568Y-75694147D01*
X176042847Y-75168868D01*
X172129040Y-74845619D02*
X172654319Y-74320340D01*
X172694725Y-74926431D01*
X172815944Y-74805213D01*
X172937162Y-74764807D01*
X173017974Y-74764807D01*
X173139192Y-74805213D01*
X173341223Y-75007243D01*
X173381629Y-75128462D01*
X173381629Y-75209274D01*
X173341223Y-75330492D01*
X173098786Y-75572929D01*
X172977568Y-75613335D01*
X172896756Y-75613335D01*
X170316350Y-74683994D02*
X170882035Y-75249680D01*
X169791070Y-74562776D02*
X170195131Y-75370898D01*
X170720411Y-74845619D01*
X167533913Y-74360746D02*
X167129852Y-74764807D01*
X167493507Y-75209274D01*
X167493507Y-75128462D01*
X167533913Y-75007243D01*
X167735944Y-74805213D01*
X167857162Y-74764807D01*
X167937974Y-74764807D01*
X168059192Y-74805213D01*
X168261223Y-75007243D01*
X168301629Y-75128462D01*
X168301629Y-75209274D01*
X168261223Y-75330492D01*
X168059192Y-75532523D01*
X167937974Y-75572929D01*
X167857162Y-75572929D01*
X164890007Y-74337652D02*
X164728382Y-74499276D01*
X164687976Y-74620494D01*
X164687976Y-74701307D01*
X164728382Y-74903337D01*
X164849601Y-75105368D01*
X165172850Y-75428617D01*
X165294068Y-75469023D01*
X165374880Y-75469023D01*
X165496098Y-75428617D01*
X165657723Y-75266992D01*
X165698129Y-75145774D01*
X165698129Y-75064962D01*
X165657723Y-74943743D01*
X165455692Y-74741713D01*
X165334474Y-74701307D01*
X165253662Y-74701307D01*
X165132444Y-74741713D01*
X164970819Y-74903337D01*
X164930413Y-75024555D01*
X164930413Y-75105368D01*
X164970819Y-75226586D01*
X162032540Y-74782119D02*
X162598225Y-74216433D01*
X163083098Y-75428617D01*
X158470725Y-75007243D02*
X158349507Y-75047649D01*
X158268695Y-75047649D01*
X158147476Y-75007243D01*
X158107070Y-74966837D01*
X158066664Y-74845619D01*
X158066664Y-74764807D01*
X158107070Y-74643588D01*
X158268695Y-74481964D01*
X158389913Y-74441558D01*
X158470725Y-74441558D01*
X158591944Y-74481964D01*
X158632350Y-74522370D01*
X158672756Y-74643588D01*
X158672756Y-74724401D01*
X158632350Y-74845619D01*
X158470725Y-75007243D01*
X158430319Y-75128462D01*
X158430319Y-75209274D01*
X158470725Y-75330492D01*
X158632350Y-75492117D01*
X158753568Y-75532523D01*
X158834380Y-75532523D01*
X158955598Y-75492117D01*
X159117223Y-75330492D01*
X159157629Y-75209274D01*
X159157629Y-75128462D01*
X159117223Y-75007243D01*
X158955598Y-74845619D01*
X158834380Y-74805213D01*
X158753568Y-74805213D01*
X158632350Y-74845619D01*
X156461786Y-75636429D02*
X156623411Y-75474804D01*
X156663817Y-75353586D01*
X156663817Y-75272774D01*
X156623411Y-75070743D01*
X156502192Y-74868713D01*
X156178944Y-74545464D01*
X156057725Y-74505058D01*
X155976913Y-74505058D01*
X155855695Y-74545464D01*
X155694070Y-74707088D01*
X155653664Y-74828307D01*
X155653664Y-74909119D01*
X155694070Y-75030337D01*
X155896101Y-75232368D01*
X156017319Y-75272774D01*
X156098131Y-75272774D01*
X156219350Y-75232368D01*
X156380974Y-75070743D01*
X156421380Y-74949525D01*
X156421380Y-74868713D01*
X156380974Y-74747494D01*
X153581225Y-76040490D02*
X153096352Y-76525363D01*
X153338789Y-76282926D02*
X152490260Y-75434398D01*
X152530667Y-75636429D01*
X152530667Y-75798053D01*
X152490260Y-75919271D01*
X153257976Y-74666682D02*
X153338789Y-74585870D01*
X153460007Y-74545464D01*
X153540819Y-74545464D01*
X153662037Y-74585870D01*
X153864068Y-74707088D01*
X154066098Y-74909119D01*
X154187317Y-75111149D01*
X154227723Y-75232368D01*
X154227723Y-75313180D01*
X154187317Y-75434398D01*
X154106505Y-75515210D01*
X153985286Y-75555617D01*
X153904474Y-75555617D01*
X153783256Y-75515210D01*
X153581225Y-75393992D01*
X153379195Y-75191962D01*
X153257976Y-74989931D01*
X153217570Y-74868713D01*
X153217570Y-74787901D01*
X153257976Y-74666682D01*
X150977725Y-76040490D02*
X150492852Y-76525363D01*
X150735289Y-76282926D02*
X149886760Y-75434398D01*
X149927167Y-75636429D01*
X149927167Y-75798053D01*
X149886760Y-75919271D01*
X151785847Y-75232368D02*
X151300974Y-75717241D01*
X151543411Y-75474804D02*
X150694882Y-74626276D01*
X150735289Y-74828307D01*
X150735289Y-74989931D01*
X150694882Y-75111149D01*
X148501225Y-76040490D02*
X148016352Y-76525363D01*
X148258789Y-76282926D02*
X147410260Y-75434398D01*
X147450667Y-75636429D01*
X147450667Y-75798053D01*
X147410260Y-75919271D01*
X148056758Y-74949525D02*
X148056758Y-74868713D01*
X148097164Y-74747494D01*
X148299195Y-74545464D01*
X148420413Y-74505058D01*
X148501225Y-74505058D01*
X148622444Y-74545464D01*
X148703256Y-74626276D01*
X148784068Y-74787901D01*
X148784068Y-75757647D01*
X149309347Y-75232368D01*
X145961225Y-76040490D02*
X145476352Y-76525363D01*
X145718789Y-76282926D02*
X144870260Y-75434398D01*
X144910667Y-75636429D01*
X144910667Y-75798053D01*
X144870260Y-75919271D01*
X145395540Y-74909119D02*
X145920819Y-74383840D01*
X145961225Y-74989931D01*
X146082444Y-74868713D01*
X146203662Y-74828307D01*
X146284474Y-74828307D01*
X146405692Y-74868713D01*
X146607723Y-75070743D01*
X146648129Y-75191962D01*
X146648129Y-75272774D01*
X146607723Y-75393992D01*
X146365286Y-75636429D01*
X146244068Y-75676835D01*
X146163256Y-75676835D01*
D10*
X141752819Y-76156152D02*
X141631600Y-76196558D01*
X141510382Y-76317777D01*
X141429570Y-76479401D01*
X141429570Y-76641025D01*
X141469976Y-76762244D01*
X141591194Y-76964274D01*
X141712413Y-77085493D01*
X141914443Y-77206711D01*
X142035661Y-77247117D01*
X142197286Y-77247117D01*
X142358910Y-77166305D01*
X142439722Y-77085493D01*
X142520535Y-76923868D01*
X142520535Y-76843056D01*
X142237692Y-76560213D01*
X142076067Y-76721838D01*
X142965002Y-76560213D02*
X142116474Y-75711685D01*
X143449875Y-76075340D01*
X142601347Y-75226812D01*
X143853936Y-75671279D02*
X143005408Y-74822751D01*
X143207438Y-74620720D01*
X143369063Y-74539908D01*
X143530687Y-74539908D01*
X143651905Y-74580314D01*
X143853936Y-74701533D01*
X143975154Y-74822751D01*
X144096373Y-75024781D01*
X144136779Y-75146000D01*
X144136779Y-75307624D01*
X144055966Y-75469248D01*
X143853936Y-75671279D01*
X139230131Y-77143211D02*
X139566848Y-76806493D01*
X139405224Y-77452991D02*
X138792398Y-76368761D01*
X139876628Y-76981586D01*
X140516392Y-76341823D02*
X139876628Y-76173464D01*
X140112331Y-76745884D02*
X139263803Y-75897356D01*
X139533177Y-75627982D01*
X139640926Y-75601045D01*
X139715004Y-75607779D01*
X139829488Y-75654919D01*
X139950706Y-75776138D01*
X139997847Y-75890622D01*
X140004581Y-75964700D01*
X139977644Y-76072449D01*
X139708270Y-76341823D01*
X140374970Y-75594310D02*
X140610673Y-75358608D01*
X141156155Y-75702060D02*
X140819438Y-76038777D01*
X139970909Y-75190249D01*
X140307627Y-74853532D01*
X141250436Y-74718845D02*
X141014734Y-74954547D01*
X141459201Y-75399014D02*
X140610673Y-74550486D01*
X140947390Y-74213768D01*
X151094000Y-89055500D02*
X147094000Y-85055500D01*
X160344000Y-79805500D02*
X151094000Y-89055500D01*
X156344000Y-75805500D02*
X160344000Y-79805500D01*
X147094000Y-85055500D02*
X156344000Y-75805500D01*
X148369814Y-85135597D02*
X149736887Y-85889844D01*
X148982640Y-84522771D01*
X149794129Y-84721435D02*
X150100542Y-84415022D01*
X150787446Y-84839286D02*
X150349713Y-85277019D01*
X149289053Y-84216358D01*
X149726786Y-83778626D01*
X151706685Y-83920047D02*
X150895196Y-83721384D01*
X151181406Y-84445326D02*
X150120745Y-83384666D01*
X150470932Y-83034480D01*
X150608986Y-82997441D01*
X150703267Y-83004175D01*
X150848055Y-83061417D01*
X150999578Y-83212940D01*
X151056820Y-83357729D01*
X151063554Y-83452010D01*
X151026516Y-83590064D01*
X150676329Y-83940250D01*
X152006363Y-83519353D02*
X152188191Y-83438541D01*
X152407057Y-83219675D01*
X152444096Y-83081620D01*
X152437362Y-82987340D01*
X152380120Y-82842551D01*
X152279105Y-82741536D01*
X152134316Y-82684294D01*
X152040035Y-82677559D01*
X151901981Y-82714598D01*
X151676380Y-82839184D01*
X151538326Y-82876223D01*
X151444045Y-82869488D01*
X151299257Y-82812246D01*
X151198241Y-82711231D01*
X151140999Y-82566443D01*
X151134265Y-82472162D01*
X151171304Y-82334108D01*
X151390170Y-82115241D01*
X151571998Y-82034429D01*
X152976110Y-82650622D02*
X151915450Y-81589962D01*
X152528276Y-80977136D02*
X152703369Y-80802043D01*
X152841423Y-80765004D01*
X153029985Y-80778473D01*
X153275789Y-80936730D01*
X153629342Y-81290283D01*
X153787599Y-81536087D01*
X153801068Y-81724649D01*
X153764029Y-81862703D01*
X153588936Y-82037796D01*
X153450882Y-82074835D01*
X153262320Y-82061366D01*
X153016516Y-81903109D01*
X152662963Y-81549556D01*
X152504705Y-81303752D01*
X152491237Y-81115190D01*
X152528276Y-80977136D01*
X152299308Y-80397982D02*
X152319511Y-80680825D01*
X154376855Y-81249877D02*
X153316195Y-80189217D01*
X154902134Y-80724598D01*
X153841474Y-79663938D01*
X156040239Y-79586493D02*
X154979579Y-78525832D01*
X155198446Y-78306966D01*
X155380273Y-78226154D01*
X155568835Y-78239623D01*
X155713623Y-78296865D01*
X155959427Y-78455122D01*
X156110950Y-78606645D01*
X156269207Y-78852448D01*
X156326449Y-78997237D01*
X156339918Y-79185799D01*
X156259106Y-79367626D01*
X156040239Y-79586493D01*
X156403894Y-78111670D02*
X156710307Y-77805257D01*
X157397211Y-78229521D02*
X156959478Y-78667254D01*
X155898818Y-77606594D01*
X156336551Y-77168861D01*
X151075340Y-88016216D02*
X150014680Y-86955556D01*
X150233546Y-86736689D01*
X150415374Y-86655877D01*
X150603935Y-86669346D01*
X150748724Y-86726588D01*
X150994528Y-86884845D01*
X151146051Y-87036368D01*
X151304308Y-87282172D01*
X151361550Y-87426960D01*
X151375019Y-87615522D01*
X151294206Y-87797350D01*
X151075340Y-88016216D01*
X151438995Y-86541393D02*
X151745408Y-86234980D01*
X152432312Y-86659244D02*
X151994579Y-87096977D01*
X150933919Y-86036317D01*
X151371651Y-85598584D01*
X152731990Y-86258551D02*
X152913818Y-86177738D01*
X153132684Y-85958872D01*
X153169723Y-85820818D01*
X153162989Y-85726537D01*
X153105747Y-85581748D01*
X153004731Y-85480733D01*
X152859943Y-85423491D01*
X152765662Y-85416757D01*
X152627608Y-85453796D01*
X152402007Y-85578381D01*
X152263953Y-85615420D01*
X152169672Y-85608686D01*
X152024883Y-85551444D01*
X151923868Y-85450429D01*
X151866626Y-85305640D01*
X151859892Y-85211359D01*
X151896931Y-85073305D01*
X152115797Y-84854439D01*
X152297625Y-84773626D01*
X153354918Y-85130547D02*
X153792650Y-84692814D01*
X153570417Y-85521139D02*
X152816169Y-84154066D01*
X154183243Y-84908313D01*
X155014935Y-84076621D02*
X154203446Y-83877958D01*
X154489656Y-84601900D02*
X153428995Y-83541240D01*
X153779182Y-83191054D01*
X153917236Y-83154015D01*
X154011517Y-83160749D01*
X154156305Y-83217991D01*
X154307828Y-83369514D01*
X154365070Y-83514303D01*
X154371804Y-83608584D01*
X154334765Y-83746638D01*
X153984579Y-84096824D01*
X155934174Y-83157382D02*
X155122684Y-82958719D01*
X155408894Y-83682662D02*
X154348234Y-82622001D01*
X154698420Y-82271815D01*
X154836475Y-82234776D01*
X154930755Y-82241511D01*
X155075544Y-82298753D01*
X155227067Y-82450275D01*
X155284309Y-82595064D01*
X155291043Y-82689345D01*
X155254004Y-82827399D01*
X154903818Y-83177585D01*
X155442566Y-81527669D02*
X155617659Y-81352576D01*
X155755713Y-81315537D01*
X155944275Y-81329006D01*
X156190079Y-81487263D01*
X156543632Y-81840817D01*
X156701890Y-82086621D01*
X156715358Y-82275182D01*
X156678319Y-82413237D01*
X156503226Y-82588330D01*
X156365172Y-82625369D01*
X156176610Y-82611900D01*
X155930806Y-82453643D01*
X155577253Y-82100089D01*
X155418996Y-81854285D01*
X155405527Y-81665724D01*
X155442566Y-81527669D01*
X157728878Y-81362678D02*
X157291145Y-81800411D01*
X156230485Y-80739750D01*
X158473024Y-80618532D02*
X158035291Y-81056265D01*
X156974631Y-79995605D01*
X157893870Y-79076366D02*
X158068963Y-78901273D01*
X158207017Y-78864234D01*
X158395579Y-78877703D01*
X158641382Y-79035960D01*
X158994936Y-79389513D01*
X159153193Y-79635317D01*
X159166662Y-79823879D01*
X159129623Y-79961933D01*
X158954530Y-80137026D01*
X158816476Y-80174065D01*
X158627914Y-80160596D01*
X158382110Y-80002339D01*
X158028557Y-79648786D01*
X157870299Y-79402982D01*
X157856831Y-79214420D01*
X157893870Y-79076366D01*
X162204598Y-112975689D02*
X161356070Y-112127161D01*
X162568253Y-112612034D02*
X162123786Y-112167567D01*
X162002567Y-112127161D01*
X161881349Y-112167567D01*
X161760131Y-112288785D01*
X161719725Y-112410004D01*
X161719725Y-112490816D01*
X163255157Y-111844318D02*
X163214750Y-111965537D01*
X163053126Y-112127161D01*
X162931908Y-112167567D01*
X162810689Y-112127161D01*
X162487441Y-111803912D01*
X162447034Y-111682694D01*
X162487441Y-111561476D01*
X162649065Y-111399851D01*
X162770283Y-111359445D01*
X162891502Y-111399851D01*
X162972314Y-111480663D01*
X162649065Y-111965537D01*
X164022872Y-111076602D02*
X163982466Y-111197821D01*
X163820842Y-111359445D01*
X163699624Y-111399851D01*
X163618811Y-111399851D01*
X163497593Y-111359445D01*
X163255157Y-111117008D01*
X163214750Y-110995790D01*
X163214750Y-110914978D01*
X163255157Y-110793760D01*
X163416781Y-110632135D01*
X163537999Y-110591729D01*
X164426933Y-110753353D02*
X163578405Y-109904825D01*
X164790588Y-110389699D02*
X164346121Y-109945231D01*
X164224903Y-109904825D01*
X164103685Y-109945231D01*
X163982466Y-110066450D01*
X163942060Y-110187668D01*
X163942060Y-110268480D01*
X165315868Y-109864419D02*
X165194649Y-109904825D01*
X165113837Y-109904825D01*
X164992619Y-109864419D01*
X164750182Y-109621983D01*
X164709776Y-109500764D01*
X164709776Y-109419952D01*
X164750182Y-109298734D01*
X164871401Y-109177516D01*
X164992619Y-109137109D01*
X165073431Y-109137109D01*
X165194649Y-109177516D01*
X165437086Y-109419952D01*
X165477492Y-109541170D01*
X165477492Y-109621983D01*
X165437086Y-109743201D01*
X165315868Y-109864419D01*
X163942061Y-113985842D02*
X163901655Y-114107060D01*
X163740030Y-114268685D01*
X163618812Y-114309091D01*
X163538000Y-114309091D01*
X163416781Y-114268685D01*
X163174345Y-114026248D01*
X163133939Y-113905030D01*
X163133939Y-113824218D01*
X163174345Y-113702999D01*
X163335969Y-113541375D01*
X163457187Y-113500969D01*
X164467340Y-113541375D02*
X164346122Y-113581781D01*
X164265309Y-113581781D01*
X164144091Y-113541375D01*
X163901655Y-113298938D01*
X163861248Y-113177720D01*
X163861248Y-113096908D01*
X163901655Y-112975690D01*
X164022873Y-112854471D01*
X164144091Y-112814065D01*
X164224903Y-112814065D01*
X164346122Y-112854471D01*
X164588558Y-113096908D01*
X164628964Y-113218126D01*
X164628964Y-113298938D01*
X164588558Y-113420157D01*
X164467340Y-113541375D01*
X164548152Y-112329192D02*
X165113838Y-112894877D01*
X164628964Y-112410004D02*
X164628964Y-112329192D01*
X164669371Y-112207974D01*
X164790589Y-112086755D01*
X164911807Y-112046349D01*
X165033025Y-112086755D01*
X165477493Y-112531222D01*
X166326021Y-110551323D02*
X167012924Y-111238227D01*
X167053331Y-111359445D01*
X167053331Y-111440258D01*
X167012924Y-111561476D01*
X166891706Y-111682694D01*
X166770488Y-111723100D01*
X166851300Y-111076603D02*
X166810894Y-111197821D01*
X166649269Y-111359445D01*
X166528051Y-111399852D01*
X166447239Y-111399852D01*
X166326021Y-111359445D01*
X166083584Y-111117009D01*
X166043178Y-110995791D01*
X166043178Y-110914978D01*
X166083584Y-110793760D01*
X166245208Y-110632136D01*
X166366427Y-110591730D01*
X167659422Y-110349293D02*
X167214955Y-109904826D01*
X167093737Y-109864420D01*
X166972518Y-109904826D01*
X166810894Y-110066450D01*
X166770488Y-110187668D01*
X167619016Y-110308887D02*
X167578610Y-110430105D01*
X167376579Y-110632136D01*
X167255361Y-110672542D01*
X167134143Y-110632136D01*
X167053331Y-110551323D01*
X167012924Y-110430105D01*
X167053331Y-110308887D01*
X167255361Y-110106856D01*
X167295767Y-109985638D01*
X167497798Y-109379546D02*
X168063483Y-109945232D01*
X167578610Y-109460359D02*
X167578610Y-109379546D01*
X167619016Y-109258328D01*
X167740234Y-109137110D01*
X167861453Y-109096704D01*
X167982671Y-109137110D01*
X168427138Y-109581577D01*
X169194854Y-108813861D02*
X168750387Y-108369394D01*
X168629168Y-108328988D01*
X168507950Y-108369394D01*
X168346326Y-108531018D01*
X168305920Y-108652237D01*
X169154448Y-108773455D02*
X169114042Y-108894673D01*
X168912011Y-109096704D01*
X168790793Y-109137110D01*
X168669575Y-109096704D01*
X168588762Y-109015892D01*
X168548356Y-108894673D01*
X168588762Y-108773455D01*
X168790793Y-108571424D01*
X168831199Y-108450206D01*
X169518103Y-108409800D02*
X169639321Y-108369394D01*
X169800945Y-108207770D01*
X169841352Y-108086551D01*
X169800945Y-107965333D01*
X169760539Y-107924927D01*
X169639321Y-107884521D01*
X169518103Y-107924927D01*
X169396884Y-108046145D01*
X169275666Y-108086551D01*
X169154448Y-108046145D01*
X169114042Y-108005739D01*
X169073636Y-107884521D01*
X169114042Y-107763302D01*
X169235260Y-107642084D01*
X169356478Y-107601678D01*
X165315869Y-115440462D02*
X165275462Y-115561680D01*
X165113838Y-115723305D01*
X164992620Y-115763711D01*
X164871401Y-115723305D01*
X164548153Y-115400056D01*
X164507747Y-115278838D01*
X164548153Y-115157619D01*
X164709777Y-114995995D01*
X164830995Y-114955589D01*
X164952214Y-114995995D01*
X165033026Y-115076807D01*
X164709777Y-115561680D01*
X165194650Y-114511122D02*
X165760336Y-115076807D01*
X165275462Y-114591934D02*
X165275462Y-114511122D01*
X165315869Y-114389904D01*
X165437087Y-114268685D01*
X165558305Y-114228279D01*
X165679523Y-114268685D01*
X166123991Y-114713152D01*
X167174549Y-113662594D02*
X166608864Y-113096908D01*
X166689676Y-113177720D02*
X166689676Y-113096908D01*
X166730082Y-112975690D01*
X166851300Y-112854472D01*
X166972519Y-112814066D01*
X167093737Y-112854472D01*
X167538204Y-113298939D01*
X167093737Y-112854472D02*
X167053331Y-112733253D01*
X167093737Y-112612035D01*
X167214955Y-112490817D01*
X167336174Y-112450411D01*
X167457392Y-112490817D01*
X167901859Y-112935284D01*
X168588763Y-112167568D02*
X168548357Y-112288786D01*
X168386732Y-112450411D01*
X168265514Y-112490817D01*
X168144296Y-112450411D01*
X167821047Y-112127162D01*
X167780641Y-112005944D01*
X167821047Y-111884725D01*
X167982671Y-111723101D01*
X168103890Y-111682695D01*
X168225108Y-111723101D01*
X168305920Y-111803913D01*
X167982671Y-112288786D01*
X167659422Y-111399852D02*
X167659422Y-111642289D01*
X168952418Y-111884725D02*
X168831199Y-110874573D01*
X168386732Y-111319040D02*
X169396885Y-111440258D01*
X169720134Y-111117009D02*
X169154448Y-110551324D01*
X168871606Y-110268481D02*
X168871606Y-110349293D01*
X168952418Y-110349293D01*
X168952418Y-110268481D01*
X168871606Y-110268481D01*
X168952418Y-110349293D01*
X170447443Y-110308887D02*
X170407037Y-110430106D01*
X170245413Y-110591730D01*
X170124195Y-110632136D01*
X170043382Y-110632136D01*
X169922164Y-110591730D01*
X169679728Y-110349293D01*
X169639321Y-110228075D01*
X169639321Y-110147263D01*
X169679728Y-110026045D01*
X169841352Y-109864420D01*
X169962570Y-109824014D01*
X170972723Y-109864420D02*
X170851505Y-109904826D01*
X170770692Y-109904826D01*
X170649474Y-109864420D01*
X170407037Y-109621984D01*
X170366631Y-109500765D01*
X170366631Y-109419953D01*
X170407037Y-109298735D01*
X170528256Y-109177516D01*
X170649474Y-109137110D01*
X170730286Y-109137110D01*
X170851505Y-109177516D01*
X171093941Y-109419953D01*
X171134347Y-109541171D01*
X171134347Y-109621984D01*
X171093941Y-109743202D01*
X170972723Y-109864420D01*
D12*
X147421557Y-96222350D02*
X148835771Y-97636564D01*
X147488901Y-96289694D02*
X147556244Y-96087663D01*
X147825618Y-95818289D01*
X148027649Y-95750946D01*
X148162336Y-95750946D01*
X148364366Y-95818289D01*
X148768427Y-96222350D01*
X148835771Y-96424381D01*
X148835771Y-96559068D01*
X148768427Y-96761098D01*
X148499053Y-97030472D01*
X148297023Y-97097816D01*
X149643893Y-95885633D02*
X148701084Y-94942824D01*
X148970458Y-95212198D02*
X148903114Y-95010167D01*
X148903114Y-94875480D01*
X148970458Y-94673450D01*
X149105145Y-94538763D01*
X150721389Y-94808137D02*
X150519358Y-94875480D01*
X150384671Y-94875480D01*
X150182641Y-94808137D01*
X149778580Y-94404076D01*
X149711236Y-94202045D01*
X149711236Y-94067358D01*
X149778580Y-93865328D01*
X149980610Y-93663297D01*
X150182641Y-93595954D01*
X150317328Y-93595954D01*
X150519358Y-93663297D01*
X150923419Y-94067358D01*
X150990763Y-94269389D01*
X150990763Y-94404076D01*
X150923419Y-94606106D01*
X150721389Y-94808137D01*
X150654045Y-92989862D02*
X151192793Y-92451114D01*
X150384671Y-92316427D02*
X151596854Y-93528610D01*
X151798885Y-93595954D01*
X152000915Y-93528610D01*
X152135602Y-93393923D01*
X152809037Y-92720488D02*
X152607007Y-92787832D01*
X152472320Y-92787832D01*
X152270289Y-92720488D01*
X151866228Y-92316427D01*
X151798885Y-92114397D01*
X151798885Y-91979710D01*
X151866228Y-91777679D01*
X152068259Y-91575649D01*
X152270289Y-91508305D01*
X152404976Y-91508305D01*
X152607007Y-91575649D01*
X153011068Y-91979710D01*
X153078411Y-92181740D01*
X153078411Y-92316427D01*
X153011068Y-92518458D01*
X152809037Y-92720488D01*
X152943724Y-90700183D02*
X154357938Y-92114397D01*
X153011068Y-90767527D02*
X153078411Y-90565496D01*
X153347785Y-90296122D01*
X153549816Y-90228779D01*
X153684503Y-90228779D01*
X153886533Y-90296122D01*
X154290594Y-90700183D01*
X154357938Y-90902214D01*
X154357938Y-91036901D01*
X154290594Y-91238931D01*
X154021220Y-91508305D01*
X153819190Y-91575649D01*
X155368090Y-90161435D02*
X155166060Y-90228779D01*
X154964029Y-90161435D01*
X153751846Y-88949252D01*
X156512930Y-89016596D02*
X155772151Y-88275817D01*
X155570121Y-88208474D01*
X155368090Y-88275817D01*
X155098716Y-88545191D01*
X155031373Y-88747222D01*
X156445586Y-88949252D02*
X156378243Y-89151283D01*
X156041525Y-89488000D01*
X155839495Y-89555344D01*
X155637464Y-89488000D01*
X155502777Y-89353313D01*
X155435434Y-89151283D01*
X155502777Y-88949252D01*
X155839495Y-88612535D01*
X155906838Y-88410504D01*
X157051678Y-88343161D02*
X157253709Y-88275817D01*
X157523083Y-88006443D01*
X157590426Y-87804413D01*
X157523083Y-87602382D01*
X157455739Y-87535039D01*
X157253709Y-87467695D01*
X157051678Y-87535039D01*
X156849647Y-87737069D01*
X156647617Y-87804413D01*
X156445586Y-87737069D01*
X156378243Y-87669726D01*
X156310899Y-87467695D01*
X156378243Y-87265665D01*
X156580273Y-87063634D01*
X156782304Y-86996290D01*
X158331205Y-87198321D02*
X157388396Y-86255512D01*
X157523083Y-86390199D02*
X157523083Y-86255512D01*
X157590426Y-86053481D01*
X157792457Y-85851451D01*
X157994487Y-85784107D01*
X158196518Y-85851451D01*
X158937296Y-86592229D01*
X158196518Y-85851451D02*
X158129174Y-85649420D01*
X158196518Y-85447390D01*
X158398548Y-85245359D01*
X158600579Y-85178016D01*
X158802609Y-85245359D01*
X159543388Y-85986138D01*
X160822914Y-84706611D02*
X160082136Y-83965833D01*
X159880105Y-83898489D01*
X159678075Y-83965833D01*
X159408701Y-84235207D01*
X159341357Y-84437237D01*
X160755571Y-84639268D02*
X160688227Y-84841298D01*
X160351510Y-85178016D01*
X160149479Y-85245359D01*
X159947449Y-85178016D01*
X159812762Y-85043329D01*
X159745418Y-84841298D01*
X159812762Y-84639268D01*
X160149479Y-84302550D01*
X160216823Y-84100520D01*
D13*
X164647222Y-85140594D02*
X166532840Y-87026212D01*
X163435039Y-86352777D02*
X164916596Y-87834334D01*
X165320657Y-87969021D01*
X165724718Y-87834334D01*
X166128779Y-87430273D01*
X166263466Y-87026212D01*
X166263466Y-86756838D01*
X165994092Y-83793724D02*
X167879710Y-85679342D01*
X166263466Y-84063098D02*
X166263466Y-83793724D01*
X166398153Y-83389663D01*
X166802214Y-82985602D01*
X167206275Y-82850915D01*
X167610336Y-82985602D01*
X169091893Y-84467159D01*
X170842824Y-82716228D02*
X170438763Y-82850915D01*
X170169389Y-82850915D01*
X169765328Y-82716228D01*
X168957206Y-81908106D01*
X168822519Y-81504045D01*
X168822519Y-81234671D01*
X168957206Y-80830610D01*
X169361267Y-80426549D01*
X169765328Y-80291862D01*
X170034702Y-80291862D01*
X170438763Y-80426549D01*
X171246885Y-81234671D01*
X171381572Y-81638732D01*
X171381572Y-81908106D01*
X171246885Y-82312167D01*
X170842824Y-82716228D01*
D14*
X151759336Y-98028480D02*
X154587763Y-100856907D01*
X153510267Y-99779411D02*
X153375580Y-100183472D01*
X152836832Y-100722220D01*
X152432771Y-100856907D01*
X152163397Y-100856907D01*
X151759336Y-100722220D01*
X150951214Y-99914098D01*
X150816527Y-99510037D01*
X150816527Y-99240663D01*
X150951214Y-98836602D01*
X151489962Y-98297854D01*
X151894023Y-98163167D01*
X154318389Y-95469427D02*
X156204007Y-97355045D01*
X153106206Y-96681610D02*
X154587763Y-98163167D01*
X154991824Y-98297854D01*
X155395885Y-98163167D01*
X155799946Y-97759106D01*
X155934633Y-97355045D01*
X155934633Y-97085671D01*
X158763060Y-94795992D02*
X157281503Y-93314435D01*
X156877442Y-93179748D01*
X156473381Y-93314435D01*
X155934633Y-93853183D01*
X155799946Y-94257244D01*
X158628373Y-94661305D02*
X158493686Y-95065366D01*
X157820251Y-95738801D01*
X157416190Y-95873488D01*
X157012129Y-95738801D01*
X156742755Y-95469427D01*
X156608068Y-95065366D01*
X156742755Y-94661305D01*
X157416190Y-93987870D01*
X157550877Y-93583809D01*
X160109930Y-93449122D02*
X158224312Y-91563504D01*
X158763060Y-92102252D02*
X158628373Y-91698191D01*
X158628373Y-91428817D01*
X158763060Y-91024756D01*
X159032434Y-90755382D01*
X161860861Y-91698191D02*
X159032434Y-88869764D01*
X161052739Y-90351321D02*
X162938357Y-90620695D01*
X161052739Y-88735077D02*
X161052739Y-90890069D01*
D15*
G04 #@! TO.C,U3*
X140117053Y-98057953D02*
X140081698Y-98093309D01*
X143051547Y-100992447D02*
X142949016Y-101094977D01*
X139409947Y-104634047D02*
X139512477Y-104531516D01*
X136475453Y-101699553D02*
X136577984Y-101597023D01*
X140117053Y-98057953D02*
X143051547Y-100992447D01*
X136475453Y-101699553D02*
X139409947Y-104634047D01*
X140081698Y-98093309D02*
X139091749Y-97103359D01*
D16*
G04 #@! TO.C,U5*
X132278680Y-86115433D02*
X132561522Y-85832590D01*
X132561522Y-85832590D02*
X133551472Y-86822540D01*
X132278680Y-86115433D02*
X128884567Y-82721320D01*
X139915433Y-78478680D02*
X136521320Y-75084567D01*
G04 #@! TO.C,C1*
X131128334Y-116463560D02*
X131685180Y-117020407D01*
X131128334Y-117020407D02*
X131685180Y-116463560D01*
X134819829Y-119258798D02*
X136325171Y-119258798D01*
X131502702Y-115941671D02*
X131502702Y-114436329D01*
X131502702Y-115941671D02*
X132411733Y-116850701D01*
X134819829Y-119258798D02*
X133910799Y-118349767D01*
X136325171Y-119258798D02*
X140394968Y-115189000D01*
X131502702Y-114436329D02*
X135572500Y-110366532D01*
X135572500Y-110366532D02*
X137234201Y-112028233D01*
X140394968Y-115189000D02*
X138733267Y-113527299D01*
G04 #@! TO.C,C2*
X150110468Y-115189000D02*
X148448767Y-113527299D01*
X145288000Y-110366532D02*
X146949701Y-112028233D01*
X141218202Y-114436329D02*
X145288000Y-110366532D01*
X146040671Y-119258798D02*
X150110468Y-115189000D01*
X144535329Y-119258798D02*
X143626299Y-118349767D01*
X141218202Y-115941671D02*
X142127233Y-116850701D01*
X141218202Y-115941671D02*
X141218202Y-114436329D01*
X144535329Y-119258798D02*
X146040671Y-119258798D01*
X140843834Y-117020407D02*
X141400680Y-116463560D01*
X140843834Y-116463560D02*
X141400680Y-117020407D01*
G04 #@! TO.C,C3*
X146335227Y-105227978D02*
X146105022Y-104997773D01*
X145613978Y-105949227D02*
X145383773Y-105719022D01*
G04 #@! TO.C,C4*
X148151675Y-109617574D02*
X148381880Y-109387369D01*
X147430426Y-108896325D02*
X147660631Y-108666120D01*
G04 #@! TO.C,C5*
X156304727Y-105782522D02*
X156074522Y-106012727D01*
X155583478Y-105061273D02*
X155353273Y-105291478D01*
G04 #@! TO.C,C6*
X139223227Y-106989022D02*
X138993022Y-107219227D01*
X138501978Y-106267773D02*
X138271773Y-106497978D01*
G04 #@! TO.C,C7*
X158351380Y-107799869D02*
X158121175Y-108030074D01*
X157630131Y-107078620D02*
X157399926Y-107308825D01*
G04 #@! TO.C,C8*
X130954620Y-87479869D02*
X131184825Y-87710074D01*
X131675869Y-86758620D02*
X131906074Y-86988825D01*
G04 #@! TO.C,C9*
X129724325Y-77135926D02*
X129494120Y-77366131D01*
X130445574Y-77857175D02*
X130215369Y-78087380D01*
G04 #@! TO.C,C10*
X144875773Y-87066978D02*
X145105978Y-86836773D01*
X145597022Y-87788227D02*
X145827227Y-87558022D01*
G04 #@! TO.C,C11*
X140543120Y-81351978D02*
X140773325Y-81121773D01*
X141264369Y-82073227D02*
X141494574Y-81843022D01*
G04 #@! TO.C,C12*
X142018273Y-82812478D02*
X142248478Y-82582273D01*
X142739522Y-83533727D02*
X142969727Y-83303522D01*
G04 #@! TO.C,C13*
X175673273Y-95876522D02*
X175903478Y-96106727D01*
X176394522Y-95155273D02*
X176624727Y-95385478D01*
G04 #@! TO.C,C14*
X174276273Y-97210022D02*
X174506478Y-97440227D01*
X174997522Y-96488773D02*
X175227727Y-96718978D01*
G04 #@! TO.C,D1*
X122024670Y-105138277D02*
X123640409Y-103522538D01*
X120985223Y-104098830D02*
X122024670Y-105138277D01*
X122600962Y-102483091D02*
X120985223Y-104098830D01*
G04 #@! TO.C,D2*
X133428389Y-105125063D02*
X131094937Y-102791611D01*
X131094937Y-102791611D02*
X127276560Y-106609987D01*
X133428389Y-105125063D02*
X129610013Y-108943440D01*
G04 #@! TO.C,D3*
X142384538Y-91382409D02*
X144000277Y-89766670D01*
X144000277Y-89766670D02*
X142960830Y-88727223D01*
X142960830Y-88727223D02*
X141345091Y-90342962D01*
G04 #@! TO.C,D4*
X139976330Y-91648223D02*
X138360591Y-93263962D01*
X141015777Y-92687670D02*
X139976330Y-91648223D01*
X139400038Y-94303409D02*
X141015777Y-92687670D01*
G04 #@! TO.C,D5*
X145152256Y-99154809D02*
X143536517Y-97539070D01*
X143536517Y-97539070D02*
X142497070Y-98578517D01*
X142497070Y-98578517D02*
X144112809Y-100194256D01*
G04 #@! TO.C,F1*
X130719256Y-93334691D02*
X129867809Y-92483244D01*
X132006191Y-92047756D02*
X131154744Y-91196309D01*
G04 #@! TO.C,J1*
X128300000Y-110600000D02*
X128300000Y-113200000D01*
X113600000Y-110600000D02*
X128300000Y-110600000D01*
X128300000Y-119800000D02*
X126400000Y-119800000D01*
X128300000Y-117100000D02*
X128300000Y-119800000D01*
X113600000Y-119800000D02*
X113600000Y-110600000D01*
X122400000Y-119800000D02*
X113600000Y-119800000D01*
X127450000Y-110400000D02*
X128500000Y-110400000D01*
X128500000Y-111450000D02*
X128500000Y-110400000D01*
G04 #@! TO.C,J2*
X179108100Y-99303600D02*
X184308100Y-99303600D01*
X179108100Y-94163600D02*
X179108100Y-99303600D01*
X184308100Y-91563600D02*
X184308100Y-99303600D01*
X179108100Y-94163600D02*
X181708100Y-94163600D01*
X181708100Y-94163600D02*
X181708100Y-91563600D01*
X181708100Y-91563600D02*
X184308100Y-91563600D01*
X179108100Y-92893600D02*
X179108100Y-91563600D01*
X179108100Y-91563600D02*
X180438100Y-91563600D01*
G04 #@! TO.C,J3*
X148501100Y-120833600D02*
X148501100Y-119503600D01*
X148501100Y-119503600D02*
X149831100Y-119503600D01*
X151101100Y-119503600D02*
X163861100Y-119503600D01*
X163861100Y-122163600D02*
X163861100Y-119503600D01*
X151101100Y-122163600D02*
X163861100Y-122163600D01*
X151101100Y-122163600D02*
X151101100Y-119503600D01*
G04 #@! TO.C,J5*
X157197100Y-71243600D02*
X157197100Y-73903600D01*
X157197100Y-71243600D02*
X139357100Y-71243600D01*
X139357100Y-71243600D02*
X139357100Y-73903600D01*
X157197100Y-73903600D02*
X139357100Y-73903600D01*
X159797100Y-73903600D02*
X158467100Y-73903600D01*
X159797100Y-72573600D02*
X159797100Y-73903600D01*
G04 #@! TO.C,J6*
X181613500Y-104711500D02*
X184273500Y-104711500D01*
X181613500Y-104711500D02*
X181613500Y-112391500D01*
X181613500Y-112391500D02*
X184273500Y-112391500D01*
X184273500Y-104711500D02*
X184273500Y-112391500D01*
X184273500Y-102111500D02*
X184273500Y-103441500D01*
X182943500Y-102111500D02*
X184273500Y-102111500D01*
G04 #@! TO.C,J7*
X168881100Y-122163600D02*
X168881100Y-119503600D01*
X168881100Y-122163600D02*
X181641100Y-122163600D01*
X181641100Y-122163600D02*
X181641100Y-119503600D01*
X168881100Y-119503600D02*
X181641100Y-119503600D01*
X166281100Y-119503600D02*
X167611100Y-119503600D01*
X166281100Y-120833600D02*
X166281100Y-119503600D01*
G04 #@! TO.C,J8*
X122671100Y-91433600D02*
X126931100Y-91433600D01*
X126931100Y-91433600D02*
X126931100Y-79113600D01*
X126931100Y-79113600D02*
X122671100Y-79113600D01*
X118571100Y-91433600D02*
X110211100Y-91433600D01*
X110211100Y-91433600D02*
X110211100Y-79113600D01*
X110211100Y-79113600D02*
X118571100Y-79113600D01*
X127151100Y-86523600D02*
X127651100Y-87023600D01*
X127651100Y-87023600D02*
X127651100Y-86023600D01*
X127651100Y-86023600D02*
X127151100Y-86523600D01*
G04 #@! TO.C,J9*
X181641100Y-72573600D02*
X181641100Y-73903600D01*
X181641100Y-73903600D02*
X180311100Y-73903600D01*
X179041100Y-73903600D02*
X161201100Y-73903600D01*
X161201100Y-71243600D02*
X161201100Y-73903600D01*
X179041100Y-71243600D02*
X161201100Y-71243600D01*
X179041100Y-71243600D02*
X179041100Y-73903600D01*
G04 #@! TO.C,Q1*
X134294172Y-96968130D02*
X134951782Y-96310521D01*
X136528630Y-94733672D02*
X135871021Y-95391282D01*
X136528630Y-94733672D02*
X135001279Y-93206322D01*
X134294172Y-96968130D02*
X133261797Y-95935754D01*
G04 #@! TO.C,R1*
X125086522Y-106584227D02*
X125316727Y-106354022D01*
X124365273Y-105862978D02*
X124595478Y-105632773D01*
G04 #@! TO.C,R2*
X141088522Y-89185227D02*
X141318727Y-88955022D01*
X140367273Y-88463978D02*
X140597478Y-88233773D01*
G04 #@! TO.C,R3*
X137446273Y-91448478D02*
X137676478Y-91218273D01*
X138167522Y-92169727D02*
X138397727Y-91939522D01*
G04 #@! TO.C,R4*
X141865175Y-96122426D02*
X142095380Y-96352631D01*
X141143926Y-96843675D02*
X141374131Y-97073880D01*
G04 #@! TO.C,R5*
X134056978Y-101949773D02*
X133826773Y-102179978D01*
X134778227Y-102671022D02*
X134548022Y-102901227D01*
G04 #@! TO.C,R6*
X136049273Y-104402478D02*
X136279478Y-104172273D01*
X136770522Y-105123727D02*
X137000727Y-104893522D01*
G04 #@! TO.C,R7*
X159495426Y-109340825D02*
X159725631Y-109110620D01*
X160216675Y-110062074D02*
X160446880Y-109831869D01*
D15*
G04 #@! TO.C,SW1*
X173360608Y-87363412D02*
X176593500Y-84130519D01*
X176593500Y-90596304D02*
X173360608Y-87363412D01*
X179826392Y-87363412D02*
X176593500Y-90596304D01*
X176593500Y-84130519D02*
X179826392Y-87363412D01*
D16*
G04 #@! TO.C,U1*
X132261808Y-100310660D02*
X131370854Y-99419706D01*
X127439340Y-95488192D02*
X128330294Y-96379146D01*
X129603087Y-102969382D02*
X132261808Y-100310660D01*
X123189628Y-99737904D02*
X127439340Y-95488192D01*
G04 #@! TO.C,U2*
X144910630Y-109101328D02*
X143878254Y-110133703D01*
X142676172Y-106866870D02*
X141148822Y-108394221D01*
X142676172Y-106866870D02*
X143333782Y-107524479D01*
X144910630Y-109101328D02*
X144253021Y-108443718D01*
D15*
G04 #@! TO.C,U4*
X170126524Y-103000000D02*
X169967425Y-102840901D01*
X165000000Y-108126524D02*
X164770190Y-107896714D01*
X159873476Y-103000000D02*
X160103286Y-103229810D01*
X165000000Y-97873476D02*
X165229810Y-98103286D01*
X170126524Y-103000000D02*
X169896714Y-103229810D01*
X165000000Y-97873476D02*
X164770190Y-98103286D01*
X159873476Y-103000000D02*
X160103286Y-102770190D01*
X165000000Y-108126524D02*
X165229810Y-107896714D01*
X169967425Y-102840901D02*
X170975052Y-101833274D01*
D16*
G04 #@! TO.C,Y1*
X137212101Y-84902292D02*
X137565654Y-84548739D01*
X137565654Y-84548739D02*
X139616264Y-86599348D01*
X139616264Y-86599348D02*
X139262711Y-86952902D01*
X138343472Y-85326556D02*
X138555604Y-84265896D01*
X138555604Y-84265896D02*
X138697025Y-84124475D01*
X138838447Y-85821531D02*
X139899107Y-85609399D01*
X139899107Y-85609399D02*
X140040528Y-85467978D01*
G04 #@! TO.C,Y2*
X172893520Y-96063407D02*
X175120907Y-93836020D01*
X175120907Y-93836020D02*
X172292480Y-91007593D01*
G04 #@! TO.C,@HOLE0*
D15*
G04 #@! TO.C,@HOLE3*
G04 #@! TO.C,@HOLE2*
G04 #@! TO.C,@HOLE1*
G04 #@! TO.C,U3*
X142203026Y-104736022D02*
X142775446Y-105308442D01*
X142876461Y-105342114D01*
X142943805Y-105342114D01*
X143044820Y-105308442D01*
X143179507Y-105173755D01*
X143213179Y-105072740D01*
X143213179Y-105005396D01*
X143179507Y-104904381D01*
X142607087Y-104331961D01*
X142876461Y-104062587D02*
X143314194Y-103624855D01*
X143347866Y-104129931D01*
X143448881Y-104028916D01*
X143549896Y-103995244D01*
X143617240Y-103995244D01*
X143718255Y-104028916D01*
X143886614Y-104197274D01*
X143920286Y-104298290D01*
X143920286Y-104365633D01*
X143886614Y-104466648D01*
X143684583Y-104668679D01*
X143583568Y-104702351D01*
X143516225Y-104702351D01*
G04 #@! TO.C,U5*
X129864415Y-84058088D02*
X129291995Y-84630508D01*
X129258323Y-84731523D01*
X129258323Y-84798867D01*
X129291995Y-84899882D01*
X129426682Y-85034569D01*
X129527697Y-85068241D01*
X129595041Y-85068241D01*
X129696056Y-85034569D01*
X130268476Y-84462149D01*
X130941911Y-85135584D02*
X130605193Y-84798867D01*
X130234804Y-85101913D01*
X130302147Y-85101913D01*
X130403163Y-85135584D01*
X130571521Y-85303943D01*
X130605193Y-85404958D01*
X130605193Y-85472302D01*
X130571521Y-85573317D01*
X130403163Y-85741676D01*
X130302147Y-85775348D01*
X130234804Y-85775348D01*
X130133789Y-85741676D01*
X129965430Y-85573317D01*
X129931758Y-85472302D01*
X129931758Y-85404958D01*
G04 #@! TO.C,C1*
X132631273Y-112483475D02*
X132631273Y-112550818D01*
X132563929Y-112685505D01*
X132496586Y-112752849D01*
X132361898Y-112820192D01*
X132227211Y-112820192D01*
X132126196Y-112786521D01*
X131957837Y-112685505D01*
X131856822Y-112584490D01*
X131755807Y-112416131D01*
X131722135Y-112315116D01*
X131722135Y-112180429D01*
X131789479Y-112045742D01*
X131856822Y-111978398D01*
X131991509Y-111911055D01*
X132058853Y-111911055D01*
X133372051Y-111877383D02*
X132967990Y-112281444D01*
X133170021Y-112079414D02*
X132462914Y-111372307D01*
X132496586Y-111540666D01*
X132496586Y-111675353D01*
X132462914Y-111776368D01*
G04 #@! TO.C,C2*
X142346773Y-112483475D02*
X142346773Y-112550818D01*
X142279429Y-112685505D01*
X142212086Y-112752849D01*
X142077398Y-112820192D01*
X141942711Y-112820192D01*
X141841696Y-112786521D01*
X141673337Y-112685505D01*
X141572322Y-112584490D01*
X141471307Y-112416131D01*
X141437635Y-112315116D01*
X141437635Y-112180429D01*
X141504979Y-112045742D01*
X141572322Y-111978398D01*
X141707009Y-111911055D01*
X141774353Y-111911055D01*
X142043727Y-111641681D02*
X142043727Y-111574337D01*
X142077398Y-111473322D01*
X142245757Y-111304963D01*
X142346773Y-111271292D01*
X142414116Y-111271292D01*
X142515131Y-111304963D01*
X142582475Y-111372307D01*
X142649818Y-111506994D01*
X142649818Y-112315116D01*
X143087551Y-111877383D01*
G04 #@! TO.C,C3*
X146505110Y-104528687D02*
X146437767Y-104528687D01*
X146303080Y-104461343D01*
X146235736Y-104394000D01*
X146168393Y-104259312D01*
X146168393Y-104124625D01*
X146202064Y-104023610D01*
X146303080Y-103855251D01*
X146404095Y-103754236D01*
X146572454Y-103653221D01*
X146673469Y-103619549D01*
X146808156Y-103619549D01*
X146942843Y-103686893D01*
X147010187Y-103754236D01*
X147077530Y-103888923D01*
X147077530Y-103956267D01*
X147380576Y-104124625D02*
X147818309Y-104562358D01*
X147313232Y-104596030D01*
X147414248Y-104697045D01*
X147447919Y-104798061D01*
X147447919Y-104865404D01*
X147414248Y-104966419D01*
X147245889Y-105134778D01*
X147144874Y-105168450D01*
X147077530Y-105168450D01*
X146976515Y-105134778D01*
X146774484Y-104932748D01*
X146740812Y-104831732D01*
X146740812Y-104764389D01*
G04 #@! TO.C,C4*
X147029677Y-108501073D02*
X147029677Y-108568416D01*
X146962333Y-108703103D01*
X146894990Y-108770447D01*
X146760302Y-108837790D01*
X146625615Y-108837790D01*
X146524600Y-108804119D01*
X146356241Y-108703103D01*
X146255226Y-108602088D01*
X146154211Y-108433729D01*
X146120539Y-108332714D01*
X146120539Y-108198027D01*
X146187883Y-108063340D01*
X146255226Y-107995996D01*
X146389913Y-107928653D01*
X146457257Y-107928653D01*
X147231707Y-107490920D02*
X147703112Y-107962325D01*
X146793974Y-107389905D02*
X147130692Y-108063340D01*
X147568425Y-107625607D01*
G04 #@! TO.C,C5*
X154947687Y-104891389D02*
X154947687Y-104958732D01*
X154880343Y-105093419D01*
X154813000Y-105160763D01*
X154678312Y-105228106D01*
X154543625Y-105228106D01*
X154442610Y-105194435D01*
X154274251Y-105093419D01*
X154173236Y-104992404D01*
X154072221Y-104824045D01*
X154038549Y-104723030D01*
X154038549Y-104588343D01*
X154105893Y-104453656D01*
X154173236Y-104386312D01*
X154307923Y-104318969D01*
X154375267Y-104318969D01*
X154947687Y-103611862D02*
X154610969Y-103948580D01*
X154914015Y-104318969D01*
X154914015Y-104251625D01*
X154947687Y-104150610D01*
X155116045Y-103982251D01*
X155217061Y-103948580D01*
X155284404Y-103948580D01*
X155385419Y-103982251D01*
X155553778Y-104150610D01*
X155587450Y-104251625D01*
X155587450Y-104318969D01*
X155553778Y-104419984D01*
X155385419Y-104588343D01*
X155284404Y-104622015D01*
X155217061Y-104622015D01*
G04 #@! TO.C,C6*
X137866187Y-106161389D02*
X137866187Y-106228732D01*
X137798843Y-106363419D01*
X137731500Y-106430763D01*
X137596812Y-106498106D01*
X137462125Y-106498106D01*
X137361110Y-106464435D01*
X137192751Y-106363419D01*
X137091736Y-106262404D01*
X136990721Y-106094045D01*
X136957049Y-105993030D01*
X136957049Y-105858343D01*
X137024393Y-105723656D01*
X137091736Y-105656312D01*
X137226423Y-105588969D01*
X137293767Y-105588969D01*
X137832515Y-104915534D02*
X137697828Y-105050221D01*
X137664156Y-105151236D01*
X137664156Y-105218580D01*
X137697828Y-105386938D01*
X137798843Y-105555297D01*
X138068217Y-105824671D01*
X138169232Y-105858343D01*
X138236576Y-105858343D01*
X138337591Y-105824671D01*
X138472278Y-105689984D01*
X138505950Y-105588969D01*
X138505950Y-105521625D01*
X138472278Y-105420610D01*
X138303919Y-105252251D01*
X138202904Y-105218580D01*
X138135561Y-105218580D01*
X138034545Y-105252251D01*
X137899858Y-105386938D01*
X137866187Y-105487954D01*
X137866187Y-105555297D01*
X137899858Y-105656312D01*
G04 #@! TO.C,C7*
X157106687Y-106986889D02*
X157106687Y-107054232D01*
X157039343Y-107188919D01*
X156972000Y-107256263D01*
X156837312Y-107323606D01*
X156702625Y-107323606D01*
X156601610Y-107289935D01*
X156433251Y-107188919D01*
X156332236Y-107087904D01*
X156231221Y-106919545D01*
X156197549Y-106818530D01*
X156197549Y-106683843D01*
X156264893Y-106549156D01*
X156332236Y-106481812D01*
X156466923Y-106414469D01*
X156534267Y-106414469D01*
X156702625Y-106111423D02*
X157174030Y-105640019D01*
X157578091Y-106650171D01*
G04 #@! TO.C,C8*
X130058610Y-88399687D02*
X129991267Y-88399687D01*
X129856580Y-88332343D01*
X129789236Y-88265000D01*
X129721893Y-88130312D01*
X129721893Y-87995625D01*
X129755564Y-87894610D01*
X129856580Y-87726251D01*
X129957595Y-87625236D01*
X130125954Y-87524221D01*
X130226969Y-87490549D01*
X130361656Y-87490549D01*
X130496343Y-87557893D01*
X130563687Y-87625236D01*
X130631030Y-87759923D01*
X130631030Y-87827267D01*
X130799389Y-88467030D02*
X130765717Y-88366015D01*
X130765717Y-88298671D01*
X130799389Y-88197656D01*
X130833061Y-88163984D01*
X130934076Y-88130312D01*
X131001419Y-88130312D01*
X131102435Y-88163984D01*
X131237122Y-88298671D01*
X131270793Y-88399687D01*
X131270793Y-88467030D01*
X131237122Y-88568045D01*
X131203450Y-88601717D01*
X131102435Y-88635389D01*
X131035091Y-88635389D01*
X130934076Y-88601717D01*
X130799389Y-88467030D01*
X130698374Y-88433358D01*
X130631030Y-88433358D01*
X130530015Y-88467030D01*
X130395328Y-88601717D01*
X130361656Y-88702732D01*
X130361656Y-88770076D01*
X130395328Y-88871091D01*
X130530015Y-89005778D01*
X130631030Y-89039450D01*
X130698374Y-89039450D01*
X130799389Y-89005778D01*
X130934076Y-88871091D01*
X130967748Y-88770076D01*
X130967748Y-88702732D01*
X130934076Y-88601717D01*
G04 #@! TO.C,C9*
X128277687Y-79808889D02*
X128277687Y-79876232D01*
X128210343Y-80010919D01*
X128143000Y-80078263D01*
X128008312Y-80145606D01*
X127873625Y-80145606D01*
X127772610Y-80111935D01*
X127604251Y-80010919D01*
X127503236Y-79909904D01*
X127402221Y-79741545D01*
X127368549Y-79640530D01*
X127368549Y-79505843D01*
X127435893Y-79371156D01*
X127503236Y-79303812D01*
X127637923Y-79236469D01*
X127705267Y-79236469D01*
X128681748Y-79539515D02*
X128816435Y-79404828D01*
X128850106Y-79303812D01*
X128850106Y-79236469D01*
X128816435Y-79068110D01*
X128715419Y-78899751D01*
X128446045Y-78630377D01*
X128345030Y-78596706D01*
X128277687Y-78596706D01*
X128176671Y-78630377D01*
X128041984Y-78765064D01*
X128008312Y-78866080D01*
X128008312Y-78933423D01*
X128041984Y-79034438D01*
X128210343Y-79202797D01*
X128311358Y-79236469D01*
X128378702Y-79236469D01*
X128479717Y-79202797D01*
X128614404Y-79068110D01*
X128648076Y-78967095D01*
X128648076Y-78899751D01*
X128614404Y-78798736D01*
G04 #@! TO.C,C10*
X144138306Y-87008443D02*
X144138306Y-87075787D01*
X144070962Y-87210474D01*
X144003619Y-87277817D01*
X143868932Y-87345161D01*
X143734245Y-87345161D01*
X143633230Y-87311489D01*
X143464871Y-87210474D01*
X143363856Y-87109459D01*
X143262840Y-86941100D01*
X143229169Y-86840085D01*
X143229169Y-86705398D01*
X143296512Y-86570711D01*
X143363856Y-86503367D01*
X143498543Y-86436024D01*
X143565886Y-86436024D01*
X144879085Y-86402352D02*
X144475024Y-86806413D01*
X144677054Y-86604382D02*
X143969947Y-85897275D01*
X144003619Y-86065634D01*
X144003619Y-86200321D01*
X143969947Y-86301337D01*
X144609711Y-85257512D02*
X144677054Y-85190169D01*
X144778069Y-85156497D01*
X144845413Y-85156497D01*
X144946428Y-85190169D01*
X145114787Y-85291184D01*
X145283146Y-85459543D01*
X145384161Y-85627901D01*
X145417833Y-85728917D01*
X145417833Y-85796260D01*
X145384161Y-85897275D01*
X145316817Y-85964619D01*
X145215802Y-85998291D01*
X145148459Y-85998291D01*
X145047443Y-85964619D01*
X144879085Y-85863604D01*
X144710726Y-85695245D01*
X144609711Y-85526886D01*
X144576039Y-85425871D01*
X144576039Y-85358527D01*
X144609711Y-85257512D01*
G04 #@! TO.C,C11*
X141786893Y-79871469D02*
X141719549Y-79871469D01*
X141584862Y-79804125D01*
X141517519Y-79736782D01*
X141450175Y-79602095D01*
X141450175Y-79467408D01*
X141483847Y-79366393D01*
X141584862Y-79198034D01*
X141685877Y-79097019D01*
X141854236Y-78996003D01*
X141955251Y-78962332D01*
X142089938Y-78962332D01*
X142224625Y-79029675D01*
X142291969Y-79097019D01*
X142359312Y-79231706D01*
X142359312Y-79299049D01*
X142392984Y-80612248D02*
X141988923Y-80208187D01*
X142190954Y-80410217D02*
X142898061Y-79703110D01*
X142729702Y-79736782D01*
X142595015Y-79736782D01*
X142494000Y-79703110D01*
X143066419Y-81285683D02*
X142662358Y-80881622D01*
X142864389Y-81083652D02*
X143571496Y-80376545D01*
X143403137Y-80410217D01*
X143268450Y-80410217D01*
X143167435Y-80376545D01*
G04 #@! TO.C,C12*
X143244469Y-84781106D02*
X143244469Y-84848450D01*
X143177125Y-84983137D01*
X143109782Y-85050480D01*
X142975095Y-85117824D01*
X142840408Y-85117824D01*
X142739393Y-85084152D01*
X142571034Y-84983137D01*
X142470019Y-84882122D01*
X142369003Y-84713763D01*
X142335332Y-84612748D01*
X142335332Y-84478061D01*
X142402675Y-84343374D01*
X142470019Y-84276030D01*
X142604706Y-84208687D01*
X142672049Y-84208687D01*
X143985248Y-84175015D02*
X143581187Y-84579076D01*
X143783217Y-84377045D02*
X143076110Y-83669938D01*
X143109782Y-83838297D01*
X143109782Y-83972984D01*
X143076110Y-84074000D01*
X143614858Y-83265877D02*
X143614858Y-83198534D01*
X143648530Y-83097519D01*
X143816889Y-82929160D01*
X143917904Y-82895488D01*
X143985248Y-82895488D01*
X144086263Y-82929160D01*
X144153606Y-82996503D01*
X144220950Y-83131190D01*
X144220950Y-83939312D01*
X144658683Y-83501580D01*
G04 #@! TO.C,C13*
X176453056Y-94417806D02*
X176385712Y-94417806D01*
X176251025Y-94350462D01*
X176183682Y-94283119D01*
X176116338Y-94148432D01*
X176116338Y-94013745D01*
X176150010Y-93912730D01*
X176251025Y-93744371D01*
X176352040Y-93643356D01*
X176520399Y-93542340D01*
X176621414Y-93508669D01*
X176756101Y-93508669D01*
X176890788Y-93576012D01*
X176958132Y-93643356D01*
X177025475Y-93778043D01*
X177025475Y-93845386D01*
X177059147Y-95158585D02*
X176655086Y-94754524D01*
X176857117Y-94956554D02*
X177564224Y-94249447D01*
X177395865Y-94283119D01*
X177261178Y-94283119D01*
X177160163Y-94249447D01*
X178001956Y-94687180D02*
X178439689Y-95124913D01*
X177934613Y-95158585D01*
X178035628Y-95259600D01*
X178069300Y-95360615D01*
X178069300Y-95427959D01*
X178035628Y-95528974D01*
X177867269Y-95697333D01*
X177766254Y-95731004D01*
X177698911Y-95731004D01*
X177597895Y-95697333D01*
X177395865Y-95495302D01*
X177362193Y-95394287D01*
X177362193Y-95326943D01*
G04 #@! TO.C,C14*
X173028893Y-97841969D02*
X172961549Y-97841969D01*
X172826862Y-97774625D01*
X172759519Y-97707282D01*
X172692175Y-97572595D01*
X172692175Y-97437908D01*
X172725847Y-97336893D01*
X172826862Y-97168534D01*
X172927877Y-97067519D01*
X173096236Y-96966503D01*
X173197251Y-96932832D01*
X173331938Y-96932832D01*
X173466625Y-97000175D01*
X173533969Y-97067519D01*
X173601312Y-97202206D01*
X173601312Y-97269549D01*
X173634984Y-98582748D02*
X173230923Y-98178687D01*
X173432954Y-98380717D02*
X174140061Y-97673610D01*
X173971702Y-97707282D01*
X173837015Y-97707282D01*
X173736000Y-97673610D01*
X174712480Y-98717435D02*
X174241076Y-99188839D01*
X174813496Y-98279702D02*
X174140061Y-98616419D01*
X174577793Y-99054152D01*
G04 #@! TO.C,D1*
X121341806Y-103399130D02*
X120634699Y-102692024D01*
X120803058Y-102523665D01*
X120937745Y-102456321D01*
X121072432Y-102456321D01*
X121173447Y-102489993D01*
X121341806Y-102591008D01*
X121442821Y-102692024D01*
X121543837Y-102860382D01*
X121577508Y-102961398D01*
X121577508Y-103096085D01*
X121510165Y-103230772D01*
X121341806Y-103399130D01*
X122419302Y-102321634D02*
X122015241Y-102725695D01*
X122217272Y-102523665D02*
X121510165Y-101816558D01*
X121543837Y-101984917D01*
X121543837Y-102119604D01*
X121510165Y-102220619D01*
G04 #@! TO.C,D2*
X131423236Y-108972060D02*
X130716129Y-108264954D01*
X130884488Y-108096595D01*
X131019175Y-108029251D01*
X131153862Y-108029251D01*
X131254877Y-108062923D01*
X131423236Y-108163938D01*
X131524251Y-108264954D01*
X131625267Y-108433312D01*
X131658938Y-108534328D01*
X131658938Y-108669015D01*
X131591595Y-108803702D01*
X131423236Y-108972060D01*
X131456908Y-107658862D02*
X131456908Y-107591518D01*
X131490579Y-107490503D01*
X131658938Y-107322144D01*
X131759954Y-107288473D01*
X131827297Y-107288473D01*
X131928312Y-107322144D01*
X131995656Y-107389488D01*
X132062999Y-107524175D01*
X132062999Y-108332297D01*
X132500732Y-107894564D01*
G04 #@! TO.C,D3*
X143239632Y-92149956D02*
X142532525Y-91442850D01*
X142700884Y-91274491D01*
X142835571Y-91207147D01*
X142970258Y-91207147D01*
X143071273Y-91240819D01*
X143239632Y-91341834D01*
X143340647Y-91442850D01*
X143441663Y-91611208D01*
X143475334Y-91712224D01*
X143475334Y-91846911D01*
X143407991Y-91981598D01*
X143239632Y-92149956D01*
X143172288Y-90803086D02*
X143610021Y-90365353D01*
X143643693Y-90870430D01*
X143744708Y-90769414D01*
X143845724Y-90735743D01*
X143913067Y-90735743D01*
X144014082Y-90769414D01*
X144182441Y-90937773D01*
X144216113Y-91038788D01*
X144216113Y-91106132D01*
X144182441Y-91207147D01*
X143980411Y-91409178D01*
X143879395Y-91442850D01*
X143812052Y-91442850D01*
G04 #@! TO.C,D4*
X140255132Y-95070956D02*
X139548025Y-94363850D01*
X139716384Y-94195491D01*
X139851071Y-94128147D01*
X139985758Y-94128147D01*
X140086773Y-94161819D01*
X140255132Y-94262834D01*
X140356147Y-94363850D01*
X140457163Y-94532208D01*
X140490834Y-94633224D01*
X140490834Y-94767911D01*
X140423491Y-94902598D01*
X140255132Y-95070956D01*
X140793880Y-93589399D02*
X141265285Y-94060804D01*
X140356147Y-93488384D02*
X140692865Y-94161819D01*
X141130598Y-93724086D01*
G04 #@! TO.C,D5*
X144431553Y-97509816D02*
X145138659Y-96802709D01*
X145307018Y-96971068D01*
X145374362Y-97105755D01*
X145374362Y-97240442D01*
X145340690Y-97341457D01*
X145239675Y-97509816D01*
X145138659Y-97610831D01*
X144970301Y-97711847D01*
X144869285Y-97745518D01*
X144734598Y-97745518D01*
X144599911Y-97678175D01*
X144431553Y-97509816D01*
X146182484Y-97846534D02*
X145845766Y-97509816D01*
X145475377Y-97812862D01*
X145542721Y-97812862D01*
X145643736Y-97846534D01*
X145812095Y-98014892D01*
X145845766Y-98115908D01*
X145845766Y-98183251D01*
X145812095Y-98284266D01*
X145643736Y-98452625D01*
X145542721Y-98486297D01*
X145475377Y-98486297D01*
X145374362Y-98452625D01*
X145206003Y-98284266D01*
X145172331Y-98183251D01*
X145172331Y-98115908D01*
G04 #@! TO.C,F1*
X128364790Y-90228194D02*
X128129087Y-90463896D01*
X128499477Y-90834286D02*
X127792370Y-90127179D01*
X128129087Y-89790461D01*
X129475957Y-89857805D02*
X129071896Y-90261866D01*
X129273927Y-90059835D02*
X128566820Y-89352729D01*
X128600492Y-89521087D01*
X128600492Y-89655774D01*
X128566820Y-89756790D01*
G04 #@! TO.C,J1*
X118616666Y-120402380D02*
X118616666Y-121116666D01*
X118569047Y-121259523D01*
X118473809Y-121354761D01*
X118330952Y-121402380D01*
X118235714Y-121402380D01*
X119616666Y-121402380D02*
X119045238Y-121402380D01*
X119330952Y-121402380D02*
X119330952Y-120402380D01*
X119235714Y-120545238D01*
X119140476Y-120640476D01*
X119045238Y-120688095D01*
G04 #@! TO.C,J8*
X118237766Y-93745980D02*
X118237766Y-94460266D01*
X118190147Y-94603123D01*
X118094909Y-94698361D01*
X117952052Y-94745980D01*
X117856814Y-94745980D01*
X118856814Y-94174552D02*
X118761576Y-94126933D01*
X118713957Y-94079314D01*
X118666338Y-93984076D01*
X118666338Y-93936457D01*
X118713957Y-93841219D01*
X118761576Y-93793600D01*
X118856814Y-93745980D01*
X119047290Y-93745980D01*
X119142528Y-93793600D01*
X119190147Y-93841219D01*
X119237766Y-93936457D01*
X119237766Y-93984076D01*
X119190147Y-94079314D01*
X119142528Y-94126933D01*
X119047290Y-94174552D01*
X118856814Y-94174552D01*
X118761576Y-94222171D01*
X118713957Y-94269790D01*
X118666338Y-94365028D01*
X118666338Y-94555504D01*
X118713957Y-94650742D01*
X118761576Y-94698361D01*
X118856814Y-94745980D01*
X119047290Y-94745980D01*
X119142528Y-94698361D01*
X119190147Y-94650742D01*
X119237766Y-94555504D01*
X119237766Y-94365028D01*
X119190147Y-94269790D01*
X119142528Y-94222171D01*
X119047290Y-94174552D01*
G04 #@! TO.C,Q1*
X137098881Y-97482568D02*
X136997866Y-97516240D01*
X136863179Y-97516240D01*
X136661148Y-97516240D01*
X136560133Y-97549912D01*
X136492790Y-97617255D01*
X136694820Y-97751942D02*
X136593805Y-97785614D01*
X136459118Y-97785614D01*
X136290759Y-97684599D01*
X136055057Y-97448896D01*
X135954042Y-97280538D01*
X135954042Y-97145851D01*
X135987713Y-97044835D01*
X136122400Y-96910148D01*
X136223416Y-96876477D01*
X136358103Y-96876477D01*
X136526461Y-96977492D01*
X136762164Y-97213194D01*
X136863179Y-97381553D01*
X136863179Y-97516240D01*
X136829507Y-97617255D01*
X136694820Y-97751942D01*
X137671301Y-96775461D02*
X137267240Y-97179522D01*
X137469270Y-96977492D02*
X136762164Y-96270385D01*
X136795835Y-96438744D01*
X136795835Y-96573431D01*
X136762164Y-96674446D01*
G04 #@! TO.C,R1*
X124031867Y-105535069D02*
X123459447Y-105434054D01*
X123627806Y-105939130D02*
X122920699Y-105232024D01*
X123190073Y-104962649D01*
X123291088Y-104928978D01*
X123358432Y-104928978D01*
X123459447Y-104962649D01*
X123560462Y-105063665D01*
X123594134Y-105164680D01*
X123594134Y-105232024D01*
X123560462Y-105333039D01*
X123291088Y-105602413D01*
X124705302Y-104861634D02*
X124301241Y-105265695D01*
X124503272Y-105063665D02*
X123796165Y-104356558D01*
X123829837Y-104524917D01*
X123829837Y-104659604D01*
X123796165Y-104760619D01*
G04 #@! TO.C,R2*
X140033867Y-88136069D02*
X139461447Y-88035054D01*
X139629806Y-88540130D02*
X138922699Y-87833024D01*
X139192073Y-87563649D01*
X139293088Y-87529978D01*
X139360432Y-87529978D01*
X139461447Y-87563649D01*
X139562462Y-87664665D01*
X139596134Y-87765680D01*
X139596134Y-87833024D01*
X139562462Y-87934039D01*
X139293088Y-88203413D01*
X139663478Y-87226932D02*
X139663478Y-87159588D01*
X139697149Y-87058573D01*
X139865508Y-86890214D01*
X139966524Y-86856543D01*
X140033867Y-86856543D01*
X140134882Y-86890214D01*
X140202226Y-86957558D01*
X140269569Y-87092245D01*
X140269569Y-87900367D01*
X140707302Y-87462634D01*
G04 #@! TO.C,R3*
X137112867Y-91120569D02*
X136540447Y-91019554D01*
X136708806Y-91524630D02*
X136001699Y-90817524D01*
X136271073Y-90548149D01*
X136372088Y-90514478D01*
X136439432Y-90514478D01*
X136540447Y-90548149D01*
X136641462Y-90649165D01*
X136675134Y-90750180D01*
X136675134Y-90817524D01*
X136641462Y-90918539D01*
X136372088Y-91187913D01*
X136641462Y-90177760D02*
X137079195Y-89740027D01*
X137112867Y-90245104D01*
X137213882Y-90144088D01*
X137314898Y-90110417D01*
X137382241Y-90110417D01*
X137483256Y-90144088D01*
X137651615Y-90312447D01*
X137685287Y-90413462D01*
X137685287Y-90480806D01*
X137651615Y-90581821D01*
X137449585Y-90783852D01*
X137348569Y-90817524D01*
X137281226Y-90817524D01*
G04 #@! TO.C,R4*
X142324920Y-95657183D02*
X142425935Y-95084763D01*
X141920859Y-95253122D02*
X142627965Y-94546015D01*
X142897340Y-94815389D01*
X142931011Y-94916404D01*
X142931011Y-94983748D01*
X142897340Y-95084763D01*
X142796324Y-95185778D01*
X142695309Y-95219450D01*
X142627965Y-95219450D01*
X142526950Y-95185778D01*
X142257576Y-94916404D01*
X143402416Y-95791870D02*
X142931011Y-96263275D01*
X143503431Y-95354137D02*
X142829996Y-95690855D01*
X143267729Y-96128588D01*
G04 #@! TO.C,R5*
X133488530Y-101720231D02*
X132916110Y-101619216D01*
X133084469Y-102124292D02*
X132377362Y-101417186D01*
X132646736Y-101147811D01*
X132747751Y-101114140D01*
X132815095Y-101114140D01*
X132916110Y-101147811D01*
X133017125Y-101248827D01*
X133050797Y-101349842D01*
X133050797Y-101417186D01*
X133017125Y-101518201D01*
X132747751Y-101787575D01*
X133421187Y-100373361D02*
X133084469Y-100710079D01*
X133387515Y-101080468D01*
X133387515Y-101013124D01*
X133421187Y-100912109D01*
X133589545Y-100743750D01*
X133690561Y-100710079D01*
X133757904Y-100710079D01*
X133858919Y-100743750D01*
X134027278Y-100912109D01*
X134060950Y-101013124D01*
X134060950Y-101080468D01*
X134027278Y-101181483D01*
X133858919Y-101349842D01*
X133757904Y-101383514D01*
X133690561Y-101383514D01*
G04 #@! TO.C,R6*
X135715867Y-104074569D02*
X135143447Y-103973554D01*
X135311806Y-104478630D02*
X134604699Y-103771524D01*
X134874073Y-103502149D01*
X134975088Y-103468478D01*
X135042432Y-103468478D01*
X135143447Y-103502149D01*
X135244462Y-103603165D01*
X135278134Y-103704180D01*
X135278134Y-103771524D01*
X135244462Y-103872539D01*
X134975088Y-104141913D01*
X135614852Y-102761371D02*
X135480165Y-102896058D01*
X135446493Y-102997073D01*
X135446493Y-103064417D01*
X135480165Y-103232775D01*
X135581180Y-103401134D01*
X135850554Y-103670508D01*
X135951569Y-103704180D01*
X136018913Y-103704180D01*
X136119928Y-103670508D01*
X136254615Y-103535821D01*
X136288287Y-103434806D01*
X136288287Y-103367462D01*
X136254615Y-103266447D01*
X136086256Y-103098088D01*
X135985241Y-103064417D01*
X135917898Y-103064417D01*
X135816882Y-103098088D01*
X135682195Y-103232775D01*
X135648524Y-103333791D01*
X135648524Y-103401134D01*
X135682195Y-103502149D01*
G04 #@! TO.C,R7*
X159162020Y-109012916D02*
X158589600Y-108911901D01*
X158757959Y-109416977D02*
X158050852Y-108709871D01*
X158320226Y-108440496D01*
X158421241Y-108406825D01*
X158488585Y-108406825D01*
X158589600Y-108440496D01*
X158690615Y-108541512D01*
X158724287Y-108642527D01*
X158724287Y-108709871D01*
X158690615Y-108810886D01*
X158421241Y-109080260D01*
X158690615Y-108070107D02*
X159162020Y-107598703D01*
X159566081Y-108608855D01*
G04 #@! TO.C,U1*
X124392045Y-96219541D02*
X124964465Y-96791961D01*
X125065480Y-96825633D01*
X125132824Y-96825633D01*
X125233839Y-96791961D01*
X125368526Y-96657274D01*
X125402198Y-96556259D01*
X125402198Y-96488915D01*
X125368526Y-96387900D01*
X124796106Y-95815480D01*
X126210320Y-95815480D02*
X125806259Y-96219541D01*
X126008289Y-96017511D02*
X125301183Y-95310404D01*
X125334854Y-95478763D01*
X125334854Y-95613450D01*
X125301183Y-95714465D01*
G04 #@! TO.C,U2*
X140425026Y-107212522D02*
X140997446Y-107784942D01*
X141098461Y-107818614D01*
X141165805Y-107818614D01*
X141266820Y-107784942D01*
X141401507Y-107650255D01*
X141435179Y-107549240D01*
X141435179Y-107481896D01*
X141401507Y-107380881D01*
X140829087Y-106808461D01*
X141199477Y-106572759D02*
X141199477Y-106505416D01*
X141233148Y-106404400D01*
X141401507Y-106236042D01*
X141502522Y-106202370D01*
X141569866Y-106202370D01*
X141670881Y-106236042D01*
X141738225Y-106303385D01*
X141805568Y-106438072D01*
X141805568Y-107246194D01*
X142243301Y-106808461D01*
G04 #@! TO.C,U4*
X169348477Y-97574026D02*
X168776057Y-98146446D01*
X168742385Y-98247461D01*
X168742385Y-98314805D01*
X168776057Y-98415820D01*
X168910744Y-98550507D01*
X169011759Y-98584179D01*
X169079103Y-98584179D01*
X169180118Y-98550507D01*
X169752538Y-97978087D01*
X170156599Y-98853553D02*
X169685194Y-99324957D01*
X170257614Y-98415820D02*
X169584179Y-98752538D01*
X170021912Y-99190270D01*
G04 #@! TO.C,Y1*
X132903118Y-90578446D02*
X132566400Y-90915164D01*
X133037805Y-89972355D02*
X132903118Y-90578446D01*
X133509209Y-90443759D01*
X133408194Y-91756957D02*
X133004133Y-91352896D01*
X133206164Y-91554927D02*
X133913270Y-90847820D01*
X133744912Y-90881492D01*
X133610225Y-90881492D01*
X133509209Y-90847820D01*
G04 #@! TO.C,Y2*
X170540706Y-94914358D02*
X170203988Y-95251076D01*
X170675393Y-94308267D02*
X170540706Y-94914358D01*
X171146797Y-94779671D01*
X171281484Y-95049045D02*
X171348828Y-95049045D01*
X171449843Y-95082717D01*
X171618202Y-95251076D01*
X171651874Y-95352091D01*
X171651874Y-95419434D01*
X171618202Y-95520450D01*
X171550858Y-95587793D01*
X171416171Y-95655137D01*
X170608049Y-95655137D01*
X171045782Y-96092869D01*
G04 #@! TD*
M02*
