G04 #@! TF.GenerationSoftware,KiCad,Pcbnew,(5.0.2)-1*
G04 #@! TF.CreationDate,2019-07-21T18:19:00-05:00*
G04 #@! TF.ProjectId,arduino_uno,61726475-696e-46f5-9f75-6e6f2e6b6963,rev?*
G04 #@! TF.SameCoordinates,Original*
G04 #@! TF.FileFunction,Soldermask,Bot*
G04 #@! TF.FilePolarity,Negative*
%FSLAX46Y46*%
G04 Gerber Fmt 4.6, Leading zero omitted, Abs format (unit mm)*
G04 Created by KiCad (PCBNEW (5.0.2)-1) date 7/21/2019 6:19:00 PM*
%MOMM*%
%LPD*%
G01*
G04 APERTURE LIST*
%ADD10C,0.100000*%
G04 APERTURE END LIST*
D10*
G36*
X131196356Y-119228898D02*
X131302679Y-119250047D01*
X131603142Y-119374503D01*
X131869952Y-119552780D01*
X131873554Y-119555187D01*
X132103513Y-119785146D01*
X132103515Y-119785149D01*
X132284197Y-120055558D01*
X132398128Y-120330611D01*
X132408653Y-120356022D01*
X132472100Y-120674989D01*
X132472100Y-121000211D01*
X132466897Y-121026366D01*
X132408653Y-121319179D01*
X132320650Y-121531637D01*
X132297976Y-121586378D01*
X132284197Y-121619642D01*
X132240990Y-121684305D01*
X132103513Y-121890054D01*
X131873554Y-122120013D01*
X131873551Y-122120015D01*
X131603142Y-122300697D01*
X131302679Y-122425153D01*
X131196356Y-122446302D01*
X130983711Y-122488600D01*
X130658489Y-122488600D01*
X130445844Y-122446302D01*
X130339521Y-122425153D01*
X130039058Y-122300697D01*
X129768649Y-122120015D01*
X129768646Y-122120013D01*
X129538687Y-121890054D01*
X129401210Y-121684305D01*
X129358003Y-121619642D01*
X129344225Y-121586378D01*
X129321550Y-121531637D01*
X129233547Y-121319179D01*
X129175303Y-121026366D01*
X129170100Y-121000211D01*
X129170100Y-120674989D01*
X129233547Y-120356022D01*
X129244073Y-120330611D01*
X129358003Y-120055558D01*
X129538685Y-119785149D01*
X129538687Y-119785146D01*
X129768646Y-119555187D01*
X129772248Y-119552780D01*
X130039058Y-119374503D01*
X130339521Y-119250047D01*
X130445844Y-119228898D01*
X130658489Y-119186600D01*
X130983711Y-119186600D01*
X131196356Y-119228898D01*
X131196356Y-119228898D01*
G37*
G36*
X180421542Y-119939118D02*
X180487727Y-119945637D01*
X180600953Y-119979984D01*
X180657567Y-119997157D01*
X180796187Y-120071252D01*
X180814091Y-120080822D01*
X180849829Y-120110152D01*
X180951286Y-120193414D01*
X181034548Y-120294871D01*
X181063878Y-120330609D01*
X181063879Y-120330611D01*
X181147543Y-120487133D01*
X181147543Y-120487134D01*
X181199063Y-120656973D01*
X181216459Y-120833600D01*
X181199063Y-121010227D01*
X181194167Y-121026366D01*
X181147543Y-121180067D01*
X181145730Y-121183458D01*
X181063878Y-121336591D01*
X181034548Y-121372329D01*
X180951286Y-121473786D01*
X180859346Y-121549238D01*
X180814091Y-121586378D01*
X180814089Y-121586379D01*
X180657567Y-121670043D01*
X180600953Y-121687216D01*
X180487727Y-121721563D01*
X180421543Y-121728081D01*
X180355360Y-121734600D01*
X180266840Y-121734600D01*
X180200657Y-121728081D01*
X180134473Y-121721563D01*
X180021247Y-121687216D01*
X179964633Y-121670043D01*
X179808111Y-121586379D01*
X179808109Y-121586378D01*
X179762854Y-121549238D01*
X179670914Y-121473786D01*
X179587652Y-121372329D01*
X179558322Y-121336591D01*
X179476470Y-121183458D01*
X179474657Y-121180067D01*
X179428033Y-121026366D01*
X179423137Y-121010227D01*
X179405741Y-120833600D01*
X179423137Y-120656973D01*
X179474657Y-120487134D01*
X179474657Y-120487133D01*
X179558321Y-120330611D01*
X179558322Y-120330609D01*
X179587652Y-120294871D01*
X179670914Y-120193414D01*
X179772371Y-120110152D01*
X179808109Y-120080822D01*
X179826013Y-120071252D01*
X179964633Y-119997157D01*
X180021247Y-119979984D01*
X180134473Y-119945637D01*
X180200658Y-119939118D01*
X180266840Y-119932600D01*
X180355360Y-119932600D01*
X180421542Y-119939118D01*
X180421542Y-119939118D01*
G37*
G36*
X177881542Y-119939118D02*
X177947727Y-119945637D01*
X178060953Y-119979984D01*
X178117567Y-119997157D01*
X178256187Y-120071252D01*
X178274091Y-120080822D01*
X178309829Y-120110152D01*
X178411286Y-120193414D01*
X178494548Y-120294871D01*
X178523878Y-120330609D01*
X178523879Y-120330611D01*
X178607543Y-120487133D01*
X178607543Y-120487134D01*
X178659063Y-120656973D01*
X178676459Y-120833600D01*
X178659063Y-121010227D01*
X178654167Y-121026366D01*
X178607543Y-121180067D01*
X178605730Y-121183458D01*
X178523878Y-121336591D01*
X178494548Y-121372329D01*
X178411286Y-121473786D01*
X178319346Y-121549238D01*
X178274091Y-121586378D01*
X178274089Y-121586379D01*
X178117567Y-121670043D01*
X178060953Y-121687216D01*
X177947727Y-121721563D01*
X177881543Y-121728081D01*
X177815360Y-121734600D01*
X177726840Y-121734600D01*
X177660657Y-121728081D01*
X177594473Y-121721563D01*
X177481247Y-121687216D01*
X177424633Y-121670043D01*
X177268111Y-121586379D01*
X177268109Y-121586378D01*
X177222854Y-121549238D01*
X177130914Y-121473786D01*
X177047652Y-121372329D01*
X177018322Y-121336591D01*
X176936470Y-121183458D01*
X176934657Y-121180067D01*
X176888033Y-121026366D01*
X176883137Y-121010227D01*
X176865741Y-120833600D01*
X176883137Y-120656973D01*
X176934657Y-120487134D01*
X176934657Y-120487133D01*
X177018321Y-120330611D01*
X177018322Y-120330609D01*
X177047652Y-120294871D01*
X177130914Y-120193414D01*
X177232371Y-120110152D01*
X177268109Y-120080822D01*
X177286013Y-120071252D01*
X177424633Y-119997157D01*
X177481247Y-119979984D01*
X177594473Y-119945637D01*
X177660658Y-119939118D01*
X177726840Y-119932600D01*
X177815360Y-119932600D01*
X177881542Y-119939118D01*
X177881542Y-119939118D01*
G37*
G36*
X175341542Y-119939118D02*
X175407727Y-119945637D01*
X175520953Y-119979984D01*
X175577567Y-119997157D01*
X175716187Y-120071252D01*
X175734091Y-120080822D01*
X175769829Y-120110152D01*
X175871286Y-120193414D01*
X175954548Y-120294871D01*
X175983878Y-120330609D01*
X175983879Y-120330611D01*
X176067543Y-120487133D01*
X176067543Y-120487134D01*
X176119063Y-120656973D01*
X176136459Y-120833600D01*
X176119063Y-121010227D01*
X176114167Y-121026366D01*
X176067543Y-121180067D01*
X176065730Y-121183458D01*
X175983878Y-121336591D01*
X175954548Y-121372329D01*
X175871286Y-121473786D01*
X175779346Y-121549238D01*
X175734091Y-121586378D01*
X175734089Y-121586379D01*
X175577567Y-121670043D01*
X175520953Y-121687216D01*
X175407727Y-121721563D01*
X175341543Y-121728081D01*
X175275360Y-121734600D01*
X175186840Y-121734600D01*
X175120657Y-121728081D01*
X175054473Y-121721563D01*
X174941247Y-121687216D01*
X174884633Y-121670043D01*
X174728111Y-121586379D01*
X174728109Y-121586378D01*
X174682854Y-121549238D01*
X174590914Y-121473786D01*
X174507652Y-121372329D01*
X174478322Y-121336591D01*
X174396470Y-121183458D01*
X174394657Y-121180067D01*
X174348033Y-121026366D01*
X174343137Y-121010227D01*
X174325741Y-120833600D01*
X174343137Y-120656973D01*
X174394657Y-120487134D01*
X174394657Y-120487133D01*
X174478321Y-120330611D01*
X174478322Y-120330609D01*
X174507652Y-120294871D01*
X174590914Y-120193414D01*
X174692371Y-120110152D01*
X174728109Y-120080822D01*
X174746013Y-120071252D01*
X174884633Y-119997157D01*
X174941247Y-119979984D01*
X175054473Y-119945637D01*
X175120658Y-119939118D01*
X175186840Y-119932600D01*
X175275360Y-119932600D01*
X175341542Y-119939118D01*
X175341542Y-119939118D01*
G37*
G36*
X172801542Y-119939118D02*
X172867727Y-119945637D01*
X172980953Y-119979984D01*
X173037567Y-119997157D01*
X173176187Y-120071252D01*
X173194091Y-120080822D01*
X173229829Y-120110152D01*
X173331286Y-120193414D01*
X173414548Y-120294871D01*
X173443878Y-120330609D01*
X173443879Y-120330611D01*
X173527543Y-120487133D01*
X173527543Y-120487134D01*
X173579063Y-120656973D01*
X173596459Y-120833600D01*
X173579063Y-121010227D01*
X173574167Y-121026366D01*
X173527543Y-121180067D01*
X173525730Y-121183458D01*
X173443878Y-121336591D01*
X173414548Y-121372329D01*
X173331286Y-121473786D01*
X173239346Y-121549238D01*
X173194091Y-121586378D01*
X173194089Y-121586379D01*
X173037567Y-121670043D01*
X172980953Y-121687216D01*
X172867727Y-121721563D01*
X172801543Y-121728081D01*
X172735360Y-121734600D01*
X172646840Y-121734600D01*
X172580657Y-121728081D01*
X172514473Y-121721563D01*
X172401247Y-121687216D01*
X172344633Y-121670043D01*
X172188111Y-121586379D01*
X172188109Y-121586378D01*
X172142854Y-121549238D01*
X172050914Y-121473786D01*
X171967652Y-121372329D01*
X171938322Y-121336591D01*
X171856470Y-121183458D01*
X171854657Y-121180067D01*
X171808033Y-121026366D01*
X171803137Y-121010227D01*
X171785741Y-120833600D01*
X171803137Y-120656973D01*
X171854657Y-120487134D01*
X171854657Y-120487133D01*
X171938321Y-120330611D01*
X171938322Y-120330609D01*
X171967652Y-120294871D01*
X172050914Y-120193414D01*
X172152371Y-120110152D01*
X172188109Y-120080822D01*
X172206013Y-120071252D01*
X172344633Y-119997157D01*
X172401247Y-119979984D01*
X172514473Y-119945637D01*
X172580658Y-119939118D01*
X172646840Y-119932600D01*
X172735360Y-119932600D01*
X172801542Y-119939118D01*
X172801542Y-119939118D01*
G37*
G36*
X170261542Y-119939118D02*
X170327727Y-119945637D01*
X170440953Y-119979984D01*
X170497567Y-119997157D01*
X170636187Y-120071252D01*
X170654091Y-120080822D01*
X170689829Y-120110152D01*
X170791286Y-120193414D01*
X170874548Y-120294871D01*
X170903878Y-120330609D01*
X170903879Y-120330611D01*
X170987543Y-120487133D01*
X170987543Y-120487134D01*
X171039063Y-120656973D01*
X171056459Y-120833600D01*
X171039063Y-121010227D01*
X171034167Y-121026366D01*
X170987543Y-121180067D01*
X170985730Y-121183458D01*
X170903878Y-121336591D01*
X170874548Y-121372329D01*
X170791286Y-121473786D01*
X170699346Y-121549238D01*
X170654091Y-121586378D01*
X170654089Y-121586379D01*
X170497567Y-121670043D01*
X170440953Y-121687216D01*
X170327727Y-121721563D01*
X170261543Y-121728081D01*
X170195360Y-121734600D01*
X170106840Y-121734600D01*
X170040657Y-121728081D01*
X169974473Y-121721563D01*
X169861247Y-121687216D01*
X169804633Y-121670043D01*
X169648111Y-121586379D01*
X169648109Y-121586378D01*
X169602854Y-121549238D01*
X169510914Y-121473786D01*
X169427652Y-121372329D01*
X169398322Y-121336591D01*
X169316470Y-121183458D01*
X169314657Y-121180067D01*
X169268033Y-121026366D01*
X169263137Y-121010227D01*
X169245741Y-120833600D01*
X169263137Y-120656973D01*
X169314657Y-120487134D01*
X169314657Y-120487133D01*
X169398321Y-120330611D01*
X169398322Y-120330609D01*
X169427652Y-120294871D01*
X169510914Y-120193414D01*
X169612371Y-120110152D01*
X169648109Y-120080822D01*
X169666013Y-120071252D01*
X169804633Y-119997157D01*
X169861247Y-119979984D01*
X169974473Y-119945637D01*
X170040658Y-119939118D01*
X170106840Y-119932600D01*
X170195360Y-119932600D01*
X170261542Y-119939118D01*
X170261542Y-119939118D01*
G37*
G36*
X168512100Y-121734600D02*
X166710100Y-121734600D01*
X166710100Y-119932600D01*
X168512100Y-119932600D01*
X168512100Y-121734600D01*
X168512100Y-121734600D01*
G37*
G36*
X152481542Y-119939118D02*
X152547727Y-119945637D01*
X152660953Y-119979984D01*
X152717567Y-119997157D01*
X152856187Y-120071252D01*
X152874091Y-120080822D01*
X152909829Y-120110152D01*
X153011286Y-120193414D01*
X153094548Y-120294871D01*
X153123878Y-120330609D01*
X153123879Y-120330611D01*
X153207543Y-120487133D01*
X153207543Y-120487134D01*
X153259063Y-120656973D01*
X153276459Y-120833600D01*
X153259063Y-121010227D01*
X153254167Y-121026366D01*
X153207543Y-121180067D01*
X153205730Y-121183458D01*
X153123878Y-121336591D01*
X153094548Y-121372329D01*
X153011286Y-121473786D01*
X152919346Y-121549238D01*
X152874091Y-121586378D01*
X152874089Y-121586379D01*
X152717567Y-121670043D01*
X152660953Y-121687216D01*
X152547727Y-121721563D01*
X152481543Y-121728081D01*
X152415360Y-121734600D01*
X152326840Y-121734600D01*
X152260657Y-121728081D01*
X152194473Y-121721563D01*
X152081247Y-121687216D01*
X152024633Y-121670043D01*
X151868111Y-121586379D01*
X151868109Y-121586378D01*
X151822854Y-121549238D01*
X151730914Y-121473786D01*
X151647652Y-121372329D01*
X151618322Y-121336591D01*
X151536470Y-121183458D01*
X151534657Y-121180067D01*
X151488033Y-121026366D01*
X151483137Y-121010227D01*
X151465741Y-120833600D01*
X151483137Y-120656973D01*
X151534657Y-120487134D01*
X151534657Y-120487133D01*
X151618321Y-120330611D01*
X151618322Y-120330609D01*
X151647652Y-120294871D01*
X151730914Y-120193414D01*
X151832371Y-120110152D01*
X151868109Y-120080822D01*
X151886013Y-120071252D01*
X152024633Y-119997157D01*
X152081247Y-119979984D01*
X152194473Y-119945637D01*
X152260658Y-119939118D01*
X152326840Y-119932600D01*
X152415360Y-119932600D01*
X152481542Y-119939118D01*
X152481542Y-119939118D01*
G37*
G36*
X155021542Y-119939118D02*
X155087727Y-119945637D01*
X155200953Y-119979984D01*
X155257567Y-119997157D01*
X155396187Y-120071252D01*
X155414091Y-120080822D01*
X155449829Y-120110152D01*
X155551286Y-120193414D01*
X155634548Y-120294871D01*
X155663878Y-120330609D01*
X155663879Y-120330611D01*
X155747543Y-120487133D01*
X155747543Y-120487134D01*
X155799063Y-120656973D01*
X155816459Y-120833600D01*
X155799063Y-121010227D01*
X155794167Y-121026366D01*
X155747543Y-121180067D01*
X155745730Y-121183458D01*
X155663878Y-121336591D01*
X155634548Y-121372329D01*
X155551286Y-121473786D01*
X155459346Y-121549238D01*
X155414091Y-121586378D01*
X155414089Y-121586379D01*
X155257567Y-121670043D01*
X155200953Y-121687216D01*
X155087727Y-121721563D01*
X155021543Y-121728081D01*
X154955360Y-121734600D01*
X154866840Y-121734600D01*
X154800657Y-121728081D01*
X154734473Y-121721563D01*
X154621247Y-121687216D01*
X154564633Y-121670043D01*
X154408111Y-121586379D01*
X154408109Y-121586378D01*
X154362854Y-121549238D01*
X154270914Y-121473786D01*
X154187652Y-121372329D01*
X154158322Y-121336591D01*
X154076470Y-121183458D01*
X154074657Y-121180067D01*
X154028033Y-121026366D01*
X154023137Y-121010227D01*
X154005741Y-120833600D01*
X154023137Y-120656973D01*
X154074657Y-120487134D01*
X154074657Y-120487133D01*
X154158321Y-120330611D01*
X154158322Y-120330609D01*
X154187652Y-120294871D01*
X154270914Y-120193414D01*
X154372371Y-120110152D01*
X154408109Y-120080822D01*
X154426013Y-120071252D01*
X154564633Y-119997157D01*
X154621247Y-119979984D01*
X154734473Y-119945637D01*
X154800658Y-119939118D01*
X154866840Y-119932600D01*
X154955360Y-119932600D01*
X155021542Y-119939118D01*
X155021542Y-119939118D01*
G37*
G36*
X157561542Y-119939118D02*
X157627727Y-119945637D01*
X157740953Y-119979984D01*
X157797567Y-119997157D01*
X157936187Y-120071252D01*
X157954091Y-120080822D01*
X157989829Y-120110152D01*
X158091286Y-120193414D01*
X158174548Y-120294871D01*
X158203878Y-120330609D01*
X158203879Y-120330611D01*
X158287543Y-120487133D01*
X158287543Y-120487134D01*
X158339063Y-120656973D01*
X158356459Y-120833600D01*
X158339063Y-121010227D01*
X158334167Y-121026366D01*
X158287543Y-121180067D01*
X158285730Y-121183458D01*
X158203878Y-121336591D01*
X158174548Y-121372329D01*
X158091286Y-121473786D01*
X157999346Y-121549238D01*
X157954091Y-121586378D01*
X157954089Y-121586379D01*
X157797567Y-121670043D01*
X157740953Y-121687216D01*
X157627727Y-121721563D01*
X157561543Y-121728081D01*
X157495360Y-121734600D01*
X157406840Y-121734600D01*
X157340657Y-121728081D01*
X157274473Y-121721563D01*
X157161247Y-121687216D01*
X157104633Y-121670043D01*
X156948111Y-121586379D01*
X156948109Y-121586378D01*
X156902854Y-121549238D01*
X156810914Y-121473786D01*
X156727652Y-121372329D01*
X156698322Y-121336591D01*
X156616470Y-121183458D01*
X156614657Y-121180067D01*
X156568033Y-121026366D01*
X156563137Y-121010227D01*
X156545741Y-120833600D01*
X156563137Y-120656973D01*
X156614657Y-120487134D01*
X156614657Y-120487133D01*
X156698321Y-120330611D01*
X156698322Y-120330609D01*
X156727652Y-120294871D01*
X156810914Y-120193414D01*
X156912371Y-120110152D01*
X156948109Y-120080822D01*
X156966013Y-120071252D01*
X157104633Y-119997157D01*
X157161247Y-119979984D01*
X157274473Y-119945637D01*
X157340658Y-119939118D01*
X157406840Y-119932600D01*
X157495360Y-119932600D01*
X157561542Y-119939118D01*
X157561542Y-119939118D01*
G37*
G36*
X160101542Y-119939118D02*
X160167727Y-119945637D01*
X160280953Y-119979984D01*
X160337567Y-119997157D01*
X160476187Y-120071252D01*
X160494091Y-120080822D01*
X160529829Y-120110152D01*
X160631286Y-120193414D01*
X160714548Y-120294871D01*
X160743878Y-120330609D01*
X160743879Y-120330611D01*
X160827543Y-120487133D01*
X160827543Y-120487134D01*
X160879063Y-120656973D01*
X160896459Y-120833600D01*
X160879063Y-121010227D01*
X160874167Y-121026366D01*
X160827543Y-121180067D01*
X160825730Y-121183458D01*
X160743878Y-121336591D01*
X160714548Y-121372329D01*
X160631286Y-121473786D01*
X160539346Y-121549238D01*
X160494091Y-121586378D01*
X160494089Y-121586379D01*
X160337567Y-121670043D01*
X160280953Y-121687216D01*
X160167727Y-121721563D01*
X160101543Y-121728081D01*
X160035360Y-121734600D01*
X159946840Y-121734600D01*
X159880657Y-121728081D01*
X159814473Y-121721563D01*
X159701247Y-121687216D01*
X159644633Y-121670043D01*
X159488111Y-121586379D01*
X159488109Y-121586378D01*
X159442854Y-121549238D01*
X159350914Y-121473786D01*
X159267652Y-121372329D01*
X159238322Y-121336591D01*
X159156470Y-121183458D01*
X159154657Y-121180067D01*
X159108033Y-121026366D01*
X159103137Y-121010227D01*
X159085741Y-120833600D01*
X159103137Y-120656973D01*
X159154657Y-120487134D01*
X159154657Y-120487133D01*
X159238321Y-120330611D01*
X159238322Y-120330609D01*
X159267652Y-120294871D01*
X159350914Y-120193414D01*
X159452371Y-120110152D01*
X159488109Y-120080822D01*
X159506013Y-120071252D01*
X159644633Y-119997157D01*
X159701247Y-119979984D01*
X159814473Y-119945637D01*
X159880658Y-119939118D01*
X159946840Y-119932600D01*
X160035360Y-119932600D01*
X160101542Y-119939118D01*
X160101542Y-119939118D01*
G37*
G36*
X162641542Y-119939118D02*
X162707727Y-119945637D01*
X162820953Y-119979984D01*
X162877567Y-119997157D01*
X163016187Y-120071252D01*
X163034091Y-120080822D01*
X163069829Y-120110152D01*
X163171286Y-120193414D01*
X163254548Y-120294871D01*
X163283878Y-120330609D01*
X163283879Y-120330611D01*
X163367543Y-120487133D01*
X163367543Y-120487134D01*
X163419063Y-120656973D01*
X163436459Y-120833600D01*
X163419063Y-121010227D01*
X163414167Y-121026366D01*
X163367543Y-121180067D01*
X163365730Y-121183458D01*
X163283878Y-121336591D01*
X163254548Y-121372329D01*
X163171286Y-121473786D01*
X163079346Y-121549238D01*
X163034091Y-121586378D01*
X163034089Y-121586379D01*
X162877567Y-121670043D01*
X162820953Y-121687216D01*
X162707727Y-121721563D01*
X162641543Y-121728081D01*
X162575360Y-121734600D01*
X162486840Y-121734600D01*
X162420657Y-121728081D01*
X162354473Y-121721563D01*
X162241247Y-121687216D01*
X162184633Y-121670043D01*
X162028111Y-121586379D01*
X162028109Y-121586378D01*
X161982854Y-121549238D01*
X161890914Y-121473786D01*
X161807652Y-121372329D01*
X161778322Y-121336591D01*
X161696470Y-121183458D01*
X161694657Y-121180067D01*
X161648033Y-121026366D01*
X161643137Y-121010227D01*
X161625741Y-120833600D01*
X161643137Y-120656973D01*
X161694657Y-120487134D01*
X161694657Y-120487133D01*
X161778321Y-120330611D01*
X161778322Y-120330609D01*
X161807652Y-120294871D01*
X161890914Y-120193414D01*
X161992371Y-120110152D01*
X162028109Y-120080822D01*
X162046013Y-120071252D01*
X162184633Y-119997157D01*
X162241247Y-119979984D01*
X162354473Y-119945637D01*
X162420658Y-119939118D01*
X162486840Y-119932600D01*
X162575360Y-119932600D01*
X162641542Y-119939118D01*
X162641542Y-119939118D01*
G37*
G36*
X150732100Y-121734600D02*
X148930100Y-121734600D01*
X148930100Y-119932600D01*
X150732100Y-119932600D01*
X150732100Y-121734600D01*
X150732100Y-121734600D01*
G37*
G36*
X125526366Y-118115695D02*
X125683458Y-118163348D01*
X125828230Y-118240731D01*
X125955128Y-118344872D01*
X126059269Y-118471770D01*
X126136652Y-118616542D01*
X126184305Y-118773634D01*
X126201000Y-118943140D01*
X126201000Y-120856860D01*
X126184305Y-121026366D01*
X126136652Y-121183458D01*
X126059269Y-121328230D01*
X125955128Y-121455128D01*
X125828230Y-121559269D01*
X125683458Y-121636652D01*
X125526366Y-121684305D01*
X125356860Y-121701000D01*
X123443140Y-121701000D01*
X123273634Y-121684305D01*
X123116542Y-121636652D01*
X122971770Y-121559269D01*
X122844872Y-121455128D01*
X122740731Y-121328230D01*
X122663348Y-121183458D01*
X122615695Y-121026366D01*
X122599000Y-120856860D01*
X122599000Y-118943140D01*
X122615695Y-118773634D01*
X122663348Y-118616542D01*
X122740731Y-118471770D01*
X122844872Y-118344872D01*
X122971770Y-118240731D01*
X123116542Y-118163348D01*
X123273634Y-118115695D01*
X123443140Y-118099000D01*
X125356860Y-118099000D01*
X125526366Y-118115695D01*
X125526366Y-118115695D01*
G37*
G36*
X183266356Y-114148898D02*
X183372679Y-114170047D01*
X183673142Y-114294503D01*
X183939952Y-114472780D01*
X183943554Y-114475187D01*
X184173513Y-114705146D01*
X184354198Y-114975560D01*
X184478653Y-115276022D01*
X184542100Y-115594989D01*
X184542100Y-115920211D01*
X184478653Y-116239178D01*
X184354198Y-116539640D01*
X184173513Y-116810054D01*
X183943554Y-117040013D01*
X183943551Y-117040015D01*
X183673142Y-117220697D01*
X183372679Y-117345153D01*
X183266356Y-117366302D01*
X183053711Y-117408600D01*
X182728489Y-117408600D01*
X182515844Y-117366302D01*
X182409521Y-117345153D01*
X182109058Y-117220697D01*
X181838649Y-117040015D01*
X181838646Y-117040013D01*
X181608687Y-116810054D01*
X181428002Y-116539640D01*
X181303547Y-116239178D01*
X181240100Y-115920211D01*
X181240100Y-115594989D01*
X181303547Y-115276022D01*
X181428002Y-114975560D01*
X181608687Y-114705146D01*
X181838646Y-114475187D01*
X181842248Y-114472780D01*
X182109058Y-114294503D01*
X182409521Y-114170047D01*
X182515844Y-114148898D01*
X182728489Y-114106600D01*
X183053711Y-114106600D01*
X183266356Y-114148898D01*
X183266356Y-114148898D01*
G37*
G36*
X122376978Y-113413293D02*
X122510627Y-113453835D01*
X122633782Y-113519662D01*
X122741739Y-113608261D01*
X122830338Y-113716218D01*
X122896165Y-113839373D01*
X122936707Y-113973022D01*
X122951000Y-114118140D01*
X122951000Y-116281860D01*
X122936707Y-116426978D01*
X122896165Y-116560627D01*
X122830338Y-116683782D01*
X122741739Y-116791739D01*
X122633782Y-116880338D01*
X122510627Y-116946165D01*
X122376978Y-116986707D01*
X122231860Y-117001000D01*
X120568140Y-117001000D01*
X120423022Y-116986707D01*
X120289373Y-116946165D01*
X120166218Y-116880338D01*
X120058261Y-116791739D01*
X119969662Y-116683782D01*
X119903835Y-116560627D01*
X119863293Y-116426978D01*
X119849000Y-116281860D01*
X119849000Y-114118140D01*
X119863293Y-113973022D01*
X119903835Y-113839373D01*
X119969662Y-113716218D01*
X120058261Y-113608261D01*
X120166218Y-113519662D01*
X120289373Y-113453835D01*
X120423022Y-113413293D01*
X120568140Y-113399000D01*
X122231860Y-113399000D01*
X122376978Y-113413293D01*
X122376978Y-113413293D01*
G37*
G36*
X129201000Y-117001000D02*
X125599000Y-117001000D01*
X125599000Y-113399000D01*
X129201000Y-113399000D01*
X129201000Y-117001000D01*
X129201000Y-117001000D01*
G37*
G36*
X183053942Y-110167018D02*
X183120127Y-110173537D01*
X183233353Y-110207884D01*
X183289967Y-110225057D01*
X183428587Y-110299152D01*
X183446491Y-110308722D01*
X183482229Y-110338052D01*
X183583686Y-110421314D01*
X183666948Y-110522771D01*
X183696278Y-110558509D01*
X183696279Y-110558511D01*
X183779943Y-110715033D01*
X183779943Y-110715034D01*
X183831463Y-110884873D01*
X183848859Y-111061500D01*
X183831463Y-111238127D01*
X183797116Y-111351353D01*
X183779943Y-111407967D01*
X183705848Y-111546587D01*
X183696278Y-111564491D01*
X183666948Y-111600229D01*
X183583686Y-111701686D01*
X183482229Y-111784948D01*
X183446491Y-111814278D01*
X183446489Y-111814279D01*
X183289967Y-111897943D01*
X183233353Y-111915116D01*
X183120127Y-111949463D01*
X183053943Y-111955981D01*
X182987760Y-111962500D01*
X182899240Y-111962500D01*
X182833057Y-111955981D01*
X182766873Y-111949463D01*
X182653647Y-111915116D01*
X182597033Y-111897943D01*
X182440511Y-111814279D01*
X182440509Y-111814278D01*
X182404771Y-111784948D01*
X182303314Y-111701686D01*
X182220052Y-111600229D01*
X182190722Y-111564491D01*
X182181152Y-111546587D01*
X182107057Y-111407967D01*
X182089884Y-111351353D01*
X182055537Y-111238127D01*
X182038141Y-111061500D01*
X182055537Y-110884873D01*
X182107057Y-110715034D01*
X182107057Y-110715033D01*
X182190721Y-110558511D01*
X182190722Y-110558509D01*
X182220052Y-110522771D01*
X182303314Y-110421314D01*
X182404771Y-110338052D01*
X182440509Y-110308722D01*
X182458413Y-110299152D01*
X182597033Y-110225057D01*
X182653647Y-110207884D01*
X182766873Y-110173537D01*
X182833058Y-110167018D01*
X182899240Y-110160500D01*
X182987760Y-110160500D01*
X183053942Y-110167018D01*
X183053942Y-110167018D01*
G37*
G36*
X183053942Y-107627018D02*
X183120127Y-107633537D01*
X183233353Y-107667884D01*
X183289967Y-107685057D01*
X183428587Y-107759152D01*
X183446491Y-107768722D01*
X183482229Y-107798052D01*
X183583686Y-107881314D01*
X183666948Y-107982771D01*
X183696278Y-108018509D01*
X183696279Y-108018511D01*
X183779943Y-108175033D01*
X183779943Y-108175034D01*
X183831463Y-108344873D01*
X183848859Y-108521500D01*
X183831463Y-108698127D01*
X183797116Y-108811353D01*
X183779943Y-108867967D01*
X183705848Y-109006587D01*
X183696278Y-109024491D01*
X183666948Y-109060229D01*
X183583686Y-109161686D01*
X183482229Y-109244948D01*
X183446491Y-109274278D01*
X183446489Y-109274279D01*
X183289967Y-109357943D01*
X183233353Y-109375116D01*
X183120127Y-109409463D01*
X183053942Y-109415982D01*
X182987760Y-109422500D01*
X182899240Y-109422500D01*
X182833058Y-109415982D01*
X182766873Y-109409463D01*
X182653647Y-109375116D01*
X182597033Y-109357943D01*
X182440511Y-109274279D01*
X182440509Y-109274278D01*
X182404771Y-109244948D01*
X182303314Y-109161686D01*
X182220052Y-109060229D01*
X182190722Y-109024491D01*
X182181152Y-109006587D01*
X182107057Y-108867967D01*
X182089884Y-108811353D01*
X182055537Y-108698127D01*
X182038141Y-108521500D01*
X182055537Y-108344873D01*
X182107057Y-108175034D01*
X182107057Y-108175033D01*
X182190721Y-108018511D01*
X182190722Y-108018509D01*
X182220052Y-107982771D01*
X182303314Y-107881314D01*
X182404771Y-107798052D01*
X182440509Y-107768722D01*
X182458413Y-107759152D01*
X182597033Y-107685057D01*
X182653647Y-107667884D01*
X182766873Y-107633537D01*
X182833058Y-107627018D01*
X182899240Y-107620500D01*
X182987760Y-107620500D01*
X183053942Y-107627018D01*
X183053942Y-107627018D01*
G37*
G36*
X183053943Y-105087019D02*
X183120127Y-105093537D01*
X183233353Y-105127884D01*
X183289967Y-105145057D01*
X183428587Y-105219152D01*
X183446491Y-105228722D01*
X183482229Y-105258052D01*
X183583686Y-105341314D01*
X183666948Y-105442771D01*
X183696278Y-105478509D01*
X183696279Y-105478511D01*
X183779943Y-105635033D01*
X183779943Y-105635034D01*
X183831463Y-105804873D01*
X183848859Y-105981500D01*
X183831463Y-106158127D01*
X183797116Y-106271353D01*
X183779943Y-106327967D01*
X183705848Y-106466587D01*
X183696278Y-106484491D01*
X183666948Y-106520229D01*
X183583686Y-106621686D01*
X183482229Y-106704948D01*
X183446491Y-106734278D01*
X183446489Y-106734279D01*
X183289967Y-106817943D01*
X183233353Y-106835116D01*
X183120127Y-106869463D01*
X183053942Y-106875982D01*
X182987760Y-106882500D01*
X182899240Y-106882500D01*
X182833058Y-106875982D01*
X182766873Y-106869463D01*
X182653647Y-106835116D01*
X182597033Y-106817943D01*
X182440511Y-106734279D01*
X182440509Y-106734278D01*
X182404771Y-106704948D01*
X182303314Y-106621686D01*
X182220052Y-106520229D01*
X182190722Y-106484491D01*
X182181152Y-106466587D01*
X182107057Y-106327967D01*
X182089884Y-106271353D01*
X182055537Y-106158127D01*
X182038141Y-105981500D01*
X182055537Y-105804873D01*
X182107057Y-105635034D01*
X182107057Y-105635033D01*
X182190721Y-105478511D01*
X182190722Y-105478509D01*
X182220052Y-105442771D01*
X182303314Y-105341314D01*
X182404771Y-105258052D01*
X182440509Y-105228722D01*
X182458413Y-105219152D01*
X182597033Y-105145057D01*
X182653647Y-105127884D01*
X182766873Y-105093537D01*
X182833057Y-105087019D01*
X182899240Y-105080500D01*
X182987760Y-105080500D01*
X183053943Y-105087019D01*
X183053943Y-105087019D01*
G37*
G36*
X183844500Y-104342500D02*
X182042500Y-104342500D01*
X182042500Y-102540500D01*
X183844500Y-102540500D01*
X183844500Y-104342500D01*
X183844500Y-104342500D01*
G37*
G36*
X180548543Y-97079119D02*
X180614727Y-97085637D01*
X180727953Y-97119984D01*
X180784567Y-97137157D01*
X180923187Y-97211252D01*
X180941091Y-97220822D01*
X180976829Y-97250152D01*
X181078286Y-97333414D01*
X181161548Y-97434871D01*
X181190878Y-97470609D01*
X181190879Y-97470611D01*
X181274543Y-97627133D01*
X181274543Y-97627134D01*
X181326063Y-97796973D01*
X181343459Y-97973600D01*
X181326063Y-98150227D01*
X181291716Y-98263453D01*
X181274543Y-98320067D01*
X181200448Y-98458687D01*
X181190878Y-98476591D01*
X181161548Y-98512329D01*
X181078286Y-98613786D01*
X180976829Y-98697048D01*
X180941091Y-98726378D01*
X180941089Y-98726379D01*
X180784567Y-98810043D01*
X180727953Y-98827216D01*
X180614727Y-98861563D01*
X180548542Y-98868082D01*
X180482360Y-98874600D01*
X180393840Y-98874600D01*
X180327658Y-98868082D01*
X180261473Y-98861563D01*
X180148247Y-98827216D01*
X180091633Y-98810043D01*
X179935111Y-98726379D01*
X179935109Y-98726378D01*
X179899371Y-98697048D01*
X179797914Y-98613786D01*
X179714652Y-98512329D01*
X179685322Y-98476591D01*
X179675752Y-98458687D01*
X179601657Y-98320067D01*
X179584484Y-98263453D01*
X179550137Y-98150227D01*
X179532741Y-97973600D01*
X179550137Y-97796973D01*
X179601657Y-97627134D01*
X179601657Y-97627133D01*
X179685321Y-97470611D01*
X179685322Y-97470609D01*
X179714652Y-97434871D01*
X179797914Y-97333414D01*
X179899371Y-97250152D01*
X179935109Y-97220822D01*
X179953013Y-97211252D01*
X180091633Y-97137157D01*
X180148247Y-97119984D01*
X180261473Y-97085637D01*
X180327657Y-97079119D01*
X180393840Y-97072600D01*
X180482360Y-97072600D01*
X180548543Y-97079119D01*
X180548543Y-97079119D01*
G37*
G36*
X183088543Y-97079119D02*
X183154727Y-97085637D01*
X183267953Y-97119984D01*
X183324567Y-97137157D01*
X183463187Y-97211252D01*
X183481091Y-97220822D01*
X183516829Y-97250152D01*
X183618286Y-97333414D01*
X183701548Y-97434871D01*
X183730878Y-97470609D01*
X183730879Y-97470611D01*
X183814543Y-97627133D01*
X183814543Y-97627134D01*
X183866063Y-97796973D01*
X183883459Y-97973600D01*
X183866063Y-98150227D01*
X183831716Y-98263453D01*
X183814543Y-98320067D01*
X183740448Y-98458687D01*
X183730878Y-98476591D01*
X183701548Y-98512329D01*
X183618286Y-98613786D01*
X183516829Y-98697048D01*
X183481091Y-98726378D01*
X183481089Y-98726379D01*
X183324567Y-98810043D01*
X183267953Y-98827216D01*
X183154727Y-98861563D01*
X183088542Y-98868082D01*
X183022360Y-98874600D01*
X182933840Y-98874600D01*
X182867658Y-98868082D01*
X182801473Y-98861563D01*
X182688247Y-98827216D01*
X182631633Y-98810043D01*
X182475111Y-98726379D01*
X182475109Y-98726378D01*
X182439371Y-98697048D01*
X182337914Y-98613786D01*
X182254652Y-98512329D01*
X182225322Y-98476591D01*
X182215752Y-98458687D01*
X182141657Y-98320067D01*
X182124484Y-98263453D01*
X182090137Y-98150227D01*
X182072741Y-97973600D01*
X182090137Y-97796973D01*
X182141657Y-97627134D01*
X182141657Y-97627133D01*
X182225321Y-97470611D01*
X182225322Y-97470609D01*
X182254652Y-97434871D01*
X182337914Y-97333414D01*
X182439371Y-97250152D01*
X182475109Y-97220822D01*
X182493013Y-97211252D01*
X182631633Y-97137157D01*
X182688247Y-97119984D01*
X182801473Y-97085637D01*
X182867657Y-97079119D01*
X182933840Y-97072600D01*
X183022360Y-97072600D01*
X183088543Y-97079119D01*
X183088543Y-97079119D01*
G37*
G36*
X183088542Y-94539118D02*
X183154727Y-94545637D01*
X183267953Y-94579984D01*
X183324567Y-94597157D01*
X183463187Y-94671252D01*
X183481091Y-94680822D01*
X183516829Y-94710152D01*
X183618286Y-94793414D01*
X183701548Y-94894871D01*
X183730878Y-94930609D01*
X183730879Y-94930611D01*
X183814543Y-95087133D01*
X183814543Y-95087134D01*
X183866063Y-95256973D01*
X183883459Y-95433600D01*
X183866063Y-95610227D01*
X183831716Y-95723453D01*
X183814543Y-95780067D01*
X183740448Y-95918687D01*
X183730878Y-95936591D01*
X183701548Y-95972329D01*
X183618286Y-96073786D01*
X183516829Y-96157048D01*
X183481091Y-96186378D01*
X183481089Y-96186379D01*
X183324567Y-96270043D01*
X183267953Y-96287216D01*
X183154727Y-96321563D01*
X183088543Y-96328081D01*
X183022360Y-96334600D01*
X182933840Y-96334600D01*
X182867657Y-96328081D01*
X182801473Y-96321563D01*
X182688247Y-96287216D01*
X182631633Y-96270043D01*
X182475111Y-96186379D01*
X182475109Y-96186378D01*
X182439371Y-96157048D01*
X182337914Y-96073786D01*
X182254652Y-95972329D01*
X182225322Y-95936591D01*
X182215752Y-95918687D01*
X182141657Y-95780067D01*
X182124484Y-95723453D01*
X182090137Y-95610227D01*
X182072741Y-95433600D01*
X182090137Y-95256973D01*
X182141657Y-95087134D01*
X182141657Y-95087133D01*
X182225321Y-94930611D01*
X182225322Y-94930609D01*
X182254652Y-94894871D01*
X182337914Y-94793414D01*
X182439371Y-94710152D01*
X182475109Y-94680822D01*
X182493013Y-94671252D01*
X182631633Y-94597157D01*
X182688247Y-94579984D01*
X182801473Y-94545637D01*
X182867658Y-94539118D01*
X182933840Y-94532600D01*
X183022360Y-94532600D01*
X183088542Y-94539118D01*
X183088542Y-94539118D01*
G37*
G36*
X180548542Y-94539118D02*
X180614727Y-94545637D01*
X180727953Y-94579984D01*
X180784567Y-94597157D01*
X180923187Y-94671252D01*
X180941091Y-94680822D01*
X180976829Y-94710152D01*
X181078286Y-94793414D01*
X181161548Y-94894871D01*
X181190878Y-94930609D01*
X181190879Y-94930611D01*
X181274543Y-95087133D01*
X181274543Y-95087134D01*
X181326063Y-95256973D01*
X181343459Y-95433600D01*
X181326063Y-95610227D01*
X181291716Y-95723453D01*
X181274543Y-95780067D01*
X181200448Y-95918687D01*
X181190878Y-95936591D01*
X181161548Y-95972329D01*
X181078286Y-96073786D01*
X180976829Y-96157048D01*
X180941091Y-96186378D01*
X180941089Y-96186379D01*
X180784567Y-96270043D01*
X180727953Y-96287216D01*
X180614727Y-96321563D01*
X180548543Y-96328081D01*
X180482360Y-96334600D01*
X180393840Y-96334600D01*
X180327657Y-96328081D01*
X180261473Y-96321563D01*
X180148247Y-96287216D01*
X180091633Y-96270043D01*
X179935111Y-96186379D01*
X179935109Y-96186378D01*
X179899371Y-96157048D01*
X179797914Y-96073786D01*
X179714652Y-95972329D01*
X179685322Y-95936591D01*
X179675752Y-95918687D01*
X179601657Y-95780067D01*
X179584484Y-95723453D01*
X179550137Y-95610227D01*
X179532741Y-95433600D01*
X179550137Y-95256973D01*
X179601657Y-95087134D01*
X179601657Y-95087133D01*
X179685321Y-94930611D01*
X179685322Y-94930609D01*
X179714652Y-94894871D01*
X179797914Y-94793414D01*
X179899371Y-94710152D01*
X179935109Y-94680822D01*
X179953013Y-94671252D01*
X180091633Y-94597157D01*
X180148247Y-94579984D01*
X180261473Y-94545637D01*
X180327658Y-94539118D01*
X180393840Y-94532600D01*
X180482360Y-94532600D01*
X180548542Y-94539118D01*
X180548542Y-94539118D01*
G37*
G36*
X181339100Y-93794600D02*
X179537100Y-93794600D01*
X179537100Y-91992600D01*
X181339100Y-91992600D01*
X181339100Y-93794600D01*
X181339100Y-93794600D01*
G37*
G36*
X183088542Y-91999118D02*
X183154727Y-92005637D01*
X183267953Y-92039984D01*
X183324567Y-92057157D01*
X183463187Y-92131252D01*
X183481091Y-92140822D01*
X183516829Y-92170152D01*
X183618286Y-92253414D01*
X183701548Y-92354871D01*
X183730878Y-92390609D01*
X183730879Y-92390611D01*
X183814543Y-92547133D01*
X183814543Y-92547134D01*
X183866063Y-92716973D01*
X183883459Y-92893600D01*
X183866063Y-93070227D01*
X183831716Y-93183453D01*
X183814543Y-93240067D01*
X183740448Y-93378687D01*
X183730878Y-93396591D01*
X183701548Y-93432329D01*
X183618286Y-93533786D01*
X183516829Y-93617048D01*
X183481091Y-93646378D01*
X183481089Y-93646379D01*
X183324567Y-93730043D01*
X183267953Y-93747216D01*
X183154727Y-93781563D01*
X183088543Y-93788081D01*
X183022360Y-93794600D01*
X182933840Y-93794600D01*
X182867658Y-93788082D01*
X182801473Y-93781563D01*
X182688247Y-93747216D01*
X182631633Y-93730043D01*
X182475111Y-93646379D01*
X182475109Y-93646378D01*
X182439371Y-93617048D01*
X182337914Y-93533786D01*
X182254652Y-93432329D01*
X182225322Y-93396591D01*
X182215752Y-93378687D01*
X182141657Y-93240067D01*
X182124484Y-93183453D01*
X182090137Y-93070227D01*
X182072741Y-92893600D01*
X182090137Y-92716973D01*
X182141657Y-92547134D01*
X182141657Y-92547133D01*
X182225321Y-92390611D01*
X182225322Y-92390609D01*
X182254652Y-92354871D01*
X182337914Y-92253414D01*
X182439371Y-92170152D01*
X182475109Y-92140822D01*
X182493013Y-92131252D01*
X182631633Y-92057157D01*
X182688247Y-92039984D01*
X182801473Y-92005637D01*
X182867658Y-91999118D01*
X182933840Y-91992600D01*
X183022360Y-91992600D01*
X183088542Y-91999118D01*
X183088542Y-91999118D01*
G37*
G36*
X121146431Y-89561811D02*
X121474192Y-89697574D01*
X121769173Y-89894674D01*
X122020026Y-90145527D01*
X122217126Y-90440508D01*
X122352889Y-90768269D01*
X122422100Y-91116216D01*
X122422100Y-91470984D01*
X122352889Y-91818931D01*
X122217126Y-92146692D01*
X122020026Y-92441673D01*
X121769173Y-92692526D01*
X121474192Y-92889626D01*
X121146431Y-93025389D01*
X120798484Y-93094600D01*
X120443716Y-93094600D01*
X120095769Y-93025389D01*
X119768008Y-92889626D01*
X119473027Y-92692526D01*
X119222174Y-92441673D01*
X119025074Y-92146692D01*
X118889311Y-91818931D01*
X118820100Y-91470984D01*
X118820100Y-91116216D01*
X118889311Y-90768269D01*
X119025074Y-90440508D01*
X119222174Y-90145527D01*
X119473027Y-89894674D01*
X119768008Y-89697574D01*
X120095769Y-89561811D01*
X120443716Y-89492600D01*
X120798484Y-89492600D01*
X121146431Y-89561811D01*
X121146431Y-89561811D01*
G37*
G36*
X183191348Y-86193978D02*
X183372679Y-86230047D01*
X183673142Y-86354503D01*
X183793403Y-86434859D01*
X183943554Y-86535187D01*
X184173513Y-86765146D01*
X184173515Y-86765149D01*
X184354197Y-87035558D01*
X184472869Y-87322056D01*
X184478653Y-87336022D01*
X184542100Y-87654989D01*
X184542100Y-87980211D01*
X184478653Y-88299178D01*
X184354198Y-88599640D01*
X184173513Y-88870054D01*
X183943554Y-89100013D01*
X183943551Y-89100015D01*
X183673142Y-89280697D01*
X183372679Y-89405153D01*
X183266356Y-89426302D01*
X183053711Y-89468600D01*
X182728489Y-89468600D01*
X182515844Y-89426302D01*
X182409521Y-89405153D01*
X182109058Y-89280697D01*
X181838649Y-89100015D01*
X181838646Y-89100013D01*
X181608687Y-88870054D01*
X181428002Y-88599640D01*
X181303547Y-88299178D01*
X181240100Y-87980211D01*
X181240100Y-87654989D01*
X181303547Y-87336022D01*
X181309332Y-87322056D01*
X181428003Y-87035558D01*
X181608685Y-86765149D01*
X181608687Y-86765146D01*
X181838646Y-86535187D01*
X181988797Y-86434859D01*
X182109058Y-86354503D01*
X182409521Y-86230047D01*
X182590852Y-86193978D01*
X182728489Y-86166600D01*
X183053711Y-86166600D01*
X183191348Y-86193978D01*
X183191348Y-86193978D01*
G37*
G36*
X123593912Y-85657224D02*
X123757884Y-85725144D01*
X123905454Y-85823747D01*
X124030953Y-85949246D01*
X124129556Y-86096816D01*
X124189620Y-86241823D01*
X124201166Y-86263424D01*
X124216712Y-86282366D01*
X124235654Y-86297912D01*
X124257265Y-86309463D01*
X124280714Y-86316576D01*
X124305100Y-86318978D01*
X124329486Y-86316576D01*
X124352935Y-86309463D01*
X124374546Y-86297912D01*
X124393488Y-86282366D01*
X124409034Y-86263424D01*
X124420585Y-86241813D01*
X124427698Y-86218364D01*
X124430100Y-86193978D01*
X124430100Y-85622600D01*
X126232100Y-85622600D01*
X126232100Y-87424600D01*
X124430100Y-87424600D01*
X124430100Y-86853222D01*
X124427698Y-86828836D01*
X124420585Y-86805387D01*
X124409034Y-86783776D01*
X124393488Y-86764834D01*
X124374546Y-86749288D01*
X124352935Y-86737737D01*
X124329486Y-86730624D01*
X124305100Y-86728222D01*
X124280714Y-86730624D01*
X124257265Y-86737737D01*
X124235654Y-86749288D01*
X124216712Y-86764834D01*
X124201166Y-86783776D01*
X124189620Y-86805377D01*
X124129556Y-86950384D01*
X124030953Y-87097954D01*
X123905454Y-87223453D01*
X123757884Y-87322056D01*
X123593912Y-87389976D01*
X123419841Y-87424600D01*
X123242359Y-87424600D01*
X123068288Y-87389976D01*
X122904316Y-87322056D01*
X122756746Y-87223453D01*
X122631247Y-87097954D01*
X122532644Y-86950384D01*
X122464724Y-86786412D01*
X122430100Y-86612341D01*
X122430100Y-86434859D01*
X122464724Y-86260788D01*
X122532644Y-86096816D01*
X122631247Y-85949246D01*
X122756746Y-85823747D01*
X122904316Y-85725144D01*
X123068288Y-85657224D01*
X123242359Y-85622600D01*
X123419841Y-85622600D01*
X123593912Y-85657224D01*
X123593912Y-85657224D01*
G37*
G36*
X140696224Y-84443177D02*
X140796498Y-84484712D01*
X140886748Y-84545015D01*
X140963491Y-84621758D01*
X141023794Y-84712008D01*
X141065329Y-84812282D01*
X141086503Y-84918733D01*
X141086503Y-85027273D01*
X141065329Y-85133724D01*
X141023794Y-85233998D01*
X140963491Y-85324248D01*
X140886748Y-85400991D01*
X140796498Y-85461294D01*
X140696224Y-85502829D01*
X140589773Y-85524003D01*
X140481233Y-85524003D01*
X140374782Y-85502829D01*
X140274508Y-85461294D01*
X140184258Y-85400991D01*
X140107515Y-85324248D01*
X140047212Y-85233998D01*
X140005677Y-85133724D01*
X139984503Y-85027273D01*
X139984503Y-84918733D01*
X140005677Y-84812282D01*
X140047212Y-84712008D01*
X140107515Y-84621758D01*
X140184258Y-84545015D01*
X140274508Y-84484712D01*
X140374782Y-84443177D01*
X140481233Y-84422003D01*
X140589773Y-84422003D01*
X140696224Y-84443177D01*
X140696224Y-84443177D01*
G37*
G36*
X123593912Y-83157224D02*
X123757884Y-83225144D01*
X123905454Y-83323747D01*
X124030953Y-83449246D01*
X124129556Y-83596816D01*
X124197476Y-83760788D01*
X124208504Y-83816233D01*
X124215615Y-83839674D01*
X124227167Y-83861285D01*
X124242712Y-83880227D01*
X124261654Y-83895772D01*
X124283265Y-83907323D01*
X124306714Y-83914436D01*
X124331100Y-83916838D01*
X124355487Y-83914436D01*
X124378936Y-83907323D01*
X124400547Y-83895771D01*
X124419489Y-83880226D01*
X124435034Y-83861284D01*
X124446585Y-83839673D01*
X124453696Y-83816233D01*
X124464724Y-83760788D01*
X124532644Y-83596816D01*
X124631247Y-83449246D01*
X124756746Y-83323747D01*
X124904316Y-83225144D01*
X125068288Y-83157224D01*
X125242359Y-83122600D01*
X125419841Y-83122600D01*
X125593912Y-83157224D01*
X125757884Y-83225144D01*
X125905454Y-83323747D01*
X126030953Y-83449246D01*
X126129556Y-83596816D01*
X126197476Y-83760788D01*
X126232100Y-83934859D01*
X126232100Y-84112341D01*
X126197476Y-84286412D01*
X126129556Y-84450384D01*
X126030953Y-84597954D01*
X125905454Y-84723453D01*
X125757884Y-84822056D01*
X125593912Y-84889976D01*
X125419841Y-84924600D01*
X125242359Y-84924600D01*
X125068288Y-84889976D01*
X124904316Y-84822056D01*
X124756746Y-84723453D01*
X124631247Y-84597954D01*
X124532644Y-84450384D01*
X124464724Y-84286412D01*
X124453696Y-84230967D01*
X124446585Y-84207526D01*
X124435033Y-84185915D01*
X124419488Y-84166973D01*
X124400546Y-84151428D01*
X124378935Y-84139877D01*
X124355486Y-84132764D01*
X124331100Y-84130362D01*
X124306713Y-84132764D01*
X124283264Y-84139877D01*
X124261653Y-84151429D01*
X124242711Y-84166974D01*
X124227166Y-84185916D01*
X124215615Y-84207527D01*
X124208504Y-84230967D01*
X124197476Y-84286412D01*
X124129556Y-84450384D01*
X124030953Y-84597954D01*
X123905454Y-84723453D01*
X123757884Y-84822056D01*
X123593912Y-84889976D01*
X123419841Y-84924600D01*
X123242359Y-84924600D01*
X123068288Y-84889976D01*
X122904316Y-84822056D01*
X122756746Y-84723453D01*
X122631247Y-84597954D01*
X122532644Y-84450384D01*
X122464724Y-84286412D01*
X122430100Y-84112341D01*
X122430100Y-83934859D01*
X122464724Y-83760788D01*
X122532644Y-83596816D01*
X122631247Y-83449246D01*
X122756746Y-83323747D01*
X122904316Y-83225144D01*
X123068288Y-83157224D01*
X123242359Y-83122600D01*
X123419841Y-83122600D01*
X123593912Y-83157224D01*
X123593912Y-83157224D01*
G37*
G36*
X139352721Y-83099674D02*
X139452995Y-83141209D01*
X139543245Y-83201512D01*
X139619988Y-83278255D01*
X139680291Y-83368505D01*
X139721826Y-83468779D01*
X139743000Y-83575230D01*
X139743000Y-83683770D01*
X139721826Y-83790221D01*
X139680291Y-83890495D01*
X139619988Y-83980745D01*
X139543245Y-84057488D01*
X139452995Y-84117791D01*
X139352721Y-84159326D01*
X139246270Y-84180500D01*
X139137730Y-84180500D01*
X139031279Y-84159326D01*
X138931005Y-84117791D01*
X138840755Y-84057488D01*
X138764012Y-83980745D01*
X138703709Y-83890495D01*
X138662174Y-83790221D01*
X138641000Y-83683770D01*
X138641000Y-83575230D01*
X138662174Y-83468779D01*
X138703709Y-83368505D01*
X138764012Y-83278255D01*
X138840755Y-83201512D01*
X138931005Y-83141209D01*
X139031279Y-83099674D01*
X139137730Y-83078500D01*
X139246270Y-83078500D01*
X139352721Y-83099674D01*
X139352721Y-83099674D01*
G37*
G36*
X121146431Y-77521811D02*
X121474192Y-77657574D01*
X121769173Y-77854674D01*
X122020026Y-78105527D01*
X122217126Y-78400508D01*
X122352889Y-78728269D01*
X122422100Y-79076216D01*
X122422100Y-79430984D01*
X122352889Y-79778931D01*
X122217126Y-80106692D01*
X122020026Y-80401673D01*
X121769173Y-80652526D01*
X121474192Y-80849626D01*
X121146431Y-80985389D01*
X120798484Y-81054600D01*
X120443716Y-81054600D01*
X120095769Y-80985389D01*
X119768008Y-80849626D01*
X119473027Y-80652526D01*
X119222174Y-80401673D01*
X119025074Y-80106692D01*
X118889311Y-79778931D01*
X118820100Y-79430984D01*
X118820100Y-79076216D01*
X118889311Y-78728269D01*
X119025074Y-78400508D01*
X119222174Y-78105527D01*
X119473027Y-77854674D01*
X119768008Y-77657574D01*
X120095769Y-77521811D01*
X120443716Y-77452600D01*
X120798484Y-77452600D01*
X121146431Y-77521811D01*
X121146431Y-77521811D01*
G37*
G36*
X132466356Y-70968898D02*
X132572679Y-70990047D01*
X132873142Y-71114503D01*
X133139952Y-71292780D01*
X133143554Y-71295187D01*
X133373513Y-71525146D01*
X133373515Y-71525149D01*
X133554197Y-71795558D01*
X133668128Y-72070611D01*
X133678653Y-72096022D01*
X133742100Y-72414989D01*
X133742100Y-72740211D01*
X133706324Y-72920066D01*
X133678653Y-73059179D01*
X133590650Y-73271637D01*
X133554198Y-73359640D01*
X133373513Y-73630054D01*
X133143554Y-73860013D01*
X133143551Y-73860015D01*
X132873142Y-74040697D01*
X132572679Y-74165153D01*
X132466356Y-74186302D01*
X132253711Y-74228600D01*
X131928489Y-74228600D01*
X131715844Y-74186302D01*
X131609521Y-74165153D01*
X131309058Y-74040697D01*
X131038649Y-73860015D01*
X131038646Y-73860013D01*
X130808687Y-73630054D01*
X130628002Y-73359640D01*
X130591550Y-73271637D01*
X130503547Y-73059179D01*
X130475876Y-72920066D01*
X130440100Y-72740211D01*
X130440100Y-72414989D01*
X130503547Y-72096022D01*
X130514073Y-72070611D01*
X130628003Y-71795558D01*
X130808685Y-71525149D01*
X130808687Y-71525146D01*
X131038646Y-71295187D01*
X131042248Y-71292780D01*
X131309058Y-71114503D01*
X131609521Y-70990047D01*
X131715844Y-70968898D01*
X131928489Y-70926600D01*
X132253711Y-70926600D01*
X132466356Y-70968898D01*
X132466356Y-70968898D01*
G37*
G36*
X159368100Y-73474600D02*
X157566100Y-73474600D01*
X157566100Y-71672600D01*
X159368100Y-71672600D01*
X159368100Y-73474600D01*
X159368100Y-73474600D01*
G37*
G36*
X153497542Y-71679118D02*
X153563727Y-71685637D01*
X153676953Y-71719984D01*
X153733567Y-71737157D01*
X153872187Y-71811252D01*
X153890091Y-71820822D01*
X153925829Y-71850152D01*
X154027286Y-71933414D01*
X154110548Y-72034871D01*
X154139878Y-72070609D01*
X154139879Y-72070611D01*
X154223543Y-72227133D01*
X154223543Y-72227134D01*
X154275063Y-72396973D01*
X154292459Y-72573600D01*
X154275063Y-72750227D01*
X154240716Y-72863453D01*
X154223543Y-72920067D01*
X154149448Y-73058687D01*
X154139878Y-73076591D01*
X154110548Y-73112329D01*
X154027286Y-73213786D01*
X153925829Y-73297048D01*
X153890091Y-73326378D01*
X153890089Y-73326379D01*
X153733567Y-73410043D01*
X153676953Y-73427216D01*
X153563727Y-73461563D01*
X153497542Y-73468082D01*
X153431360Y-73474600D01*
X153342840Y-73474600D01*
X153276658Y-73468082D01*
X153210473Y-73461563D01*
X153097247Y-73427216D01*
X153040633Y-73410043D01*
X152884111Y-73326379D01*
X152884109Y-73326378D01*
X152848371Y-73297048D01*
X152746914Y-73213786D01*
X152663652Y-73112329D01*
X152634322Y-73076591D01*
X152624752Y-73058687D01*
X152550657Y-72920067D01*
X152533484Y-72863453D01*
X152499137Y-72750227D01*
X152481741Y-72573600D01*
X152499137Y-72396973D01*
X152550657Y-72227134D01*
X152550657Y-72227133D01*
X152634321Y-72070611D01*
X152634322Y-72070609D01*
X152663652Y-72034871D01*
X152746914Y-71933414D01*
X152848371Y-71850152D01*
X152884109Y-71820822D01*
X152902013Y-71811252D01*
X153040633Y-71737157D01*
X153097247Y-71719984D01*
X153210473Y-71685637D01*
X153276658Y-71679118D01*
X153342840Y-71672600D01*
X153431360Y-71672600D01*
X153497542Y-71679118D01*
X153497542Y-71679118D01*
G37*
G36*
X150957542Y-71679118D02*
X151023727Y-71685637D01*
X151136953Y-71719984D01*
X151193567Y-71737157D01*
X151332187Y-71811252D01*
X151350091Y-71820822D01*
X151385829Y-71850152D01*
X151487286Y-71933414D01*
X151570548Y-72034871D01*
X151599878Y-72070609D01*
X151599879Y-72070611D01*
X151683543Y-72227133D01*
X151683543Y-72227134D01*
X151735063Y-72396973D01*
X151752459Y-72573600D01*
X151735063Y-72750227D01*
X151700716Y-72863453D01*
X151683543Y-72920067D01*
X151609448Y-73058687D01*
X151599878Y-73076591D01*
X151570548Y-73112329D01*
X151487286Y-73213786D01*
X151385829Y-73297048D01*
X151350091Y-73326378D01*
X151350089Y-73326379D01*
X151193567Y-73410043D01*
X151136953Y-73427216D01*
X151023727Y-73461563D01*
X150957542Y-73468082D01*
X150891360Y-73474600D01*
X150802840Y-73474600D01*
X150736658Y-73468082D01*
X150670473Y-73461563D01*
X150557247Y-73427216D01*
X150500633Y-73410043D01*
X150344111Y-73326379D01*
X150344109Y-73326378D01*
X150308371Y-73297048D01*
X150206914Y-73213786D01*
X150123652Y-73112329D01*
X150094322Y-73076591D01*
X150084752Y-73058687D01*
X150010657Y-72920067D01*
X149993484Y-72863453D01*
X149959137Y-72750227D01*
X149941741Y-72573600D01*
X149959137Y-72396973D01*
X150010657Y-72227134D01*
X150010657Y-72227133D01*
X150094321Y-72070611D01*
X150094322Y-72070609D01*
X150123652Y-72034871D01*
X150206914Y-71933414D01*
X150308371Y-71850152D01*
X150344109Y-71820822D01*
X150362013Y-71811252D01*
X150500633Y-71737157D01*
X150557247Y-71719984D01*
X150670473Y-71685637D01*
X150736658Y-71679118D01*
X150802840Y-71672600D01*
X150891360Y-71672600D01*
X150957542Y-71679118D01*
X150957542Y-71679118D01*
G37*
G36*
X148417542Y-71679118D02*
X148483727Y-71685637D01*
X148596953Y-71719984D01*
X148653567Y-71737157D01*
X148792187Y-71811252D01*
X148810091Y-71820822D01*
X148845829Y-71850152D01*
X148947286Y-71933414D01*
X149030548Y-72034871D01*
X149059878Y-72070609D01*
X149059879Y-72070611D01*
X149143543Y-72227133D01*
X149143543Y-72227134D01*
X149195063Y-72396973D01*
X149212459Y-72573600D01*
X149195063Y-72750227D01*
X149160716Y-72863453D01*
X149143543Y-72920067D01*
X149069448Y-73058687D01*
X149059878Y-73076591D01*
X149030548Y-73112329D01*
X148947286Y-73213786D01*
X148845829Y-73297048D01*
X148810091Y-73326378D01*
X148810089Y-73326379D01*
X148653567Y-73410043D01*
X148596953Y-73427216D01*
X148483727Y-73461563D01*
X148417542Y-73468082D01*
X148351360Y-73474600D01*
X148262840Y-73474600D01*
X148196658Y-73468082D01*
X148130473Y-73461563D01*
X148017247Y-73427216D01*
X147960633Y-73410043D01*
X147804111Y-73326379D01*
X147804109Y-73326378D01*
X147768371Y-73297048D01*
X147666914Y-73213786D01*
X147583652Y-73112329D01*
X147554322Y-73076591D01*
X147544752Y-73058687D01*
X147470657Y-72920067D01*
X147453484Y-72863453D01*
X147419137Y-72750227D01*
X147401741Y-72573600D01*
X147419137Y-72396973D01*
X147470657Y-72227134D01*
X147470657Y-72227133D01*
X147554321Y-72070611D01*
X147554322Y-72070609D01*
X147583652Y-72034871D01*
X147666914Y-71933414D01*
X147768371Y-71850152D01*
X147804109Y-71820822D01*
X147822013Y-71811252D01*
X147960633Y-71737157D01*
X148017247Y-71719984D01*
X148130473Y-71685637D01*
X148196658Y-71679118D01*
X148262840Y-71672600D01*
X148351360Y-71672600D01*
X148417542Y-71679118D01*
X148417542Y-71679118D01*
G37*
G36*
X145877542Y-71679118D02*
X145943727Y-71685637D01*
X146056953Y-71719984D01*
X146113567Y-71737157D01*
X146252187Y-71811252D01*
X146270091Y-71820822D01*
X146305829Y-71850152D01*
X146407286Y-71933414D01*
X146490548Y-72034871D01*
X146519878Y-72070609D01*
X146519879Y-72070611D01*
X146603543Y-72227133D01*
X146603543Y-72227134D01*
X146655063Y-72396973D01*
X146672459Y-72573600D01*
X146655063Y-72750227D01*
X146620716Y-72863453D01*
X146603543Y-72920067D01*
X146529448Y-73058687D01*
X146519878Y-73076591D01*
X146490548Y-73112329D01*
X146407286Y-73213786D01*
X146305829Y-73297048D01*
X146270091Y-73326378D01*
X146270089Y-73326379D01*
X146113567Y-73410043D01*
X146056953Y-73427216D01*
X145943727Y-73461563D01*
X145877542Y-73468082D01*
X145811360Y-73474600D01*
X145722840Y-73474600D01*
X145656658Y-73468082D01*
X145590473Y-73461563D01*
X145477247Y-73427216D01*
X145420633Y-73410043D01*
X145264111Y-73326379D01*
X145264109Y-73326378D01*
X145228371Y-73297048D01*
X145126914Y-73213786D01*
X145043652Y-73112329D01*
X145014322Y-73076591D01*
X145004752Y-73058687D01*
X144930657Y-72920067D01*
X144913484Y-72863453D01*
X144879137Y-72750227D01*
X144861741Y-72573600D01*
X144879137Y-72396973D01*
X144930657Y-72227134D01*
X144930657Y-72227133D01*
X145014321Y-72070611D01*
X145014322Y-72070609D01*
X145043652Y-72034871D01*
X145126914Y-71933414D01*
X145228371Y-71850152D01*
X145264109Y-71820822D01*
X145282013Y-71811252D01*
X145420633Y-71737157D01*
X145477247Y-71719984D01*
X145590473Y-71685637D01*
X145656658Y-71679118D01*
X145722840Y-71672600D01*
X145811360Y-71672600D01*
X145877542Y-71679118D01*
X145877542Y-71679118D01*
G37*
G36*
X143337542Y-71679118D02*
X143403727Y-71685637D01*
X143516953Y-71719984D01*
X143573567Y-71737157D01*
X143712187Y-71811252D01*
X143730091Y-71820822D01*
X143765829Y-71850152D01*
X143867286Y-71933414D01*
X143950548Y-72034871D01*
X143979878Y-72070609D01*
X143979879Y-72070611D01*
X144063543Y-72227133D01*
X144063543Y-72227134D01*
X144115063Y-72396973D01*
X144132459Y-72573600D01*
X144115063Y-72750227D01*
X144080716Y-72863453D01*
X144063543Y-72920067D01*
X143989448Y-73058687D01*
X143979878Y-73076591D01*
X143950548Y-73112329D01*
X143867286Y-73213786D01*
X143765829Y-73297048D01*
X143730091Y-73326378D01*
X143730089Y-73326379D01*
X143573567Y-73410043D01*
X143516953Y-73427216D01*
X143403727Y-73461563D01*
X143337542Y-73468082D01*
X143271360Y-73474600D01*
X143182840Y-73474600D01*
X143116658Y-73468082D01*
X143050473Y-73461563D01*
X142937247Y-73427216D01*
X142880633Y-73410043D01*
X142724111Y-73326379D01*
X142724109Y-73326378D01*
X142688371Y-73297048D01*
X142586914Y-73213786D01*
X142503652Y-73112329D01*
X142474322Y-73076591D01*
X142464752Y-73058687D01*
X142390657Y-72920067D01*
X142373484Y-72863453D01*
X142339137Y-72750227D01*
X142321741Y-72573600D01*
X142339137Y-72396973D01*
X142390657Y-72227134D01*
X142390657Y-72227133D01*
X142474321Y-72070611D01*
X142474322Y-72070609D01*
X142503652Y-72034871D01*
X142586914Y-71933414D01*
X142688371Y-71850152D01*
X142724109Y-71820822D01*
X142742013Y-71811252D01*
X142880633Y-71737157D01*
X142937247Y-71719984D01*
X143050473Y-71685637D01*
X143116658Y-71679118D01*
X143182840Y-71672600D01*
X143271360Y-71672600D01*
X143337542Y-71679118D01*
X143337542Y-71679118D01*
G37*
G36*
X140797542Y-71679118D02*
X140863727Y-71685637D01*
X140976953Y-71719984D01*
X141033567Y-71737157D01*
X141172187Y-71811252D01*
X141190091Y-71820822D01*
X141225829Y-71850152D01*
X141327286Y-71933414D01*
X141410548Y-72034871D01*
X141439878Y-72070609D01*
X141439879Y-72070611D01*
X141523543Y-72227133D01*
X141523543Y-72227134D01*
X141575063Y-72396973D01*
X141592459Y-72573600D01*
X141575063Y-72750227D01*
X141540716Y-72863453D01*
X141523543Y-72920067D01*
X141449448Y-73058687D01*
X141439878Y-73076591D01*
X141410548Y-73112329D01*
X141327286Y-73213786D01*
X141225829Y-73297048D01*
X141190091Y-73326378D01*
X141190089Y-73326379D01*
X141033567Y-73410043D01*
X140976953Y-73427216D01*
X140863727Y-73461563D01*
X140797542Y-73468082D01*
X140731360Y-73474600D01*
X140642840Y-73474600D01*
X140576658Y-73468082D01*
X140510473Y-73461563D01*
X140397247Y-73427216D01*
X140340633Y-73410043D01*
X140184111Y-73326379D01*
X140184109Y-73326378D01*
X140148371Y-73297048D01*
X140046914Y-73213786D01*
X139963652Y-73112329D01*
X139934322Y-73076591D01*
X139924752Y-73058687D01*
X139850657Y-72920067D01*
X139833484Y-72863453D01*
X139799137Y-72750227D01*
X139781741Y-72573600D01*
X139799137Y-72396973D01*
X139850657Y-72227134D01*
X139850657Y-72227133D01*
X139934321Y-72070611D01*
X139934322Y-72070609D01*
X139963652Y-72034871D01*
X140046914Y-71933414D01*
X140148371Y-71850152D01*
X140184109Y-71820822D01*
X140202013Y-71811252D01*
X140340633Y-71737157D01*
X140397247Y-71719984D01*
X140510473Y-71685637D01*
X140576658Y-71679118D01*
X140642840Y-71672600D01*
X140731360Y-71672600D01*
X140797542Y-71679118D01*
X140797542Y-71679118D01*
G37*
G36*
X156037542Y-71679118D02*
X156103727Y-71685637D01*
X156216953Y-71719984D01*
X156273567Y-71737157D01*
X156412187Y-71811252D01*
X156430091Y-71820822D01*
X156465829Y-71850152D01*
X156567286Y-71933414D01*
X156650548Y-72034871D01*
X156679878Y-72070609D01*
X156679879Y-72070611D01*
X156763543Y-72227133D01*
X156763543Y-72227134D01*
X156815063Y-72396973D01*
X156832459Y-72573600D01*
X156815063Y-72750227D01*
X156780716Y-72863453D01*
X156763543Y-72920067D01*
X156689448Y-73058687D01*
X156679878Y-73076591D01*
X156650548Y-73112329D01*
X156567286Y-73213786D01*
X156465829Y-73297048D01*
X156430091Y-73326378D01*
X156430089Y-73326379D01*
X156273567Y-73410043D01*
X156216953Y-73427216D01*
X156103727Y-73461563D01*
X156037542Y-73468082D01*
X155971360Y-73474600D01*
X155882840Y-73474600D01*
X155816658Y-73468082D01*
X155750473Y-73461563D01*
X155637247Y-73427216D01*
X155580633Y-73410043D01*
X155424111Y-73326379D01*
X155424109Y-73326378D01*
X155388371Y-73297048D01*
X155286914Y-73213786D01*
X155203652Y-73112329D01*
X155174322Y-73076591D01*
X155164752Y-73058687D01*
X155090657Y-72920067D01*
X155073484Y-72863453D01*
X155039137Y-72750227D01*
X155021741Y-72573600D01*
X155039137Y-72396973D01*
X155090657Y-72227134D01*
X155090657Y-72227133D01*
X155174321Y-72070611D01*
X155174322Y-72070609D01*
X155203652Y-72034871D01*
X155286914Y-71933414D01*
X155388371Y-71850152D01*
X155424109Y-71820822D01*
X155442013Y-71811252D01*
X155580633Y-71737157D01*
X155637247Y-71719984D01*
X155750473Y-71685637D01*
X155816658Y-71679118D01*
X155882840Y-71672600D01*
X155971360Y-71672600D01*
X156037542Y-71679118D01*
X156037542Y-71679118D01*
G37*
G36*
X181212100Y-73474600D02*
X179410100Y-73474600D01*
X179410100Y-71672600D01*
X181212100Y-71672600D01*
X181212100Y-73474600D01*
X181212100Y-73474600D01*
G37*
G36*
X177881542Y-71679118D02*
X177947727Y-71685637D01*
X178060953Y-71719984D01*
X178117567Y-71737157D01*
X178256187Y-71811252D01*
X178274091Y-71820822D01*
X178309829Y-71850152D01*
X178411286Y-71933414D01*
X178494548Y-72034871D01*
X178523878Y-72070609D01*
X178523879Y-72070611D01*
X178607543Y-72227133D01*
X178607543Y-72227134D01*
X178659063Y-72396973D01*
X178676459Y-72573600D01*
X178659063Y-72750227D01*
X178624716Y-72863453D01*
X178607543Y-72920067D01*
X178533448Y-73058687D01*
X178523878Y-73076591D01*
X178494548Y-73112329D01*
X178411286Y-73213786D01*
X178309829Y-73297048D01*
X178274091Y-73326378D01*
X178274089Y-73326379D01*
X178117567Y-73410043D01*
X178060953Y-73427216D01*
X177947727Y-73461563D01*
X177881542Y-73468082D01*
X177815360Y-73474600D01*
X177726840Y-73474600D01*
X177660658Y-73468082D01*
X177594473Y-73461563D01*
X177481247Y-73427216D01*
X177424633Y-73410043D01*
X177268111Y-73326379D01*
X177268109Y-73326378D01*
X177232371Y-73297048D01*
X177130914Y-73213786D01*
X177047652Y-73112329D01*
X177018322Y-73076591D01*
X177008752Y-73058687D01*
X176934657Y-72920067D01*
X176917484Y-72863453D01*
X176883137Y-72750227D01*
X176865741Y-72573600D01*
X176883137Y-72396973D01*
X176934657Y-72227134D01*
X176934657Y-72227133D01*
X177018321Y-72070611D01*
X177018322Y-72070609D01*
X177047652Y-72034871D01*
X177130914Y-71933414D01*
X177232371Y-71850152D01*
X177268109Y-71820822D01*
X177286013Y-71811252D01*
X177424633Y-71737157D01*
X177481247Y-71719984D01*
X177594473Y-71685637D01*
X177660658Y-71679118D01*
X177726840Y-71672600D01*
X177815360Y-71672600D01*
X177881542Y-71679118D01*
X177881542Y-71679118D01*
G37*
G36*
X172801542Y-71679118D02*
X172867727Y-71685637D01*
X172980953Y-71719984D01*
X173037567Y-71737157D01*
X173176187Y-71811252D01*
X173194091Y-71820822D01*
X173229829Y-71850152D01*
X173331286Y-71933414D01*
X173414548Y-72034871D01*
X173443878Y-72070609D01*
X173443879Y-72070611D01*
X173527543Y-72227133D01*
X173527543Y-72227134D01*
X173579063Y-72396973D01*
X173596459Y-72573600D01*
X173579063Y-72750227D01*
X173544716Y-72863453D01*
X173527543Y-72920067D01*
X173453448Y-73058687D01*
X173443878Y-73076591D01*
X173414548Y-73112329D01*
X173331286Y-73213786D01*
X173229829Y-73297048D01*
X173194091Y-73326378D01*
X173194089Y-73326379D01*
X173037567Y-73410043D01*
X172980953Y-73427216D01*
X172867727Y-73461563D01*
X172801542Y-73468082D01*
X172735360Y-73474600D01*
X172646840Y-73474600D01*
X172580658Y-73468082D01*
X172514473Y-73461563D01*
X172401247Y-73427216D01*
X172344633Y-73410043D01*
X172188111Y-73326379D01*
X172188109Y-73326378D01*
X172152371Y-73297048D01*
X172050914Y-73213786D01*
X171967652Y-73112329D01*
X171938322Y-73076591D01*
X171928752Y-73058687D01*
X171854657Y-72920067D01*
X171837484Y-72863453D01*
X171803137Y-72750227D01*
X171785741Y-72573600D01*
X171803137Y-72396973D01*
X171854657Y-72227134D01*
X171854657Y-72227133D01*
X171938321Y-72070611D01*
X171938322Y-72070609D01*
X171967652Y-72034871D01*
X172050914Y-71933414D01*
X172152371Y-71850152D01*
X172188109Y-71820822D01*
X172206013Y-71811252D01*
X172344633Y-71737157D01*
X172401247Y-71719984D01*
X172514473Y-71685637D01*
X172580658Y-71679118D01*
X172646840Y-71672600D01*
X172735360Y-71672600D01*
X172801542Y-71679118D01*
X172801542Y-71679118D01*
G37*
G36*
X170261542Y-71679118D02*
X170327727Y-71685637D01*
X170440953Y-71719984D01*
X170497567Y-71737157D01*
X170636187Y-71811252D01*
X170654091Y-71820822D01*
X170689829Y-71850152D01*
X170791286Y-71933414D01*
X170874548Y-72034871D01*
X170903878Y-72070609D01*
X170903879Y-72070611D01*
X170987543Y-72227133D01*
X170987543Y-72227134D01*
X171039063Y-72396973D01*
X171056459Y-72573600D01*
X171039063Y-72750227D01*
X171004716Y-72863453D01*
X170987543Y-72920067D01*
X170913448Y-73058687D01*
X170903878Y-73076591D01*
X170874548Y-73112329D01*
X170791286Y-73213786D01*
X170689829Y-73297048D01*
X170654091Y-73326378D01*
X170654089Y-73326379D01*
X170497567Y-73410043D01*
X170440953Y-73427216D01*
X170327727Y-73461563D01*
X170261542Y-73468082D01*
X170195360Y-73474600D01*
X170106840Y-73474600D01*
X170040658Y-73468082D01*
X169974473Y-73461563D01*
X169861247Y-73427216D01*
X169804633Y-73410043D01*
X169648111Y-73326379D01*
X169648109Y-73326378D01*
X169612371Y-73297048D01*
X169510914Y-73213786D01*
X169427652Y-73112329D01*
X169398322Y-73076591D01*
X169388752Y-73058687D01*
X169314657Y-72920067D01*
X169297484Y-72863453D01*
X169263137Y-72750227D01*
X169245741Y-72573600D01*
X169263137Y-72396973D01*
X169314657Y-72227134D01*
X169314657Y-72227133D01*
X169398321Y-72070611D01*
X169398322Y-72070609D01*
X169427652Y-72034871D01*
X169510914Y-71933414D01*
X169612371Y-71850152D01*
X169648109Y-71820822D01*
X169666013Y-71811252D01*
X169804633Y-71737157D01*
X169861247Y-71719984D01*
X169974473Y-71685637D01*
X170040658Y-71679118D01*
X170106840Y-71672600D01*
X170195360Y-71672600D01*
X170261542Y-71679118D01*
X170261542Y-71679118D01*
G37*
G36*
X167721542Y-71679118D02*
X167787727Y-71685637D01*
X167900953Y-71719984D01*
X167957567Y-71737157D01*
X168096187Y-71811252D01*
X168114091Y-71820822D01*
X168149829Y-71850152D01*
X168251286Y-71933414D01*
X168334548Y-72034871D01*
X168363878Y-72070609D01*
X168363879Y-72070611D01*
X168447543Y-72227133D01*
X168447543Y-72227134D01*
X168499063Y-72396973D01*
X168516459Y-72573600D01*
X168499063Y-72750227D01*
X168464716Y-72863453D01*
X168447543Y-72920067D01*
X168373448Y-73058687D01*
X168363878Y-73076591D01*
X168334548Y-73112329D01*
X168251286Y-73213786D01*
X168149829Y-73297048D01*
X168114091Y-73326378D01*
X168114089Y-73326379D01*
X167957567Y-73410043D01*
X167900953Y-73427216D01*
X167787727Y-73461563D01*
X167721542Y-73468082D01*
X167655360Y-73474600D01*
X167566840Y-73474600D01*
X167500658Y-73468082D01*
X167434473Y-73461563D01*
X167321247Y-73427216D01*
X167264633Y-73410043D01*
X167108111Y-73326379D01*
X167108109Y-73326378D01*
X167072371Y-73297048D01*
X166970914Y-73213786D01*
X166887652Y-73112329D01*
X166858322Y-73076591D01*
X166848752Y-73058687D01*
X166774657Y-72920067D01*
X166757484Y-72863453D01*
X166723137Y-72750227D01*
X166705741Y-72573600D01*
X166723137Y-72396973D01*
X166774657Y-72227134D01*
X166774657Y-72227133D01*
X166858321Y-72070611D01*
X166858322Y-72070609D01*
X166887652Y-72034871D01*
X166970914Y-71933414D01*
X167072371Y-71850152D01*
X167108109Y-71820822D01*
X167126013Y-71811252D01*
X167264633Y-71737157D01*
X167321247Y-71719984D01*
X167434473Y-71685637D01*
X167500658Y-71679118D01*
X167566840Y-71672600D01*
X167655360Y-71672600D01*
X167721542Y-71679118D01*
X167721542Y-71679118D01*
G37*
G36*
X165181542Y-71679118D02*
X165247727Y-71685637D01*
X165360953Y-71719984D01*
X165417567Y-71737157D01*
X165556187Y-71811252D01*
X165574091Y-71820822D01*
X165609829Y-71850152D01*
X165711286Y-71933414D01*
X165794548Y-72034871D01*
X165823878Y-72070609D01*
X165823879Y-72070611D01*
X165907543Y-72227133D01*
X165907543Y-72227134D01*
X165959063Y-72396973D01*
X165976459Y-72573600D01*
X165959063Y-72750227D01*
X165924716Y-72863453D01*
X165907543Y-72920067D01*
X165833448Y-73058687D01*
X165823878Y-73076591D01*
X165794548Y-73112329D01*
X165711286Y-73213786D01*
X165609829Y-73297048D01*
X165574091Y-73326378D01*
X165574089Y-73326379D01*
X165417567Y-73410043D01*
X165360953Y-73427216D01*
X165247727Y-73461563D01*
X165181542Y-73468082D01*
X165115360Y-73474600D01*
X165026840Y-73474600D01*
X164960658Y-73468082D01*
X164894473Y-73461563D01*
X164781247Y-73427216D01*
X164724633Y-73410043D01*
X164568111Y-73326379D01*
X164568109Y-73326378D01*
X164532371Y-73297048D01*
X164430914Y-73213786D01*
X164347652Y-73112329D01*
X164318322Y-73076591D01*
X164308752Y-73058687D01*
X164234657Y-72920067D01*
X164217484Y-72863453D01*
X164183137Y-72750227D01*
X164165741Y-72573600D01*
X164183137Y-72396973D01*
X164234657Y-72227134D01*
X164234657Y-72227133D01*
X164318321Y-72070611D01*
X164318322Y-72070609D01*
X164347652Y-72034871D01*
X164430914Y-71933414D01*
X164532371Y-71850152D01*
X164568109Y-71820822D01*
X164586013Y-71811252D01*
X164724633Y-71737157D01*
X164781247Y-71719984D01*
X164894473Y-71685637D01*
X164960658Y-71679118D01*
X165026840Y-71672600D01*
X165115360Y-71672600D01*
X165181542Y-71679118D01*
X165181542Y-71679118D01*
G37*
G36*
X175341542Y-71679118D02*
X175407727Y-71685637D01*
X175520953Y-71719984D01*
X175577567Y-71737157D01*
X175716187Y-71811252D01*
X175734091Y-71820822D01*
X175769829Y-71850152D01*
X175871286Y-71933414D01*
X175954548Y-72034871D01*
X175983878Y-72070609D01*
X175983879Y-72070611D01*
X176067543Y-72227133D01*
X176067543Y-72227134D01*
X176119063Y-72396973D01*
X176136459Y-72573600D01*
X176119063Y-72750227D01*
X176084716Y-72863453D01*
X176067543Y-72920067D01*
X175993448Y-73058687D01*
X175983878Y-73076591D01*
X175954548Y-73112329D01*
X175871286Y-73213786D01*
X175769829Y-73297048D01*
X175734091Y-73326378D01*
X175734089Y-73326379D01*
X175577567Y-73410043D01*
X175520953Y-73427216D01*
X175407727Y-73461563D01*
X175341542Y-73468082D01*
X175275360Y-73474600D01*
X175186840Y-73474600D01*
X175120658Y-73468082D01*
X175054473Y-73461563D01*
X174941247Y-73427216D01*
X174884633Y-73410043D01*
X174728111Y-73326379D01*
X174728109Y-73326378D01*
X174692371Y-73297048D01*
X174590914Y-73213786D01*
X174507652Y-73112329D01*
X174478322Y-73076591D01*
X174468752Y-73058687D01*
X174394657Y-72920067D01*
X174377484Y-72863453D01*
X174343137Y-72750227D01*
X174325741Y-72573600D01*
X174343137Y-72396973D01*
X174394657Y-72227134D01*
X174394657Y-72227133D01*
X174478321Y-72070611D01*
X174478322Y-72070609D01*
X174507652Y-72034871D01*
X174590914Y-71933414D01*
X174692371Y-71850152D01*
X174728109Y-71820822D01*
X174746013Y-71811252D01*
X174884633Y-71737157D01*
X174941247Y-71719984D01*
X175054473Y-71685637D01*
X175120658Y-71679118D01*
X175186840Y-71672600D01*
X175275360Y-71672600D01*
X175341542Y-71679118D01*
X175341542Y-71679118D01*
G37*
G36*
X162641542Y-71679118D02*
X162707727Y-71685637D01*
X162820953Y-71719984D01*
X162877567Y-71737157D01*
X163016187Y-71811252D01*
X163034091Y-71820822D01*
X163069829Y-71850152D01*
X163171286Y-71933414D01*
X163254548Y-72034871D01*
X163283878Y-72070609D01*
X163283879Y-72070611D01*
X163367543Y-72227133D01*
X163367543Y-72227134D01*
X163419063Y-72396973D01*
X163436459Y-72573600D01*
X163419063Y-72750227D01*
X163384716Y-72863453D01*
X163367543Y-72920067D01*
X163293448Y-73058687D01*
X163283878Y-73076591D01*
X163254548Y-73112329D01*
X163171286Y-73213786D01*
X163069829Y-73297048D01*
X163034091Y-73326378D01*
X163034089Y-73326379D01*
X162877567Y-73410043D01*
X162820953Y-73427216D01*
X162707727Y-73461563D01*
X162641542Y-73468082D01*
X162575360Y-73474600D01*
X162486840Y-73474600D01*
X162420658Y-73468082D01*
X162354473Y-73461563D01*
X162241247Y-73427216D01*
X162184633Y-73410043D01*
X162028111Y-73326379D01*
X162028109Y-73326378D01*
X161992371Y-73297048D01*
X161890914Y-73213786D01*
X161807652Y-73112329D01*
X161778322Y-73076591D01*
X161768752Y-73058687D01*
X161694657Y-72920067D01*
X161677484Y-72863453D01*
X161643137Y-72750227D01*
X161625741Y-72573600D01*
X161643137Y-72396973D01*
X161694657Y-72227134D01*
X161694657Y-72227133D01*
X161778321Y-72070611D01*
X161778322Y-72070609D01*
X161807652Y-72034871D01*
X161890914Y-71933414D01*
X161992371Y-71850152D01*
X162028109Y-71820822D01*
X162046013Y-71811252D01*
X162184633Y-71737157D01*
X162241247Y-71719984D01*
X162354473Y-71685637D01*
X162420658Y-71679118D01*
X162486840Y-71672600D01*
X162575360Y-71672600D01*
X162641542Y-71679118D01*
X162641542Y-71679118D01*
G37*
M02*
