M48
;DRILL file {KiCad (5.0.2)-1} date 7/21/2019 6:19:02 PM
;FORMAT={-:-/ absolute / metric / decimal}
FMAT,2
METRIC,TZ
T1C0.400
T2C0.500
T3C0.600
T4C0.920
T5C1.000
T6C2.330
T7C3.200
%
G90
G05
T1
X131.318Y-76.263
X132.651Y-86.804
X134.874Y-89.281
X135.064Y-106.172
X135.953Y-81.28
X137.541Y-101.79
X139.001Y-108.077
X140.525Y-78.93
X141.097Y-109.347
X141.605Y-97.853
X141.605Y-105.537
X141.859Y-93.535
X142.303Y-81.788
X142.875Y-99.187
X144.335Y-105.855
X144.716Y-89.98
X148.336Y-110.68
X149.352Y-107.696
X153.54Y-101.213
X153.543Y-102.235
X154.114Y-112.014
X155.04Y-102.441
X155.258Y-109.411
X155.453Y-104.018
X157.226Y-109.951
X157.924Y-101.092
X159.004Y-101.004
X159.131Y-99.931
X161.481Y-108.077
X162.429Y-104.013
X163.49Y-105.131
X164.936Y-99.083
X165.29Y-97.346
X166.506Y-104.447
X166.655Y-101.409
X167.386Y-92.393
X168.105Y-102.516
X168.212Y-93.155
X169.862Y-94.08
X171.45Y-91.249
X172.275Y-95.377
X174.18Y-92.011
X175.704Y-93.091
X176.149Y-100.393
X178.181Y-98.679
X179.006Y-82.804
T2
X139.192Y-83.629
X140.536Y-84.973
T3
X127.61Y-100.139
X133.54Y-107.315
X137.731Y-117.221
X141.115Y-115.092
X151.629Y-115.316
T4
X123.331Y-84.024
X123.331Y-86.524
X125.331Y-84.024
X125.331Y-86.524
T5
X182.944Y-103.441
X182.944Y-105.981
X182.944Y-108.521
X182.944Y-111.061
X167.611Y-120.834
X170.151Y-120.834
X172.691Y-120.834
X175.231Y-120.834
X177.771Y-120.834
X180.311Y-120.834
X140.687Y-72.574
X143.227Y-72.574
X145.767Y-72.574
X148.307Y-72.574
X150.847Y-72.574
X153.387Y-72.574
X155.927Y-72.574
X158.467Y-72.574
X162.531Y-72.574
X165.071Y-72.574
X167.611Y-72.574
X170.151Y-72.574
X172.691Y-72.574
X175.231Y-72.574
X177.771Y-72.574
X180.311Y-72.574
X149.831Y-120.834
X152.371Y-120.834
X154.911Y-120.834
X157.451Y-120.834
X159.991Y-120.834
X162.531Y-120.834
X180.438Y-92.894
X180.438Y-95.434
X180.438Y-97.974
X182.978Y-92.894
X182.978Y-95.434
X182.978Y-97.974
T6
X120.621Y-79.254
X120.621Y-91.294
T7
X182.891Y-87.818
X182.891Y-115.758
X132.091Y-72.578
X130.821Y-120.838
T5
X121.4Y-114.2G85X121.4Y-116.2
G05
X123.4Y-119.9G85X125.4Y-119.9
G05
X127.4Y-114.2G85X127.4Y-116.2
G05
T0
M30
