G04 #@! TF.GenerationSoftware,KiCad,Pcbnew,(5.0.2)-1*
G04 #@! TF.CreationDate,2019-07-21T18:19:00-05:00*
G04 #@! TF.ProjectId,arduino_uno,61726475-696e-46f5-9f75-6e6f2e6b6963,rev?*
G04 #@! TF.SameCoordinates,Original*
G04 #@! TF.FileFunction,Soldermask,Top*
G04 #@! TF.FilePolarity,Negative*
%FSLAX46Y46*%
G04 Gerber Fmt 4.6, Leading zero omitted, Abs format (unit mm)*
G04 Created by KiCad (PCBNEW (5.0.2)-1) date 7/21/2019 6:19:00 PM*
%MOMM*%
%LPD*%
G01*
G04 APERTURE LIST*
%ADD10C,0.100000*%
G04 APERTURE END LIST*
D10*
G36*
X131196356Y-119228898D02*
X131302679Y-119250047D01*
X131603142Y-119374503D01*
X131869952Y-119552780D01*
X131873554Y-119555187D01*
X132103513Y-119785146D01*
X132103515Y-119785149D01*
X132284197Y-120055558D01*
X132398128Y-120330611D01*
X132408653Y-120356022D01*
X132472100Y-120674989D01*
X132472100Y-121000211D01*
X132466897Y-121026366D01*
X132408653Y-121319179D01*
X132320650Y-121531637D01*
X132297976Y-121586378D01*
X132284197Y-121619642D01*
X132240990Y-121684305D01*
X132103513Y-121890054D01*
X131873554Y-122120013D01*
X131873551Y-122120015D01*
X131603142Y-122300697D01*
X131302679Y-122425153D01*
X131196356Y-122446302D01*
X130983711Y-122488600D01*
X130658489Y-122488600D01*
X130445844Y-122446302D01*
X130339521Y-122425153D01*
X130039058Y-122300697D01*
X129768649Y-122120015D01*
X129768646Y-122120013D01*
X129538687Y-121890054D01*
X129401210Y-121684305D01*
X129358003Y-121619642D01*
X129344225Y-121586378D01*
X129321550Y-121531637D01*
X129233547Y-121319179D01*
X129175303Y-121026366D01*
X129170100Y-121000211D01*
X129170100Y-120674989D01*
X129233547Y-120356022D01*
X129244073Y-120330611D01*
X129358003Y-120055558D01*
X129538685Y-119785149D01*
X129538687Y-119785146D01*
X129768646Y-119555187D01*
X129772248Y-119552780D01*
X130039058Y-119374503D01*
X130339521Y-119250047D01*
X130445844Y-119228898D01*
X130658489Y-119186600D01*
X130983711Y-119186600D01*
X131196356Y-119228898D01*
X131196356Y-119228898D01*
G37*
G36*
X180421542Y-119939118D02*
X180487727Y-119945637D01*
X180600953Y-119979984D01*
X180657567Y-119997157D01*
X180796187Y-120071252D01*
X180814091Y-120080822D01*
X180849829Y-120110152D01*
X180951286Y-120193414D01*
X181034548Y-120294871D01*
X181063878Y-120330609D01*
X181063879Y-120330611D01*
X181147543Y-120487133D01*
X181147543Y-120487134D01*
X181199063Y-120656973D01*
X181216459Y-120833600D01*
X181199063Y-121010227D01*
X181194167Y-121026366D01*
X181147543Y-121180067D01*
X181145730Y-121183458D01*
X181063878Y-121336591D01*
X181034548Y-121372329D01*
X180951286Y-121473786D01*
X180859346Y-121549238D01*
X180814091Y-121586378D01*
X180814089Y-121586379D01*
X180657567Y-121670043D01*
X180600953Y-121687216D01*
X180487727Y-121721563D01*
X180421543Y-121728081D01*
X180355360Y-121734600D01*
X180266840Y-121734600D01*
X180200657Y-121728081D01*
X180134473Y-121721563D01*
X180021247Y-121687216D01*
X179964633Y-121670043D01*
X179808111Y-121586379D01*
X179808109Y-121586378D01*
X179762854Y-121549238D01*
X179670914Y-121473786D01*
X179587652Y-121372329D01*
X179558322Y-121336591D01*
X179476470Y-121183458D01*
X179474657Y-121180067D01*
X179428033Y-121026366D01*
X179423137Y-121010227D01*
X179405741Y-120833600D01*
X179423137Y-120656973D01*
X179474657Y-120487134D01*
X179474657Y-120487133D01*
X179558321Y-120330611D01*
X179558322Y-120330609D01*
X179587652Y-120294871D01*
X179670914Y-120193414D01*
X179772371Y-120110152D01*
X179808109Y-120080822D01*
X179826013Y-120071252D01*
X179964633Y-119997157D01*
X180021247Y-119979984D01*
X180134473Y-119945637D01*
X180200658Y-119939118D01*
X180266840Y-119932600D01*
X180355360Y-119932600D01*
X180421542Y-119939118D01*
X180421542Y-119939118D01*
G37*
G36*
X162641542Y-119939118D02*
X162707727Y-119945637D01*
X162820953Y-119979984D01*
X162877567Y-119997157D01*
X163016187Y-120071252D01*
X163034091Y-120080822D01*
X163069829Y-120110152D01*
X163171286Y-120193414D01*
X163254548Y-120294871D01*
X163283878Y-120330609D01*
X163283879Y-120330611D01*
X163367543Y-120487133D01*
X163367543Y-120487134D01*
X163419063Y-120656973D01*
X163436459Y-120833600D01*
X163419063Y-121010227D01*
X163414167Y-121026366D01*
X163367543Y-121180067D01*
X163365730Y-121183458D01*
X163283878Y-121336591D01*
X163254548Y-121372329D01*
X163171286Y-121473786D01*
X163079346Y-121549238D01*
X163034091Y-121586378D01*
X163034089Y-121586379D01*
X162877567Y-121670043D01*
X162820953Y-121687216D01*
X162707727Y-121721563D01*
X162641543Y-121728081D01*
X162575360Y-121734600D01*
X162486840Y-121734600D01*
X162420657Y-121728081D01*
X162354473Y-121721563D01*
X162241247Y-121687216D01*
X162184633Y-121670043D01*
X162028111Y-121586379D01*
X162028109Y-121586378D01*
X161982854Y-121549238D01*
X161890914Y-121473786D01*
X161807652Y-121372329D01*
X161778322Y-121336591D01*
X161696470Y-121183458D01*
X161694657Y-121180067D01*
X161648033Y-121026366D01*
X161643137Y-121010227D01*
X161625741Y-120833600D01*
X161643137Y-120656973D01*
X161694657Y-120487134D01*
X161694657Y-120487133D01*
X161778321Y-120330611D01*
X161778322Y-120330609D01*
X161807652Y-120294871D01*
X161890914Y-120193414D01*
X161992371Y-120110152D01*
X162028109Y-120080822D01*
X162046013Y-120071252D01*
X162184633Y-119997157D01*
X162241247Y-119979984D01*
X162354473Y-119945637D01*
X162420658Y-119939118D01*
X162486840Y-119932600D01*
X162575360Y-119932600D01*
X162641542Y-119939118D01*
X162641542Y-119939118D01*
G37*
G36*
X160101542Y-119939118D02*
X160167727Y-119945637D01*
X160280953Y-119979984D01*
X160337567Y-119997157D01*
X160476187Y-120071252D01*
X160494091Y-120080822D01*
X160529829Y-120110152D01*
X160631286Y-120193414D01*
X160714548Y-120294871D01*
X160743878Y-120330609D01*
X160743879Y-120330611D01*
X160827543Y-120487133D01*
X160827543Y-120487134D01*
X160879063Y-120656973D01*
X160896459Y-120833600D01*
X160879063Y-121010227D01*
X160874167Y-121026366D01*
X160827543Y-121180067D01*
X160825730Y-121183458D01*
X160743878Y-121336591D01*
X160714548Y-121372329D01*
X160631286Y-121473786D01*
X160539346Y-121549238D01*
X160494091Y-121586378D01*
X160494089Y-121586379D01*
X160337567Y-121670043D01*
X160280953Y-121687216D01*
X160167727Y-121721563D01*
X160101543Y-121728081D01*
X160035360Y-121734600D01*
X159946840Y-121734600D01*
X159880657Y-121728081D01*
X159814473Y-121721563D01*
X159701247Y-121687216D01*
X159644633Y-121670043D01*
X159488111Y-121586379D01*
X159488109Y-121586378D01*
X159442854Y-121549238D01*
X159350914Y-121473786D01*
X159267652Y-121372329D01*
X159238322Y-121336591D01*
X159156470Y-121183458D01*
X159154657Y-121180067D01*
X159108033Y-121026366D01*
X159103137Y-121010227D01*
X159085741Y-120833600D01*
X159103137Y-120656973D01*
X159154657Y-120487134D01*
X159154657Y-120487133D01*
X159238321Y-120330611D01*
X159238322Y-120330609D01*
X159267652Y-120294871D01*
X159350914Y-120193414D01*
X159452371Y-120110152D01*
X159488109Y-120080822D01*
X159506013Y-120071252D01*
X159644633Y-119997157D01*
X159701247Y-119979984D01*
X159814473Y-119945637D01*
X159880658Y-119939118D01*
X159946840Y-119932600D01*
X160035360Y-119932600D01*
X160101542Y-119939118D01*
X160101542Y-119939118D01*
G37*
G36*
X157561542Y-119939118D02*
X157627727Y-119945637D01*
X157740953Y-119979984D01*
X157797567Y-119997157D01*
X157936187Y-120071252D01*
X157954091Y-120080822D01*
X157989829Y-120110152D01*
X158091286Y-120193414D01*
X158174548Y-120294871D01*
X158203878Y-120330609D01*
X158203879Y-120330611D01*
X158287543Y-120487133D01*
X158287543Y-120487134D01*
X158339063Y-120656973D01*
X158356459Y-120833600D01*
X158339063Y-121010227D01*
X158334167Y-121026366D01*
X158287543Y-121180067D01*
X158285730Y-121183458D01*
X158203878Y-121336591D01*
X158174548Y-121372329D01*
X158091286Y-121473786D01*
X157999346Y-121549238D01*
X157954091Y-121586378D01*
X157954089Y-121586379D01*
X157797567Y-121670043D01*
X157740953Y-121687216D01*
X157627727Y-121721563D01*
X157561543Y-121728081D01*
X157495360Y-121734600D01*
X157406840Y-121734600D01*
X157340657Y-121728081D01*
X157274473Y-121721563D01*
X157161247Y-121687216D01*
X157104633Y-121670043D01*
X156948111Y-121586379D01*
X156948109Y-121586378D01*
X156902854Y-121549238D01*
X156810914Y-121473786D01*
X156727652Y-121372329D01*
X156698322Y-121336591D01*
X156616470Y-121183458D01*
X156614657Y-121180067D01*
X156568033Y-121026366D01*
X156563137Y-121010227D01*
X156545741Y-120833600D01*
X156563137Y-120656973D01*
X156614657Y-120487134D01*
X156614657Y-120487133D01*
X156698321Y-120330611D01*
X156698322Y-120330609D01*
X156727652Y-120294871D01*
X156810914Y-120193414D01*
X156912371Y-120110152D01*
X156948109Y-120080822D01*
X156966013Y-120071252D01*
X157104633Y-119997157D01*
X157161247Y-119979984D01*
X157274473Y-119945637D01*
X157340658Y-119939118D01*
X157406840Y-119932600D01*
X157495360Y-119932600D01*
X157561542Y-119939118D01*
X157561542Y-119939118D01*
G37*
G36*
X155021542Y-119939118D02*
X155087727Y-119945637D01*
X155200953Y-119979984D01*
X155257567Y-119997157D01*
X155396187Y-120071252D01*
X155414091Y-120080822D01*
X155449829Y-120110152D01*
X155551286Y-120193414D01*
X155634548Y-120294871D01*
X155663878Y-120330609D01*
X155663879Y-120330611D01*
X155747543Y-120487133D01*
X155747543Y-120487134D01*
X155799063Y-120656973D01*
X155816459Y-120833600D01*
X155799063Y-121010227D01*
X155794167Y-121026366D01*
X155747543Y-121180067D01*
X155745730Y-121183458D01*
X155663878Y-121336591D01*
X155634548Y-121372329D01*
X155551286Y-121473786D01*
X155459346Y-121549238D01*
X155414091Y-121586378D01*
X155414089Y-121586379D01*
X155257567Y-121670043D01*
X155200953Y-121687216D01*
X155087727Y-121721563D01*
X155021543Y-121728081D01*
X154955360Y-121734600D01*
X154866840Y-121734600D01*
X154800657Y-121728081D01*
X154734473Y-121721563D01*
X154621247Y-121687216D01*
X154564633Y-121670043D01*
X154408111Y-121586379D01*
X154408109Y-121586378D01*
X154362854Y-121549238D01*
X154270914Y-121473786D01*
X154187652Y-121372329D01*
X154158322Y-121336591D01*
X154076470Y-121183458D01*
X154074657Y-121180067D01*
X154028033Y-121026366D01*
X154023137Y-121010227D01*
X154005741Y-120833600D01*
X154023137Y-120656973D01*
X154074657Y-120487134D01*
X154074657Y-120487133D01*
X154158321Y-120330611D01*
X154158322Y-120330609D01*
X154187652Y-120294871D01*
X154270914Y-120193414D01*
X154372371Y-120110152D01*
X154408109Y-120080822D01*
X154426013Y-120071252D01*
X154564633Y-119997157D01*
X154621247Y-119979984D01*
X154734473Y-119945637D01*
X154800658Y-119939118D01*
X154866840Y-119932600D01*
X154955360Y-119932600D01*
X155021542Y-119939118D01*
X155021542Y-119939118D01*
G37*
G36*
X152481542Y-119939118D02*
X152547727Y-119945637D01*
X152660953Y-119979984D01*
X152717567Y-119997157D01*
X152856187Y-120071252D01*
X152874091Y-120080822D01*
X152909829Y-120110152D01*
X153011286Y-120193414D01*
X153094548Y-120294871D01*
X153123878Y-120330609D01*
X153123879Y-120330611D01*
X153207543Y-120487133D01*
X153207543Y-120487134D01*
X153259063Y-120656973D01*
X153276459Y-120833600D01*
X153259063Y-121010227D01*
X153254167Y-121026366D01*
X153207543Y-121180067D01*
X153205730Y-121183458D01*
X153123878Y-121336591D01*
X153094548Y-121372329D01*
X153011286Y-121473786D01*
X152919346Y-121549238D01*
X152874091Y-121586378D01*
X152874089Y-121586379D01*
X152717567Y-121670043D01*
X152660953Y-121687216D01*
X152547727Y-121721563D01*
X152481543Y-121728081D01*
X152415360Y-121734600D01*
X152326840Y-121734600D01*
X152260657Y-121728081D01*
X152194473Y-121721563D01*
X152081247Y-121687216D01*
X152024633Y-121670043D01*
X151868111Y-121586379D01*
X151868109Y-121586378D01*
X151822854Y-121549238D01*
X151730914Y-121473786D01*
X151647652Y-121372329D01*
X151618322Y-121336591D01*
X151536470Y-121183458D01*
X151534657Y-121180067D01*
X151488033Y-121026366D01*
X151483137Y-121010227D01*
X151465741Y-120833600D01*
X151483137Y-120656973D01*
X151534657Y-120487134D01*
X151534657Y-120487133D01*
X151618321Y-120330611D01*
X151618322Y-120330609D01*
X151647652Y-120294871D01*
X151730914Y-120193414D01*
X151832371Y-120110152D01*
X151868109Y-120080822D01*
X151886013Y-120071252D01*
X152024633Y-119997157D01*
X152081247Y-119979984D01*
X152194473Y-119945637D01*
X152260658Y-119939118D01*
X152326840Y-119932600D01*
X152415360Y-119932600D01*
X152481542Y-119939118D01*
X152481542Y-119939118D01*
G37*
G36*
X168512100Y-121734600D02*
X166710100Y-121734600D01*
X166710100Y-119932600D01*
X168512100Y-119932600D01*
X168512100Y-121734600D01*
X168512100Y-121734600D01*
G37*
G36*
X150732100Y-121734600D02*
X148930100Y-121734600D01*
X148930100Y-119932600D01*
X150732100Y-119932600D01*
X150732100Y-121734600D01*
X150732100Y-121734600D01*
G37*
G36*
X177881542Y-119939118D02*
X177947727Y-119945637D01*
X178060953Y-119979984D01*
X178117567Y-119997157D01*
X178256187Y-120071252D01*
X178274091Y-120080822D01*
X178309829Y-120110152D01*
X178411286Y-120193414D01*
X178494548Y-120294871D01*
X178523878Y-120330609D01*
X178523879Y-120330611D01*
X178607543Y-120487133D01*
X178607543Y-120487134D01*
X178659063Y-120656973D01*
X178676459Y-120833600D01*
X178659063Y-121010227D01*
X178654167Y-121026366D01*
X178607543Y-121180067D01*
X178605730Y-121183458D01*
X178523878Y-121336591D01*
X178494548Y-121372329D01*
X178411286Y-121473786D01*
X178319346Y-121549238D01*
X178274091Y-121586378D01*
X178274089Y-121586379D01*
X178117567Y-121670043D01*
X178060953Y-121687216D01*
X177947727Y-121721563D01*
X177881543Y-121728081D01*
X177815360Y-121734600D01*
X177726840Y-121734600D01*
X177660657Y-121728081D01*
X177594473Y-121721563D01*
X177481247Y-121687216D01*
X177424633Y-121670043D01*
X177268111Y-121586379D01*
X177268109Y-121586378D01*
X177222854Y-121549238D01*
X177130914Y-121473786D01*
X177047652Y-121372329D01*
X177018322Y-121336591D01*
X176936470Y-121183458D01*
X176934657Y-121180067D01*
X176888033Y-121026366D01*
X176883137Y-121010227D01*
X176865741Y-120833600D01*
X176883137Y-120656973D01*
X176934657Y-120487134D01*
X176934657Y-120487133D01*
X177018321Y-120330611D01*
X177018322Y-120330609D01*
X177047652Y-120294871D01*
X177130914Y-120193414D01*
X177232371Y-120110152D01*
X177268109Y-120080822D01*
X177286013Y-120071252D01*
X177424633Y-119997157D01*
X177481247Y-119979984D01*
X177594473Y-119945637D01*
X177660658Y-119939118D01*
X177726840Y-119932600D01*
X177815360Y-119932600D01*
X177881542Y-119939118D01*
X177881542Y-119939118D01*
G37*
G36*
X175341542Y-119939118D02*
X175407727Y-119945637D01*
X175520953Y-119979984D01*
X175577567Y-119997157D01*
X175716187Y-120071252D01*
X175734091Y-120080822D01*
X175769829Y-120110152D01*
X175871286Y-120193414D01*
X175954548Y-120294871D01*
X175983878Y-120330609D01*
X175983879Y-120330611D01*
X176067543Y-120487133D01*
X176067543Y-120487134D01*
X176119063Y-120656973D01*
X176136459Y-120833600D01*
X176119063Y-121010227D01*
X176114167Y-121026366D01*
X176067543Y-121180067D01*
X176065730Y-121183458D01*
X175983878Y-121336591D01*
X175954548Y-121372329D01*
X175871286Y-121473786D01*
X175779346Y-121549238D01*
X175734091Y-121586378D01*
X175734089Y-121586379D01*
X175577567Y-121670043D01*
X175520953Y-121687216D01*
X175407727Y-121721563D01*
X175341543Y-121728081D01*
X175275360Y-121734600D01*
X175186840Y-121734600D01*
X175120657Y-121728081D01*
X175054473Y-121721563D01*
X174941247Y-121687216D01*
X174884633Y-121670043D01*
X174728111Y-121586379D01*
X174728109Y-121586378D01*
X174682854Y-121549238D01*
X174590914Y-121473786D01*
X174507652Y-121372329D01*
X174478322Y-121336591D01*
X174396470Y-121183458D01*
X174394657Y-121180067D01*
X174348033Y-121026366D01*
X174343137Y-121010227D01*
X174325741Y-120833600D01*
X174343137Y-120656973D01*
X174394657Y-120487134D01*
X174394657Y-120487133D01*
X174478321Y-120330611D01*
X174478322Y-120330609D01*
X174507652Y-120294871D01*
X174590914Y-120193414D01*
X174692371Y-120110152D01*
X174728109Y-120080822D01*
X174746013Y-120071252D01*
X174884633Y-119997157D01*
X174941247Y-119979984D01*
X175054473Y-119945637D01*
X175120658Y-119939118D01*
X175186840Y-119932600D01*
X175275360Y-119932600D01*
X175341542Y-119939118D01*
X175341542Y-119939118D01*
G37*
G36*
X170261542Y-119939118D02*
X170327727Y-119945637D01*
X170440953Y-119979984D01*
X170497567Y-119997157D01*
X170636187Y-120071252D01*
X170654091Y-120080822D01*
X170689829Y-120110152D01*
X170791286Y-120193414D01*
X170874548Y-120294871D01*
X170903878Y-120330609D01*
X170903879Y-120330611D01*
X170987543Y-120487133D01*
X170987543Y-120487134D01*
X171039063Y-120656973D01*
X171056459Y-120833600D01*
X171039063Y-121010227D01*
X171034167Y-121026366D01*
X170987543Y-121180067D01*
X170985730Y-121183458D01*
X170903878Y-121336591D01*
X170874548Y-121372329D01*
X170791286Y-121473786D01*
X170699346Y-121549238D01*
X170654091Y-121586378D01*
X170654089Y-121586379D01*
X170497567Y-121670043D01*
X170440953Y-121687216D01*
X170327727Y-121721563D01*
X170261543Y-121728081D01*
X170195360Y-121734600D01*
X170106840Y-121734600D01*
X170040657Y-121728081D01*
X169974473Y-121721563D01*
X169861247Y-121687216D01*
X169804633Y-121670043D01*
X169648111Y-121586379D01*
X169648109Y-121586378D01*
X169602854Y-121549238D01*
X169510914Y-121473786D01*
X169427652Y-121372329D01*
X169398322Y-121336591D01*
X169316470Y-121183458D01*
X169314657Y-121180067D01*
X169268033Y-121026366D01*
X169263137Y-121010227D01*
X169245741Y-120833600D01*
X169263137Y-120656973D01*
X169314657Y-120487134D01*
X169314657Y-120487133D01*
X169398321Y-120330611D01*
X169398322Y-120330609D01*
X169427652Y-120294871D01*
X169510914Y-120193414D01*
X169612371Y-120110152D01*
X169648109Y-120080822D01*
X169666013Y-120071252D01*
X169804633Y-119997157D01*
X169861247Y-119979984D01*
X169974473Y-119945637D01*
X170040658Y-119939118D01*
X170106840Y-119932600D01*
X170195360Y-119932600D01*
X170261542Y-119939118D01*
X170261542Y-119939118D01*
G37*
G36*
X172801542Y-119939118D02*
X172867727Y-119945637D01*
X172980953Y-119979984D01*
X173037567Y-119997157D01*
X173176187Y-120071252D01*
X173194091Y-120080822D01*
X173229829Y-120110152D01*
X173331286Y-120193414D01*
X173414548Y-120294871D01*
X173443878Y-120330609D01*
X173443879Y-120330611D01*
X173527543Y-120487133D01*
X173527543Y-120487134D01*
X173579063Y-120656973D01*
X173596459Y-120833600D01*
X173579063Y-121010227D01*
X173574167Y-121026366D01*
X173527543Y-121180067D01*
X173525730Y-121183458D01*
X173443878Y-121336591D01*
X173414548Y-121372329D01*
X173331286Y-121473786D01*
X173239346Y-121549238D01*
X173194091Y-121586378D01*
X173194089Y-121586379D01*
X173037567Y-121670043D01*
X172980953Y-121687216D01*
X172867727Y-121721563D01*
X172801543Y-121728081D01*
X172735360Y-121734600D01*
X172646840Y-121734600D01*
X172580657Y-121728081D01*
X172514473Y-121721563D01*
X172401247Y-121687216D01*
X172344633Y-121670043D01*
X172188111Y-121586379D01*
X172188109Y-121586378D01*
X172142854Y-121549238D01*
X172050914Y-121473786D01*
X171967652Y-121372329D01*
X171938322Y-121336591D01*
X171856470Y-121183458D01*
X171854657Y-121180067D01*
X171808033Y-121026366D01*
X171803137Y-121010227D01*
X171785741Y-120833600D01*
X171803137Y-120656973D01*
X171854657Y-120487134D01*
X171854657Y-120487133D01*
X171938321Y-120330611D01*
X171938322Y-120330609D01*
X171967652Y-120294871D01*
X172050914Y-120193414D01*
X172152371Y-120110152D01*
X172188109Y-120080822D01*
X172206013Y-120071252D01*
X172344633Y-119997157D01*
X172401247Y-119979984D01*
X172514473Y-119945637D01*
X172580658Y-119939118D01*
X172646840Y-119932600D01*
X172735360Y-119932600D01*
X172801542Y-119939118D01*
X172801542Y-119939118D01*
G37*
G36*
X125526366Y-118115695D02*
X125683458Y-118163348D01*
X125828230Y-118240731D01*
X125955128Y-118344872D01*
X126059269Y-118471770D01*
X126136652Y-118616542D01*
X126184305Y-118773634D01*
X126201000Y-118943140D01*
X126201000Y-120856860D01*
X126184305Y-121026366D01*
X126136652Y-121183458D01*
X126059269Y-121328230D01*
X125955128Y-121455128D01*
X125828230Y-121559269D01*
X125683458Y-121636652D01*
X125526366Y-121684305D01*
X125356860Y-121701000D01*
X123443140Y-121701000D01*
X123273634Y-121684305D01*
X123116542Y-121636652D01*
X122971770Y-121559269D01*
X122844872Y-121455128D01*
X122740731Y-121328230D01*
X122663348Y-121183458D01*
X122615695Y-121026366D01*
X122599000Y-120856860D01*
X122599000Y-118943140D01*
X122615695Y-118773634D01*
X122663348Y-118616542D01*
X122740731Y-118471770D01*
X122844872Y-118344872D01*
X122971770Y-118240731D01*
X123116542Y-118163348D01*
X123273634Y-118115695D01*
X123443140Y-118099000D01*
X125356860Y-118099000D01*
X125526366Y-118115695D01*
X125526366Y-118115695D01*
G37*
G36*
X134299348Y-115372261D02*
X134333005Y-115382471D01*
X134364019Y-115399048D01*
X134395977Y-115425275D01*
X135336225Y-116365523D01*
X135362452Y-116397481D01*
X135379029Y-116428495D01*
X135389239Y-116462152D01*
X135392685Y-116497148D01*
X135389239Y-116532144D01*
X135379029Y-116565801D01*
X135362452Y-116596815D01*
X135336225Y-116628773D01*
X133052475Y-118912523D01*
X133020517Y-118938750D01*
X132989503Y-118955327D01*
X132955846Y-118965537D01*
X132920850Y-118968983D01*
X132885854Y-118965537D01*
X132852197Y-118955327D01*
X132821183Y-118938750D01*
X132789225Y-118912523D01*
X131848977Y-117972275D01*
X131822750Y-117940317D01*
X131806173Y-117909303D01*
X131795963Y-117875646D01*
X131792517Y-117840650D01*
X131795963Y-117805654D01*
X131806173Y-117771997D01*
X131822750Y-117740983D01*
X131848977Y-117709025D01*
X134132727Y-115425275D01*
X134164685Y-115399048D01*
X134195699Y-115382471D01*
X134229356Y-115372261D01*
X134264352Y-115368815D01*
X134299348Y-115372261D01*
X134299348Y-115372261D01*
G37*
G36*
X144014848Y-115372261D02*
X144048505Y-115382471D01*
X144079519Y-115399048D01*
X144111477Y-115425275D01*
X145051725Y-116365523D01*
X145077952Y-116397481D01*
X145094529Y-116428495D01*
X145104739Y-116462152D01*
X145108185Y-116497148D01*
X145104739Y-116532144D01*
X145094529Y-116565801D01*
X145077952Y-116596815D01*
X145051725Y-116628773D01*
X142767975Y-118912523D01*
X142736017Y-118938750D01*
X142705003Y-118955327D01*
X142671346Y-118965537D01*
X142636350Y-118968983D01*
X142601354Y-118965537D01*
X142567697Y-118955327D01*
X142536683Y-118938750D01*
X142504725Y-118912523D01*
X141564477Y-117972275D01*
X141538250Y-117940317D01*
X141521673Y-117909303D01*
X141511463Y-117875646D01*
X141508017Y-117840650D01*
X141511463Y-117805654D01*
X141521673Y-117771997D01*
X141538250Y-117740983D01*
X141564477Y-117709025D01*
X143848227Y-115425275D01*
X143880185Y-115399048D01*
X143911199Y-115382471D01*
X143944856Y-115372261D01*
X143979852Y-115368815D01*
X144014848Y-115372261D01*
X144014848Y-115372261D01*
G37*
G36*
X183266356Y-114148898D02*
X183372679Y-114170047D01*
X183673142Y-114294503D01*
X183939952Y-114472780D01*
X183943554Y-114475187D01*
X184173513Y-114705146D01*
X184173515Y-114705149D01*
X184349871Y-114969083D01*
X184354198Y-114975560D01*
X184478653Y-115276022D01*
X184508342Y-115425275D01*
X184542100Y-115594991D01*
X184542100Y-115920209D01*
X184478653Y-116239179D01*
X184421651Y-116376793D01*
X184354198Y-116539640D01*
X184173513Y-116810054D01*
X183943554Y-117040013D01*
X183943551Y-117040015D01*
X183673142Y-117220697D01*
X183372679Y-117345153D01*
X183266356Y-117366302D01*
X183053711Y-117408600D01*
X182728489Y-117408600D01*
X182515844Y-117366302D01*
X182409521Y-117345153D01*
X182109058Y-117220697D01*
X181838649Y-117040015D01*
X181838646Y-117040013D01*
X181608687Y-116810054D01*
X181428002Y-116539640D01*
X181360549Y-116376793D01*
X181303547Y-116239179D01*
X181240100Y-115920209D01*
X181240100Y-115594991D01*
X181273859Y-115425275D01*
X181303547Y-115276022D01*
X181428002Y-114975560D01*
X181432330Y-114969083D01*
X181608685Y-114705149D01*
X181608687Y-114705146D01*
X181838646Y-114475187D01*
X181842248Y-114472780D01*
X182109058Y-114294503D01*
X182409521Y-114170047D01*
X182515844Y-114148898D01*
X182728489Y-114106600D01*
X183053711Y-114106600D01*
X183266356Y-114148898D01*
X183266356Y-114148898D01*
G37*
G36*
X129201000Y-117001000D02*
X125599000Y-117001000D01*
X125599000Y-113399000D01*
X129201000Y-113399000D01*
X129201000Y-117001000D01*
X129201000Y-117001000D01*
G37*
G36*
X122376978Y-113413293D02*
X122510627Y-113453835D01*
X122633782Y-113519662D01*
X122741739Y-113608261D01*
X122830338Y-113716218D01*
X122896165Y-113839373D01*
X122936707Y-113973022D01*
X122951000Y-114118140D01*
X122951000Y-116281860D01*
X122936707Y-116426978D01*
X122896165Y-116560627D01*
X122830338Y-116683782D01*
X122741739Y-116791739D01*
X122633782Y-116880338D01*
X122510627Y-116946165D01*
X122376978Y-116986707D01*
X122231860Y-117001000D01*
X120568140Y-117001000D01*
X120423022Y-116986707D01*
X120289373Y-116946165D01*
X120166218Y-116880338D01*
X120058261Y-116791739D01*
X119969662Y-116683782D01*
X119903835Y-116560627D01*
X119863293Y-116426978D01*
X119849000Y-116281860D01*
X119849000Y-114118140D01*
X119863293Y-113973022D01*
X119903835Y-113839373D01*
X119969662Y-113716218D01*
X120058261Y-113608261D01*
X120166218Y-113519662D01*
X120289373Y-113453835D01*
X120423022Y-113413293D01*
X120568140Y-113399000D01*
X122231860Y-113399000D01*
X122376978Y-113413293D01*
X122376978Y-113413293D01*
G37*
G36*
X147974646Y-111412463D02*
X148008303Y-111422673D01*
X148039317Y-111439250D01*
X148071275Y-111465477D01*
X149011523Y-112405725D01*
X149037750Y-112437683D01*
X149054327Y-112468697D01*
X149064537Y-112502354D01*
X149067983Y-112537350D01*
X149064537Y-112572346D01*
X149054327Y-112606003D01*
X149037750Y-112637017D01*
X149011523Y-112668975D01*
X146727773Y-114952725D01*
X146695815Y-114978952D01*
X146664801Y-114995529D01*
X146631144Y-115005739D01*
X146596148Y-115009185D01*
X146561152Y-115005739D01*
X146527495Y-114995529D01*
X146496481Y-114978952D01*
X146464523Y-114952725D01*
X145524275Y-114012477D01*
X145498048Y-113980519D01*
X145481471Y-113949505D01*
X145471261Y-113915848D01*
X145467815Y-113880852D01*
X145471261Y-113845856D01*
X145481471Y-113812199D01*
X145498048Y-113781185D01*
X145524275Y-113749227D01*
X147808025Y-111465477D01*
X147839983Y-111439250D01*
X147870997Y-111422673D01*
X147904654Y-111412463D01*
X147939650Y-111409017D01*
X147974646Y-111412463D01*
X147974646Y-111412463D01*
G37*
G36*
X138259146Y-111412463D02*
X138292803Y-111422673D01*
X138323817Y-111439250D01*
X138355775Y-111465477D01*
X139296023Y-112405725D01*
X139322250Y-112437683D01*
X139338827Y-112468697D01*
X139349037Y-112502354D01*
X139352483Y-112537350D01*
X139349037Y-112572346D01*
X139338827Y-112606003D01*
X139322250Y-112637017D01*
X139296023Y-112668975D01*
X137012273Y-114952725D01*
X136980315Y-114978952D01*
X136949301Y-114995529D01*
X136915644Y-115005739D01*
X136880648Y-115009185D01*
X136845652Y-115005739D01*
X136811995Y-114995529D01*
X136780981Y-114978952D01*
X136749023Y-114952725D01*
X135808775Y-114012477D01*
X135782548Y-113980519D01*
X135765971Y-113949505D01*
X135755761Y-113915848D01*
X135752315Y-113880852D01*
X135755761Y-113845856D01*
X135765971Y-113812199D01*
X135782548Y-113781185D01*
X135808775Y-113749227D01*
X138092525Y-111465477D01*
X138124483Y-111439250D01*
X138155497Y-111422673D01*
X138189154Y-111412463D01*
X138224150Y-111409017D01*
X138259146Y-111412463D01*
X138259146Y-111412463D01*
G37*
G36*
X183053942Y-110167018D02*
X183120127Y-110173537D01*
X183224018Y-110205052D01*
X183289967Y-110225057D01*
X183410320Y-110289388D01*
X183446491Y-110308722D01*
X183480565Y-110336686D01*
X183583686Y-110421314D01*
X183666948Y-110522771D01*
X183696278Y-110558509D01*
X183696279Y-110558511D01*
X183779943Y-110715033D01*
X183779943Y-110715034D01*
X183831463Y-110884873D01*
X183848859Y-111061500D01*
X183831463Y-111238127D01*
X183797116Y-111351353D01*
X183779943Y-111407967D01*
X183736722Y-111488827D01*
X183696278Y-111564491D01*
X183666948Y-111600229D01*
X183583686Y-111701686D01*
X183482229Y-111784948D01*
X183446491Y-111814278D01*
X183446489Y-111814279D01*
X183289967Y-111897943D01*
X183233353Y-111915116D01*
X183120127Y-111949463D01*
X183053943Y-111955981D01*
X182987760Y-111962500D01*
X182899240Y-111962500D01*
X182833057Y-111955981D01*
X182766873Y-111949463D01*
X182653647Y-111915116D01*
X182597033Y-111897943D01*
X182440511Y-111814279D01*
X182440509Y-111814278D01*
X182404771Y-111784948D01*
X182303314Y-111701686D01*
X182220052Y-111600229D01*
X182190722Y-111564491D01*
X182150278Y-111488827D01*
X182107057Y-111407967D01*
X182089884Y-111351353D01*
X182055537Y-111238127D01*
X182038141Y-111061500D01*
X182055537Y-110884873D01*
X182107057Y-110715034D01*
X182107057Y-110715033D01*
X182190721Y-110558511D01*
X182190722Y-110558509D01*
X182220052Y-110522771D01*
X182303314Y-110421314D01*
X182406435Y-110336686D01*
X182440509Y-110308722D01*
X182476680Y-110289388D01*
X182597033Y-110225057D01*
X182662982Y-110205052D01*
X182766873Y-110173537D01*
X182833058Y-110167018D01*
X182899240Y-110160500D01*
X182987760Y-110160500D01*
X183053942Y-110167018D01*
X183053942Y-110167018D01*
G37*
G36*
X159423130Y-109505202D02*
X159457108Y-109515510D01*
X159488426Y-109532250D01*
X159520655Y-109558699D01*
X159998801Y-110036845D01*
X160025250Y-110069074D01*
X160041990Y-110100392D01*
X160052298Y-110134370D01*
X160055778Y-110169711D01*
X160052298Y-110205052D01*
X160041990Y-110239030D01*
X160025250Y-110270348D01*
X159998801Y-110302577D01*
X159573689Y-110727689D01*
X159541460Y-110754138D01*
X159510142Y-110770878D01*
X159476164Y-110781186D01*
X159440823Y-110784666D01*
X159405482Y-110781186D01*
X159371504Y-110770878D01*
X159340186Y-110754138D01*
X159307957Y-110727689D01*
X158829811Y-110249543D01*
X158803362Y-110217314D01*
X158786622Y-110185996D01*
X158776314Y-110152018D01*
X158772834Y-110116677D01*
X158776314Y-110081336D01*
X158786622Y-110047358D01*
X158803362Y-110016040D01*
X158829811Y-109983811D01*
X159254923Y-109558699D01*
X159287152Y-109532250D01*
X159318470Y-109515510D01*
X159352448Y-109505202D01*
X159387789Y-109501722D01*
X159423130Y-109505202D01*
X159423130Y-109505202D01*
G37*
G36*
X143893811Y-109865003D02*
X143185290Y-110573524D01*
X142547479Y-109935713D01*
X143256000Y-109227192D01*
X143893811Y-109865003D01*
X143893811Y-109865003D01*
G37*
G36*
X147358130Y-109060702D02*
X147392108Y-109071010D01*
X147423426Y-109087750D01*
X147455655Y-109114199D01*
X147933801Y-109592345D01*
X147960250Y-109624574D01*
X147976990Y-109655892D01*
X147987298Y-109689870D01*
X147990778Y-109725211D01*
X147987298Y-109760552D01*
X147976990Y-109794530D01*
X147960250Y-109825848D01*
X147933801Y-109858077D01*
X147508689Y-110283189D01*
X147476460Y-110309638D01*
X147445142Y-110326378D01*
X147411164Y-110336686D01*
X147375823Y-110340166D01*
X147340482Y-110336686D01*
X147306504Y-110326378D01*
X147275186Y-110309638D01*
X147242957Y-110283189D01*
X146764811Y-109805043D01*
X146738362Y-109772814D01*
X146721622Y-109741496D01*
X146711314Y-109707518D01*
X146707834Y-109672177D01*
X146711314Y-109636836D01*
X146721622Y-109602858D01*
X146738362Y-109571540D01*
X146764811Y-109539311D01*
X147189923Y-109114199D01*
X147222152Y-109087750D01*
X147253470Y-109071010D01*
X147287448Y-109060702D01*
X147322789Y-109057222D01*
X147358130Y-109060702D01*
X147358130Y-109060702D01*
G37*
G36*
X160536824Y-108391508D02*
X160570802Y-108401816D01*
X160602120Y-108418556D01*
X160634349Y-108445005D01*
X161112495Y-108923151D01*
X161138944Y-108955380D01*
X161155684Y-108986698D01*
X161165992Y-109020676D01*
X161169472Y-109056017D01*
X161165992Y-109091358D01*
X161155684Y-109125336D01*
X161138944Y-109156654D01*
X161112495Y-109188883D01*
X160687383Y-109613995D01*
X160655154Y-109640444D01*
X160623836Y-109657184D01*
X160589858Y-109667492D01*
X160554517Y-109670972D01*
X160519176Y-109667492D01*
X160485198Y-109657184D01*
X160453880Y-109640444D01*
X160421651Y-109613995D01*
X159943505Y-109135849D01*
X159917056Y-109103620D01*
X159900316Y-109072302D01*
X159890008Y-109038324D01*
X159886528Y-109002983D01*
X159890008Y-108967642D01*
X159900316Y-108933664D01*
X159917056Y-108902346D01*
X159943505Y-108870117D01*
X160368617Y-108445005D01*
X160400846Y-108418556D01*
X160432164Y-108401816D01*
X160466142Y-108391508D01*
X160501483Y-108388028D01*
X160536824Y-108391508D01*
X160536824Y-108391508D01*
G37*
G36*
X183053942Y-107627018D02*
X183120127Y-107633537D01*
X183233353Y-107667884D01*
X183289967Y-107685057D01*
X183428587Y-107759152D01*
X183446491Y-107768722D01*
X183473208Y-107790648D01*
X183583686Y-107881314D01*
X183659344Y-107973505D01*
X183696278Y-108018509D01*
X183696279Y-108018511D01*
X183779943Y-108175033D01*
X183783076Y-108185362D01*
X183831463Y-108344873D01*
X183848859Y-108521500D01*
X183831463Y-108698127D01*
X183797116Y-108811353D01*
X183779943Y-108867967D01*
X183733245Y-108955332D01*
X183696278Y-109024491D01*
X183684925Y-109038324D01*
X183583686Y-109161686D01*
X183500418Y-109230021D01*
X183446491Y-109274278D01*
X183446489Y-109274279D01*
X183289967Y-109357943D01*
X183253127Y-109369118D01*
X183120127Y-109409463D01*
X183053942Y-109415982D01*
X182987760Y-109422500D01*
X182899240Y-109422500D01*
X182833058Y-109415982D01*
X182766873Y-109409463D01*
X182633873Y-109369118D01*
X182597033Y-109357943D01*
X182440511Y-109274279D01*
X182440509Y-109274278D01*
X182386582Y-109230021D01*
X182303314Y-109161686D01*
X182202075Y-109038324D01*
X182190722Y-109024491D01*
X182153755Y-108955332D01*
X182107057Y-108867967D01*
X182089884Y-108811353D01*
X182055537Y-108698127D01*
X182038141Y-108521500D01*
X182055537Y-108344873D01*
X182103924Y-108185362D01*
X182107057Y-108175033D01*
X182190721Y-108018511D01*
X182190722Y-108018509D01*
X182227656Y-107973505D01*
X182303314Y-107881314D01*
X182413792Y-107790648D01*
X182440509Y-107768722D01*
X182458413Y-107759152D01*
X182597033Y-107685057D01*
X182653647Y-107667884D01*
X182766873Y-107633537D01*
X182833058Y-107627018D01*
X182899240Y-107620500D01*
X182987760Y-107620500D01*
X183053942Y-107627018D01*
X183053942Y-107627018D01*
G37*
G36*
X130035691Y-107529227D02*
X128195799Y-109369119D01*
X126850881Y-108024201D01*
X128690773Y-106184309D01*
X130035691Y-107529227D01*
X130035691Y-107529227D01*
G37*
G36*
X142550308Y-108521500D02*
X141841787Y-109230021D01*
X141203976Y-108592210D01*
X141912497Y-107883689D01*
X142550308Y-108521500D01*
X142550308Y-108521500D01*
G37*
G36*
X148471824Y-107947008D02*
X148505802Y-107957316D01*
X148537120Y-107974056D01*
X148569349Y-108000505D01*
X149047495Y-108478651D01*
X149073944Y-108510880D01*
X149090684Y-108542198D01*
X149100992Y-108576176D01*
X149104472Y-108611517D01*
X149100992Y-108646858D01*
X149090684Y-108680836D01*
X149073944Y-108712154D01*
X149047495Y-108744383D01*
X148622383Y-109169495D01*
X148590154Y-109195944D01*
X148558836Y-109212684D01*
X148524858Y-109222992D01*
X148489517Y-109226472D01*
X148454176Y-109222992D01*
X148420198Y-109212684D01*
X148388880Y-109195944D01*
X148356651Y-109169495D01*
X147878505Y-108691349D01*
X147852056Y-108659120D01*
X147835316Y-108627802D01*
X147825008Y-108593824D01*
X147821528Y-108558483D01*
X147825008Y-108523142D01*
X147835316Y-108489164D01*
X147852056Y-108457846D01*
X147878505Y-108425617D01*
X148303617Y-108000505D01*
X148335846Y-107974056D01*
X148367164Y-107957316D01*
X148401142Y-107947008D01*
X148436483Y-107943528D01*
X148471824Y-107947008D01*
X148471824Y-107947008D01*
G37*
G36*
X160863426Y-103670338D02*
X160863432Y-103670343D01*
X161501231Y-104308142D01*
X161501236Y-104308148D01*
X163691853Y-106498765D01*
X163691859Y-106498770D01*
X164329658Y-107136569D01*
X164329663Y-107136575D01*
X164806960Y-107613872D01*
X163603464Y-108817368D01*
X163054048Y-108267952D01*
X163054043Y-108267946D01*
X162560482Y-107774385D01*
X162560476Y-107774380D01*
X160225621Y-105439525D01*
X160225616Y-105439519D01*
X159732055Y-104945958D01*
X159732049Y-104945953D01*
X159182632Y-104396536D01*
X160386128Y-103193040D01*
X160863426Y-103670338D01*
X160863426Y-103670338D01*
G37*
G36*
X170817368Y-104396536D02*
X166396536Y-108817368D01*
X165193040Y-107613872D01*
X165654074Y-107152838D01*
X165670338Y-107136575D01*
X165670347Y-107136564D01*
X166308137Y-106498774D01*
X166308148Y-106498765D01*
X166324411Y-106482501D01*
X168482501Y-104324411D01*
X168498765Y-104308148D01*
X168498774Y-104308137D01*
X169136564Y-103670347D01*
X169136575Y-103670338D01*
X169152838Y-103654074D01*
X169613872Y-103193040D01*
X170817368Y-104396536D01*
X170817368Y-104396536D01*
G37*
G36*
X157327630Y-107473202D02*
X157361608Y-107483510D01*
X157392926Y-107500250D01*
X157425155Y-107526699D01*
X157903301Y-108004845D01*
X157929750Y-108037074D01*
X157946490Y-108068392D01*
X157956798Y-108102370D01*
X157960278Y-108137711D01*
X157956798Y-108173052D01*
X157946490Y-108207030D01*
X157929750Y-108238348D01*
X157903301Y-108270577D01*
X157478189Y-108695689D01*
X157445960Y-108722138D01*
X157414642Y-108738878D01*
X157380664Y-108749186D01*
X157345323Y-108752666D01*
X157309982Y-108749186D01*
X157276004Y-108738878D01*
X157244686Y-108722138D01*
X157212457Y-108695689D01*
X156734311Y-108217543D01*
X156707862Y-108185314D01*
X156691122Y-108153996D01*
X156680814Y-108120018D01*
X156677334Y-108084677D01*
X156680814Y-108049336D01*
X156691122Y-108015358D01*
X156707862Y-107984040D01*
X156734311Y-107951811D01*
X157159423Y-107526699D01*
X157191652Y-107500250D01*
X157222970Y-107483510D01*
X157256948Y-107473202D01*
X157292289Y-107469722D01*
X157327630Y-107473202D01*
X157327630Y-107473202D01*
G37*
G36*
X144636273Y-107779038D02*
X143927752Y-108487559D01*
X143289941Y-107849748D01*
X143998462Y-107141227D01*
X144636273Y-107779038D01*
X144636273Y-107779038D01*
G37*
G36*
X138199477Y-106662355D02*
X138233455Y-106672663D01*
X138264773Y-106689403D01*
X138297002Y-106715852D01*
X138775148Y-107193998D01*
X138801597Y-107226227D01*
X138818337Y-107257545D01*
X138828645Y-107291523D01*
X138832125Y-107326864D01*
X138828645Y-107362205D01*
X138818337Y-107396183D01*
X138801597Y-107427501D01*
X138775148Y-107459730D01*
X138350036Y-107884842D01*
X138317807Y-107911291D01*
X138286489Y-107928031D01*
X138252511Y-107938339D01*
X138217170Y-107941819D01*
X138181829Y-107938339D01*
X138147851Y-107928031D01*
X138116533Y-107911291D01*
X138084304Y-107884842D01*
X137606158Y-107406696D01*
X137579709Y-107374467D01*
X137562969Y-107343149D01*
X137552661Y-107309171D01*
X137549181Y-107273830D01*
X137552661Y-107238489D01*
X137562969Y-107204511D01*
X137579709Y-107173193D01*
X137606158Y-107140964D01*
X138031270Y-106715852D01*
X138063499Y-106689403D01*
X138094817Y-106672663D01*
X138128795Y-106662355D01*
X138164136Y-106658875D01*
X138199477Y-106662355D01*
X138199477Y-106662355D01*
G37*
G36*
X158441324Y-106359508D02*
X158475302Y-106369816D01*
X158506620Y-106386556D01*
X158538849Y-106413005D01*
X159016995Y-106891151D01*
X159043444Y-106923380D01*
X159060184Y-106954698D01*
X159070492Y-106988676D01*
X159073972Y-107024017D01*
X159070492Y-107059358D01*
X159060184Y-107093336D01*
X159043444Y-107124654D01*
X159016995Y-107156883D01*
X158591883Y-107581995D01*
X158559654Y-107608444D01*
X158528336Y-107625184D01*
X158494358Y-107635492D01*
X158459017Y-107638972D01*
X158423676Y-107635492D01*
X158389698Y-107625184D01*
X158358380Y-107608444D01*
X158326151Y-107581995D01*
X157848005Y-107103849D01*
X157821556Y-107071620D01*
X157804816Y-107040302D01*
X157794508Y-107006324D01*
X157791028Y-106970983D01*
X157794508Y-106935642D01*
X157804816Y-106901664D01*
X157821556Y-106870346D01*
X157848005Y-106838117D01*
X158273117Y-106413005D01*
X158305346Y-106386556D01*
X158336664Y-106369816D01*
X158370642Y-106359508D01*
X158405983Y-106356028D01*
X158441324Y-106359508D01*
X158441324Y-106359508D01*
G37*
G36*
X124292977Y-106027355D02*
X124326955Y-106037663D01*
X124358273Y-106054403D01*
X124390502Y-106080852D01*
X124868648Y-106558998D01*
X124895097Y-106591227D01*
X124911837Y-106622545D01*
X124922145Y-106656523D01*
X124925625Y-106691864D01*
X124922145Y-106727205D01*
X124911837Y-106761183D01*
X124895097Y-106792501D01*
X124868648Y-106824730D01*
X124443536Y-107249842D01*
X124411307Y-107276291D01*
X124379989Y-107293031D01*
X124346011Y-107303339D01*
X124310670Y-107306819D01*
X124275329Y-107303339D01*
X124241351Y-107293031D01*
X124210033Y-107276291D01*
X124177804Y-107249842D01*
X123699658Y-106771696D01*
X123673209Y-106739467D01*
X123656469Y-106708149D01*
X123646161Y-106674171D01*
X123642681Y-106638830D01*
X123646161Y-106603489D01*
X123656469Y-106569511D01*
X123673209Y-106538193D01*
X123699658Y-106505964D01*
X124124770Y-106080852D01*
X124156999Y-106054403D01*
X124188317Y-106037663D01*
X124222295Y-106027355D01*
X124257636Y-106023875D01*
X124292977Y-106027355D01*
X124292977Y-106027355D01*
G37*
G36*
X183032027Y-105084860D02*
X183120127Y-105093537D01*
X183193785Y-105115881D01*
X183289967Y-105145057D01*
X183385316Y-105196023D01*
X183446491Y-105228722D01*
X183449710Y-105231364D01*
X183583686Y-105341314D01*
X183647771Y-105419403D01*
X183696278Y-105478509D01*
X183696279Y-105478511D01*
X183779943Y-105635033D01*
X183783721Y-105647489D01*
X183831463Y-105804873D01*
X183848859Y-105981500D01*
X183831463Y-106158127D01*
X183806615Y-106240041D01*
X183779943Y-106327967D01*
X183729426Y-106422476D01*
X183696278Y-106484491D01*
X183678655Y-106505964D01*
X183583686Y-106621686D01*
X183482421Y-106704791D01*
X183446491Y-106734278D01*
X183446489Y-106734279D01*
X183289967Y-106817943D01*
X183233353Y-106835116D01*
X183120127Y-106869463D01*
X183053942Y-106875982D01*
X182987760Y-106882500D01*
X182899240Y-106882500D01*
X182833058Y-106875982D01*
X182766873Y-106869463D01*
X182653647Y-106835116D01*
X182597033Y-106817943D01*
X182440511Y-106734279D01*
X182440509Y-106734278D01*
X182404579Y-106704791D01*
X182303314Y-106621686D01*
X182208345Y-106505964D01*
X182190722Y-106484491D01*
X182157574Y-106422476D01*
X182107057Y-106327967D01*
X182080385Y-106240041D01*
X182055537Y-106158127D01*
X182038141Y-105981500D01*
X182055537Y-105804873D01*
X182103279Y-105647489D01*
X182107057Y-105635033D01*
X182190721Y-105478511D01*
X182190722Y-105478509D01*
X182239229Y-105419403D01*
X182303314Y-105341314D01*
X182437290Y-105231364D01*
X182440509Y-105228722D01*
X182501684Y-105196023D01*
X182597033Y-105145057D01*
X182693215Y-105115881D01*
X182766873Y-105093537D01*
X182854973Y-105084860D01*
X182899240Y-105080500D01*
X182987760Y-105080500D01*
X183032027Y-105084860D01*
X183032027Y-105084860D01*
G37*
G36*
X139313171Y-105548661D02*
X139347149Y-105558969D01*
X139378467Y-105575709D01*
X139410696Y-105602158D01*
X139888842Y-106080304D01*
X139915291Y-106112533D01*
X139932031Y-106143851D01*
X139942339Y-106177829D01*
X139945819Y-106213170D01*
X139942339Y-106248511D01*
X139932031Y-106282489D01*
X139915291Y-106313807D01*
X139888842Y-106346036D01*
X139463730Y-106771148D01*
X139431501Y-106797597D01*
X139400183Y-106814337D01*
X139366205Y-106824645D01*
X139330864Y-106828125D01*
X139295523Y-106824645D01*
X139261545Y-106814337D01*
X139230227Y-106797597D01*
X139197998Y-106771148D01*
X138719852Y-106293002D01*
X138693403Y-106260773D01*
X138676663Y-106229455D01*
X138666355Y-106195477D01*
X138662875Y-106160136D01*
X138666355Y-106124795D01*
X138676663Y-106090817D01*
X138693403Y-106059499D01*
X138719852Y-106027270D01*
X139144964Y-105602158D01*
X139177193Y-105575709D01*
X139208511Y-105558969D01*
X139242489Y-105548661D01*
X139277830Y-105545181D01*
X139313171Y-105548661D01*
X139313171Y-105548661D01*
G37*
G36*
X155280977Y-105455855D02*
X155314955Y-105466163D01*
X155346273Y-105482903D01*
X155378502Y-105509352D01*
X155856648Y-105987498D01*
X155883097Y-106019727D01*
X155899837Y-106051045D01*
X155910145Y-106085023D01*
X155913625Y-106120364D01*
X155910145Y-106155705D01*
X155899837Y-106189683D01*
X155883097Y-106221001D01*
X155856648Y-106253230D01*
X155431536Y-106678342D01*
X155399307Y-106704791D01*
X155367989Y-106721531D01*
X155334011Y-106731839D01*
X155298670Y-106735319D01*
X155263329Y-106731839D01*
X155229351Y-106721531D01*
X155198033Y-106704791D01*
X155165804Y-106678342D01*
X154687658Y-106200196D01*
X154661209Y-106167967D01*
X154644469Y-106136649D01*
X154634161Y-106102671D01*
X154630681Y-106067330D01*
X154634161Y-106031989D01*
X154644469Y-105998011D01*
X154661209Y-105966693D01*
X154687658Y-105934464D01*
X155112770Y-105509352D01*
X155144999Y-105482903D01*
X155176317Y-105466163D01*
X155210295Y-105455855D01*
X155245636Y-105452375D01*
X155280977Y-105455855D01*
X155280977Y-105455855D01*
G37*
G36*
X146478205Y-105392355D02*
X146512183Y-105402663D01*
X146543501Y-105419403D01*
X146575730Y-105445852D01*
X147000842Y-105870964D01*
X147027291Y-105903193D01*
X147044031Y-105934511D01*
X147054339Y-105968489D01*
X147057819Y-106003830D01*
X147054339Y-106039171D01*
X147044031Y-106073149D01*
X147027291Y-106104467D01*
X147000842Y-106136696D01*
X146522696Y-106614842D01*
X146490467Y-106641291D01*
X146459149Y-106658031D01*
X146425171Y-106668339D01*
X146389830Y-106671819D01*
X146354489Y-106668339D01*
X146320511Y-106658031D01*
X146289193Y-106641291D01*
X146256964Y-106614842D01*
X145831852Y-106189730D01*
X145805403Y-106157501D01*
X145788663Y-106126183D01*
X145778355Y-106092205D01*
X145774875Y-106056864D01*
X145778355Y-106021523D01*
X145788663Y-105987545D01*
X145805403Y-105956227D01*
X145831852Y-105923998D01*
X146309998Y-105445852D01*
X146342227Y-105419403D01*
X146373545Y-105402663D01*
X146407523Y-105392355D01*
X146442864Y-105388875D01*
X146478205Y-105392355D01*
X146478205Y-105392355D01*
G37*
G36*
X132864119Y-104700799D02*
X131024227Y-106540691D01*
X129679309Y-105195773D01*
X131519201Y-103355881D01*
X132864119Y-104700799D01*
X132864119Y-104700799D01*
G37*
G36*
X125406671Y-104913661D02*
X125440649Y-104923969D01*
X125471967Y-104940709D01*
X125504196Y-104967158D01*
X125982342Y-105445304D01*
X126008791Y-105477533D01*
X126025531Y-105508851D01*
X126035839Y-105542829D01*
X126039319Y-105578170D01*
X126035839Y-105613511D01*
X126025531Y-105647489D01*
X126008791Y-105678807D01*
X125982342Y-105711036D01*
X125557230Y-106136148D01*
X125525001Y-106162597D01*
X125493683Y-106179337D01*
X125459705Y-106189645D01*
X125424364Y-106193125D01*
X125389023Y-106189645D01*
X125355045Y-106179337D01*
X125323727Y-106162597D01*
X125291498Y-106136148D01*
X124813352Y-105658002D01*
X124786903Y-105625773D01*
X124770163Y-105594455D01*
X124759855Y-105560477D01*
X124756375Y-105525136D01*
X124759855Y-105489795D01*
X124770163Y-105455817D01*
X124786903Y-105424499D01*
X124813352Y-105392270D01*
X125238464Y-104967158D01*
X125270693Y-104940709D01*
X125302011Y-104923969D01*
X125335989Y-104913661D01*
X125371330Y-104910181D01*
X125406671Y-104913661D01*
X125406671Y-104913661D01*
G37*
G36*
X135976977Y-104566855D02*
X136010955Y-104577163D01*
X136042273Y-104593903D01*
X136074502Y-104620352D01*
X136552648Y-105098498D01*
X136579097Y-105130727D01*
X136595837Y-105162045D01*
X136606145Y-105196023D01*
X136609625Y-105231364D01*
X136606145Y-105266705D01*
X136595837Y-105300683D01*
X136579097Y-105332001D01*
X136552648Y-105364230D01*
X136127536Y-105789342D01*
X136095307Y-105815791D01*
X136063989Y-105832531D01*
X136030011Y-105842839D01*
X135994670Y-105846319D01*
X135959329Y-105842839D01*
X135925351Y-105832531D01*
X135894033Y-105815791D01*
X135861804Y-105789342D01*
X135383658Y-105311196D01*
X135357209Y-105278967D01*
X135340469Y-105247649D01*
X135330161Y-105213671D01*
X135326681Y-105178330D01*
X135330161Y-105142989D01*
X135340469Y-105109011D01*
X135357209Y-105077693D01*
X135383658Y-105045464D01*
X135808770Y-104620352D01*
X135840999Y-104593903D01*
X135872317Y-104577163D01*
X135906295Y-104566855D01*
X135941636Y-104563375D01*
X135976977Y-104566855D01*
X135976977Y-104566855D01*
G37*
G36*
X156394671Y-104342161D02*
X156428649Y-104352469D01*
X156459967Y-104369209D01*
X156492196Y-104395658D01*
X156970342Y-104873804D01*
X156996791Y-104906033D01*
X157013531Y-104937351D01*
X157023839Y-104971329D01*
X157027319Y-105006670D01*
X157023839Y-105042011D01*
X157013531Y-105075989D01*
X156996791Y-105107307D01*
X156970342Y-105139536D01*
X156545230Y-105564648D01*
X156513001Y-105591097D01*
X156481683Y-105607837D01*
X156447705Y-105618145D01*
X156412364Y-105621625D01*
X156377023Y-105618145D01*
X156343045Y-105607837D01*
X156311727Y-105591097D01*
X156279498Y-105564648D01*
X155801352Y-105086502D01*
X155774903Y-105054273D01*
X155758163Y-105022955D01*
X155747855Y-104988977D01*
X155744375Y-104953636D01*
X155747855Y-104918295D01*
X155758163Y-104884317D01*
X155774903Y-104852999D01*
X155801352Y-104820770D01*
X156226464Y-104395658D01*
X156258693Y-104369209D01*
X156290011Y-104352469D01*
X156323989Y-104342161D01*
X156359330Y-104338681D01*
X156394671Y-104342161D01*
X156394671Y-104342161D01*
G37*
G36*
X145364511Y-104278661D02*
X145398489Y-104288969D01*
X145429807Y-104305709D01*
X145462036Y-104332158D01*
X145887148Y-104757270D01*
X145913597Y-104789499D01*
X145930337Y-104820817D01*
X145940645Y-104854795D01*
X145944125Y-104890136D01*
X145940645Y-104925477D01*
X145930337Y-104959455D01*
X145913597Y-104990773D01*
X145887148Y-105023002D01*
X145409002Y-105501148D01*
X145376773Y-105527597D01*
X145345455Y-105544337D01*
X145311477Y-105554645D01*
X145276136Y-105558125D01*
X145240795Y-105554645D01*
X145206817Y-105544337D01*
X145175499Y-105527597D01*
X145143270Y-105501148D01*
X144718158Y-105076036D01*
X144691709Y-105043807D01*
X144674969Y-105012489D01*
X144664661Y-104978511D01*
X144661181Y-104943170D01*
X144664661Y-104907829D01*
X144674969Y-104873851D01*
X144691709Y-104842533D01*
X144718158Y-104810304D01*
X145196304Y-104332158D01*
X145228533Y-104305709D01*
X145259851Y-104288969D01*
X145293829Y-104278661D01*
X145329170Y-104275181D01*
X145364511Y-104278661D01*
X145364511Y-104278661D01*
G37*
G36*
X141157915Y-104938103D02*
X140661526Y-105434492D01*
X139493385Y-104266351D01*
X139989774Y-103769962D01*
X141157915Y-104938103D01*
X141157915Y-104938103D01*
G37*
G36*
X122006977Y-103487355D02*
X122040955Y-103497663D01*
X122072273Y-103514403D01*
X122104502Y-103540852D01*
X122582648Y-104018998D01*
X122609097Y-104051227D01*
X122625837Y-104082545D01*
X122636145Y-104116523D01*
X122639625Y-104151864D01*
X122636145Y-104187205D01*
X122625837Y-104221183D01*
X122609097Y-104252501D01*
X122582648Y-104284730D01*
X122157536Y-104709842D01*
X122125307Y-104736291D01*
X122093989Y-104753031D01*
X122060011Y-104763339D01*
X122024670Y-104766819D01*
X121989329Y-104763339D01*
X121955351Y-104753031D01*
X121924033Y-104736291D01*
X121891804Y-104709842D01*
X121413658Y-104231696D01*
X121387209Y-104199467D01*
X121370469Y-104168149D01*
X121360161Y-104134171D01*
X121356681Y-104098830D01*
X121360161Y-104063489D01*
X121370469Y-104029511D01*
X121387209Y-103998193D01*
X121413658Y-103965964D01*
X121838770Y-103540852D01*
X121870999Y-103514403D01*
X121902317Y-103497663D01*
X121936295Y-103487355D01*
X121971636Y-103483875D01*
X122006977Y-103487355D01*
X122006977Y-103487355D01*
G37*
G36*
X137090671Y-103453161D02*
X137124649Y-103463469D01*
X137155967Y-103480209D01*
X137188196Y-103506658D01*
X137666342Y-103984804D01*
X137692791Y-104017033D01*
X137709531Y-104048351D01*
X137719839Y-104082329D01*
X137723319Y-104117670D01*
X137719839Y-104153011D01*
X137709531Y-104186989D01*
X137692791Y-104218307D01*
X137666342Y-104250536D01*
X137241230Y-104675648D01*
X137209001Y-104702097D01*
X137177683Y-104718837D01*
X137143705Y-104729145D01*
X137108364Y-104732625D01*
X137073023Y-104729145D01*
X137039045Y-104718837D01*
X137007727Y-104702097D01*
X136975498Y-104675648D01*
X136497352Y-104197502D01*
X136470903Y-104165273D01*
X136454163Y-104133955D01*
X136443855Y-104099977D01*
X136440375Y-104064636D01*
X136443855Y-104029295D01*
X136454163Y-103995317D01*
X136470903Y-103963999D01*
X136497352Y-103931770D01*
X136922464Y-103506658D01*
X136954693Y-103480209D01*
X136986011Y-103463469D01*
X137019989Y-103453161D01*
X137055330Y-103449681D01*
X137090671Y-103453161D01*
X137090671Y-103453161D01*
G37*
G36*
X142055941Y-104040077D02*
X141559552Y-104536466D01*
X140391411Y-103368325D01*
X140887800Y-102871936D01*
X142055941Y-104040077D01*
X142055941Y-104040077D01*
G37*
G36*
X129208521Y-102926955D02*
X127722182Y-104413294D01*
X126589397Y-103280509D01*
X128075736Y-101794170D01*
X129208521Y-102926955D01*
X129208521Y-102926955D01*
G37*
G36*
X183844500Y-104342500D02*
X182042500Y-104342500D01*
X182042500Y-102540500D01*
X183844500Y-102540500D01*
X183844500Y-104342500D01*
X183844500Y-104342500D01*
G37*
G36*
X123120671Y-102373661D02*
X123154649Y-102383969D01*
X123185967Y-102400709D01*
X123218196Y-102427158D01*
X123696342Y-102905304D01*
X123722791Y-102937533D01*
X123739531Y-102968851D01*
X123749839Y-103002829D01*
X123753319Y-103038170D01*
X123749839Y-103073511D01*
X123739531Y-103107489D01*
X123722791Y-103138807D01*
X123696342Y-103171036D01*
X123271230Y-103596148D01*
X123239001Y-103622597D01*
X123207683Y-103639337D01*
X123173705Y-103649645D01*
X123138364Y-103653125D01*
X123103023Y-103649645D01*
X123069045Y-103639337D01*
X123037727Y-103622597D01*
X123005498Y-103596148D01*
X122527352Y-103118002D01*
X122500903Y-103085773D01*
X122484163Y-103054455D01*
X122473855Y-103020477D01*
X122470375Y-102985136D01*
X122473855Y-102949795D01*
X122484163Y-102915817D01*
X122500903Y-102884499D01*
X122527352Y-102852270D01*
X122952464Y-102427158D01*
X122984693Y-102400709D01*
X123016011Y-102383969D01*
X123049989Y-102373661D01*
X123085330Y-102370181D01*
X123120671Y-102373661D01*
X123120671Y-102373661D01*
G37*
G36*
X142953966Y-103142052D02*
X142457577Y-103638441D01*
X141289436Y-102470300D01*
X141785825Y-101973911D01*
X142953966Y-103142052D01*
X142953966Y-103142052D01*
G37*
G36*
X133754477Y-102344355D02*
X133788455Y-102354663D01*
X133819773Y-102371403D01*
X133852002Y-102397852D01*
X134330148Y-102875998D01*
X134356597Y-102908227D01*
X134373337Y-102939545D01*
X134383645Y-102973523D01*
X134387125Y-103008864D01*
X134383645Y-103044205D01*
X134373337Y-103078183D01*
X134356597Y-103109501D01*
X134330148Y-103141730D01*
X133905036Y-103566842D01*
X133872807Y-103593291D01*
X133841489Y-103610031D01*
X133807511Y-103620339D01*
X133772170Y-103623819D01*
X133736829Y-103620339D01*
X133702851Y-103610031D01*
X133671533Y-103593291D01*
X133639304Y-103566842D01*
X133161158Y-103088696D01*
X133134709Y-103056467D01*
X133117969Y-103025149D01*
X133107661Y-102991171D01*
X133104181Y-102955830D01*
X133107661Y-102920489D01*
X133117969Y-102886511D01*
X133134709Y-102855193D01*
X133161158Y-102822964D01*
X133586270Y-102397852D01*
X133618499Y-102371403D01*
X133649817Y-102354663D01*
X133683795Y-102344355D01*
X133719136Y-102340875D01*
X133754477Y-102344355D01*
X133754477Y-102344355D01*
G37*
G36*
X166945953Y-97732049D02*
X166945958Y-97732055D01*
X167439519Y-98225616D01*
X167439525Y-98225621D01*
X169774380Y-100560476D01*
X169774385Y-100560482D01*
X170267946Y-101054043D01*
X170267952Y-101054048D01*
X170817368Y-101603464D01*
X169613872Y-102806960D01*
X169136575Y-102329663D01*
X169136569Y-102329658D01*
X168498770Y-101691859D01*
X168498765Y-101691853D01*
X166308148Y-99501236D01*
X166308142Y-99501231D01*
X165670343Y-98863432D01*
X165670338Y-98863426D01*
X165193040Y-98386128D01*
X166396536Y-97182632D01*
X166945953Y-97732049D01*
X166945953Y-97732049D01*
G37*
G36*
X164806960Y-98386128D02*
X164329663Y-98863426D01*
X163691853Y-99501236D01*
X163126167Y-100066921D01*
X161994796Y-101198292D01*
X161501236Y-101691853D01*
X160863426Y-102329663D01*
X160386128Y-102806960D01*
X159182632Y-101603464D01*
X159732044Y-101054052D01*
X159732055Y-101054043D01*
X159748319Y-101037780D01*
X159748318Y-101037779D01*
X160209352Y-100576745D01*
X160209353Y-100576746D01*
X160225616Y-100560482D01*
X160225625Y-100560471D01*
X162560471Y-98225625D01*
X162560482Y-98225616D01*
X162576746Y-98209353D01*
X162576745Y-98209352D01*
X163037779Y-97748318D01*
X163037780Y-97748319D01*
X163054043Y-97732055D01*
X163054052Y-97732044D01*
X163603464Y-97182632D01*
X164806960Y-98386128D01*
X164806960Y-98386128D01*
G37*
G36*
X127582176Y-101300609D02*
X126095837Y-102786948D01*
X124963052Y-101654163D01*
X126449391Y-100167824D01*
X127582176Y-101300609D01*
X127582176Y-101300609D01*
G37*
G36*
X143851992Y-102244026D02*
X143355603Y-102740415D01*
X142187462Y-101572274D01*
X142683851Y-101075885D01*
X143851992Y-102244026D01*
X143851992Y-102244026D01*
G37*
G36*
X134868171Y-101230661D02*
X134902149Y-101240969D01*
X134933467Y-101257709D01*
X134965696Y-101284158D01*
X135443842Y-101762304D01*
X135470291Y-101794533D01*
X135487031Y-101825851D01*
X135497339Y-101859829D01*
X135500819Y-101895170D01*
X135497339Y-101930511D01*
X135487031Y-101964489D01*
X135470291Y-101995807D01*
X135443842Y-102028036D01*
X135018730Y-102453148D01*
X134986501Y-102479597D01*
X134955183Y-102496337D01*
X134921205Y-102506645D01*
X134885864Y-102510125D01*
X134850523Y-102506645D01*
X134816545Y-102496337D01*
X134785227Y-102479597D01*
X134752998Y-102453148D01*
X134274852Y-101975002D01*
X134248403Y-101942773D01*
X134231663Y-101911455D01*
X134221355Y-101877477D01*
X134217875Y-101842136D01*
X134221355Y-101806795D01*
X134231663Y-101772817D01*
X134248403Y-101741499D01*
X134274852Y-101709270D01*
X134699964Y-101284158D01*
X134732193Y-101257709D01*
X134763511Y-101240969D01*
X134797489Y-101230661D01*
X134832830Y-101227181D01*
X134868171Y-101230661D01*
X134868171Y-101230661D01*
G37*
G36*
X137339538Y-101119726D02*
X136843149Y-101616115D01*
X135675008Y-100447974D01*
X136171397Y-99951585D01*
X137339538Y-101119726D01*
X137339538Y-101119726D01*
G37*
G36*
X125955830Y-99674264D02*
X124469491Y-101160603D01*
X123336706Y-100027818D01*
X124823045Y-98541479D01*
X125955830Y-99674264D01*
X125955830Y-99674264D01*
G37*
G36*
X138237564Y-100221700D02*
X137741175Y-100718089D01*
X136573034Y-99549948D01*
X137069423Y-99053559D01*
X138237564Y-100221700D01*
X138237564Y-100221700D01*
G37*
G36*
X144685552Y-99027702D02*
X144719530Y-99038010D01*
X144750848Y-99054750D01*
X144783077Y-99081199D01*
X145208189Y-99506311D01*
X145234638Y-99538540D01*
X145251378Y-99569858D01*
X145261686Y-99603836D01*
X145265166Y-99639177D01*
X145261686Y-99674518D01*
X145251378Y-99708496D01*
X145234638Y-99739814D01*
X145208189Y-99772043D01*
X144730043Y-100250189D01*
X144697814Y-100276638D01*
X144666496Y-100293378D01*
X144632518Y-100303686D01*
X144597177Y-100307166D01*
X144561836Y-100303686D01*
X144527858Y-100293378D01*
X144496540Y-100276638D01*
X144464311Y-100250189D01*
X144039199Y-99825077D01*
X144012750Y-99792848D01*
X143996010Y-99761530D01*
X143985702Y-99727552D01*
X143982222Y-99692211D01*
X143985702Y-99656870D01*
X143996010Y-99622892D01*
X144012750Y-99591574D01*
X144039199Y-99559345D01*
X144517345Y-99081199D01*
X144549574Y-99054750D01*
X144580892Y-99038010D01*
X144614870Y-99027702D01*
X144650211Y-99024222D01*
X144685552Y-99027702D01*
X144685552Y-99027702D01*
G37*
G36*
X139135589Y-99323675D02*
X138639200Y-99820064D01*
X137471059Y-98651923D01*
X137967448Y-98155534D01*
X139135589Y-99323675D01*
X139135589Y-99323675D01*
G37*
G36*
X143571858Y-97914008D02*
X143605836Y-97924316D01*
X143637154Y-97941056D01*
X143669383Y-97967505D01*
X144094495Y-98392617D01*
X144120944Y-98424846D01*
X144137684Y-98456164D01*
X144147992Y-98490142D01*
X144151472Y-98525483D01*
X144147992Y-98560824D01*
X144137684Y-98594802D01*
X144120944Y-98626120D01*
X144094495Y-98658349D01*
X143616349Y-99136495D01*
X143584120Y-99162944D01*
X143552802Y-99179684D01*
X143518824Y-99189992D01*
X143483483Y-99193472D01*
X143448142Y-99189992D01*
X143414164Y-99179684D01*
X143382846Y-99162944D01*
X143350617Y-99136495D01*
X142925505Y-98711383D01*
X142899056Y-98679154D01*
X142882316Y-98647836D01*
X142872008Y-98613858D01*
X142868528Y-98578517D01*
X142872008Y-98543176D01*
X142882316Y-98509198D01*
X142899056Y-98477880D01*
X142925505Y-98445651D01*
X143403651Y-97967505D01*
X143435880Y-97941056D01*
X143467198Y-97924316D01*
X143501176Y-97914008D01*
X143536517Y-97910528D01*
X143571858Y-97914008D01*
X143571858Y-97914008D01*
G37*
G36*
X132850121Y-97659010D02*
X131363782Y-99145349D01*
X128604651Y-96386218D01*
X130090990Y-94899879D01*
X132850121Y-97659010D01*
X132850121Y-97659010D01*
G37*
G36*
X140033615Y-98425649D02*
X139537226Y-98922038D01*
X138369085Y-97753897D01*
X138865474Y-97257508D01*
X140033615Y-98425649D01*
X140033615Y-98425649D01*
G37*
G36*
X180548543Y-97079119D02*
X180614727Y-97085637D01*
X180702287Y-97112198D01*
X180784567Y-97137157D01*
X180867557Y-97181517D01*
X180941091Y-97220822D01*
X180976829Y-97250152D01*
X181078286Y-97333414D01*
X181142915Y-97412166D01*
X181190878Y-97470609D01*
X181190879Y-97470611D01*
X181274543Y-97627133D01*
X181286800Y-97667541D01*
X181326063Y-97796973D01*
X181343459Y-97973600D01*
X181326063Y-98150227D01*
X181303191Y-98225625D01*
X181274543Y-98320067D01*
X181218107Y-98425649D01*
X181190878Y-98476591D01*
X181189820Y-98477880D01*
X181078286Y-98613786D01*
X180976829Y-98697048D01*
X180941091Y-98726378D01*
X180941089Y-98726379D01*
X180784567Y-98810043D01*
X180727953Y-98827216D01*
X180614727Y-98861563D01*
X180548542Y-98868082D01*
X180482360Y-98874600D01*
X180393840Y-98874600D01*
X180327658Y-98868082D01*
X180261473Y-98861563D01*
X180148247Y-98827216D01*
X180091633Y-98810043D01*
X179935111Y-98726379D01*
X179935109Y-98726378D01*
X179899371Y-98697048D01*
X179797914Y-98613786D01*
X179686380Y-98477880D01*
X179685322Y-98476591D01*
X179658093Y-98425649D01*
X179601657Y-98320067D01*
X179573009Y-98225625D01*
X179550137Y-98150227D01*
X179532741Y-97973600D01*
X179550137Y-97796973D01*
X179589400Y-97667541D01*
X179601657Y-97627133D01*
X179685321Y-97470611D01*
X179685322Y-97470609D01*
X179733285Y-97412166D01*
X179797914Y-97333414D01*
X179899371Y-97250152D01*
X179935109Y-97220822D01*
X180008643Y-97181517D01*
X180091633Y-97137157D01*
X180173913Y-97112198D01*
X180261473Y-97085637D01*
X180327657Y-97079119D01*
X180393840Y-97072600D01*
X180482360Y-97072600D01*
X180548543Y-97079119D01*
X180548543Y-97079119D01*
G37*
G36*
X183088543Y-97079119D02*
X183154727Y-97085637D01*
X183242287Y-97112198D01*
X183324567Y-97137157D01*
X183407557Y-97181517D01*
X183481091Y-97220822D01*
X183516829Y-97250152D01*
X183618286Y-97333414D01*
X183682915Y-97412166D01*
X183730878Y-97470609D01*
X183730879Y-97470611D01*
X183814543Y-97627133D01*
X183826800Y-97667541D01*
X183866063Y-97796973D01*
X183883459Y-97973600D01*
X183866063Y-98150227D01*
X183843191Y-98225625D01*
X183814543Y-98320067D01*
X183758107Y-98425649D01*
X183730878Y-98476591D01*
X183729820Y-98477880D01*
X183618286Y-98613786D01*
X183516829Y-98697048D01*
X183481091Y-98726378D01*
X183481089Y-98726379D01*
X183324567Y-98810043D01*
X183267953Y-98827216D01*
X183154727Y-98861563D01*
X183088542Y-98868082D01*
X183022360Y-98874600D01*
X182933840Y-98874600D01*
X182867658Y-98868082D01*
X182801473Y-98861563D01*
X182688247Y-98827216D01*
X182631633Y-98810043D01*
X182475111Y-98726379D01*
X182475109Y-98726378D01*
X182439371Y-98697048D01*
X182337914Y-98613786D01*
X182226380Y-98477880D01*
X182225322Y-98476591D01*
X182198093Y-98425649D01*
X182141657Y-98320067D01*
X182113009Y-98225625D01*
X182090137Y-98150227D01*
X182072741Y-97973600D01*
X182090137Y-97796973D01*
X182129400Y-97667541D01*
X182141657Y-97627133D01*
X182225321Y-97470611D01*
X182225322Y-97470609D01*
X182273285Y-97412166D01*
X182337914Y-97333414D01*
X182439371Y-97250152D01*
X182475109Y-97220822D01*
X182548643Y-97181517D01*
X182631633Y-97137157D01*
X182713913Y-97112198D01*
X182801473Y-97085637D01*
X182867657Y-97079119D01*
X182933840Y-97072600D01*
X183022360Y-97072600D01*
X183088543Y-97079119D01*
X183088543Y-97079119D01*
G37*
G36*
X175370705Y-96883355D02*
X175404683Y-96893663D01*
X175436001Y-96910403D01*
X175468230Y-96936852D01*
X175893342Y-97361964D01*
X175919791Y-97394193D01*
X175936531Y-97425511D01*
X175946839Y-97459489D01*
X175950319Y-97494830D01*
X175946839Y-97530171D01*
X175936531Y-97564149D01*
X175919791Y-97595467D01*
X175893342Y-97627696D01*
X175415196Y-98105842D01*
X175382967Y-98132291D01*
X175351649Y-98149031D01*
X175317671Y-98159339D01*
X175282330Y-98162819D01*
X175246989Y-98159339D01*
X175213011Y-98149031D01*
X175181693Y-98132291D01*
X175149464Y-98105842D01*
X174724352Y-97680730D01*
X174697903Y-97648501D01*
X174681163Y-97617183D01*
X174670855Y-97583205D01*
X174667375Y-97547864D01*
X174670855Y-97512523D01*
X174681163Y-97478545D01*
X174697903Y-97447227D01*
X174724352Y-97414998D01*
X175202498Y-96936852D01*
X175234727Y-96910403D01*
X175266045Y-96893663D01*
X175300023Y-96883355D01*
X175335364Y-96879875D01*
X175370705Y-96883355D01*
X175370705Y-96883355D01*
G37*
G36*
X142238358Y-96517008D02*
X142272336Y-96527316D01*
X142303654Y-96544056D01*
X142335883Y-96570505D01*
X142760995Y-96995617D01*
X142787444Y-97027846D01*
X142804184Y-97059164D01*
X142814492Y-97093142D01*
X142817972Y-97128483D01*
X142814492Y-97163824D01*
X142804184Y-97197802D01*
X142787444Y-97229120D01*
X142760995Y-97261349D01*
X142282849Y-97739495D01*
X142250620Y-97765944D01*
X142219302Y-97782684D01*
X142185324Y-97792992D01*
X142149983Y-97796472D01*
X142114642Y-97792992D01*
X142080664Y-97782684D01*
X142049346Y-97765944D01*
X142017117Y-97739495D01*
X141592005Y-97314383D01*
X141565556Y-97282154D01*
X141548816Y-97250836D01*
X141538508Y-97216858D01*
X141535028Y-97181517D01*
X141538508Y-97146176D01*
X141548816Y-97112198D01*
X141565556Y-97080880D01*
X141592005Y-97048651D01*
X142070151Y-96570505D01*
X142102380Y-96544056D01*
X142133698Y-96527316D01*
X142167676Y-96517008D01*
X142203017Y-96513528D01*
X142238358Y-96517008D01*
X142238358Y-96517008D01*
G37*
G36*
X174257011Y-95769661D02*
X174290989Y-95779969D01*
X174322307Y-95796709D01*
X174354536Y-95823158D01*
X174779648Y-96248270D01*
X174806097Y-96280499D01*
X174822837Y-96311817D01*
X174833145Y-96345795D01*
X174836625Y-96381136D01*
X174833145Y-96416477D01*
X174822837Y-96450455D01*
X174806097Y-96481773D01*
X174779648Y-96514002D01*
X174301502Y-96992148D01*
X174269273Y-97018597D01*
X174237955Y-97035337D01*
X174203977Y-97045645D01*
X174168636Y-97049125D01*
X174133295Y-97045645D01*
X174099317Y-97035337D01*
X174067999Y-97018597D01*
X174035770Y-96992148D01*
X173610658Y-96567036D01*
X173584209Y-96534807D01*
X173567469Y-96503489D01*
X173557161Y-96469511D01*
X173553681Y-96434170D01*
X173557161Y-96398829D01*
X173567469Y-96364851D01*
X173584209Y-96333533D01*
X173610658Y-96301304D01*
X174088804Y-95823158D01*
X174121033Y-95796709D01*
X174152351Y-95779969D01*
X174186329Y-95769661D01*
X174221670Y-95766181D01*
X174257011Y-95769661D01*
X174257011Y-95769661D01*
G37*
G36*
X176767705Y-95549855D02*
X176801683Y-95560163D01*
X176833001Y-95576903D01*
X176865230Y-95603352D01*
X177290342Y-96028464D01*
X177316791Y-96060693D01*
X177333531Y-96092011D01*
X177343839Y-96125989D01*
X177347319Y-96161330D01*
X177343839Y-96196671D01*
X177333531Y-96230649D01*
X177316791Y-96261967D01*
X177290342Y-96294196D01*
X176812196Y-96772342D01*
X176779967Y-96798791D01*
X176748649Y-96815531D01*
X176714671Y-96825839D01*
X176679330Y-96829319D01*
X176643989Y-96825839D01*
X176610011Y-96815531D01*
X176578693Y-96798791D01*
X176546464Y-96772342D01*
X176121352Y-96347230D01*
X176094903Y-96315001D01*
X176078163Y-96283683D01*
X176067855Y-96249705D01*
X176064375Y-96214364D01*
X176067855Y-96179023D01*
X176078163Y-96145045D01*
X176094903Y-96113727D01*
X176121352Y-96081498D01*
X176599498Y-95603352D01*
X176631727Y-95576903D01*
X176663045Y-95560163D01*
X176697023Y-95549855D01*
X176732364Y-95546375D01*
X176767705Y-95549855D01*
X176767705Y-95549855D01*
G37*
G36*
X136254273Y-96055962D02*
X135616462Y-96693773D01*
X134907941Y-95985252D01*
X135545752Y-95347441D01*
X136254273Y-96055962D01*
X136254273Y-96055962D01*
G37*
G36*
X141124664Y-95403314D02*
X141158642Y-95413622D01*
X141189960Y-95430362D01*
X141222189Y-95456811D01*
X141647301Y-95881923D01*
X141673750Y-95914152D01*
X141690490Y-95945470D01*
X141700798Y-95979448D01*
X141704278Y-96014789D01*
X141700798Y-96050130D01*
X141690490Y-96084108D01*
X141673750Y-96115426D01*
X141647301Y-96147655D01*
X141169155Y-96625801D01*
X141136926Y-96652250D01*
X141105608Y-96668990D01*
X141071630Y-96679298D01*
X141036289Y-96682778D01*
X141000948Y-96679298D01*
X140966970Y-96668990D01*
X140935652Y-96652250D01*
X140903423Y-96625801D01*
X140478311Y-96200689D01*
X140451862Y-96168460D01*
X140435122Y-96137142D01*
X140424814Y-96103164D01*
X140421334Y-96067823D01*
X140424814Y-96032482D01*
X140435122Y-95998504D01*
X140451862Y-95967186D01*
X140478311Y-95934957D01*
X140956457Y-95456811D01*
X140988686Y-95430362D01*
X141020004Y-95413622D01*
X141053982Y-95403314D01*
X141089323Y-95399834D01*
X141124664Y-95403314D01*
X141124664Y-95403314D01*
G37*
G36*
X183088542Y-94539118D02*
X183154727Y-94545637D01*
X183267953Y-94579984D01*
X183324567Y-94597157D01*
X183463187Y-94671252D01*
X183481091Y-94680822D01*
X183516829Y-94710152D01*
X183618286Y-94793414D01*
X183685179Y-94874925D01*
X183730878Y-94930609D01*
X183730879Y-94930611D01*
X183814543Y-95087133D01*
X183814543Y-95087134D01*
X183866063Y-95256973D01*
X183883459Y-95433600D01*
X183866063Y-95610227D01*
X183843351Y-95685097D01*
X183814543Y-95780067D01*
X183761613Y-95879091D01*
X183730878Y-95936591D01*
X183705769Y-95967186D01*
X183618286Y-96073786D01*
X183541085Y-96137142D01*
X183481091Y-96186378D01*
X183481089Y-96186379D01*
X183324567Y-96270043D01*
X183279601Y-96283683D01*
X183154727Y-96321563D01*
X183088543Y-96328081D01*
X183022360Y-96334600D01*
X182933840Y-96334600D01*
X182867657Y-96328081D01*
X182801473Y-96321563D01*
X182676599Y-96283683D01*
X182631633Y-96270043D01*
X182475111Y-96186379D01*
X182475109Y-96186378D01*
X182415115Y-96137142D01*
X182337914Y-96073786D01*
X182250431Y-95967186D01*
X182225322Y-95936591D01*
X182194587Y-95879091D01*
X182141657Y-95780067D01*
X182112849Y-95685097D01*
X182090137Y-95610227D01*
X182072741Y-95433600D01*
X182090137Y-95256973D01*
X182141657Y-95087134D01*
X182141657Y-95087133D01*
X182225321Y-94930611D01*
X182225322Y-94930609D01*
X182271021Y-94874925D01*
X182337914Y-94793414D01*
X182439371Y-94710152D01*
X182475109Y-94680822D01*
X182493013Y-94671252D01*
X182631633Y-94597157D01*
X182688247Y-94579984D01*
X182801473Y-94545637D01*
X182867658Y-94539118D01*
X182933840Y-94532600D01*
X183022360Y-94532600D01*
X183088542Y-94539118D01*
X183088542Y-94539118D01*
G37*
G36*
X180548542Y-94539118D02*
X180614727Y-94545637D01*
X180727953Y-94579984D01*
X180784567Y-94597157D01*
X180923187Y-94671252D01*
X180941091Y-94680822D01*
X180976829Y-94710152D01*
X181078286Y-94793414D01*
X181145179Y-94874925D01*
X181190878Y-94930609D01*
X181190879Y-94930611D01*
X181274543Y-95087133D01*
X181274543Y-95087134D01*
X181326063Y-95256973D01*
X181343459Y-95433600D01*
X181326063Y-95610227D01*
X181303351Y-95685097D01*
X181274543Y-95780067D01*
X181221613Y-95879091D01*
X181190878Y-95936591D01*
X181165769Y-95967186D01*
X181078286Y-96073786D01*
X181001085Y-96137142D01*
X180941091Y-96186378D01*
X180941089Y-96186379D01*
X180784567Y-96270043D01*
X180739601Y-96283683D01*
X180614727Y-96321563D01*
X180548543Y-96328081D01*
X180482360Y-96334600D01*
X180393840Y-96334600D01*
X180327657Y-96328081D01*
X180261473Y-96321563D01*
X180136599Y-96283683D01*
X180091633Y-96270043D01*
X179935111Y-96186379D01*
X179935109Y-96186378D01*
X179875115Y-96137142D01*
X179797914Y-96073786D01*
X179710431Y-95967186D01*
X179685322Y-95936591D01*
X179654587Y-95879091D01*
X179601657Y-95780067D01*
X179572849Y-95685097D01*
X179550137Y-95610227D01*
X179532741Y-95433600D01*
X179550137Y-95256973D01*
X179601657Y-95087134D01*
X179601657Y-95087133D01*
X179685321Y-94930611D01*
X179685322Y-94930609D01*
X179731021Y-94874925D01*
X179797914Y-94793414D01*
X179899371Y-94710152D01*
X179935109Y-94680822D01*
X179953013Y-94671252D01*
X180091633Y-94597157D01*
X180148247Y-94579984D01*
X180261473Y-94545637D01*
X180327658Y-94539118D01*
X180393840Y-94532600D01*
X180482360Y-94532600D01*
X180548542Y-94539118D01*
X180548542Y-94539118D01*
G37*
G36*
X134168308Y-95313500D02*
X133530497Y-95951311D01*
X132821976Y-95242790D01*
X133459787Y-94604979D01*
X134168308Y-95313500D01*
X134168308Y-95313500D01*
G37*
G36*
X173778819Y-94967391D02*
X172893520Y-95852690D01*
X171831445Y-94790615D01*
X172716744Y-93905316D01*
X173778819Y-94967391D01*
X173778819Y-94967391D01*
G37*
G36*
X175654011Y-94436161D02*
X175687989Y-94446469D01*
X175719307Y-94463209D01*
X175751536Y-94489658D01*
X176176648Y-94914770D01*
X176203097Y-94946999D01*
X176219837Y-94978317D01*
X176230145Y-95012295D01*
X176233625Y-95047636D01*
X176230145Y-95082977D01*
X176219837Y-95116955D01*
X176203097Y-95148273D01*
X176176648Y-95180502D01*
X175698502Y-95658648D01*
X175666273Y-95685097D01*
X175634955Y-95701837D01*
X175600977Y-95712145D01*
X175565636Y-95715625D01*
X175530295Y-95712145D01*
X175496317Y-95701837D01*
X175464999Y-95685097D01*
X175432770Y-95658648D01*
X175007658Y-95233536D01*
X174981209Y-95201307D01*
X174964469Y-95169989D01*
X174954161Y-95136011D01*
X174950681Y-95100670D01*
X174954161Y-95065329D01*
X174964469Y-95031351D01*
X174981209Y-95000033D01*
X175007658Y-94967804D01*
X175485804Y-94489658D01*
X175518033Y-94463209D01*
X175549351Y-94446469D01*
X175583329Y-94436161D01*
X175618670Y-94432681D01*
X175654011Y-94436161D01*
X175654011Y-94436161D01*
G37*
G36*
X174910190Y-93836020D02*
X174024891Y-94721319D01*
X172962816Y-93659244D01*
X173848115Y-92773945D01*
X174910190Y-93836020D01*
X174910190Y-93836020D01*
G37*
G36*
X135511811Y-93969997D02*
X134874000Y-94607808D01*
X134165479Y-93899287D01*
X134803290Y-93261476D01*
X135511811Y-93969997D01*
X135511811Y-93969997D01*
G37*
G36*
X138897977Y-93136855D02*
X138931955Y-93147163D01*
X138963273Y-93163903D01*
X138995502Y-93190352D01*
X139473648Y-93668498D01*
X139500097Y-93700727D01*
X139516837Y-93732045D01*
X139527145Y-93766023D01*
X139530625Y-93801364D01*
X139527145Y-93836705D01*
X139516837Y-93870683D01*
X139500097Y-93902001D01*
X139473648Y-93934230D01*
X139048536Y-94359342D01*
X139016307Y-94385791D01*
X138984989Y-94402531D01*
X138951011Y-94412839D01*
X138915670Y-94416319D01*
X138880329Y-94412839D01*
X138846351Y-94402531D01*
X138815033Y-94385791D01*
X138782804Y-94359342D01*
X138304658Y-93881196D01*
X138278209Y-93848967D01*
X138261469Y-93817649D01*
X138251161Y-93783671D01*
X138247681Y-93748330D01*
X138251161Y-93712989D01*
X138261469Y-93679011D01*
X138278209Y-93647693D01*
X138304658Y-93615464D01*
X138729770Y-93190352D01*
X138761999Y-93163903D01*
X138793317Y-93147163D01*
X138827295Y-93136855D01*
X138862636Y-93133375D01*
X138897977Y-93136855D01*
X138897977Y-93136855D01*
G37*
G36*
X132141730Y-92207948D02*
X132178271Y-92219033D01*
X132211946Y-92237032D01*
X132246243Y-92265180D01*
X132917218Y-92936155D01*
X132945366Y-92970452D01*
X132963365Y-93004127D01*
X132974450Y-93040668D01*
X132978192Y-93078672D01*
X132974450Y-93116676D01*
X132963365Y-93153217D01*
X132945366Y-93186892D01*
X132917218Y-93221189D01*
X131892689Y-94245718D01*
X131858392Y-94273866D01*
X131824717Y-94291865D01*
X131788176Y-94302950D01*
X131750172Y-94306692D01*
X131712168Y-94302950D01*
X131675627Y-94291865D01*
X131641952Y-94273866D01*
X131607655Y-94245718D01*
X130936680Y-93574743D01*
X130908532Y-93540446D01*
X130890533Y-93506771D01*
X130879448Y-93470230D01*
X130875706Y-93432226D01*
X130879448Y-93394222D01*
X130890533Y-93357681D01*
X130908532Y-93324006D01*
X130936680Y-93289709D01*
X131961209Y-92265180D01*
X131995506Y-92237032D01*
X132029181Y-92219033D01*
X132065722Y-92207948D01*
X132103726Y-92204206D01*
X132141730Y-92207948D01*
X132141730Y-92207948D01*
G37*
G36*
X172223184Y-93411756D02*
X171337885Y-94297055D01*
X170275810Y-93234980D01*
X171161109Y-92349681D01*
X172223184Y-93411756D01*
X172223184Y-93411756D01*
G37*
G36*
X183088542Y-91999118D02*
X183154727Y-92005637D01*
X183246477Y-92033469D01*
X183324567Y-92057157D01*
X183411471Y-92103609D01*
X183481091Y-92140822D01*
X183498380Y-92155011D01*
X183618286Y-92253414D01*
X183694829Y-92346683D01*
X183730878Y-92390609D01*
X183730879Y-92390611D01*
X183814543Y-92547133D01*
X183814543Y-92547134D01*
X183866063Y-92716973D01*
X183883459Y-92893600D01*
X183866063Y-93070227D01*
X183842725Y-93147163D01*
X183814543Y-93240067D01*
X183769676Y-93324006D01*
X183730878Y-93396591D01*
X183718432Y-93411756D01*
X183618286Y-93533786D01*
X183558985Y-93582452D01*
X183481091Y-93646378D01*
X183481089Y-93646379D01*
X183324567Y-93730043D01*
X183267953Y-93747216D01*
X183154727Y-93781563D01*
X183088543Y-93788081D01*
X183022360Y-93794600D01*
X182933840Y-93794600D01*
X182867658Y-93788082D01*
X182801473Y-93781563D01*
X182688247Y-93747216D01*
X182631633Y-93730043D01*
X182475111Y-93646379D01*
X182475109Y-93646378D01*
X182397215Y-93582452D01*
X182337914Y-93533786D01*
X182237768Y-93411756D01*
X182225322Y-93396591D01*
X182186524Y-93324006D01*
X182141657Y-93240067D01*
X182113475Y-93147163D01*
X182090137Y-93070227D01*
X182072741Y-92893600D01*
X182090137Y-92716973D01*
X182141657Y-92547134D01*
X182141657Y-92547133D01*
X182225321Y-92390611D01*
X182225322Y-92390609D01*
X182261371Y-92346683D01*
X182337914Y-92253414D01*
X182457820Y-92155011D01*
X182475109Y-92140822D01*
X182544729Y-92103609D01*
X182631633Y-92057157D01*
X182709723Y-92033469D01*
X182801473Y-92005637D01*
X182867658Y-91999118D01*
X182933840Y-91992600D01*
X183022360Y-91992600D01*
X183088542Y-91999118D01*
X183088542Y-91999118D01*
G37*
G36*
X181339100Y-93794600D02*
X179537100Y-93794600D01*
X179537100Y-91992600D01*
X181339100Y-91992600D01*
X181339100Y-93794600D01*
X181339100Y-93794600D01*
G37*
G36*
X140011671Y-92023161D02*
X140045649Y-92033469D01*
X140076967Y-92050209D01*
X140109196Y-92076658D01*
X140587342Y-92554804D01*
X140613791Y-92587033D01*
X140630531Y-92618351D01*
X140640839Y-92652329D01*
X140644319Y-92687670D01*
X140640839Y-92723011D01*
X140630531Y-92756989D01*
X140613791Y-92788307D01*
X140587342Y-92820536D01*
X140162230Y-93245648D01*
X140130001Y-93272097D01*
X140098683Y-93288837D01*
X140064705Y-93299145D01*
X140029364Y-93302625D01*
X139994023Y-93299145D01*
X139960045Y-93288837D01*
X139928727Y-93272097D01*
X139896498Y-93245648D01*
X139418352Y-92767502D01*
X139391903Y-92735273D01*
X139375163Y-92703955D01*
X139364855Y-92669977D01*
X139361375Y-92634636D01*
X139364855Y-92599295D01*
X139375163Y-92565317D01*
X139391903Y-92533999D01*
X139418352Y-92501770D01*
X139843464Y-92076658D01*
X139875693Y-92050209D01*
X139907011Y-92033469D01*
X139940989Y-92023161D01*
X139976330Y-92019681D01*
X140011671Y-92023161D01*
X140011671Y-92023161D01*
G37*
G36*
X173354555Y-92280385D02*
X172469256Y-93165684D01*
X171407181Y-92103609D01*
X172292480Y-91218310D01*
X173354555Y-92280385D01*
X173354555Y-92280385D01*
G37*
G36*
X121146431Y-89561811D02*
X121474192Y-89697574D01*
X121769173Y-89894674D01*
X122020026Y-90145527D01*
X122217126Y-90440508D01*
X122352889Y-90768269D01*
X122422100Y-91116216D01*
X122422100Y-91470984D01*
X122352889Y-91818931D01*
X122217126Y-92146692D01*
X122020026Y-92441673D01*
X121769173Y-92692526D01*
X121474192Y-92889626D01*
X121146431Y-93025389D01*
X120798484Y-93094600D01*
X120443716Y-93094600D01*
X120095769Y-93025389D01*
X119768008Y-92889626D01*
X119473027Y-92692526D01*
X119222174Y-92441673D01*
X119025074Y-92146692D01*
X118889311Y-91818931D01*
X118820100Y-91470984D01*
X118820100Y-91116216D01*
X118889311Y-90768269D01*
X119025074Y-90440508D01*
X119222174Y-90145527D01*
X119473027Y-89894674D01*
X119768008Y-89697574D01*
X120095769Y-89561811D01*
X120443716Y-89492600D01*
X120798484Y-89492600D01*
X121146431Y-89561811D01*
X121146431Y-89561811D01*
G37*
G36*
X137373977Y-91612855D02*
X137407955Y-91623163D01*
X137439273Y-91639903D01*
X137471502Y-91666352D01*
X137949648Y-92144498D01*
X137976097Y-92176727D01*
X137992837Y-92208045D01*
X138003145Y-92242023D01*
X138006625Y-92277364D01*
X138003145Y-92312705D01*
X137992837Y-92346683D01*
X137976097Y-92378001D01*
X137949648Y-92410230D01*
X137524536Y-92835342D01*
X137492307Y-92861791D01*
X137460989Y-92878531D01*
X137427011Y-92888839D01*
X137391670Y-92892319D01*
X137356329Y-92888839D01*
X137322351Y-92878531D01*
X137291033Y-92861791D01*
X137258804Y-92835342D01*
X136780658Y-92357196D01*
X136754209Y-92324967D01*
X136737469Y-92293649D01*
X136727161Y-92259671D01*
X136723681Y-92224330D01*
X136727161Y-92188989D01*
X136737469Y-92155011D01*
X136754209Y-92123693D01*
X136780658Y-92091464D01*
X137205770Y-91666352D01*
X137237999Y-91639903D01*
X137269317Y-91623163D01*
X137303295Y-91612855D01*
X137338636Y-91609375D01*
X137373977Y-91612855D01*
X137373977Y-91612855D01*
G37*
G36*
X130161832Y-90228050D02*
X130198373Y-90239135D01*
X130232048Y-90257134D01*
X130266345Y-90285282D01*
X130937320Y-90956257D01*
X130965468Y-90990554D01*
X130983467Y-91024229D01*
X130994552Y-91060770D01*
X130998294Y-91098774D01*
X130994552Y-91136778D01*
X130983467Y-91173319D01*
X130965468Y-91206994D01*
X130937320Y-91241291D01*
X129912791Y-92265820D01*
X129878494Y-92293968D01*
X129844819Y-92311967D01*
X129808278Y-92323052D01*
X129770274Y-92326794D01*
X129732270Y-92323052D01*
X129695729Y-92311967D01*
X129662054Y-92293968D01*
X129627757Y-92265820D01*
X128956782Y-91594845D01*
X128928634Y-91560548D01*
X128910635Y-91526873D01*
X128899550Y-91490332D01*
X128895808Y-91452328D01*
X128899550Y-91414324D01*
X128910635Y-91377783D01*
X128928634Y-91344108D01*
X128956782Y-91309811D01*
X129981311Y-90285282D01*
X130015608Y-90257134D01*
X130049283Y-90239135D01*
X130085824Y-90228050D01*
X130123828Y-90224308D01*
X130161832Y-90228050D01*
X130161832Y-90228050D01*
G37*
G36*
X176241361Y-90848034D02*
X175179286Y-91910109D01*
X174117211Y-90848034D01*
X175179286Y-89785959D01*
X176241361Y-90848034D01*
X176241361Y-90848034D01*
G37*
G36*
X138487671Y-90499161D02*
X138521649Y-90509469D01*
X138552967Y-90526209D01*
X138585196Y-90552658D01*
X139063342Y-91030804D01*
X139089791Y-91063033D01*
X139106531Y-91094351D01*
X139116839Y-91128329D01*
X139120319Y-91163670D01*
X139116839Y-91199011D01*
X139106531Y-91232989D01*
X139089791Y-91264307D01*
X139063342Y-91296536D01*
X138638230Y-91721648D01*
X138606001Y-91748097D01*
X138574683Y-91764837D01*
X138540705Y-91775145D01*
X138505364Y-91778625D01*
X138470023Y-91775145D01*
X138436045Y-91764837D01*
X138404727Y-91748097D01*
X138372498Y-91721648D01*
X137894352Y-91243502D01*
X137867903Y-91211273D01*
X137851163Y-91179955D01*
X137840855Y-91145977D01*
X137837375Y-91110636D01*
X137840855Y-91075295D01*
X137851163Y-91041317D01*
X137867903Y-91009999D01*
X137894352Y-90977770D01*
X138319464Y-90552658D01*
X138351693Y-90526209D01*
X138383011Y-90509469D01*
X138416989Y-90499161D01*
X138452330Y-90495681D01*
X138487671Y-90499161D01*
X138487671Y-90499161D01*
G37*
G36*
X141882477Y-90215855D02*
X141916455Y-90226163D01*
X141947773Y-90242903D01*
X141980002Y-90269352D01*
X142458148Y-90747498D01*
X142484597Y-90779727D01*
X142501337Y-90811045D01*
X142511645Y-90845023D01*
X142515125Y-90880364D01*
X142511645Y-90915705D01*
X142501337Y-90949683D01*
X142484597Y-90981001D01*
X142458148Y-91013230D01*
X142033036Y-91438342D01*
X142000807Y-91464791D01*
X141969489Y-91481531D01*
X141935511Y-91491839D01*
X141900170Y-91495319D01*
X141864829Y-91491839D01*
X141830851Y-91481531D01*
X141799533Y-91464791D01*
X141767304Y-91438342D01*
X141289158Y-90960196D01*
X141262709Y-90927967D01*
X141245969Y-90896649D01*
X141235661Y-90862671D01*
X141232181Y-90827330D01*
X141235661Y-90791989D01*
X141245969Y-90758011D01*
X141262709Y-90726693D01*
X141289158Y-90694464D01*
X141714270Y-90269352D01*
X141746499Y-90242903D01*
X141777817Y-90226163D01*
X141811795Y-90215855D01*
X141847136Y-90212375D01*
X141882477Y-90215855D01*
X141882477Y-90215855D01*
G37*
G36*
X133784581Y-88884750D02*
X133888445Y-88916255D01*
X133934463Y-88940853D01*
X133984164Y-88967418D01*
X133984166Y-88967420D01*
X134047043Y-89019021D01*
X134047054Y-89019032D01*
X135145977Y-90117953D01*
X135197583Y-90180835D01*
X135214441Y-90212375D01*
X135248748Y-90276557D01*
X135280254Y-90380421D01*
X135290893Y-90488436D01*
X135280254Y-90596450D01*
X135248748Y-90700315D01*
X135197583Y-90796036D01*
X135128728Y-90879937D01*
X135044827Y-90948792D01*
X134949106Y-90999957D01*
X134845241Y-91031463D01*
X134737227Y-91042102D01*
X134629212Y-91031463D01*
X134525348Y-90999957D01*
X134450962Y-90960196D01*
X134429626Y-90948792D01*
X134366744Y-90897186D01*
X133267823Y-89798263D01*
X133267812Y-89798252D01*
X133216211Y-89735375D01*
X133216209Y-89735373D01*
X133189644Y-89685672D01*
X133165046Y-89639654D01*
X133133541Y-89535790D01*
X133122901Y-89427776D01*
X133133541Y-89319762D01*
X133165046Y-89215898D01*
X133197246Y-89155658D01*
X133216211Y-89120176D01*
X133285067Y-89036276D01*
X133368967Y-88967420D01*
X133405606Y-88947836D01*
X133464689Y-88916255D01*
X133568553Y-88884750D01*
X133676567Y-88874110D01*
X133784581Y-88884750D01*
X133784581Y-88884750D01*
G37*
G36*
X142996171Y-89102161D02*
X143030149Y-89112469D01*
X143061467Y-89129209D01*
X143093696Y-89155658D01*
X143571842Y-89633804D01*
X143598291Y-89666033D01*
X143615031Y-89697351D01*
X143625339Y-89731329D01*
X143628819Y-89766670D01*
X143625339Y-89802011D01*
X143615031Y-89835989D01*
X143598291Y-89867307D01*
X143571842Y-89899536D01*
X143146730Y-90324648D01*
X143114501Y-90351097D01*
X143083183Y-90367837D01*
X143049205Y-90378145D01*
X143013864Y-90381625D01*
X142978523Y-90378145D01*
X142944545Y-90367837D01*
X142913227Y-90351097D01*
X142880998Y-90324648D01*
X142402852Y-89846502D01*
X142376403Y-89814273D01*
X142359663Y-89782955D01*
X142349355Y-89748977D01*
X142345875Y-89713636D01*
X142349355Y-89678295D01*
X142359663Y-89644317D01*
X142376403Y-89612999D01*
X142402852Y-89580770D01*
X142827964Y-89155658D01*
X142860193Y-89129209D01*
X142891511Y-89112469D01*
X142925489Y-89102161D01*
X142960830Y-89098681D01*
X142996171Y-89102161D01*
X142996171Y-89102161D01*
G37*
G36*
X140294977Y-88628355D02*
X140328955Y-88638663D01*
X140360273Y-88655403D01*
X140392502Y-88681852D01*
X140870648Y-89159998D01*
X140897097Y-89192227D01*
X140913837Y-89223545D01*
X140924145Y-89257523D01*
X140927625Y-89292864D01*
X140924145Y-89328205D01*
X140913837Y-89362183D01*
X140897097Y-89393501D01*
X140870648Y-89425730D01*
X140445536Y-89850842D01*
X140413307Y-89877291D01*
X140381989Y-89894031D01*
X140348011Y-89904339D01*
X140312670Y-89907819D01*
X140277329Y-89904339D01*
X140243351Y-89894031D01*
X140212033Y-89877291D01*
X140179804Y-89850842D01*
X139701658Y-89372696D01*
X139675209Y-89340467D01*
X139658469Y-89309149D01*
X139648161Y-89275171D01*
X139644681Y-89239830D01*
X139648161Y-89204489D01*
X139658469Y-89170511D01*
X139675209Y-89139193D01*
X139701658Y-89106964D01*
X140126770Y-88681852D01*
X140158999Y-88655403D01*
X140190317Y-88638663D01*
X140224295Y-88628355D01*
X140259636Y-88624875D01*
X140294977Y-88628355D01*
X140294977Y-88628355D01*
G37*
G36*
X174120041Y-88726714D02*
X173057966Y-89788789D01*
X171995891Y-88726714D01*
X173057966Y-87664639D01*
X174120041Y-88726714D01*
X174120041Y-88726714D01*
G37*
G36*
X183191348Y-86193978D02*
X183372679Y-86230047D01*
X183673142Y-86354503D01*
X183793403Y-86434859D01*
X183943554Y-86535187D01*
X184173513Y-86765146D01*
X184173515Y-86765149D01*
X184354197Y-87035558D01*
X184478653Y-87336021D01*
X184485778Y-87371841D01*
X184542100Y-87654989D01*
X184542100Y-87980211D01*
X184528953Y-88046304D01*
X184478653Y-88299179D01*
X184354197Y-88599642D01*
X184224247Y-88794125D01*
X184173513Y-88870054D01*
X183943554Y-89100013D01*
X183943551Y-89100015D01*
X183673142Y-89280697D01*
X183673141Y-89280698D01*
X183673140Y-89280698D01*
X183604453Y-89309149D01*
X183372679Y-89405153D01*
X183269231Y-89425730D01*
X183053711Y-89468600D01*
X182728489Y-89468600D01*
X182512969Y-89425730D01*
X182409521Y-89405153D01*
X182177747Y-89309149D01*
X182109060Y-89280698D01*
X182109059Y-89280698D01*
X182109058Y-89280697D01*
X181838649Y-89100015D01*
X181838646Y-89100013D01*
X181608687Y-88870054D01*
X181557953Y-88794125D01*
X181428003Y-88599642D01*
X181303547Y-88299179D01*
X181253247Y-88046304D01*
X181240100Y-87980211D01*
X181240100Y-87654989D01*
X181296422Y-87371841D01*
X181303547Y-87336021D01*
X181428003Y-87035558D01*
X181608685Y-86765149D01*
X181608687Y-86765146D01*
X181838646Y-86535187D01*
X181988797Y-86434859D01*
X182109058Y-86354503D01*
X182409521Y-86230047D01*
X182590852Y-86193978D01*
X182728489Y-86166600D01*
X183053711Y-86166600D01*
X183191348Y-86193978D01*
X183191348Y-86193978D01*
G37*
G36*
X141408671Y-87514661D02*
X141442649Y-87524969D01*
X141473967Y-87541709D01*
X141506196Y-87568158D01*
X141984342Y-88046304D01*
X142010791Y-88078533D01*
X142027531Y-88109851D01*
X142037839Y-88143829D01*
X142041319Y-88179170D01*
X142037839Y-88214511D01*
X142027531Y-88248489D01*
X142010791Y-88279807D01*
X141984342Y-88312036D01*
X141559230Y-88737148D01*
X141527001Y-88763597D01*
X141495683Y-88780337D01*
X141461705Y-88790645D01*
X141426364Y-88794125D01*
X141391023Y-88790645D01*
X141357045Y-88780337D01*
X141325727Y-88763597D01*
X141293498Y-88737148D01*
X140815352Y-88259002D01*
X140788903Y-88226773D01*
X140772163Y-88195455D01*
X140761855Y-88161477D01*
X140758375Y-88126136D01*
X140761855Y-88090795D01*
X140772163Y-88056817D01*
X140788903Y-88025499D01*
X140815352Y-87993270D01*
X141240464Y-87568158D01*
X141272693Y-87541709D01*
X141304011Y-87524969D01*
X141337989Y-87514661D01*
X141373330Y-87511181D01*
X141408671Y-87514661D01*
X141408671Y-87514661D01*
G37*
G36*
X144803477Y-87231355D02*
X144837455Y-87241663D01*
X144868773Y-87258403D01*
X144901002Y-87284852D01*
X145379148Y-87762998D01*
X145405597Y-87795227D01*
X145422337Y-87826545D01*
X145432645Y-87860523D01*
X145436125Y-87895864D01*
X145432645Y-87931205D01*
X145422337Y-87965183D01*
X145405597Y-87996501D01*
X145379148Y-88028730D01*
X144954036Y-88453842D01*
X144921807Y-88480291D01*
X144890489Y-88497031D01*
X144856511Y-88507339D01*
X144821170Y-88510819D01*
X144785829Y-88507339D01*
X144751851Y-88497031D01*
X144720533Y-88480291D01*
X144688304Y-88453842D01*
X144210158Y-87975696D01*
X144183709Y-87943467D01*
X144166969Y-87912149D01*
X144156661Y-87878171D01*
X144153181Y-87842830D01*
X144156661Y-87807489D01*
X144166969Y-87773511D01*
X144183709Y-87742193D01*
X144210158Y-87709964D01*
X144635270Y-87284852D01*
X144667499Y-87258403D01*
X144698817Y-87241663D01*
X144732795Y-87231355D01*
X144768136Y-87227875D01*
X144803477Y-87231355D01*
X144803477Y-87231355D01*
G37*
G36*
X132049052Y-87153202D02*
X132083030Y-87163510D01*
X132114348Y-87180250D01*
X132146577Y-87206699D01*
X132571689Y-87631811D01*
X132598138Y-87664040D01*
X132614878Y-87695358D01*
X132625186Y-87729336D01*
X132628666Y-87764677D01*
X132625186Y-87800018D01*
X132614878Y-87833996D01*
X132598138Y-87865314D01*
X132571689Y-87897543D01*
X132093543Y-88375689D01*
X132061314Y-88402138D01*
X132029996Y-88418878D01*
X131996018Y-88429186D01*
X131960677Y-88432666D01*
X131925336Y-88429186D01*
X131891358Y-88418878D01*
X131860040Y-88402138D01*
X131827811Y-88375689D01*
X131402699Y-87950577D01*
X131376250Y-87918348D01*
X131359510Y-87887030D01*
X131349202Y-87853052D01*
X131345722Y-87817711D01*
X131349202Y-87782370D01*
X131359510Y-87748392D01*
X131376250Y-87717074D01*
X131402699Y-87684845D01*
X131880845Y-87206699D01*
X131913074Y-87180250D01*
X131944392Y-87163510D01*
X131978370Y-87153202D01*
X132013711Y-87149722D01*
X132049052Y-87153202D01*
X132049052Y-87153202D01*
G37*
G36*
X123593912Y-85657224D02*
X123757884Y-85725144D01*
X123905454Y-85823747D01*
X124030953Y-85949246D01*
X124129556Y-86096816D01*
X124189620Y-86241823D01*
X124201166Y-86263424D01*
X124216712Y-86282366D01*
X124235654Y-86297912D01*
X124257265Y-86309463D01*
X124280714Y-86316576D01*
X124305100Y-86318978D01*
X124329486Y-86316576D01*
X124352935Y-86309463D01*
X124374546Y-86297912D01*
X124393488Y-86282366D01*
X124409034Y-86263424D01*
X124420585Y-86241813D01*
X124427698Y-86218364D01*
X124430100Y-86193978D01*
X124430100Y-85622600D01*
X126232100Y-85622600D01*
X126232100Y-87424600D01*
X124430100Y-87424600D01*
X124430100Y-86853222D01*
X124427698Y-86828836D01*
X124420585Y-86805387D01*
X124409034Y-86783776D01*
X124393488Y-86764834D01*
X124374546Y-86749288D01*
X124352935Y-86737737D01*
X124329486Y-86730624D01*
X124305100Y-86728222D01*
X124280714Y-86730624D01*
X124257265Y-86737737D01*
X124235654Y-86749288D01*
X124216712Y-86764834D01*
X124201166Y-86783776D01*
X124189620Y-86805377D01*
X124129556Y-86950384D01*
X124030953Y-87097954D01*
X123905454Y-87223453D01*
X123757884Y-87322056D01*
X123593912Y-87389976D01*
X123419841Y-87424600D01*
X123242359Y-87424600D01*
X123068288Y-87389976D01*
X122904316Y-87322056D01*
X122756746Y-87223453D01*
X122631247Y-87097954D01*
X122532644Y-86950384D01*
X122464724Y-86786412D01*
X122430100Y-86612341D01*
X122430100Y-86434859D01*
X122464724Y-86260788D01*
X122532644Y-86096816D01*
X122631247Y-85949246D01*
X122756746Y-85823747D01*
X122904316Y-85725144D01*
X123068288Y-85657224D01*
X123242359Y-85622600D01*
X123419841Y-85622600D01*
X123593912Y-85657224D01*
X123593912Y-85657224D01*
G37*
G36*
X145917171Y-86117661D02*
X145951149Y-86127969D01*
X145982467Y-86144709D01*
X146014696Y-86171158D01*
X146492842Y-86649304D01*
X146519291Y-86681533D01*
X146536031Y-86712851D01*
X146546339Y-86746829D01*
X146549819Y-86782170D01*
X146546339Y-86817511D01*
X146536031Y-86851489D01*
X146519291Y-86882807D01*
X146492842Y-86915036D01*
X146067730Y-87340148D01*
X146035501Y-87366597D01*
X146004183Y-87383337D01*
X145970205Y-87393645D01*
X145934864Y-87397125D01*
X145899523Y-87393645D01*
X145865545Y-87383337D01*
X145834227Y-87366597D01*
X145801998Y-87340148D01*
X145323852Y-86862002D01*
X145297403Y-86829773D01*
X145280663Y-86798455D01*
X145270355Y-86764477D01*
X145266875Y-86729136D01*
X145270355Y-86693795D01*
X145280663Y-86659817D01*
X145297403Y-86628499D01*
X145323852Y-86596270D01*
X145748964Y-86171158D01*
X145781193Y-86144709D01*
X145812511Y-86127969D01*
X145846489Y-86117661D01*
X145881830Y-86114181D01*
X145917171Y-86117661D01*
X145917171Y-86117661D01*
G37*
G36*
X130935358Y-86039508D02*
X130969336Y-86049816D01*
X131000654Y-86066556D01*
X131032883Y-86093005D01*
X131457995Y-86518117D01*
X131484444Y-86550346D01*
X131501184Y-86581664D01*
X131511492Y-86615642D01*
X131514972Y-86650983D01*
X131511492Y-86686324D01*
X131501184Y-86720302D01*
X131484444Y-86751620D01*
X131457995Y-86783849D01*
X130979849Y-87261995D01*
X130947620Y-87288444D01*
X130916302Y-87305184D01*
X130882324Y-87315492D01*
X130846983Y-87318972D01*
X130811642Y-87315492D01*
X130777664Y-87305184D01*
X130746346Y-87288444D01*
X130714117Y-87261995D01*
X130289005Y-86836883D01*
X130262556Y-86804654D01*
X130245816Y-86773336D01*
X130235508Y-86739358D01*
X130232028Y-86704017D01*
X130235508Y-86668676D01*
X130245816Y-86634698D01*
X130262556Y-86603380D01*
X130289005Y-86571151D01*
X130767151Y-86093005D01*
X130799380Y-86066556D01*
X130830698Y-86049816D01*
X130864676Y-86039508D01*
X130900017Y-86036028D01*
X130935358Y-86039508D01*
X130935358Y-86039508D01*
G37*
G36*
X181191109Y-85898286D02*
X180129034Y-86960361D01*
X179066959Y-85898286D01*
X180129034Y-84836211D01*
X181191109Y-85898286D01*
X181191109Y-85898286D01*
G37*
G36*
X134295349Y-86150789D02*
X133657538Y-86788600D01*
X132666173Y-85797235D01*
X133303984Y-85159424D01*
X134295349Y-86150789D01*
X134295349Y-86150789D01*
G37*
G36*
X135200446Y-85245692D02*
X134562635Y-85883503D01*
X133571270Y-84892138D01*
X134209081Y-84254327D01*
X135200446Y-85245692D01*
X135200446Y-85245692D01*
G37*
G36*
X140696224Y-84443177D02*
X140796498Y-84484712D01*
X140886748Y-84545015D01*
X140963491Y-84621758D01*
X141023794Y-84712008D01*
X141065329Y-84812282D01*
X141086503Y-84918733D01*
X141086503Y-85027273D01*
X141065329Y-85133724D01*
X141023794Y-85233998D01*
X140963491Y-85324248D01*
X140886748Y-85400991D01*
X140796498Y-85461294D01*
X140696224Y-85502829D01*
X140589773Y-85524003D01*
X140481233Y-85524003D01*
X140374782Y-85502829D01*
X140274508Y-85461294D01*
X140184258Y-85400991D01*
X140107515Y-85324248D01*
X140047212Y-85233998D01*
X140005677Y-85133724D01*
X139984503Y-85027273D01*
X139984503Y-84918733D01*
X140005677Y-84812282D01*
X140047212Y-84712008D01*
X140107515Y-84621758D01*
X140184258Y-84545015D01*
X140274508Y-84484712D01*
X140374782Y-84443177D01*
X140481233Y-84422003D01*
X140589773Y-84422003D01*
X140696224Y-84443177D01*
X140696224Y-84443177D01*
G37*
G36*
X136091400Y-84354737D02*
X135453589Y-84992548D01*
X134462224Y-84001183D01*
X135100035Y-83363372D01*
X136091400Y-84354737D01*
X136091400Y-84354737D01*
G37*
G36*
X123593912Y-83157224D02*
X123757884Y-83225144D01*
X123905454Y-83323747D01*
X124030953Y-83449246D01*
X124129556Y-83596816D01*
X124197476Y-83760788D01*
X124208504Y-83816233D01*
X124215615Y-83839674D01*
X124227167Y-83861285D01*
X124242712Y-83880227D01*
X124261654Y-83895772D01*
X124283265Y-83907323D01*
X124306714Y-83914436D01*
X124331100Y-83916838D01*
X124355487Y-83914436D01*
X124378936Y-83907323D01*
X124400547Y-83895771D01*
X124419489Y-83880226D01*
X124435034Y-83861284D01*
X124446585Y-83839673D01*
X124453696Y-83816233D01*
X124464724Y-83760788D01*
X124532644Y-83596816D01*
X124631247Y-83449246D01*
X124756746Y-83323747D01*
X124904316Y-83225144D01*
X125068288Y-83157224D01*
X125242359Y-83122600D01*
X125419841Y-83122600D01*
X125593912Y-83157224D01*
X125757884Y-83225144D01*
X125905454Y-83323747D01*
X126030953Y-83449246D01*
X126129556Y-83596816D01*
X126197476Y-83760788D01*
X126232100Y-83934859D01*
X126232100Y-84112341D01*
X126197476Y-84286412D01*
X126129556Y-84450384D01*
X126030953Y-84597954D01*
X125905454Y-84723453D01*
X125757884Y-84822056D01*
X125593912Y-84889976D01*
X125419841Y-84924600D01*
X125242359Y-84924600D01*
X125068288Y-84889976D01*
X124904316Y-84822056D01*
X124756746Y-84723453D01*
X124631247Y-84597954D01*
X124532644Y-84450384D01*
X124464724Y-84286412D01*
X124453696Y-84230967D01*
X124446585Y-84207526D01*
X124435033Y-84185915D01*
X124419488Y-84166973D01*
X124400546Y-84151428D01*
X124378935Y-84139877D01*
X124355486Y-84132764D01*
X124331100Y-84130362D01*
X124306713Y-84132764D01*
X124283264Y-84139877D01*
X124261653Y-84151429D01*
X124242711Y-84166974D01*
X124227166Y-84185916D01*
X124215615Y-84207527D01*
X124208504Y-84230967D01*
X124197476Y-84286412D01*
X124129556Y-84450384D01*
X124030953Y-84597954D01*
X123905454Y-84723453D01*
X123757884Y-84822056D01*
X123593912Y-84889976D01*
X123419841Y-84924600D01*
X123242359Y-84924600D01*
X123068288Y-84889976D01*
X122904316Y-84822056D01*
X122756746Y-84723453D01*
X122631247Y-84597954D01*
X122532644Y-84450384D01*
X122464724Y-84286412D01*
X122430100Y-84112341D01*
X122430100Y-83934859D01*
X122464724Y-83760788D01*
X122532644Y-83596816D01*
X122631247Y-83449246D01*
X122756746Y-83323747D01*
X122904316Y-83225144D01*
X123068288Y-83157224D01*
X123242359Y-83122600D01*
X123419841Y-83122600D01*
X123593912Y-83157224D01*
X123593912Y-83157224D01*
G37*
G36*
X179069789Y-83776966D02*
X178007714Y-84839041D01*
X176945639Y-83776966D01*
X178007714Y-82714891D01*
X179069789Y-83776966D01*
X179069789Y-83776966D01*
G37*
G36*
X141945977Y-82976855D02*
X141979955Y-82987163D01*
X142011273Y-83003903D01*
X142043502Y-83030352D01*
X142521648Y-83508498D01*
X142548097Y-83540727D01*
X142564837Y-83572045D01*
X142575145Y-83606023D01*
X142578625Y-83641364D01*
X142575145Y-83676705D01*
X142564837Y-83710683D01*
X142548097Y-83742001D01*
X142521648Y-83774230D01*
X142096536Y-84199342D01*
X142064307Y-84225791D01*
X142032989Y-84242531D01*
X141999011Y-84252839D01*
X141963670Y-84256319D01*
X141928329Y-84252839D01*
X141894351Y-84242531D01*
X141863033Y-84225791D01*
X141830804Y-84199342D01*
X141352658Y-83721196D01*
X141326209Y-83688967D01*
X141309469Y-83657649D01*
X141299161Y-83623671D01*
X141295681Y-83588330D01*
X141299161Y-83552989D01*
X141309469Y-83519011D01*
X141326209Y-83487693D01*
X141352658Y-83455464D01*
X141777770Y-83030352D01*
X141809999Y-83003903D01*
X141841317Y-82987163D01*
X141875295Y-82976855D01*
X141910636Y-82973375D01*
X141945977Y-82976855D01*
X141945977Y-82976855D01*
G37*
G36*
X139352721Y-83099674D02*
X139452995Y-83141209D01*
X139543245Y-83201512D01*
X139619988Y-83278255D01*
X139680291Y-83368505D01*
X139721826Y-83468779D01*
X139743000Y-83575230D01*
X139743000Y-83683770D01*
X139721826Y-83790221D01*
X139680291Y-83890495D01*
X139619988Y-83980745D01*
X139543245Y-84057488D01*
X139452995Y-84117791D01*
X139352721Y-84159326D01*
X139246270Y-84180500D01*
X139137730Y-84180500D01*
X139031279Y-84159326D01*
X138931005Y-84117791D01*
X138840755Y-84057488D01*
X138764012Y-83980745D01*
X138703709Y-83890495D01*
X138662174Y-83790221D01*
X138641000Y-83683770D01*
X138641000Y-83575230D01*
X138662174Y-83468779D01*
X138703709Y-83368505D01*
X138764012Y-83278255D01*
X138840755Y-83201512D01*
X138931005Y-83141209D01*
X139031279Y-83099674D01*
X139137730Y-83078500D01*
X139246270Y-83078500D01*
X139352721Y-83099674D01*
X139352721Y-83099674D01*
G37*
G36*
X136989426Y-83456712D02*
X136351615Y-84094523D01*
X135360250Y-83103158D01*
X135998061Y-82465347D01*
X136989426Y-83456712D01*
X136989426Y-83456712D01*
G37*
G36*
X137894523Y-82551615D02*
X137256712Y-83189426D01*
X136265347Y-82198061D01*
X136903158Y-81560250D01*
X137894523Y-82551615D01*
X137894523Y-82551615D01*
G37*
G36*
X143059671Y-81863161D02*
X143093649Y-81873469D01*
X143124967Y-81890209D01*
X143157196Y-81916658D01*
X143635342Y-82394804D01*
X143661791Y-82427033D01*
X143678531Y-82458351D01*
X143688839Y-82492329D01*
X143692319Y-82527670D01*
X143688839Y-82563011D01*
X143678531Y-82596989D01*
X143661791Y-82628307D01*
X143635342Y-82660536D01*
X143210230Y-83085648D01*
X143178001Y-83112097D01*
X143146683Y-83128837D01*
X143112705Y-83139145D01*
X143077364Y-83142625D01*
X143042023Y-83139145D01*
X143008045Y-83128837D01*
X142976727Y-83112097D01*
X142944498Y-83085648D01*
X142466352Y-82607502D01*
X142439903Y-82575273D01*
X142423163Y-82543955D01*
X142412855Y-82509977D01*
X142409375Y-82474636D01*
X142412855Y-82439295D01*
X142423163Y-82405317D01*
X142439903Y-82373999D01*
X142466352Y-82341770D01*
X142891464Y-81916658D01*
X142923693Y-81890209D01*
X142955011Y-81873469D01*
X142988989Y-81863161D01*
X143024330Y-81859681D01*
X143059671Y-81863161D01*
X143059671Y-81863161D01*
G37*
G36*
X140470824Y-81516355D02*
X140504802Y-81526663D01*
X140536120Y-81543403D01*
X140568349Y-81569852D01*
X141046495Y-82047998D01*
X141072944Y-82080227D01*
X141089684Y-82111545D01*
X141099992Y-82145523D01*
X141103472Y-82180864D01*
X141099992Y-82216205D01*
X141089684Y-82250183D01*
X141072944Y-82281501D01*
X141046495Y-82313730D01*
X140621383Y-82738842D01*
X140589154Y-82765291D01*
X140557836Y-82782031D01*
X140523858Y-82792339D01*
X140488517Y-82795819D01*
X140453176Y-82792339D01*
X140419198Y-82782031D01*
X140387880Y-82765291D01*
X140355651Y-82738842D01*
X139877505Y-82260696D01*
X139851056Y-82228467D01*
X139834316Y-82197149D01*
X139824008Y-82163171D01*
X139820528Y-82127830D01*
X139824008Y-82092489D01*
X139834316Y-82058511D01*
X139851056Y-82027193D01*
X139877505Y-81994964D01*
X140302617Y-81569852D01*
X140334846Y-81543403D01*
X140366164Y-81526663D01*
X140400142Y-81516355D01*
X140435483Y-81512875D01*
X140470824Y-81516355D01*
X140470824Y-81516355D01*
G37*
G36*
X129840576Y-81696016D02*
X129202765Y-82333827D01*
X128211400Y-81342462D01*
X128849211Y-80704651D01*
X129840576Y-81696016D01*
X129840576Y-81696016D01*
G37*
G36*
X138792548Y-81653589D02*
X138154737Y-82291400D01*
X137163372Y-81300035D01*
X137801183Y-80662224D01*
X138792548Y-81653589D01*
X138792548Y-81653589D01*
G37*
G36*
X141584518Y-80402661D02*
X141618496Y-80412969D01*
X141649814Y-80429709D01*
X141682043Y-80456158D01*
X142160189Y-80934304D01*
X142186638Y-80966533D01*
X142203378Y-80997851D01*
X142213686Y-81031829D01*
X142217166Y-81067170D01*
X142213686Y-81102511D01*
X142203378Y-81136489D01*
X142186638Y-81167807D01*
X142160189Y-81200036D01*
X141735077Y-81625148D01*
X141702848Y-81651597D01*
X141671530Y-81668337D01*
X141637552Y-81678645D01*
X141602211Y-81682125D01*
X141566870Y-81678645D01*
X141532892Y-81668337D01*
X141501574Y-81651597D01*
X141469345Y-81625148D01*
X140991199Y-81147002D01*
X140964750Y-81114773D01*
X140948010Y-81083455D01*
X140937702Y-81049477D01*
X140934222Y-81014136D01*
X140937702Y-80978795D01*
X140948010Y-80944817D01*
X140964750Y-80913499D01*
X140991199Y-80881270D01*
X141416311Y-80456158D01*
X141448540Y-80429709D01*
X141479858Y-80412969D01*
X141513836Y-80402661D01*
X141549177Y-80399181D01*
X141584518Y-80402661D01*
X141584518Y-80402661D01*
G37*
G36*
X130745673Y-80790919D02*
X130107862Y-81428730D01*
X129116497Y-80437365D01*
X129754308Y-79799554D01*
X130745673Y-80790919D01*
X130745673Y-80790919D01*
G37*
G36*
X139683503Y-80762635D02*
X139045692Y-81400446D01*
X138054327Y-80409081D01*
X138692138Y-79771270D01*
X139683503Y-80762635D01*
X139683503Y-80762635D01*
G37*
G36*
X121146431Y-77521811D02*
X121474192Y-77657574D01*
X121769173Y-77854674D01*
X122020026Y-78105527D01*
X122217126Y-78400508D01*
X122352889Y-78728269D01*
X122422100Y-79076216D01*
X122422100Y-79430984D01*
X122352889Y-79778931D01*
X122217126Y-80106692D01*
X122020026Y-80401673D01*
X121769173Y-80652526D01*
X121474192Y-80849626D01*
X121146431Y-80985389D01*
X120798484Y-81054600D01*
X120443716Y-81054600D01*
X120095769Y-80985389D01*
X119768008Y-80849626D01*
X119473027Y-80652526D01*
X119222174Y-80401673D01*
X119025074Y-80106692D01*
X118889311Y-79778931D01*
X118820100Y-79430984D01*
X118820100Y-79076216D01*
X118889311Y-78728269D01*
X119025074Y-78400508D01*
X119222174Y-78105527D01*
X119473027Y-77854674D01*
X119768008Y-77657574D01*
X120095769Y-77521811D01*
X120443716Y-77452600D01*
X120798484Y-77452600D01*
X121146431Y-77521811D01*
X121146431Y-77521811D01*
G37*
G36*
X131636628Y-79899965D02*
X130998817Y-80537776D01*
X130007452Y-79546411D01*
X130645263Y-78908600D01*
X131636628Y-79899965D01*
X131636628Y-79899965D01*
G37*
G36*
X140588600Y-79857538D02*
X139950789Y-80495349D01*
X138959424Y-79503984D01*
X139597235Y-78866173D01*
X140588600Y-79857538D01*
X140588600Y-79857538D01*
G37*
G36*
X132534653Y-79001939D02*
X131896842Y-79639750D01*
X130905477Y-78648385D01*
X131543288Y-78010574D01*
X132534653Y-79001939D01*
X132534653Y-79001939D01*
G37*
G36*
X129421824Y-77530508D02*
X129455802Y-77540816D01*
X129487120Y-77557556D01*
X129519349Y-77584005D01*
X129997495Y-78062151D01*
X130023944Y-78094380D01*
X130040684Y-78125698D01*
X130050992Y-78159676D01*
X130054472Y-78195017D01*
X130050992Y-78230358D01*
X130040684Y-78264336D01*
X130023944Y-78295654D01*
X129997495Y-78327883D01*
X129572383Y-78752995D01*
X129540154Y-78779444D01*
X129508836Y-78796184D01*
X129474858Y-78806492D01*
X129439517Y-78809972D01*
X129404176Y-78806492D01*
X129370198Y-78796184D01*
X129338880Y-78779444D01*
X129306651Y-78752995D01*
X128828505Y-78274849D01*
X128802056Y-78242620D01*
X128785316Y-78211302D01*
X128775008Y-78177324D01*
X128771528Y-78141983D01*
X128775008Y-78106642D01*
X128785316Y-78072664D01*
X128802056Y-78041346D01*
X128828505Y-78009117D01*
X129253617Y-77584005D01*
X129285846Y-77557556D01*
X129317164Y-77540816D01*
X129351142Y-77530508D01*
X129386483Y-77527028D01*
X129421824Y-77530508D01*
X129421824Y-77530508D01*
G37*
G36*
X133439750Y-78096842D02*
X132801939Y-78734653D01*
X131810574Y-77743288D01*
X132448385Y-77105477D01*
X133439750Y-78096842D01*
X133439750Y-78096842D01*
G37*
G36*
X134337776Y-77198817D02*
X133699965Y-77836628D01*
X132708600Y-76845263D01*
X133346411Y-76207452D01*
X134337776Y-77198817D01*
X134337776Y-77198817D01*
G37*
G36*
X130535518Y-76416814D02*
X130569496Y-76427122D01*
X130600814Y-76443862D01*
X130633043Y-76470311D01*
X131111189Y-76948457D01*
X131137638Y-76980686D01*
X131154378Y-77012004D01*
X131164686Y-77045982D01*
X131168166Y-77081323D01*
X131164686Y-77116664D01*
X131154378Y-77150642D01*
X131137638Y-77181960D01*
X131111189Y-77214189D01*
X130686077Y-77639301D01*
X130653848Y-77665750D01*
X130622530Y-77682490D01*
X130588552Y-77692798D01*
X130553211Y-77696278D01*
X130517870Y-77692798D01*
X130483892Y-77682490D01*
X130452574Y-77665750D01*
X130420345Y-77639301D01*
X129942199Y-77161155D01*
X129915750Y-77128926D01*
X129899010Y-77097608D01*
X129888702Y-77063630D01*
X129885222Y-77028289D01*
X129888702Y-76992948D01*
X129899010Y-76958970D01*
X129915750Y-76927652D01*
X129942199Y-76895423D01*
X130367311Y-76470311D01*
X130399540Y-76443862D01*
X130430858Y-76427122D01*
X130464836Y-76416814D01*
X130500177Y-76413334D01*
X130535518Y-76416814D01*
X130535518Y-76416814D01*
G37*
G36*
X135228730Y-76307862D02*
X134590919Y-76945673D01*
X133599554Y-75954308D01*
X134237365Y-75316497D01*
X135228730Y-76307862D01*
X135228730Y-76307862D01*
G37*
G36*
X136133827Y-75402765D02*
X135496016Y-76040576D01*
X134504651Y-75049211D01*
X135142462Y-74411400D01*
X136133827Y-75402765D01*
X136133827Y-75402765D01*
G37*
G36*
X132466356Y-70968898D02*
X132572679Y-70990047D01*
X132873142Y-71114503D01*
X133139952Y-71292780D01*
X133143554Y-71295187D01*
X133373513Y-71525146D01*
X133373515Y-71525149D01*
X133554197Y-71795558D01*
X133668128Y-72070611D01*
X133678653Y-72096022D01*
X133742100Y-72414989D01*
X133742100Y-72740211D01*
X133706324Y-72920066D01*
X133678653Y-73059179D01*
X133590650Y-73271637D01*
X133554198Y-73359640D01*
X133373513Y-73630054D01*
X133143554Y-73860013D01*
X133143551Y-73860015D01*
X132873142Y-74040697D01*
X132572679Y-74165153D01*
X132466356Y-74186302D01*
X132253711Y-74228600D01*
X131928489Y-74228600D01*
X131715844Y-74186302D01*
X131609521Y-74165153D01*
X131309058Y-74040697D01*
X131038649Y-73860015D01*
X131038646Y-73860013D01*
X130808687Y-73630054D01*
X130628002Y-73359640D01*
X130591550Y-73271637D01*
X130503547Y-73059179D01*
X130475876Y-72920066D01*
X130440100Y-72740211D01*
X130440100Y-72414989D01*
X130503547Y-72096022D01*
X130514073Y-72070611D01*
X130628003Y-71795558D01*
X130808685Y-71525149D01*
X130808687Y-71525146D01*
X131038646Y-71295187D01*
X131042248Y-71292780D01*
X131309058Y-71114503D01*
X131609521Y-70990047D01*
X131715844Y-70968898D01*
X131928489Y-70926600D01*
X132253711Y-70926600D01*
X132466356Y-70968898D01*
X132466356Y-70968898D01*
G37*
G36*
X177881542Y-71679118D02*
X177947727Y-71685637D01*
X178060953Y-71719984D01*
X178117567Y-71737157D01*
X178256187Y-71811252D01*
X178274091Y-71820822D01*
X178309829Y-71850152D01*
X178411286Y-71933414D01*
X178494548Y-72034871D01*
X178523878Y-72070609D01*
X178523879Y-72070611D01*
X178607543Y-72227133D01*
X178607543Y-72227134D01*
X178659063Y-72396973D01*
X178676459Y-72573600D01*
X178659063Y-72750227D01*
X178624716Y-72863453D01*
X178607543Y-72920067D01*
X178533448Y-73058687D01*
X178523878Y-73076591D01*
X178494548Y-73112329D01*
X178411286Y-73213786D01*
X178309829Y-73297048D01*
X178274091Y-73326378D01*
X178274089Y-73326379D01*
X178117567Y-73410043D01*
X178060953Y-73427216D01*
X177947727Y-73461563D01*
X177881542Y-73468082D01*
X177815360Y-73474600D01*
X177726840Y-73474600D01*
X177660658Y-73468082D01*
X177594473Y-73461563D01*
X177481247Y-73427216D01*
X177424633Y-73410043D01*
X177268111Y-73326379D01*
X177268109Y-73326378D01*
X177232371Y-73297048D01*
X177130914Y-73213786D01*
X177047652Y-73112329D01*
X177018322Y-73076591D01*
X177008752Y-73058687D01*
X176934657Y-72920067D01*
X176917484Y-72863453D01*
X176883137Y-72750227D01*
X176865741Y-72573600D01*
X176883137Y-72396973D01*
X176934657Y-72227134D01*
X176934657Y-72227133D01*
X177018321Y-72070611D01*
X177018322Y-72070609D01*
X177047652Y-72034871D01*
X177130914Y-71933414D01*
X177232371Y-71850152D01*
X177268109Y-71820822D01*
X177286013Y-71811252D01*
X177424633Y-71737157D01*
X177481247Y-71719984D01*
X177594473Y-71685637D01*
X177660658Y-71679118D01*
X177726840Y-71672600D01*
X177815360Y-71672600D01*
X177881542Y-71679118D01*
X177881542Y-71679118D01*
G37*
G36*
X165181542Y-71679118D02*
X165247727Y-71685637D01*
X165360953Y-71719984D01*
X165417567Y-71737157D01*
X165556187Y-71811252D01*
X165574091Y-71820822D01*
X165609829Y-71850152D01*
X165711286Y-71933414D01*
X165794548Y-72034871D01*
X165823878Y-72070609D01*
X165823879Y-72070611D01*
X165907543Y-72227133D01*
X165907543Y-72227134D01*
X165959063Y-72396973D01*
X165976459Y-72573600D01*
X165959063Y-72750227D01*
X165924716Y-72863453D01*
X165907543Y-72920067D01*
X165833448Y-73058687D01*
X165823878Y-73076591D01*
X165794548Y-73112329D01*
X165711286Y-73213786D01*
X165609829Y-73297048D01*
X165574091Y-73326378D01*
X165574089Y-73326379D01*
X165417567Y-73410043D01*
X165360953Y-73427216D01*
X165247727Y-73461563D01*
X165181542Y-73468082D01*
X165115360Y-73474600D01*
X165026840Y-73474600D01*
X164960658Y-73468082D01*
X164894473Y-73461563D01*
X164781247Y-73427216D01*
X164724633Y-73410043D01*
X164568111Y-73326379D01*
X164568109Y-73326378D01*
X164532371Y-73297048D01*
X164430914Y-73213786D01*
X164347652Y-73112329D01*
X164318322Y-73076591D01*
X164308752Y-73058687D01*
X164234657Y-72920067D01*
X164217484Y-72863453D01*
X164183137Y-72750227D01*
X164165741Y-72573600D01*
X164183137Y-72396973D01*
X164234657Y-72227134D01*
X164234657Y-72227133D01*
X164318321Y-72070611D01*
X164318322Y-72070609D01*
X164347652Y-72034871D01*
X164430914Y-71933414D01*
X164532371Y-71850152D01*
X164568109Y-71820822D01*
X164586013Y-71811252D01*
X164724633Y-71737157D01*
X164781247Y-71719984D01*
X164894473Y-71685637D01*
X164960658Y-71679118D01*
X165026840Y-71672600D01*
X165115360Y-71672600D01*
X165181542Y-71679118D01*
X165181542Y-71679118D01*
G37*
G36*
X167721542Y-71679118D02*
X167787727Y-71685637D01*
X167900953Y-71719984D01*
X167957567Y-71737157D01*
X168096187Y-71811252D01*
X168114091Y-71820822D01*
X168149829Y-71850152D01*
X168251286Y-71933414D01*
X168334548Y-72034871D01*
X168363878Y-72070609D01*
X168363879Y-72070611D01*
X168447543Y-72227133D01*
X168447543Y-72227134D01*
X168499063Y-72396973D01*
X168516459Y-72573600D01*
X168499063Y-72750227D01*
X168464716Y-72863453D01*
X168447543Y-72920067D01*
X168373448Y-73058687D01*
X168363878Y-73076591D01*
X168334548Y-73112329D01*
X168251286Y-73213786D01*
X168149829Y-73297048D01*
X168114091Y-73326378D01*
X168114089Y-73326379D01*
X167957567Y-73410043D01*
X167900953Y-73427216D01*
X167787727Y-73461563D01*
X167721542Y-73468082D01*
X167655360Y-73474600D01*
X167566840Y-73474600D01*
X167500658Y-73468082D01*
X167434473Y-73461563D01*
X167321247Y-73427216D01*
X167264633Y-73410043D01*
X167108111Y-73326379D01*
X167108109Y-73326378D01*
X167072371Y-73297048D01*
X166970914Y-73213786D01*
X166887652Y-73112329D01*
X166858322Y-73076591D01*
X166848752Y-73058687D01*
X166774657Y-72920067D01*
X166757484Y-72863453D01*
X166723137Y-72750227D01*
X166705741Y-72573600D01*
X166723137Y-72396973D01*
X166774657Y-72227134D01*
X166774657Y-72227133D01*
X166858321Y-72070611D01*
X166858322Y-72070609D01*
X166887652Y-72034871D01*
X166970914Y-71933414D01*
X167072371Y-71850152D01*
X167108109Y-71820822D01*
X167126013Y-71811252D01*
X167264633Y-71737157D01*
X167321247Y-71719984D01*
X167434473Y-71685637D01*
X167500658Y-71679118D01*
X167566840Y-71672600D01*
X167655360Y-71672600D01*
X167721542Y-71679118D01*
X167721542Y-71679118D01*
G37*
G36*
X170261542Y-71679118D02*
X170327727Y-71685637D01*
X170440953Y-71719984D01*
X170497567Y-71737157D01*
X170636187Y-71811252D01*
X170654091Y-71820822D01*
X170689829Y-71850152D01*
X170791286Y-71933414D01*
X170874548Y-72034871D01*
X170903878Y-72070609D01*
X170903879Y-72070611D01*
X170987543Y-72227133D01*
X170987543Y-72227134D01*
X171039063Y-72396973D01*
X171056459Y-72573600D01*
X171039063Y-72750227D01*
X171004716Y-72863453D01*
X170987543Y-72920067D01*
X170913448Y-73058687D01*
X170903878Y-73076591D01*
X170874548Y-73112329D01*
X170791286Y-73213786D01*
X170689829Y-73297048D01*
X170654091Y-73326378D01*
X170654089Y-73326379D01*
X170497567Y-73410043D01*
X170440953Y-73427216D01*
X170327727Y-73461563D01*
X170261542Y-73468082D01*
X170195360Y-73474600D01*
X170106840Y-73474600D01*
X170040658Y-73468082D01*
X169974473Y-73461563D01*
X169861247Y-73427216D01*
X169804633Y-73410043D01*
X169648111Y-73326379D01*
X169648109Y-73326378D01*
X169612371Y-73297048D01*
X169510914Y-73213786D01*
X169427652Y-73112329D01*
X169398322Y-73076591D01*
X169388752Y-73058687D01*
X169314657Y-72920067D01*
X169297484Y-72863453D01*
X169263137Y-72750227D01*
X169245741Y-72573600D01*
X169263137Y-72396973D01*
X169314657Y-72227134D01*
X169314657Y-72227133D01*
X169398321Y-72070611D01*
X169398322Y-72070609D01*
X169427652Y-72034871D01*
X169510914Y-71933414D01*
X169612371Y-71850152D01*
X169648109Y-71820822D01*
X169666013Y-71811252D01*
X169804633Y-71737157D01*
X169861247Y-71719984D01*
X169974473Y-71685637D01*
X170040658Y-71679118D01*
X170106840Y-71672600D01*
X170195360Y-71672600D01*
X170261542Y-71679118D01*
X170261542Y-71679118D01*
G37*
G36*
X172801542Y-71679118D02*
X172867727Y-71685637D01*
X172980953Y-71719984D01*
X173037567Y-71737157D01*
X173176187Y-71811252D01*
X173194091Y-71820822D01*
X173229829Y-71850152D01*
X173331286Y-71933414D01*
X173414548Y-72034871D01*
X173443878Y-72070609D01*
X173443879Y-72070611D01*
X173527543Y-72227133D01*
X173527543Y-72227134D01*
X173579063Y-72396973D01*
X173596459Y-72573600D01*
X173579063Y-72750227D01*
X173544716Y-72863453D01*
X173527543Y-72920067D01*
X173453448Y-73058687D01*
X173443878Y-73076591D01*
X173414548Y-73112329D01*
X173331286Y-73213786D01*
X173229829Y-73297048D01*
X173194091Y-73326378D01*
X173194089Y-73326379D01*
X173037567Y-73410043D01*
X172980953Y-73427216D01*
X172867727Y-73461563D01*
X172801542Y-73468082D01*
X172735360Y-73474600D01*
X172646840Y-73474600D01*
X172580658Y-73468082D01*
X172514473Y-73461563D01*
X172401247Y-73427216D01*
X172344633Y-73410043D01*
X172188111Y-73326379D01*
X172188109Y-73326378D01*
X172152371Y-73297048D01*
X172050914Y-73213786D01*
X171967652Y-73112329D01*
X171938322Y-73076591D01*
X171928752Y-73058687D01*
X171854657Y-72920067D01*
X171837484Y-72863453D01*
X171803137Y-72750227D01*
X171785741Y-72573600D01*
X171803137Y-72396973D01*
X171854657Y-72227134D01*
X171854657Y-72227133D01*
X171938321Y-72070611D01*
X171938322Y-72070609D01*
X171967652Y-72034871D01*
X172050914Y-71933414D01*
X172152371Y-71850152D01*
X172188109Y-71820822D01*
X172206013Y-71811252D01*
X172344633Y-71737157D01*
X172401247Y-71719984D01*
X172514473Y-71685637D01*
X172580658Y-71679118D01*
X172646840Y-71672600D01*
X172735360Y-71672600D01*
X172801542Y-71679118D01*
X172801542Y-71679118D01*
G37*
G36*
X162641542Y-71679118D02*
X162707727Y-71685637D01*
X162820953Y-71719984D01*
X162877567Y-71737157D01*
X163016187Y-71811252D01*
X163034091Y-71820822D01*
X163069829Y-71850152D01*
X163171286Y-71933414D01*
X163254548Y-72034871D01*
X163283878Y-72070609D01*
X163283879Y-72070611D01*
X163367543Y-72227133D01*
X163367543Y-72227134D01*
X163419063Y-72396973D01*
X163436459Y-72573600D01*
X163419063Y-72750227D01*
X163384716Y-72863453D01*
X163367543Y-72920067D01*
X163293448Y-73058687D01*
X163283878Y-73076591D01*
X163254548Y-73112329D01*
X163171286Y-73213786D01*
X163069829Y-73297048D01*
X163034091Y-73326378D01*
X163034089Y-73326379D01*
X162877567Y-73410043D01*
X162820953Y-73427216D01*
X162707727Y-73461563D01*
X162641542Y-73468082D01*
X162575360Y-73474600D01*
X162486840Y-73474600D01*
X162420658Y-73468082D01*
X162354473Y-73461563D01*
X162241247Y-73427216D01*
X162184633Y-73410043D01*
X162028111Y-73326379D01*
X162028109Y-73326378D01*
X161992371Y-73297048D01*
X161890914Y-73213786D01*
X161807652Y-73112329D01*
X161778322Y-73076591D01*
X161768752Y-73058687D01*
X161694657Y-72920067D01*
X161677484Y-72863453D01*
X161643137Y-72750227D01*
X161625741Y-72573600D01*
X161643137Y-72396973D01*
X161694657Y-72227134D01*
X161694657Y-72227133D01*
X161778321Y-72070611D01*
X161778322Y-72070609D01*
X161807652Y-72034871D01*
X161890914Y-71933414D01*
X161992371Y-71850152D01*
X162028109Y-71820822D01*
X162046013Y-71811252D01*
X162184633Y-71737157D01*
X162241247Y-71719984D01*
X162354473Y-71685637D01*
X162420658Y-71679118D01*
X162486840Y-71672600D01*
X162575360Y-71672600D01*
X162641542Y-71679118D01*
X162641542Y-71679118D01*
G37*
G36*
X159368100Y-73474600D02*
X157566100Y-73474600D01*
X157566100Y-71672600D01*
X159368100Y-71672600D01*
X159368100Y-73474600D01*
X159368100Y-73474600D01*
G37*
G36*
X156037542Y-71679118D02*
X156103727Y-71685637D01*
X156216953Y-71719984D01*
X156273567Y-71737157D01*
X156412187Y-71811252D01*
X156430091Y-71820822D01*
X156465829Y-71850152D01*
X156567286Y-71933414D01*
X156650548Y-72034871D01*
X156679878Y-72070609D01*
X156679879Y-72070611D01*
X156763543Y-72227133D01*
X156763543Y-72227134D01*
X156815063Y-72396973D01*
X156832459Y-72573600D01*
X156815063Y-72750227D01*
X156780716Y-72863453D01*
X156763543Y-72920067D01*
X156689448Y-73058687D01*
X156679878Y-73076591D01*
X156650548Y-73112329D01*
X156567286Y-73213786D01*
X156465829Y-73297048D01*
X156430091Y-73326378D01*
X156430089Y-73326379D01*
X156273567Y-73410043D01*
X156216953Y-73427216D01*
X156103727Y-73461563D01*
X156037542Y-73468082D01*
X155971360Y-73474600D01*
X155882840Y-73474600D01*
X155816658Y-73468082D01*
X155750473Y-73461563D01*
X155637247Y-73427216D01*
X155580633Y-73410043D01*
X155424111Y-73326379D01*
X155424109Y-73326378D01*
X155388371Y-73297048D01*
X155286914Y-73213786D01*
X155203652Y-73112329D01*
X155174322Y-73076591D01*
X155164752Y-73058687D01*
X155090657Y-72920067D01*
X155073484Y-72863453D01*
X155039137Y-72750227D01*
X155021741Y-72573600D01*
X155039137Y-72396973D01*
X155090657Y-72227134D01*
X155090657Y-72227133D01*
X155174321Y-72070611D01*
X155174322Y-72070609D01*
X155203652Y-72034871D01*
X155286914Y-71933414D01*
X155388371Y-71850152D01*
X155424109Y-71820822D01*
X155442013Y-71811252D01*
X155580633Y-71737157D01*
X155637247Y-71719984D01*
X155750473Y-71685637D01*
X155816658Y-71679118D01*
X155882840Y-71672600D01*
X155971360Y-71672600D01*
X156037542Y-71679118D01*
X156037542Y-71679118D01*
G37*
G36*
X153497542Y-71679118D02*
X153563727Y-71685637D01*
X153676953Y-71719984D01*
X153733567Y-71737157D01*
X153872187Y-71811252D01*
X153890091Y-71820822D01*
X153925829Y-71850152D01*
X154027286Y-71933414D01*
X154110548Y-72034871D01*
X154139878Y-72070609D01*
X154139879Y-72070611D01*
X154223543Y-72227133D01*
X154223543Y-72227134D01*
X154275063Y-72396973D01*
X154292459Y-72573600D01*
X154275063Y-72750227D01*
X154240716Y-72863453D01*
X154223543Y-72920067D01*
X154149448Y-73058687D01*
X154139878Y-73076591D01*
X154110548Y-73112329D01*
X154027286Y-73213786D01*
X153925829Y-73297048D01*
X153890091Y-73326378D01*
X153890089Y-73326379D01*
X153733567Y-73410043D01*
X153676953Y-73427216D01*
X153563727Y-73461563D01*
X153497542Y-73468082D01*
X153431360Y-73474600D01*
X153342840Y-73474600D01*
X153276658Y-73468082D01*
X153210473Y-73461563D01*
X153097247Y-73427216D01*
X153040633Y-73410043D01*
X152884111Y-73326379D01*
X152884109Y-73326378D01*
X152848371Y-73297048D01*
X152746914Y-73213786D01*
X152663652Y-73112329D01*
X152634322Y-73076591D01*
X152624752Y-73058687D01*
X152550657Y-72920067D01*
X152533484Y-72863453D01*
X152499137Y-72750227D01*
X152481741Y-72573600D01*
X152499137Y-72396973D01*
X152550657Y-72227134D01*
X152550657Y-72227133D01*
X152634321Y-72070611D01*
X152634322Y-72070609D01*
X152663652Y-72034871D01*
X152746914Y-71933414D01*
X152848371Y-71850152D01*
X152884109Y-71820822D01*
X152902013Y-71811252D01*
X153040633Y-71737157D01*
X153097247Y-71719984D01*
X153210473Y-71685637D01*
X153276658Y-71679118D01*
X153342840Y-71672600D01*
X153431360Y-71672600D01*
X153497542Y-71679118D01*
X153497542Y-71679118D01*
G37*
G36*
X150957542Y-71679118D02*
X151023727Y-71685637D01*
X151136953Y-71719984D01*
X151193567Y-71737157D01*
X151332187Y-71811252D01*
X151350091Y-71820822D01*
X151385829Y-71850152D01*
X151487286Y-71933414D01*
X151570548Y-72034871D01*
X151599878Y-72070609D01*
X151599879Y-72070611D01*
X151683543Y-72227133D01*
X151683543Y-72227134D01*
X151735063Y-72396973D01*
X151752459Y-72573600D01*
X151735063Y-72750227D01*
X151700716Y-72863453D01*
X151683543Y-72920067D01*
X151609448Y-73058687D01*
X151599878Y-73076591D01*
X151570548Y-73112329D01*
X151487286Y-73213786D01*
X151385829Y-73297048D01*
X151350091Y-73326378D01*
X151350089Y-73326379D01*
X151193567Y-73410043D01*
X151136953Y-73427216D01*
X151023727Y-73461563D01*
X150957542Y-73468082D01*
X150891360Y-73474600D01*
X150802840Y-73474600D01*
X150736658Y-73468082D01*
X150670473Y-73461563D01*
X150557247Y-73427216D01*
X150500633Y-73410043D01*
X150344111Y-73326379D01*
X150344109Y-73326378D01*
X150308371Y-73297048D01*
X150206914Y-73213786D01*
X150123652Y-73112329D01*
X150094322Y-73076591D01*
X150084752Y-73058687D01*
X150010657Y-72920067D01*
X149993484Y-72863453D01*
X149959137Y-72750227D01*
X149941741Y-72573600D01*
X149959137Y-72396973D01*
X150010657Y-72227134D01*
X150010657Y-72227133D01*
X150094321Y-72070611D01*
X150094322Y-72070609D01*
X150123652Y-72034871D01*
X150206914Y-71933414D01*
X150308371Y-71850152D01*
X150344109Y-71820822D01*
X150362013Y-71811252D01*
X150500633Y-71737157D01*
X150557247Y-71719984D01*
X150670473Y-71685637D01*
X150736658Y-71679118D01*
X150802840Y-71672600D01*
X150891360Y-71672600D01*
X150957542Y-71679118D01*
X150957542Y-71679118D01*
G37*
G36*
X148417542Y-71679118D02*
X148483727Y-71685637D01*
X148596953Y-71719984D01*
X148653567Y-71737157D01*
X148792187Y-71811252D01*
X148810091Y-71820822D01*
X148845829Y-71850152D01*
X148947286Y-71933414D01*
X149030548Y-72034871D01*
X149059878Y-72070609D01*
X149059879Y-72070611D01*
X149143543Y-72227133D01*
X149143543Y-72227134D01*
X149195063Y-72396973D01*
X149212459Y-72573600D01*
X149195063Y-72750227D01*
X149160716Y-72863453D01*
X149143543Y-72920067D01*
X149069448Y-73058687D01*
X149059878Y-73076591D01*
X149030548Y-73112329D01*
X148947286Y-73213786D01*
X148845829Y-73297048D01*
X148810091Y-73326378D01*
X148810089Y-73326379D01*
X148653567Y-73410043D01*
X148596953Y-73427216D01*
X148483727Y-73461563D01*
X148417542Y-73468082D01*
X148351360Y-73474600D01*
X148262840Y-73474600D01*
X148196658Y-73468082D01*
X148130473Y-73461563D01*
X148017247Y-73427216D01*
X147960633Y-73410043D01*
X147804111Y-73326379D01*
X147804109Y-73326378D01*
X147768371Y-73297048D01*
X147666914Y-73213786D01*
X147583652Y-73112329D01*
X147554322Y-73076591D01*
X147544752Y-73058687D01*
X147470657Y-72920067D01*
X147453484Y-72863453D01*
X147419137Y-72750227D01*
X147401741Y-72573600D01*
X147419137Y-72396973D01*
X147470657Y-72227134D01*
X147470657Y-72227133D01*
X147554321Y-72070611D01*
X147554322Y-72070609D01*
X147583652Y-72034871D01*
X147666914Y-71933414D01*
X147768371Y-71850152D01*
X147804109Y-71820822D01*
X147822013Y-71811252D01*
X147960633Y-71737157D01*
X148017247Y-71719984D01*
X148130473Y-71685637D01*
X148196658Y-71679118D01*
X148262840Y-71672600D01*
X148351360Y-71672600D01*
X148417542Y-71679118D01*
X148417542Y-71679118D01*
G37*
G36*
X145877542Y-71679118D02*
X145943727Y-71685637D01*
X146056953Y-71719984D01*
X146113567Y-71737157D01*
X146252187Y-71811252D01*
X146270091Y-71820822D01*
X146305829Y-71850152D01*
X146407286Y-71933414D01*
X146490548Y-72034871D01*
X146519878Y-72070609D01*
X146519879Y-72070611D01*
X146603543Y-72227133D01*
X146603543Y-72227134D01*
X146655063Y-72396973D01*
X146672459Y-72573600D01*
X146655063Y-72750227D01*
X146620716Y-72863453D01*
X146603543Y-72920067D01*
X146529448Y-73058687D01*
X146519878Y-73076591D01*
X146490548Y-73112329D01*
X146407286Y-73213786D01*
X146305829Y-73297048D01*
X146270091Y-73326378D01*
X146270089Y-73326379D01*
X146113567Y-73410043D01*
X146056953Y-73427216D01*
X145943727Y-73461563D01*
X145877542Y-73468082D01*
X145811360Y-73474600D01*
X145722840Y-73474600D01*
X145656658Y-73468082D01*
X145590473Y-73461563D01*
X145477247Y-73427216D01*
X145420633Y-73410043D01*
X145264111Y-73326379D01*
X145264109Y-73326378D01*
X145228371Y-73297048D01*
X145126914Y-73213786D01*
X145043652Y-73112329D01*
X145014322Y-73076591D01*
X145004752Y-73058687D01*
X144930657Y-72920067D01*
X144913484Y-72863453D01*
X144879137Y-72750227D01*
X144861741Y-72573600D01*
X144879137Y-72396973D01*
X144930657Y-72227134D01*
X144930657Y-72227133D01*
X145014321Y-72070611D01*
X145014322Y-72070609D01*
X145043652Y-72034871D01*
X145126914Y-71933414D01*
X145228371Y-71850152D01*
X145264109Y-71820822D01*
X145282013Y-71811252D01*
X145420633Y-71737157D01*
X145477247Y-71719984D01*
X145590473Y-71685637D01*
X145656658Y-71679118D01*
X145722840Y-71672600D01*
X145811360Y-71672600D01*
X145877542Y-71679118D01*
X145877542Y-71679118D01*
G37*
G36*
X143337542Y-71679118D02*
X143403727Y-71685637D01*
X143516953Y-71719984D01*
X143573567Y-71737157D01*
X143712187Y-71811252D01*
X143730091Y-71820822D01*
X143765829Y-71850152D01*
X143867286Y-71933414D01*
X143950548Y-72034871D01*
X143979878Y-72070609D01*
X143979879Y-72070611D01*
X144063543Y-72227133D01*
X144063543Y-72227134D01*
X144115063Y-72396973D01*
X144132459Y-72573600D01*
X144115063Y-72750227D01*
X144080716Y-72863453D01*
X144063543Y-72920067D01*
X143989448Y-73058687D01*
X143979878Y-73076591D01*
X143950548Y-73112329D01*
X143867286Y-73213786D01*
X143765829Y-73297048D01*
X143730091Y-73326378D01*
X143730089Y-73326379D01*
X143573567Y-73410043D01*
X143516953Y-73427216D01*
X143403727Y-73461563D01*
X143337542Y-73468082D01*
X143271360Y-73474600D01*
X143182840Y-73474600D01*
X143116658Y-73468082D01*
X143050473Y-73461563D01*
X142937247Y-73427216D01*
X142880633Y-73410043D01*
X142724111Y-73326379D01*
X142724109Y-73326378D01*
X142688371Y-73297048D01*
X142586914Y-73213786D01*
X142503652Y-73112329D01*
X142474322Y-73076591D01*
X142464752Y-73058687D01*
X142390657Y-72920067D01*
X142373484Y-72863453D01*
X142339137Y-72750227D01*
X142321741Y-72573600D01*
X142339137Y-72396973D01*
X142390657Y-72227134D01*
X142390657Y-72227133D01*
X142474321Y-72070611D01*
X142474322Y-72070609D01*
X142503652Y-72034871D01*
X142586914Y-71933414D01*
X142688371Y-71850152D01*
X142724109Y-71820822D01*
X142742013Y-71811252D01*
X142880633Y-71737157D01*
X142937247Y-71719984D01*
X143050473Y-71685637D01*
X143116658Y-71679118D01*
X143182840Y-71672600D01*
X143271360Y-71672600D01*
X143337542Y-71679118D01*
X143337542Y-71679118D01*
G37*
G36*
X140797542Y-71679118D02*
X140863727Y-71685637D01*
X140976953Y-71719984D01*
X141033567Y-71737157D01*
X141172187Y-71811252D01*
X141190091Y-71820822D01*
X141225829Y-71850152D01*
X141327286Y-71933414D01*
X141410548Y-72034871D01*
X141439878Y-72070609D01*
X141439879Y-72070611D01*
X141523543Y-72227133D01*
X141523543Y-72227134D01*
X141575063Y-72396973D01*
X141592459Y-72573600D01*
X141575063Y-72750227D01*
X141540716Y-72863453D01*
X141523543Y-72920067D01*
X141449448Y-73058687D01*
X141439878Y-73076591D01*
X141410548Y-73112329D01*
X141327286Y-73213786D01*
X141225829Y-73297048D01*
X141190091Y-73326378D01*
X141190089Y-73326379D01*
X141033567Y-73410043D01*
X140976953Y-73427216D01*
X140863727Y-73461563D01*
X140797542Y-73468082D01*
X140731360Y-73474600D01*
X140642840Y-73474600D01*
X140576658Y-73468082D01*
X140510473Y-73461563D01*
X140397247Y-73427216D01*
X140340633Y-73410043D01*
X140184111Y-73326379D01*
X140184109Y-73326378D01*
X140148371Y-73297048D01*
X140046914Y-73213786D01*
X139963652Y-73112329D01*
X139934322Y-73076591D01*
X139924752Y-73058687D01*
X139850657Y-72920067D01*
X139833484Y-72863453D01*
X139799137Y-72750227D01*
X139781741Y-72573600D01*
X139799137Y-72396973D01*
X139850657Y-72227134D01*
X139850657Y-72227133D01*
X139934321Y-72070611D01*
X139934322Y-72070609D01*
X139963652Y-72034871D01*
X140046914Y-71933414D01*
X140148371Y-71850152D01*
X140184109Y-71820822D01*
X140202013Y-71811252D01*
X140340633Y-71737157D01*
X140397247Y-71719984D01*
X140510473Y-71685637D01*
X140576658Y-71679118D01*
X140642840Y-71672600D01*
X140731360Y-71672600D01*
X140797542Y-71679118D01*
X140797542Y-71679118D01*
G37*
G36*
X175341542Y-71679118D02*
X175407727Y-71685637D01*
X175520953Y-71719984D01*
X175577567Y-71737157D01*
X175716187Y-71811252D01*
X175734091Y-71820822D01*
X175769829Y-71850152D01*
X175871286Y-71933414D01*
X175954548Y-72034871D01*
X175983878Y-72070609D01*
X175983879Y-72070611D01*
X176067543Y-72227133D01*
X176067543Y-72227134D01*
X176119063Y-72396973D01*
X176136459Y-72573600D01*
X176119063Y-72750227D01*
X176084716Y-72863453D01*
X176067543Y-72920067D01*
X175993448Y-73058687D01*
X175983878Y-73076591D01*
X175954548Y-73112329D01*
X175871286Y-73213786D01*
X175769829Y-73297048D01*
X175734091Y-73326378D01*
X175734089Y-73326379D01*
X175577567Y-73410043D01*
X175520953Y-73427216D01*
X175407727Y-73461563D01*
X175341542Y-73468082D01*
X175275360Y-73474600D01*
X175186840Y-73474600D01*
X175120658Y-73468082D01*
X175054473Y-73461563D01*
X174941247Y-73427216D01*
X174884633Y-73410043D01*
X174728111Y-73326379D01*
X174728109Y-73326378D01*
X174692371Y-73297048D01*
X174590914Y-73213786D01*
X174507652Y-73112329D01*
X174478322Y-73076591D01*
X174468752Y-73058687D01*
X174394657Y-72920067D01*
X174377484Y-72863453D01*
X174343137Y-72750227D01*
X174325741Y-72573600D01*
X174343137Y-72396973D01*
X174394657Y-72227134D01*
X174394657Y-72227133D01*
X174478321Y-72070611D01*
X174478322Y-72070609D01*
X174507652Y-72034871D01*
X174590914Y-71933414D01*
X174692371Y-71850152D01*
X174728109Y-71820822D01*
X174746013Y-71811252D01*
X174884633Y-71737157D01*
X174941247Y-71719984D01*
X175054473Y-71685637D01*
X175120658Y-71679118D01*
X175186840Y-71672600D01*
X175275360Y-71672600D01*
X175341542Y-71679118D01*
X175341542Y-71679118D01*
G37*
G36*
X181212100Y-73474600D02*
X179410100Y-73474600D01*
X179410100Y-71672600D01*
X181212100Y-71672600D01*
X181212100Y-73474600D01*
X181212100Y-73474600D01*
G37*
M02*
